%TF.GenerationSoftware,KiCad,Pcbnew,(5.1.10)-1*%
%TF.CreationDate,2021-12-05T17:06:37+00:00*%
%TF.ProjectId,devboard,64657662-6f61-4726-942e-6b696361645f,rev?*%
%TF.SameCoordinates,Original*%
%TF.FileFunction,Legend,Top*%
%TF.FilePolarity,Positive*%
%FSLAX46Y46*%
G04 Gerber Fmt 4.6, Leading zero omitted, Abs format (unit mm)*
G04 Created by KiCad (PCBNEW (5.1.10)-1) date 2021-12-05 17:06:37*
%MOMM*%
%LPD*%
G01*
G04 APERTURE LIST*
%ADD10C,0.200000*%
%ADD11C,0.150000*%
%ADD12C,0.100000*%
%ADD13C,0.120000*%
%ADD14C,0.254000*%
G04 APERTURE END LIST*
D10*
X85685380Y-88415190D02*
X85685380Y-87843761D01*
X86685380Y-88129476D02*
X85685380Y-88129476D01*
X86685380Y-87510428D02*
X85685380Y-87510428D01*
X86161571Y-87510428D02*
X86161571Y-86939000D01*
X86685380Y-86939000D02*
X85685380Y-86939000D01*
X86685380Y-86462809D02*
X85685380Y-86462809D01*
X86637761Y-86034238D02*
X86685380Y-85891380D01*
X86685380Y-85653285D01*
X86637761Y-85558047D01*
X86590142Y-85510428D01*
X86494904Y-85462809D01*
X86399666Y-85462809D01*
X86304428Y-85510428D01*
X86256809Y-85558047D01*
X86209190Y-85653285D01*
X86161571Y-85843761D01*
X86113952Y-85939000D01*
X86066333Y-85986619D01*
X85971095Y-86034238D01*
X85875857Y-86034238D01*
X85780619Y-85986619D01*
X85733000Y-85939000D01*
X85685380Y-85843761D01*
X85685380Y-85605666D01*
X85733000Y-85462809D01*
X86637761Y-84319952D02*
X86685380Y-84177095D01*
X86685380Y-83939000D01*
X86637761Y-83843761D01*
X86590142Y-83796142D01*
X86494904Y-83748523D01*
X86399666Y-83748523D01*
X86304428Y-83796142D01*
X86256809Y-83843761D01*
X86209190Y-83939000D01*
X86161571Y-84129476D01*
X86113952Y-84224714D01*
X86066333Y-84272333D01*
X85971095Y-84319952D01*
X85875857Y-84319952D01*
X85780619Y-84272333D01*
X85733000Y-84224714D01*
X85685380Y-84129476D01*
X85685380Y-83891380D01*
X85733000Y-83748523D01*
X86685380Y-83319952D02*
X85685380Y-83319952D01*
X86685380Y-82843761D02*
X85685380Y-82843761D01*
X85685380Y-82605666D01*
X85733000Y-82462809D01*
X85828238Y-82367571D01*
X85923476Y-82319952D01*
X86113952Y-82272333D01*
X86256809Y-82272333D01*
X86447285Y-82319952D01*
X86542523Y-82367571D01*
X86637761Y-82462809D01*
X86685380Y-82605666D01*
X86685380Y-82843761D01*
X86161571Y-81843761D02*
X86161571Y-81510428D01*
X86685380Y-81367571D02*
X86685380Y-81843761D01*
X85685380Y-81843761D01*
X85685380Y-81367571D01*
X85685380Y-80177095D02*
X86494904Y-80177095D01*
X86590142Y-80129476D01*
X86637761Y-80081857D01*
X86685380Y-79986619D01*
X86685380Y-79796142D01*
X86637761Y-79700904D01*
X86590142Y-79653285D01*
X86494904Y-79605666D01*
X85685380Y-79605666D01*
X86685380Y-79129476D02*
X85685380Y-79129476D01*
X85685380Y-78748523D01*
X85733000Y-78653285D01*
X85780619Y-78605666D01*
X85875857Y-78558047D01*
X86018714Y-78558047D01*
X86113952Y-78605666D01*
X86161571Y-78653285D01*
X86209190Y-78748523D01*
X86209190Y-79129476D01*
D11*
X179205380Y-99740404D02*
X178205380Y-99740404D01*
X178205380Y-99359452D01*
X178253000Y-99264214D01*
X178300619Y-99216595D01*
X178395857Y-99168976D01*
X178538714Y-99168976D01*
X178633952Y-99216595D01*
X178681571Y-99264214D01*
X178729190Y-99359452D01*
X178729190Y-99740404D01*
X179110142Y-98168976D02*
X179157761Y-98216595D01*
X179205380Y-98359452D01*
X179205380Y-98454690D01*
X179157761Y-98597547D01*
X179062523Y-98692785D01*
X178967285Y-98740404D01*
X178776809Y-98788023D01*
X178633952Y-98788023D01*
X178443476Y-98740404D01*
X178348238Y-98692785D01*
X178253000Y-98597547D01*
X178205380Y-98454690D01*
X178205380Y-98359452D01*
X178253000Y-98216595D01*
X178300619Y-98168976D01*
X179205380Y-97740404D02*
X178205380Y-97740404D01*
X178919666Y-97407071D01*
X178205380Y-97073738D01*
X179205380Y-97073738D01*
X179110142Y-96026119D02*
X179157761Y-96073738D01*
X179205380Y-96216595D01*
X179205380Y-96311833D01*
X179157761Y-96454690D01*
X179062523Y-96549928D01*
X178967285Y-96597547D01*
X178776809Y-96645166D01*
X178633952Y-96645166D01*
X178443476Y-96597547D01*
X178348238Y-96549928D01*
X178253000Y-96454690D01*
X178205380Y-96311833D01*
X178205380Y-96216595D01*
X178253000Y-96073738D01*
X178300619Y-96026119D01*
X179205380Y-95597547D02*
X178205380Y-95597547D01*
X178919666Y-95168976D02*
X178919666Y-94692785D01*
X179205380Y-95264214D02*
X178205380Y-94930880D01*
X179205380Y-94597547D01*
X179205380Y-93502309D02*
X178205380Y-93502309D01*
X178205380Y-93121357D01*
X178253000Y-93026119D01*
X178300619Y-92978500D01*
X178395857Y-92930880D01*
X178538714Y-92930880D01*
X178633952Y-92978500D01*
X178681571Y-93026119D01*
X178729190Y-93121357D01*
X178729190Y-93502309D01*
X179110142Y-91930880D02*
X179157761Y-91978500D01*
X179205380Y-92121357D01*
X179205380Y-92216595D01*
X179157761Y-92359452D01*
X179062523Y-92454690D01*
X178967285Y-92502309D01*
X178776809Y-92549928D01*
X178633952Y-92549928D01*
X178443476Y-92502309D01*
X178348238Y-92454690D01*
X178253000Y-92359452D01*
X178205380Y-92216595D01*
X178205380Y-92121357D01*
X178253000Y-91978500D01*
X178300619Y-91930880D01*
X179110142Y-90168976D02*
X179157761Y-90216595D01*
X179205380Y-90359452D01*
X179205380Y-90454690D01*
X179157761Y-90597547D01*
X179062523Y-90692785D01*
X178967285Y-90740404D01*
X178776809Y-90788023D01*
X178633952Y-90788023D01*
X178443476Y-90740404D01*
X178348238Y-90692785D01*
X178253000Y-90597547D01*
X178205380Y-90454690D01*
X178205380Y-90359452D01*
X178253000Y-90216595D01*
X178300619Y-90168976D01*
X179205380Y-89311833D02*
X178681571Y-89311833D01*
X178586333Y-89359452D01*
X178538714Y-89454690D01*
X178538714Y-89645166D01*
X178586333Y-89740404D01*
X179157761Y-89311833D02*
X179205380Y-89407071D01*
X179205380Y-89645166D01*
X179157761Y-89740404D01*
X179062523Y-89788023D01*
X178967285Y-89788023D01*
X178872047Y-89740404D01*
X178824428Y-89645166D01*
X178824428Y-89407071D01*
X178776809Y-89311833D01*
X179205380Y-88835642D02*
X178538714Y-88835642D01*
X178729190Y-88835642D02*
X178633952Y-88788023D01*
X178586333Y-88740404D01*
X178538714Y-88645166D01*
X178538714Y-88549928D01*
X179205380Y-87788023D02*
X178205380Y-87788023D01*
X179157761Y-87788023D02*
X179205380Y-87883261D01*
X179205380Y-88073738D01*
X179157761Y-88168976D01*
X179110142Y-88216595D01*
X179014904Y-88264214D01*
X178729190Y-88264214D01*
X178633952Y-88216595D01*
X178586333Y-88168976D01*
X178538714Y-88073738D01*
X178538714Y-87883261D01*
X178586333Y-87788023D01*
X178681571Y-86549928D02*
X178681571Y-86216595D01*
X179205380Y-86073738D02*
X179205380Y-86549928D01*
X178205380Y-86549928D01*
X178205380Y-86073738D01*
X179205380Y-85740404D02*
X178538714Y-85216595D01*
X178538714Y-85740404D02*
X179205380Y-85216595D01*
X178538714Y-84978500D02*
X178538714Y-84597547D01*
X178205380Y-84835642D02*
X179062523Y-84835642D01*
X179157761Y-84788023D01*
X179205380Y-84692785D01*
X179205380Y-84597547D01*
X179157761Y-83883261D02*
X179205380Y-83978500D01*
X179205380Y-84168976D01*
X179157761Y-84264214D01*
X179062523Y-84311833D01*
X178681571Y-84311833D01*
X178586333Y-84264214D01*
X178538714Y-84168976D01*
X178538714Y-83978500D01*
X178586333Y-83883261D01*
X178681571Y-83835642D01*
X178776809Y-83835642D01*
X178872047Y-84311833D01*
X178538714Y-83407071D02*
X179205380Y-83407071D01*
X178633952Y-83407071D02*
X178586333Y-83359452D01*
X178538714Y-83264214D01*
X178538714Y-83121357D01*
X178586333Y-83026119D01*
X178681571Y-82978500D01*
X179205380Y-82978500D01*
X179205380Y-82073738D02*
X178205380Y-82073738D01*
X179157761Y-82073738D02*
X179205380Y-82168976D01*
X179205380Y-82359452D01*
X179157761Y-82454690D01*
X179110142Y-82502309D01*
X179014904Y-82549928D01*
X178729190Y-82549928D01*
X178633952Y-82502309D01*
X178586333Y-82454690D01*
X178538714Y-82359452D01*
X178538714Y-82168976D01*
X178586333Y-82073738D01*
X179157761Y-81216595D02*
X179205380Y-81311833D01*
X179205380Y-81502309D01*
X179157761Y-81597547D01*
X179062523Y-81645166D01*
X178681571Y-81645166D01*
X178586333Y-81597547D01*
X178538714Y-81502309D01*
X178538714Y-81311833D01*
X178586333Y-81216595D01*
X178681571Y-81168976D01*
X178776809Y-81168976D01*
X178872047Y-81645166D01*
X179205380Y-80740404D02*
X178538714Y-80740404D01*
X178729190Y-80740404D02*
X178633952Y-80692785D01*
X178586333Y-80645166D01*
X178538714Y-80549928D01*
X178538714Y-80454690D01*
X180188714Y-99835642D02*
X180855380Y-99597547D01*
X180188714Y-99359452D02*
X180855380Y-99597547D01*
X181093476Y-99692785D01*
X181141095Y-99740404D01*
X181188714Y-99835642D01*
X180855380Y-98835642D02*
X180807761Y-98930880D01*
X180760142Y-98978500D01*
X180664904Y-99026119D01*
X180379190Y-99026119D01*
X180283952Y-98978500D01*
X180236333Y-98930880D01*
X180188714Y-98835642D01*
X180188714Y-98692785D01*
X180236333Y-98597547D01*
X180283952Y-98549928D01*
X180379190Y-98502309D01*
X180664904Y-98502309D01*
X180760142Y-98549928D01*
X180807761Y-98597547D01*
X180855380Y-98692785D01*
X180855380Y-98835642D01*
X180188714Y-98216595D02*
X180188714Y-97835642D01*
X179855380Y-98073738D02*
X180712523Y-98073738D01*
X180807761Y-98026119D01*
X180855380Y-97930880D01*
X180855380Y-97835642D01*
X180188714Y-97645166D02*
X180188714Y-97264214D01*
X179855380Y-97502309D02*
X180712523Y-97502309D01*
X180807761Y-97454690D01*
X180855380Y-97359452D01*
X180855380Y-97264214D01*
X180855380Y-96502309D02*
X180331571Y-96502309D01*
X180236333Y-96549928D01*
X180188714Y-96645166D01*
X180188714Y-96835642D01*
X180236333Y-96930880D01*
X180807761Y-96502309D02*
X180855380Y-96597547D01*
X180855380Y-96835642D01*
X180807761Y-96930880D01*
X180712523Y-96978500D01*
X180617285Y-96978500D01*
X180522047Y-96930880D01*
X180474428Y-96835642D01*
X180474428Y-96597547D01*
X180426809Y-96502309D01*
X180188714Y-96168976D02*
X180188714Y-95788023D01*
X179855380Y-96026119D02*
X180712523Y-96026119D01*
X180807761Y-95978500D01*
X180855380Y-95883261D01*
X180855380Y-95788023D01*
X180807761Y-95502309D02*
X180855380Y-95407071D01*
X180855380Y-95216595D01*
X180807761Y-95121357D01*
X180712523Y-95073738D01*
X180664904Y-95073738D01*
X180569666Y-95121357D01*
X180522047Y-95216595D01*
X180522047Y-95359452D01*
X180474428Y-95454690D01*
X180379190Y-95502309D01*
X180331571Y-95502309D01*
X180236333Y-95454690D01*
X180188714Y-95359452D01*
X180188714Y-95216595D01*
X180236333Y-95121357D01*
X180855380Y-94216595D02*
X180331571Y-94216595D01*
X180236333Y-94264214D01*
X180188714Y-94359452D01*
X180188714Y-94549928D01*
X180236333Y-94645166D01*
X180807761Y-94216595D02*
X180855380Y-94311833D01*
X180855380Y-94549928D01*
X180807761Y-94645166D01*
X180712523Y-94692785D01*
X180617285Y-94692785D01*
X180522047Y-94645166D01*
X180474428Y-94549928D01*
X180474428Y-94311833D01*
X180426809Y-94216595D01*
X180760142Y-93740404D02*
X180807761Y-93692785D01*
X180855380Y-93740404D01*
X180807761Y-93788023D01*
X180760142Y-93740404D01*
X180855380Y-93740404D01*
X180188714Y-93264214D02*
X180855380Y-93264214D01*
X180283952Y-93264214D02*
X180236333Y-93216595D01*
X180188714Y-93121357D01*
X180188714Y-92978500D01*
X180236333Y-92883261D01*
X180331571Y-92835642D01*
X180855380Y-92835642D01*
X180855380Y-91930880D02*
X180331571Y-91930880D01*
X180236333Y-91978500D01*
X180188714Y-92073738D01*
X180188714Y-92264214D01*
X180236333Y-92359452D01*
X180807761Y-91930880D02*
X180855380Y-92026119D01*
X180855380Y-92264214D01*
X180807761Y-92359452D01*
X180712523Y-92407071D01*
X180617285Y-92407071D01*
X180522047Y-92359452D01*
X180474428Y-92264214D01*
X180474428Y-92026119D01*
X180426809Y-91930880D01*
X180855380Y-91454690D02*
X180188714Y-91454690D01*
X180283952Y-91454690D02*
X180236333Y-91407071D01*
X180188714Y-91311833D01*
X180188714Y-91168976D01*
X180236333Y-91073738D01*
X180331571Y-91026119D01*
X180855380Y-91026119D01*
X180331571Y-91026119D02*
X180236333Y-90978500D01*
X180188714Y-90883261D01*
X180188714Y-90740404D01*
X180236333Y-90645166D01*
X180331571Y-90597547D01*
X180855380Y-90597547D01*
X180807761Y-89740404D02*
X180855380Y-89835642D01*
X180855380Y-90026119D01*
X180807761Y-90121357D01*
X180712523Y-90168976D01*
X180331571Y-90168976D01*
X180236333Y-90121357D01*
X180188714Y-90026119D01*
X180188714Y-89835642D01*
X180236333Y-89740404D01*
X180331571Y-89692785D01*
X180426809Y-89692785D01*
X180522047Y-90168976D01*
X179807761Y-88549928D02*
X181093476Y-89407071D01*
X180188714Y-88216595D02*
X181188714Y-88216595D01*
X180236333Y-88216595D02*
X180188714Y-88121357D01*
X180188714Y-87930880D01*
X180236333Y-87835642D01*
X180283952Y-87788023D01*
X180379190Y-87740404D01*
X180664904Y-87740404D01*
X180760142Y-87788023D01*
X180807761Y-87835642D01*
X180855380Y-87930880D01*
X180855380Y-88121357D01*
X180807761Y-88216595D01*
X180807761Y-86883261D02*
X180855380Y-86978500D01*
X180855380Y-87168976D01*
X180807761Y-87264214D01*
X180760142Y-87311833D01*
X180664904Y-87359452D01*
X180379190Y-87359452D01*
X180283952Y-87311833D01*
X180236333Y-87264214D01*
X180188714Y-87168976D01*
X180188714Y-86978500D01*
X180236333Y-86883261D01*
X180855380Y-86454690D02*
X180188714Y-86454690D01*
X180283952Y-86454690D02*
X180236333Y-86407071D01*
X180188714Y-86311833D01*
X180188714Y-86168976D01*
X180236333Y-86073738D01*
X180331571Y-86026119D01*
X180855380Y-86026119D01*
X180331571Y-86026119D02*
X180236333Y-85978500D01*
X180188714Y-85883261D01*
X180188714Y-85740404D01*
X180236333Y-85645166D01*
X180331571Y-85597547D01*
X180855380Y-85597547D01*
X180807761Y-84692785D02*
X180855380Y-84788023D01*
X180855380Y-84978500D01*
X180807761Y-85073738D01*
X180760142Y-85121357D01*
X180664904Y-85168976D01*
X180379190Y-85168976D01*
X180283952Y-85121357D01*
X180236333Y-85073738D01*
X180188714Y-84978500D01*
X180188714Y-84788023D01*
X180236333Y-84692785D01*
X180855380Y-84264214D02*
X180188714Y-84264214D01*
X179855380Y-84264214D02*
X179903000Y-84311833D01*
X179950619Y-84264214D01*
X179903000Y-84216595D01*
X179855380Y-84264214D01*
X179950619Y-84264214D01*
X180855380Y-83359452D02*
X180331571Y-83359452D01*
X180236333Y-83407071D01*
X180188714Y-83502309D01*
X180188714Y-83692785D01*
X180236333Y-83788023D01*
X180807761Y-83359452D02*
X180855380Y-83454690D01*
X180855380Y-83692785D01*
X180807761Y-83788023D01*
X180712523Y-83835642D01*
X180617285Y-83835642D01*
X180522047Y-83788023D01*
X180474428Y-83692785D01*
X180474428Y-83454690D01*
X180426809Y-83359452D01*
D12*
G36*
X84836000Y-83820000D02*
G01*
X84328000Y-83185000D01*
X84836000Y-82550000D01*
X84836000Y-83820000D01*
G37*
X84836000Y-83820000D02*
X84328000Y-83185000D01*
X84836000Y-82550000D01*
X84836000Y-83820000D01*
%TO.C,J2*%
X239431000Y-111252000D02*
X239431000Y-113237000D01*
X239431000Y-113237000D02*
X203431000Y-113237000D01*
X203431000Y-113237000D02*
X203431000Y-53387000D01*
X203431000Y-53387000D02*
X239431000Y-53387000D01*
X239431000Y-53387000D02*
X239431000Y-55372000D01*
X239431000Y-55372000D02*
X224386000Y-55372000D01*
X224386000Y-55372000D02*
X224386000Y-59182000D01*
X224386000Y-59182000D02*
X220576000Y-59182000D01*
X220576000Y-59182000D02*
X220576000Y-107442000D01*
X220576000Y-107442000D02*
X224386000Y-107442000D01*
X224386000Y-107442000D02*
X224386000Y-111252000D01*
X224386000Y-111252000D02*
X239431000Y-111252000D01*
D13*
%TO.C,J4*%
X196525000Y-67837000D02*
X198445000Y-67837000D01*
X198445000Y-67837000D02*
X198445000Y-69392000D01*
X198445000Y-70562000D02*
X198445000Y-71932000D01*
X198445000Y-73102000D02*
X198445000Y-74472000D01*
X198445000Y-75642000D02*
X198445000Y-77197000D01*
X196525000Y-77197000D02*
X198445000Y-77197000D01*
X196525000Y-67837000D02*
X196525000Y-68122000D01*
X196525000Y-69292000D02*
X196525000Y-70662000D01*
X196525000Y-71832000D02*
X196525000Y-73202000D01*
X196525000Y-74372000D02*
X196525000Y-75742000D01*
X196525000Y-76912000D02*
X196525000Y-77197000D01*
X195295000Y-68122000D02*
X196525000Y-68122000D01*
%TO.C,J7*%
X180026000Y-58614000D02*
X180026000Y-61274000D01*
X187706000Y-58614000D02*
X180026000Y-58614000D01*
X187706000Y-61274000D02*
X180026000Y-61274000D01*
X187706000Y-58614000D02*
X187706000Y-61274000D01*
X188976000Y-58614000D02*
X190306000Y-58614000D01*
X190306000Y-58614000D02*
X190306000Y-59944000D01*
%TO.C,J6*%
X195012000Y-97409000D02*
X195012000Y-96079000D01*
X195012000Y-96079000D02*
X196342000Y-96079000D01*
X197612000Y-96079000D02*
X200212000Y-96079000D01*
X200212000Y-98739000D02*
X200212000Y-96079000D01*
X197612000Y-98739000D02*
X200212000Y-98739000D01*
X197612000Y-98739000D02*
X197612000Y-96079000D01*
%TO.C,J3*%
X200466000Y-104267000D02*
X200466000Y-105597000D01*
X200466000Y-105597000D02*
X199136000Y-105597000D01*
X197866000Y-105597000D02*
X180026000Y-105597000D01*
X180026000Y-102937000D02*
X180026000Y-105597000D01*
X197866000Y-102937000D02*
X180026000Y-102937000D01*
X197866000Y-102937000D02*
X197866000Y-105597000D01*
D11*
%TO.C,J1*%
X81280000Y-57912000D02*
X76780000Y-57912000D01*
X81280000Y-108712000D02*
X76780000Y-108712000D01*
X79180000Y-107312000D02*
G75*
G03*
X79180000Y-107312000I-600000J0D01*
G01*
X79180000Y-59302000D02*
G75*
G03*
X79180000Y-59302000I-600000J0D01*
G01*
X76780000Y-108712000D02*
X76780000Y-57912000D01*
%TO.C,J2*%
D14*
X220735523Y-83735333D02*
X221642666Y-83735333D01*
X221824095Y-83795809D01*
X221945047Y-83916761D01*
X222005523Y-84098190D01*
X222005523Y-84219142D01*
X220856476Y-83191047D02*
X220796000Y-83130571D01*
X220735523Y-83009619D01*
X220735523Y-82707238D01*
X220796000Y-82586285D01*
X220856476Y-82525809D01*
X220977428Y-82465333D01*
X221098380Y-82465333D01*
X221279809Y-82525809D01*
X222005523Y-83251523D01*
X222005523Y-82465333D01*
%TO.C,J4*%
D11*
X195746904Y-79287666D02*
X196223095Y-79287666D01*
X195651666Y-79573380D02*
X195985000Y-78573380D01*
X196318333Y-79573380D01*
X196651666Y-79573380D02*
X196651666Y-78573380D01*
X196889761Y-78573380D01*
X197032619Y-78621000D01*
X197127857Y-78716238D01*
X197175476Y-78811476D01*
X197223095Y-79001952D01*
X197223095Y-79144809D01*
X197175476Y-79335285D01*
X197127857Y-79430523D01*
X197032619Y-79525761D01*
X196889761Y-79573380D01*
X196651666Y-79573380D01*
X197651666Y-79573380D02*
X197651666Y-78573380D01*
X197889761Y-78573380D01*
X198032619Y-78621000D01*
X198127857Y-78716238D01*
X198175476Y-78811476D01*
X198223095Y-79001952D01*
X198223095Y-79144809D01*
X198175476Y-79335285D01*
X198127857Y-79430523D01*
X198032619Y-79525761D01*
X197889761Y-79573380D01*
X197651666Y-79573380D01*
X199223095Y-79573380D02*
X198889761Y-79097190D01*
X198651666Y-79573380D02*
X198651666Y-78573380D01*
X199032619Y-78573380D01*
X199127857Y-78621000D01*
X199175476Y-78668619D01*
X199223095Y-78763857D01*
X199223095Y-78906714D01*
X199175476Y-79001952D01*
X199127857Y-79049571D01*
X199032619Y-79097190D01*
X198651666Y-79097190D01*
%TO.C,J7*%
X178526000Y-60705904D02*
X178478380Y-60801142D01*
X178478380Y-60944000D01*
X178526000Y-61086857D01*
X178621238Y-61182095D01*
X178716476Y-61229714D01*
X178906952Y-61277333D01*
X179049809Y-61277333D01*
X179240285Y-61229714D01*
X179335523Y-61182095D01*
X179430761Y-61086857D01*
X179478380Y-60944000D01*
X179478380Y-60848761D01*
X179430761Y-60705904D01*
X179383142Y-60658285D01*
X179049809Y-60658285D01*
X179049809Y-60848761D01*
X179478380Y-60229714D02*
X178478380Y-60229714D01*
X179478380Y-59658285D01*
X178478380Y-59658285D01*
X179478380Y-59182095D02*
X178478380Y-59182095D01*
X178478380Y-58944000D01*
X178526000Y-58801142D01*
X178621238Y-58705904D01*
X178716476Y-58658285D01*
X178906952Y-58610666D01*
X179049809Y-58610666D01*
X179240285Y-58658285D01*
X179335523Y-58705904D01*
X179430761Y-58801142D01*
X179478380Y-58944000D01*
X179478380Y-59182095D01*
%TO.C,J6*%
X202009142Y-97551857D02*
X202056761Y-97599476D01*
X202104380Y-97742333D01*
X202104380Y-97837571D01*
X202056761Y-97980428D01*
X201961523Y-98075666D01*
X201866285Y-98123285D01*
X201675809Y-98170904D01*
X201532952Y-98170904D01*
X201342476Y-98123285D01*
X201247238Y-98075666D01*
X201152000Y-97980428D01*
X201104380Y-97837571D01*
X201104380Y-97742333D01*
X201152000Y-97599476D01*
X201199619Y-97551857D01*
X201580571Y-97123285D02*
X201580571Y-96789952D01*
X202104380Y-96647095D02*
X202104380Y-97123285D01*
X201104380Y-97123285D01*
X201104380Y-96647095D01*
%TO.C,J3*%
X179038380Y-105767000D02*
X178038380Y-105767000D01*
X178038380Y-105528904D01*
X178086000Y-105386047D01*
X178181238Y-105290809D01*
X178276476Y-105243190D01*
X178466952Y-105195571D01*
X178609809Y-105195571D01*
X178800285Y-105243190D01*
X178895523Y-105290809D01*
X178990761Y-105386047D01*
X179038380Y-105528904D01*
X179038380Y-105767000D01*
X178752666Y-104814619D02*
X178752666Y-104338428D01*
X179038380Y-104909857D02*
X178038380Y-104576523D01*
X179038380Y-104243190D01*
X178038380Y-104052714D02*
X178038380Y-103481285D01*
X179038380Y-103767000D02*
X178038380Y-103767000D01*
X178752666Y-103195571D02*
X178752666Y-102719380D01*
X179038380Y-103290809D02*
X178038380Y-102957476D01*
X179038380Y-102624142D01*
%TD*%
M02*
