%TF.GenerationSoftware,KiCad,Pcbnew,(5.1.10)-1*%
%TF.CreationDate,2021-12-05T17:06:37+00:00*%
%TF.ProjectId,devboard,64657662-6f61-4726-942e-6b696361645f,rev?*%
%TF.SameCoordinates,Original*%
%TF.FileFunction,Copper,L1,Top*%
%TF.FilePolarity,Positive*%
%FSLAX46Y46*%
G04 Gerber Fmt 4.6, Leading zero omitted, Abs format (unit mm)*
G04 Created by KiCad (PCBNEW (5.1.10)-1) date 2021-12-05 17:06:37*
%MOMM*%
%LPD*%
G01*
G04 APERTURE LIST*
%TA.AperFunction,ComponentPad*%
%ADD10C,1.100000*%
%TD*%
%TA.AperFunction,SMDPad,CuDef*%
%ADD11R,1.800000X0.650000*%
%TD*%
%TA.AperFunction,ComponentPad*%
%ADD12O,1.700000X1.700000*%
%TD*%
%TA.AperFunction,ComponentPad*%
%ADD13R,1.700000X1.700000*%
%TD*%
%TA.AperFunction,SMDPad,CuDef*%
%ADD14R,4.000000X0.800000*%
%TD*%
%TA.AperFunction,ViaPad*%
%ADD15C,0.800000*%
%TD*%
%TA.AperFunction,Conductor*%
%ADD16C,0.250000*%
%TD*%
%TA.AperFunction,Conductor*%
%ADD17C,0.254000*%
%TD*%
%TA.AperFunction,Conductor*%
%ADD18C,0.100000*%
%TD*%
G04 APERTURE END LIST*
D10*
%TO.P,J2,MH2*%
%TO.N,N/C*%
X209231000Y-109347000D03*
%TO.P,J2,MH1*%
X209231000Y-57277000D03*
%TO.P,J2,68*%
%TO.N,GND*%
X209931000Y-62357000D03*
%TO.P,J2,67*%
%TO.N,/CD2*%
X208026000Y-63627000D03*
%TO.P,J2,66*%
%TO.N,/D10*%
X209931000Y-64897000D03*
%TO.P,J2,65*%
%TO.N,/D9*%
X208026000Y-66167000D03*
%TO.P,J2,64*%
%TO.N,/D8*%
X209931000Y-67437000D03*
%TO.P,J2,63*%
%TO.N,/STSHG*%
X208026000Y-68707000D03*
%TO.P,J2,62*%
%TO.N,/SPKR*%
X209931000Y-69977000D03*
%TO.P,J2,61*%
%TO.N,/REG*%
X208026000Y-71247000D03*
%TO.P,J2,60*%
%TO.N,/INPACK*%
X209931000Y-72517000D03*
%TO.P,J2,59*%
%TO.N,/WAIT*%
X208026000Y-73787000D03*
%TO.P,J2,58*%
%TO.N,/RESET*%
X209931000Y-75057000D03*
%TO.P,J2,57*%
%TO.N,/VS2*%
X208026000Y-76327000D03*
%TO.P,J2,56*%
%TO.N,/A25*%
X209931000Y-77597000D03*
%TO.P,J2,55*%
%TO.N,/A24*%
X208026000Y-78867000D03*
%TO.P,J2,54*%
%TO.N,/A23*%
X209931000Y-80137000D03*
%TO.P,J2,53*%
%TO.N,/A22*%
X208026000Y-81407000D03*
%TO.P,J2,52*%
%TO.N,/VPP*%
X209931000Y-82677000D03*
%TO.P,J2,51*%
%TO.N,/VCC*%
X208026000Y-83947000D03*
%TO.P,J2,50*%
%TO.N,/A21*%
X209931000Y-85217000D03*
%TO.P,J2,49*%
%TO.N,/A20*%
X208026000Y-86487000D03*
%TO.P,J2,48*%
%TO.N,/A19*%
X209931000Y-87757000D03*
%TO.P,J2,47*%
%TO.N,/A18*%
X208026000Y-89027000D03*
%TO.P,J2,46*%
%TO.N,/A17*%
X209931000Y-90297000D03*
%TO.P,J2,45*%
%TO.N,/IOWR*%
X208026000Y-91567000D03*
%TO.P,J2,44*%
%TO.N,/IORD*%
X209931000Y-92837000D03*
%TO.P,J2,43*%
%TO.N,/VS1*%
X208026000Y-94107000D03*
%TO.P,J2,42*%
%TO.N,/CE2*%
X209931000Y-95377000D03*
%TO.P,J2,41*%
%TO.N,/D15*%
X208026000Y-96647000D03*
%TO.P,J2,40*%
%TO.N,/D14*%
X209931000Y-97917000D03*
%TO.P,J2,39*%
%TO.N,/D13*%
X208026000Y-99187000D03*
%TO.P,J2,38*%
%TO.N,/D12*%
X209931000Y-100457000D03*
%TO.P,J2,37*%
%TO.N,/D11*%
X208026000Y-101727000D03*
%TO.P,J2,36*%
%TO.N,/CD1*%
X209931000Y-102997000D03*
%TO.P,J2,35*%
%TO.N,GND*%
X208026000Y-104267000D03*
%TO.P,J2,34*%
X206122000Y-62357000D03*
%TO.P,J2,33*%
%TO.N,/IOIS16*%
X204216000Y-63627000D03*
%TO.P,J2,32*%
%TO.N,/D2*%
X206122000Y-64897000D03*
%TO.P,J2,31*%
%TO.N,/D1*%
X204216000Y-66167000D03*
%TO.P,J2,30*%
%TO.N,/D0*%
X206122000Y-67437000D03*
%TO.P,J2,29*%
%TO.N,/A0*%
X204216000Y-68707000D03*
%TO.P,J2,28*%
%TO.N,/A1*%
X206122000Y-69977000D03*
%TO.P,J2,27*%
%TO.N,/A2*%
X204216000Y-71247000D03*
%TO.P,J2,26*%
%TO.N,/A3*%
X206122000Y-72517000D03*
%TO.P,J2,25*%
%TO.N,/A4*%
X204216000Y-73787000D03*
%TO.P,J2,24*%
%TO.N,/A5*%
X206122000Y-75057000D03*
%TO.P,J2,23*%
%TO.N,/A6*%
X204216000Y-76327000D03*
%TO.P,J2,22*%
%TO.N,/A7*%
X206122000Y-77597000D03*
%TO.P,J2,21*%
%TO.N,/A12*%
X204216000Y-78867000D03*
%TO.P,J2,20*%
%TO.N,/A15*%
X206122000Y-80137000D03*
%TO.P,J2,19*%
%TO.N,/A16*%
X204216000Y-81407000D03*
%TO.P,J2,18*%
%TO.N,/VPP*%
X206122000Y-82677000D03*
%TO.P,J2,17*%
%TO.N,/VCC*%
X204216000Y-83947000D03*
%TO.P,J2,16*%
%TO.N,/IREQ*%
X206122000Y-85217000D03*
%TO.P,J2,15*%
%TO.N,/WE*%
X204216000Y-86487000D03*
%TO.P,J2,14*%
%TO.N,/A14*%
X206122000Y-87757000D03*
%TO.P,J2,13*%
%TO.N,/A13*%
X204216000Y-89027000D03*
%TO.P,J2,12*%
%TO.N,/A8*%
X206122000Y-90297000D03*
%TO.P,J2,11*%
%TO.N,/A9*%
X204216000Y-91567000D03*
%TO.P,J2,10*%
%TO.N,/A11*%
X206122000Y-92837000D03*
%TO.P,J2,9*%
%TO.N,/OE*%
X204216000Y-94107000D03*
%TO.P,J2,8*%
%TO.N,/A10*%
X206122000Y-95377000D03*
%TO.P,J2,7*%
%TO.N,/CE1*%
X204216000Y-96647000D03*
%TO.P,J2,6*%
%TO.N,/D7*%
X206122000Y-97917000D03*
%TO.P,J2,5*%
%TO.N,/D6*%
X204216000Y-99187000D03*
%TO.P,J2,4*%
%TO.N,/D5*%
X206122000Y-100457000D03*
%TO.P,J2,3*%
%TO.N,/D4*%
X204216000Y-101727000D03*
%TO.P,J2,2*%
%TO.N,/D3*%
X206122000Y-102997000D03*
%TO.P,J2,1*%
%TO.N,GND*%
X204216000Y-104267000D03*
%TD*%
D11*
%TO.P,J4,6*%
%TO.N,/A5*%
X198835000Y-75057000D03*
%TO.P,J4,4*%
%TO.N,/A3*%
X198835000Y-72517000D03*
%TO.P,J4,2*%
%TO.N,/A1*%
X198835000Y-69977000D03*
%TO.P,J4,7*%
%TO.N,/A6*%
X196135000Y-76327000D03*
%TO.P,J4,5*%
%TO.N,/A4*%
X196135000Y-73787000D03*
%TO.P,J4,3*%
%TO.N,/A2*%
X196135000Y-71247000D03*
%TO.P,J4,1*%
%TO.N,/A0*%
X196135000Y-68707000D03*
%TD*%
D12*
%TO.P,J7,4*%
%TO.N,GND*%
X181356000Y-59944000D03*
%TO.P,J7,3*%
X183896000Y-59944000D03*
%TO.P,J7,2*%
X186436000Y-59944000D03*
D13*
%TO.P,J7,1*%
X188976000Y-59944000D03*
%TD*%
D12*
%TO.P,J6,2*%
%TO.N,/CE2*%
X198882000Y-97409000D03*
D13*
%TO.P,J6,1*%
%TO.N,/CE1*%
X196342000Y-97409000D03*
%TD*%
D12*
%TO.P,J3,8*%
%TO.N,/D7*%
X181356000Y-104267000D03*
%TO.P,J3,7*%
%TO.N,/D6*%
X183896000Y-104267000D03*
%TO.P,J3,6*%
%TO.N,/D5*%
X186436000Y-104267000D03*
%TO.P,J3,5*%
%TO.N,/D4*%
X188976000Y-104267000D03*
%TO.P,J3,4*%
%TO.N,/D3*%
X191516000Y-104267000D03*
%TO.P,J3,3*%
%TO.N,/D2*%
X194056000Y-104267000D03*
%TO.P,J3,2*%
%TO.N,/D1*%
X196596000Y-104267000D03*
D13*
%TO.P,J3,1*%
%TO.N,/D0*%
X199136000Y-104267000D03*
%TD*%
D14*
%TO.P,J1,1*%
%TO.N,GND*%
X79280000Y-104262000D03*
%TO.P,J1,2*%
%TO.N,/D3*%
X79280000Y-102992000D03*
%TO.P,J1,3*%
%TO.N,/D4*%
X79280000Y-101722000D03*
%TO.P,J1,4*%
%TO.N,/D5*%
X79280000Y-100452000D03*
%TO.P,J1,5*%
%TO.N,/D6*%
X79280000Y-99182000D03*
%TO.P,J1,6*%
%TO.N,/D7*%
X79280000Y-97912000D03*
%TO.P,J1,7*%
%TO.N,/CE1*%
X79280000Y-96642000D03*
%TO.P,J1,8*%
%TO.N,/A10*%
X79280000Y-95372000D03*
%TO.P,J1,9*%
%TO.N,/OE*%
X79280000Y-94102000D03*
%TO.P,J1,10*%
%TO.N,/A11*%
X79280000Y-92832000D03*
%TO.P,J1,11*%
%TO.N,/A9*%
X79280000Y-91562000D03*
%TO.P,J1,12*%
%TO.N,/A8*%
X79280000Y-90292000D03*
%TO.P,J1,13*%
%TO.N,/A13*%
X79280000Y-89022000D03*
%TO.P,J1,14*%
%TO.N,/A14*%
X79280000Y-87752000D03*
%TO.P,J1,15*%
%TO.N,/WE*%
X79280000Y-86482000D03*
%TO.P,J1,16*%
%TO.N,/IREQ*%
X79280000Y-85212000D03*
%TO.P,J1,17*%
%TO.N,/VCC*%
X79280000Y-83942000D03*
%TO.P,J1,18*%
%TO.N,/VPP*%
X79280000Y-82672000D03*
%TO.P,J1,19*%
%TO.N,/A16*%
X79280000Y-81402000D03*
%TO.P,J1,20*%
%TO.N,/A15*%
X79280000Y-80132000D03*
%TO.P,J1,21*%
%TO.N,/A12*%
X79280000Y-78862000D03*
%TO.P,J1,22*%
%TO.N,/A7*%
X79280000Y-77592000D03*
%TO.P,J1,23*%
%TO.N,/A6*%
X79280000Y-76322000D03*
%TO.P,J1,24*%
%TO.N,/A5*%
X79280000Y-75052000D03*
%TO.P,J1,25*%
%TO.N,/A4*%
X79280000Y-73782000D03*
%TO.P,J1,26*%
%TO.N,/A3*%
X79280000Y-72512000D03*
%TO.P,J1,27*%
%TO.N,/A2*%
X79280000Y-71242000D03*
%TO.P,J1,28*%
%TO.N,/A1*%
X79280000Y-69972000D03*
%TO.P,J1,29*%
%TO.N,/A0*%
X79280000Y-68702000D03*
%TO.P,J1,30*%
%TO.N,/D0*%
X79280000Y-67432000D03*
%TO.P,J1,31*%
%TO.N,/D1*%
X79280000Y-66162000D03*
%TO.P,J1,32*%
%TO.N,/D2*%
X79280000Y-64892000D03*
%TO.P,J1,33*%
%TO.N,/IOIS16*%
X79280000Y-63622000D03*
%TO.P,J1,34*%
%TO.N,GND*%
X79280000Y-62352000D03*
%TD*%
D15*
%TO.N,GND*%
X164211000Y-104267000D03*
X173360000Y-104262000D03*
X82677000Y-61595000D03*
X82677000Y-105156000D03*
X213741000Y-105156000D03*
X213741000Y-61595000D03*
X138811000Y-105283000D03*
X138811000Y-61722000D03*
X192786000Y-107061000D03*
%TO.N,/GND*%
X204216000Y-107950000D03*
%TO.N,GND*%
X204724000Y-59436000D03*
%TD*%
D16*
%TO.N,GND*%
X206117000Y-62352000D02*
X206122000Y-62357000D01*
X79280000Y-62352000D02*
X206117000Y-62352000D01*
X206122000Y-62357000D02*
X209931000Y-62357000D01*
X204216000Y-104267000D02*
X208026000Y-104267000D01*
X204211000Y-104262000D02*
X204216000Y-104267000D01*
X79285000Y-104267000D02*
X79280000Y-104262000D01*
X164211000Y-104267000D02*
X79285000Y-104267000D01*
X167640000Y-107696000D02*
X164211000Y-104267000D01*
X190119000Y-107696000D02*
X167640000Y-107696000D01*
%TO.N,/D3*%
X206117000Y-102992000D02*
X206122000Y-102997000D01*
X191516000Y-104267000D02*
X193294000Y-102489000D01*
X200151002Y-102997000D02*
X206122000Y-102997000D01*
X199643002Y-102489000D02*
X200151002Y-102997000D01*
X193294000Y-102489000D02*
X199643002Y-102489000D01*
X168736030Y-107141030D02*
X188641970Y-107141030D01*
X188641970Y-107141030D02*
X191516000Y-104267000D01*
X164587000Y-102992000D02*
X168736030Y-107141030D01*
X79280000Y-102992000D02*
X164587000Y-102992000D01*
%TO.N,/D4*%
X204211000Y-101722000D02*
X204216000Y-101727000D01*
X191516000Y-101727000D02*
X188976000Y-104267000D01*
X192786000Y-101727000D02*
X191516000Y-101727000D01*
X204216000Y-101727000D02*
X192786000Y-101727000D01*
X192786000Y-101727000D02*
X192619000Y-101727000D01*
X186551980Y-106691020D02*
X188976000Y-104267000D01*
X180349610Y-106691020D02*
X181748020Y-106691020D01*
X181748020Y-106691020D02*
X186551980Y-106691020D01*
X163953410Y-101722000D02*
X162438000Y-101722000D01*
X168922430Y-106691020D02*
X163953410Y-101722000D01*
X180074980Y-106691020D02*
X168922430Y-106691020D01*
X79280000Y-101722000D02*
X162438000Y-101722000D01*
X181748020Y-106691020D02*
X180074980Y-106691020D01*
X180074980Y-106691020D02*
X178711430Y-106691020D01*
%TO.N,/D5*%
X203327000Y-100457000D02*
X206122000Y-100457000D01*
X203048960Y-100735040D02*
X203327000Y-100457000D01*
X194031960Y-100735040D02*
X203048960Y-100735040D01*
X193577810Y-100735040D02*
X194031960Y-100735040D01*
X189967960Y-100735040D02*
X186436000Y-104267000D01*
X191070960Y-100735040D02*
X191286040Y-100735040D01*
X191286040Y-100735040D02*
X189967960Y-100735040D01*
X191286040Y-100735040D02*
X194031960Y-100735040D01*
X162946000Y-100452000D02*
X79280000Y-100452000D01*
X163319820Y-100452000D02*
X162946000Y-100452000D01*
X169108830Y-106241010D02*
X163319820Y-100452000D01*
X184461990Y-106241010D02*
X169108830Y-106241010D01*
X186436000Y-104267000D02*
X184461990Y-106241010D01*
%TO.N,/D6*%
X203576770Y-99187000D02*
X204216000Y-99187000D01*
X202478740Y-100285030D02*
X203576770Y-99187000D01*
X187877970Y-100285030D02*
X194735970Y-100285030D01*
X183896000Y-104267000D02*
X187877970Y-100285030D01*
X194735970Y-100285030D02*
X202478740Y-100285030D01*
X193764210Y-100285030D02*
X194735970Y-100285030D01*
X161676000Y-99182000D02*
X79280000Y-99182000D01*
X162686230Y-99182000D02*
X161676000Y-99182000D01*
X169295230Y-105791000D02*
X162686230Y-99182000D01*
X182372000Y-105791000D02*
X169295230Y-105791000D01*
X183896000Y-104267000D02*
X182372000Y-105791000D01*
%TO.N,/D7*%
X204180630Y-97917000D02*
X206122000Y-97917000D01*
X202262610Y-99835020D02*
X204180630Y-97917000D01*
X185787980Y-99835020D02*
X181356000Y-104267000D01*
X195085020Y-99835020D02*
X202262610Y-99835020D01*
X187973020Y-99835020D02*
X194196020Y-99835020D01*
X193950610Y-99835020D02*
X194196020Y-99835020D01*
X79280000Y-97912000D02*
X176154000Y-97912000D01*
X194196020Y-99835020D02*
X195085020Y-99835020D01*
X193950610Y-99835020D02*
X194450020Y-99835020D01*
X185679000Y-97912000D02*
X192027590Y-97912000D01*
X194450020Y-99835020D02*
X185787980Y-99835020D01*
X192027590Y-97912000D02*
X193950610Y-99835020D01*
X195085020Y-99835020D02*
X194450020Y-99835020D01*
X176154000Y-97912000D02*
X185679000Y-97912000D01*
X185679000Y-97912000D02*
X186050000Y-97912000D01*
%TO.N,/CE1*%
X195575000Y-96642000D02*
X196342000Y-97409000D01*
X79280000Y-96642000D02*
X190632000Y-96642000D01*
X190632000Y-96642000D02*
X191130000Y-96642000D01*
X201477990Y-99385010D02*
X204216000Y-96647000D01*
X194137010Y-99385010D02*
X201477990Y-99385010D01*
X191394000Y-96642000D02*
X194137010Y-99385010D01*
X190632000Y-96642000D02*
X191394000Y-96642000D01*
X191394000Y-96642000D02*
X195575000Y-96642000D01*
%TO.N,/A10*%
X206117000Y-95372000D02*
X206122000Y-95377000D01*
X79280000Y-95372000D02*
X206117000Y-95372000D01*
%TO.N,/OE*%
X204211000Y-94102000D02*
X204216000Y-94107000D01*
X79280000Y-94102000D02*
X204211000Y-94102000D01*
%TO.N,/A11*%
X206117000Y-92832000D02*
X206122000Y-92837000D01*
X79280000Y-92832000D02*
X206117000Y-92832000D01*
%TO.N,/A9*%
X204211000Y-91562000D02*
X204216000Y-91567000D01*
X196977000Y-91567000D02*
X196972000Y-91562000D01*
X204216000Y-91567000D02*
X196977000Y-91567000D01*
X79280000Y-91562000D02*
X196972000Y-91562000D01*
%TO.N,/A8*%
X79280000Y-90292000D02*
X206117000Y-90292000D01*
X206117000Y-90292000D02*
X206122000Y-90297000D01*
%TO.N,/A13*%
X79280000Y-89022000D02*
X204211000Y-89022000D01*
X204211000Y-89022000D02*
X204216000Y-89027000D01*
%TO.N,/A14*%
X206117000Y-87752000D02*
X206122000Y-87757000D01*
X79280000Y-87752000D02*
X206117000Y-87752000D01*
%TO.N,/WE*%
X204211000Y-86482000D02*
X204216000Y-86487000D01*
X79280000Y-86482000D02*
X204211000Y-86482000D01*
%TO.N,/IREQ*%
X206117000Y-85212000D02*
X206122000Y-85217000D01*
X79280000Y-85212000D02*
X206117000Y-85212000D01*
%TO.N,/VCC*%
X204211000Y-83942000D02*
X204216000Y-83947000D01*
X79280000Y-83942000D02*
X204211000Y-83942000D01*
X204216000Y-83947000D02*
X208026000Y-83947000D01*
%TO.N,/VPP*%
X206122000Y-82677000D02*
X209931000Y-82677000D01*
X206117000Y-82672000D02*
X206122000Y-82677000D01*
X79280000Y-82672000D02*
X206117000Y-82672000D01*
%TO.N,/A16*%
X204211000Y-81402000D02*
X204216000Y-81407000D01*
X79280000Y-81402000D02*
X204211000Y-81402000D01*
%TO.N,/A15*%
X206117000Y-80132000D02*
X206122000Y-80137000D01*
X79280000Y-80132000D02*
X206117000Y-80132000D01*
%TO.N,/A12*%
X204211000Y-78862000D02*
X204216000Y-78867000D01*
X79280000Y-78862000D02*
X204211000Y-78862000D01*
%TO.N,/A7*%
X204241002Y-77597000D02*
X206122000Y-77597000D01*
X204236002Y-77592000D02*
X204241002Y-77597000D01*
X79280000Y-77592000D02*
X204236002Y-77592000D01*
%TO.N,/A6*%
X202981002Y-76327000D02*
X204216000Y-76327000D01*
X202976002Y-76322000D02*
X202981002Y-76327000D01*
X79280000Y-76322000D02*
X202976002Y-76322000D01*
%TO.N,/A5*%
X206117000Y-75052000D02*
X206122000Y-75057000D01*
X79280000Y-75052000D02*
X206117000Y-75052000D01*
%TO.N,/A4*%
X204211000Y-73782000D02*
X204216000Y-73787000D01*
X79280000Y-73782000D02*
X204211000Y-73782000D01*
%TO.N,/A3*%
X206117000Y-72512000D02*
X206122000Y-72517000D01*
X79280000Y-72512000D02*
X206117000Y-72512000D01*
%TO.N,/A2*%
X204211000Y-71242000D02*
X204216000Y-71247000D01*
X79280000Y-71242000D02*
X204211000Y-71242000D01*
%TO.N,/A1*%
X206117000Y-69972000D02*
X206122000Y-69977000D01*
X79280000Y-69972000D02*
X206117000Y-69972000D01*
%TO.N,/A0*%
X204211000Y-68702000D02*
X204216000Y-68707000D01*
X79280000Y-68702000D02*
X204211000Y-68702000D01*
%TO.N,/D0*%
X206117000Y-67432000D02*
X206122000Y-67437000D01*
X79280000Y-67432000D02*
X206117000Y-67432000D01*
X199136000Y-104267000D02*
X202184000Y-104267000D01*
X202184000Y-104267000D02*
X203708000Y-105791000D01*
X203708000Y-105791000D02*
X209677000Y-105791000D01*
X209677000Y-105791000D02*
X212090000Y-103378000D01*
X208686002Y-67437000D02*
X206122000Y-67437000D01*
X212090000Y-70840998D02*
X208686002Y-67437000D01*
X212090000Y-103378000D02*
X212090000Y-70840998D01*
%TO.N,/D1*%
X204211000Y-66162000D02*
X204216000Y-66167000D01*
X79280000Y-66162000D02*
X204211000Y-66162000D01*
X206122000Y-66167000D02*
X204216000Y-66167000D01*
X209081001Y-65291999D02*
X206997001Y-65291999D01*
X206997001Y-65291999D02*
X206122000Y-66167000D01*
X211256011Y-67467009D02*
X211150001Y-67360999D01*
X211150001Y-67360999D02*
X209081001Y-65291999D01*
X212540010Y-68751008D02*
X211150001Y-67360999D01*
X212540010Y-103564400D02*
X212540010Y-68751008D01*
X209863401Y-106241009D02*
X212540010Y-103564400D01*
X198570009Y-106241009D02*
X209863401Y-106241009D01*
X196596000Y-104267000D02*
X198570009Y-106241009D01*
%TO.N,/D2*%
X206117000Y-64892000D02*
X206122000Y-64897000D01*
X79280000Y-64892000D02*
X206117000Y-64892000D01*
X211706021Y-65377019D02*
X210351001Y-64021999D01*
X210351001Y-64021999D02*
X209510999Y-64021999D01*
X212990020Y-66661018D02*
X210351001Y-64021999D01*
X206177011Y-64841989D02*
X206122000Y-64897000D01*
X212990020Y-103750800D02*
X212990020Y-66661018D01*
X209510999Y-64021999D02*
X208691009Y-64841989D01*
X210049802Y-106691018D02*
X212990020Y-103750800D01*
X208691009Y-64841989D02*
X206177011Y-64841989D01*
X196480019Y-106691019D02*
X210049802Y-106691018D01*
X194056000Y-104267000D02*
X196480019Y-106691019D01*
%TO.N,/IOIS16*%
X204211000Y-63622000D02*
X204216000Y-63627000D01*
X79280000Y-63622000D02*
X204211000Y-63622000D01*
%TO.N,GND*%
X181356000Y-59944000D02*
X183896000Y-59944000D01*
X183896000Y-59944000D02*
X186436000Y-59944000D01*
X186436000Y-59944000D02*
X188976000Y-59944000D01*
X206122000Y-60834000D02*
X204724000Y-59436000D01*
X206122000Y-62357000D02*
X206122000Y-60834000D01*
%TD*%
D17*
%TO.N,GND*%
X168172235Y-107652038D02*
X168196029Y-107681031D01*
X168225022Y-107704825D01*
X168225026Y-107704829D01*
X168295715Y-107762841D01*
X168311754Y-107776004D01*
X168443783Y-107846576D01*
X168587044Y-107890033D01*
X168698697Y-107901030D01*
X168698706Y-107901030D01*
X168736029Y-107904706D01*
X168773352Y-107901030D01*
X188604648Y-107901030D01*
X188641970Y-107904706D01*
X188679292Y-107901030D01*
X188679303Y-107901030D01*
X188790956Y-107890033D01*
X188934217Y-107846576D01*
X189066246Y-107776004D01*
X189181971Y-107681031D01*
X189205774Y-107652027D01*
X191149592Y-105708210D01*
X191369740Y-105752000D01*
X191662260Y-105752000D01*
X191949158Y-105694932D01*
X192219411Y-105582990D01*
X192462632Y-105420475D01*
X192669475Y-105213632D01*
X192786000Y-105039240D01*
X192902525Y-105213632D01*
X193109368Y-105420475D01*
X193352589Y-105582990D01*
X193622842Y-105694932D01*
X193909740Y-105752000D01*
X194202260Y-105752000D01*
X194422408Y-105708209D01*
X195916225Y-107202027D01*
X195940019Y-107231020D01*
X195969012Y-107254814D01*
X195969016Y-107254818D01*
X196055743Y-107325993D01*
X196187772Y-107396565D01*
X196331033Y-107440022D01*
X196480019Y-107454696D01*
X196517352Y-107451019D01*
X203304626Y-107451018D01*
X203298795Y-107459744D01*
X203220774Y-107648102D01*
X203181000Y-107848061D01*
X203181000Y-107925000D01*
X167282302Y-107925000D01*
X165988834Y-107389228D01*
X165007910Y-106408304D01*
X164988664Y-106392510D01*
X164966708Y-106380774D01*
X163259601Y-105673667D01*
X163235776Y-105666440D01*
X163211000Y-105664000D01*
X78649606Y-105664000D01*
X78003000Y-105017394D01*
X78003000Y-104030072D01*
X81280000Y-104030072D01*
X81404482Y-104017812D01*
X81524180Y-103981502D01*
X81634494Y-103922537D01*
X81731185Y-103843185D01*
X81806018Y-103752000D01*
X164272199Y-103752000D01*
X168172235Y-107652038D01*
%TA.AperFunction,Conductor*%
D18*
G36*
X168172235Y-107652038D02*
G01*
X168196029Y-107681031D01*
X168225022Y-107704825D01*
X168225026Y-107704829D01*
X168295715Y-107762841D01*
X168311754Y-107776004D01*
X168443783Y-107846576D01*
X168587044Y-107890033D01*
X168698697Y-107901030D01*
X168698706Y-107901030D01*
X168736029Y-107904706D01*
X168773352Y-107901030D01*
X188604648Y-107901030D01*
X188641970Y-107904706D01*
X188679292Y-107901030D01*
X188679303Y-107901030D01*
X188790956Y-107890033D01*
X188934217Y-107846576D01*
X189066246Y-107776004D01*
X189181971Y-107681031D01*
X189205774Y-107652027D01*
X191149592Y-105708210D01*
X191369740Y-105752000D01*
X191662260Y-105752000D01*
X191949158Y-105694932D01*
X192219411Y-105582990D01*
X192462632Y-105420475D01*
X192669475Y-105213632D01*
X192786000Y-105039240D01*
X192902525Y-105213632D01*
X193109368Y-105420475D01*
X193352589Y-105582990D01*
X193622842Y-105694932D01*
X193909740Y-105752000D01*
X194202260Y-105752000D01*
X194422408Y-105708209D01*
X195916225Y-107202027D01*
X195940019Y-107231020D01*
X195969012Y-107254814D01*
X195969016Y-107254818D01*
X196055743Y-107325993D01*
X196187772Y-107396565D01*
X196331033Y-107440022D01*
X196480019Y-107454696D01*
X196517352Y-107451019D01*
X203304626Y-107451018D01*
X203298795Y-107459744D01*
X203220774Y-107648102D01*
X203181000Y-107848061D01*
X203181000Y-107925000D01*
X167282302Y-107925000D01*
X165988834Y-107389228D01*
X165007910Y-106408304D01*
X164988664Y-106392510D01*
X164966708Y-106380774D01*
X163259601Y-105673667D01*
X163235776Y-105666440D01*
X163211000Y-105664000D01*
X78649606Y-105664000D01*
X78003000Y-105017394D01*
X78003000Y-104030072D01*
X81280000Y-104030072D01*
X81404482Y-104017812D01*
X81524180Y-103981502D01*
X81634494Y-103922537D01*
X81731185Y-103843185D01*
X81806018Y-103752000D01*
X164272199Y-103752000D01*
X168172235Y-107652038D01*
G37*
%TD.AperFunction*%
D17*
X215011000Y-62012606D02*
X215011000Y-107151394D01*
X214237394Y-107925000D01*
X205251000Y-107925000D01*
X205251000Y-107848061D01*
X205211226Y-107648102D01*
X205133205Y-107459744D01*
X205127374Y-107451018D01*
X210012470Y-107451017D01*
X210049802Y-107454694D01*
X210087135Y-107451017D01*
X210198788Y-107440020D01*
X210242244Y-107426838D01*
X210342048Y-107396564D01*
X210474078Y-107325992D01*
X210560804Y-107254817D01*
X210560805Y-107254816D01*
X210589803Y-107231018D01*
X210613601Y-107202020D01*
X213501024Y-104314598D01*
X213530021Y-104290801D01*
X213624994Y-104175076D01*
X213695566Y-104043047D01*
X213739023Y-103899786D01*
X213750020Y-103788133D01*
X213750020Y-103788124D01*
X213753696Y-103750801D01*
X213750020Y-103713478D01*
X213750020Y-66698340D01*
X213753696Y-66661017D01*
X213750020Y-66623694D01*
X213750020Y-66623685D01*
X213739023Y-66512032D01*
X213695566Y-66368771D01*
X213624994Y-66236742D01*
X213611831Y-66220703D01*
X213553819Y-66150014D01*
X213553815Y-66150010D01*
X213530021Y-66121017D01*
X213501028Y-66097223D01*
X210914805Y-63511002D01*
X210891002Y-63481998D01*
X210775277Y-63387025D01*
X210643248Y-63316453D01*
X210499987Y-63272996D01*
X210388334Y-63261999D01*
X210388323Y-63261999D01*
X210351001Y-63258323D01*
X210313679Y-63261999D01*
X209548321Y-63261999D01*
X209510999Y-63258323D01*
X209473676Y-63261999D01*
X209473666Y-63261999D01*
X209362013Y-63272996D01*
X209218752Y-63316453D01*
X209176894Y-63338827D01*
X209165461Y-63281348D01*
X209076134Y-63065692D01*
X208946450Y-62871606D01*
X208781394Y-62706550D01*
X208587308Y-62576866D01*
X208371652Y-62487539D01*
X208142712Y-62442000D01*
X207909288Y-62442000D01*
X207680348Y-62487539D01*
X207464692Y-62576866D01*
X207270606Y-62706550D01*
X207105550Y-62871606D01*
X206975866Y-63065692D01*
X206886539Y-63281348D01*
X206841000Y-63510288D01*
X206841000Y-63743712D01*
X206886539Y-63972652D01*
X206895762Y-63994918D01*
X206877394Y-63976550D01*
X206683308Y-63846866D01*
X206467652Y-63757539D01*
X206238712Y-63712000D01*
X206005288Y-63712000D01*
X205776348Y-63757539D01*
X205560692Y-63846866D01*
X205366606Y-63976550D01*
X205344824Y-63998332D01*
X205355461Y-63972652D01*
X205401000Y-63743712D01*
X205401000Y-63510288D01*
X205355461Y-63281348D01*
X205266134Y-63065692D01*
X205136450Y-62871606D01*
X204971394Y-62706550D01*
X204777308Y-62576866D01*
X204561652Y-62487539D01*
X204332712Y-62442000D01*
X204099288Y-62442000D01*
X203870348Y-62487539D01*
X203654692Y-62576866D01*
X203460606Y-62706550D01*
X203305156Y-62862000D01*
X81806018Y-62862000D01*
X81731185Y-62770815D01*
X81634494Y-62691463D01*
X81524180Y-62632498D01*
X81404482Y-62596188D01*
X81280000Y-62583928D01*
X78003000Y-62583928D01*
X78003000Y-61733606D01*
X78649606Y-61087000D01*
X214085394Y-61087000D01*
X215011000Y-62012606D01*
%TA.AperFunction,Conductor*%
D18*
G36*
X215011000Y-62012606D02*
G01*
X215011000Y-107151394D01*
X214237394Y-107925000D01*
X205251000Y-107925000D01*
X205251000Y-107848061D01*
X205211226Y-107648102D01*
X205133205Y-107459744D01*
X205127374Y-107451018D01*
X210012470Y-107451017D01*
X210049802Y-107454694D01*
X210087135Y-107451017D01*
X210198788Y-107440020D01*
X210242244Y-107426838D01*
X210342048Y-107396564D01*
X210474078Y-107325992D01*
X210560804Y-107254817D01*
X210560805Y-107254816D01*
X210589803Y-107231018D01*
X210613601Y-107202020D01*
X213501024Y-104314598D01*
X213530021Y-104290801D01*
X213624994Y-104175076D01*
X213695566Y-104043047D01*
X213739023Y-103899786D01*
X213750020Y-103788133D01*
X213750020Y-103788124D01*
X213753696Y-103750801D01*
X213750020Y-103713478D01*
X213750020Y-66698340D01*
X213753696Y-66661017D01*
X213750020Y-66623694D01*
X213750020Y-66623685D01*
X213739023Y-66512032D01*
X213695566Y-66368771D01*
X213624994Y-66236742D01*
X213611831Y-66220703D01*
X213553819Y-66150014D01*
X213553815Y-66150010D01*
X213530021Y-66121017D01*
X213501028Y-66097223D01*
X210914805Y-63511002D01*
X210891002Y-63481998D01*
X210775277Y-63387025D01*
X210643248Y-63316453D01*
X210499987Y-63272996D01*
X210388334Y-63261999D01*
X210388323Y-63261999D01*
X210351001Y-63258323D01*
X210313679Y-63261999D01*
X209548321Y-63261999D01*
X209510999Y-63258323D01*
X209473676Y-63261999D01*
X209473666Y-63261999D01*
X209362013Y-63272996D01*
X209218752Y-63316453D01*
X209176894Y-63338827D01*
X209165461Y-63281348D01*
X209076134Y-63065692D01*
X208946450Y-62871606D01*
X208781394Y-62706550D01*
X208587308Y-62576866D01*
X208371652Y-62487539D01*
X208142712Y-62442000D01*
X207909288Y-62442000D01*
X207680348Y-62487539D01*
X207464692Y-62576866D01*
X207270606Y-62706550D01*
X207105550Y-62871606D01*
X206975866Y-63065692D01*
X206886539Y-63281348D01*
X206841000Y-63510288D01*
X206841000Y-63743712D01*
X206886539Y-63972652D01*
X206895762Y-63994918D01*
X206877394Y-63976550D01*
X206683308Y-63846866D01*
X206467652Y-63757539D01*
X206238712Y-63712000D01*
X206005288Y-63712000D01*
X205776348Y-63757539D01*
X205560692Y-63846866D01*
X205366606Y-63976550D01*
X205344824Y-63998332D01*
X205355461Y-63972652D01*
X205401000Y-63743712D01*
X205401000Y-63510288D01*
X205355461Y-63281348D01*
X205266134Y-63065692D01*
X205136450Y-62871606D01*
X204971394Y-62706550D01*
X204777308Y-62576866D01*
X204561652Y-62487539D01*
X204332712Y-62442000D01*
X204099288Y-62442000D01*
X203870348Y-62487539D01*
X203654692Y-62576866D01*
X203460606Y-62706550D01*
X203305156Y-62862000D01*
X81806018Y-62862000D01*
X81731185Y-62770815D01*
X81634494Y-62691463D01*
X81524180Y-62632498D01*
X81404482Y-62596188D01*
X81280000Y-62583928D01*
X78003000Y-62583928D01*
X78003000Y-61733606D01*
X78649606Y-61087000D01*
X214085394Y-61087000D01*
X215011000Y-62012606D01*
G37*
%TD.AperFunction*%
D17*
X192115809Y-99075020D02*
X185825302Y-99075020D01*
X185787979Y-99071344D01*
X185750656Y-99075020D01*
X185750647Y-99075020D01*
X185638994Y-99086017D01*
X185495733Y-99129474D01*
X185363704Y-99200046D01*
X185247979Y-99295019D01*
X185224181Y-99324017D01*
X181722408Y-102825791D01*
X181502260Y-102782000D01*
X181209740Y-102782000D01*
X180922842Y-102839068D01*
X180652589Y-102951010D01*
X180409368Y-103113525D01*
X180202525Y-103320368D01*
X180040010Y-103563589D01*
X179928068Y-103833842D01*
X179871000Y-104120740D01*
X179871000Y-104413260D01*
X179928068Y-104700158D01*
X180040010Y-104970411D01*
X180080494Y-105031000D01*
X169610033Y-105031000D01*
X163251031Y-98672000D01*
X191712789Y-98672000D01*
X192115809Y-99075020D01*
%TA.AperFunction,Conductor*%
D18*
G36*
X192115809Y-99075020D02*
G01*
X185825302Y-99075020D01*
X185787979Y-99071344D01*
X185750656Y-99075020D01*
X185750647Y-99075020D01*
X185638994Y-99086017D01*
X185495733Y-99129474D01*
X185363704Y-99200046D01*
X185247979Y-99295019D01*
X185224181Y-99324017D01*
X181722408Y-102825791D01*
X181502260Y-102782000D01*
X181209740Y-102782000D01*
X180922842Y-102839068D01*
X180652589Y-102951010D01*
X180409368Y-103113525D01*
X180202525Y-103320368D01*
X180040010Y-103563589D01*
X179928068Y-103833842D01*
X179871000Y-104120740D01*
X179871000Y-104413260D01*
X179928068Y-104700158D01*
X180040010Y-104970411D01*
X180080494Y-105031000D01*
X169610033Y-105031000D01*
X163251031Y-98672000D01*
X191712789Y-98672000D01*
X192115809Y-99075020D01*
G37*
%TD.AperFunction*%
D17*
X208791539Y-102651348D02*
X208746000Y-102880288D01*
X208746000Y-103113712D01*
X208791539Y-103342652D01*
X208880866Y-103558308D01*
X209010550Y-103752394D01*
X209175606Y-103917450D01*
X209369692Y-104047134D01*
X209585348Y-104136461D01*
X209814288Y-104182000D01*
X210047712Y-104182000D01*
X210251793Y-104141406D01*
X209362199Y-105031000D01*
X204022803Y-105031000D01*
X202748801Y-103757000D01*
X205206156Y-103757000D01*
X205366606Y-103917450D01*
X205560692Y-104047134D01*
X205776348Y-104136461D01*
X206005288Y-104182000D01*
X206238712Y-104182000D01*
X206467652Y-104136461D01*
X206683308Y-104047134D01*
X206877394Y-103917450D01*
X207042450Y-103752394D01*
X207172134Y-103558308D01*
X207261461Y-103342652D01*
X207307000Y-103113712D01*
X207307000Y-102880288D01*
X207261461Y-102651348D01*
X207252238Y-102629082D01*
X207270606Y-102647450D01*
X207464692Y-102777134D01*
X207680348Y-102866461D01*
X207909288Y-102912000D01*
X208142712Y-102912000D01*
X208371652Y-102866461D01*
X208587308Y-102777134D01*
X208781394Y-102647450D01*
X208801469Y-102627375D01*
X208791539Y-102651348D01*
%TA.AperFunction,Conductor*%
D18*
G36*
X208791539Y-102651348D02*
G01*
X208746000Y-102880288D01*
X208746000Y-103113712D01*
X208791539Y-103342652D01*
X208880866Y-103558308D01*
X209010550Y-103752394D01*
X209175606Y-103917450D01*
X209369692Y-104047134D01*
X209585348Y-104136461D01*
X209814288Y-104182000D01*
X210047712Y-104182000D01*
X210251793Y-104141406D01*
X209362199Y-105031000D01*
X204022803Y-105031000D01*
X202748801Y-103757000D01*
X205206156Y-103757000D01*
X205366606Y-103917450D01*
X205560692Y-104047134D01*
X205776348Y-104136461D01*
X206005288Y-104182000D01*
X206238712Y-104182000D01*
X206467652Y-104136461D01*
X206683308Y-104047134D01*
X206877394Y-103917450D01*
X207042450Y-103752394D01*
X207172134Y-103558308D01*
X207261461Y-103342652D01*
X207307000Y-103113712D01*
X207307000Y-102880288D01*
X207261461Y-102651348D01*
X207252238Y-102629082D01*
X207270606Y-102647450D01*
X207464692Y-102777134D01*
X207680348Y-102866461D01*
X207909288Y-102912000D01*
X208142712Y-102912000D01*
X208371652Y-102866461D01*
X208587308Y-102777134D01*
X208781394Y-102647450D01*
X208801469Y-102627375D01*
X208791539Y-102651348D01*
G37*
%TD.AperFunction*%
%TD*%
D17*
%TO.N,GND*%
X215011000Y-59091606D02*
X215011000Y-63590394D01*
X214085394Y-64516000D01*
X213523606Y-64516000D01*
X212598000Y-63590394D01*
X212598000Y-63357000D01*
X212595560Y-63332224D01*
X212588333Y-63308399D01*
X212576597Y-63286443D01*
X212560803Y-63267197D01*
X211560803Y-62267197D01*
X211541557Y-62251403D01*
X211519601Y-62239667D01*
X211495776Y-62232440D01*
X211471000Y-62230000D01*
X202681106Y-62230000D01*
X202109606Y-61658500D01*
X202681106Y-61087000D01*
X202692000Y-61087000D01*
X202716776Y-61084560D01*
X202740601Y-61077333D01*
X202762557Y-61065597D01*
X202781803Y-61049803D01*
X203543803Y-60287803D01*
X203559597Y-60268557D01*
X203571333Y-60246601D01*
X203578560Y-60222776D01*
X203581000Y-60198000D01*
X203581000Y-59091606D01*
X204481606Y-58191000D01*
X214110394Y-58191000D01*
X215011000Y-59091606D01*
%TA.AperFunction,Conductor*%
D18*
G36*
X215011000Y-59091606D02*
G01*
X215011000Y-63590394D01*
X214085394Y-64516000D01*
X213523606Y-64516000D01*
X212598000Y-63590394D01*
X212598000Y-63357000D01*
X212595560Y-63332224D01*
X212588333Y-63308399D01*
X212576597Y-63286443D01*
X212560803Y-63267197D01*
X211560803Y-62267197D01*
X211541557Y-62251403D01*
X211519601Y-62239667D01*
X211495776Y-62232440D01*
X211471000Y-62230000D01*
X202681106Y-62230000D01*
X202109606Y-61658500D01*
X202681106Y-61087000D01*
X202692000Y-61087000D01*
X202716776Y-61084560D01*
X202740601Y-61077333D01*
X202762557Y-61065597D01*
X202781803Y-61049803D01*
X203543803Y-60287803D01*
X203559597Y-60268557D01*
X203571333Y-60246601D01*
X203578560Y-60222776D01*
X203581000Y-60198000D01*
X203581000Y-59091606D01*
X204481606Y-58191000D01*
X214110394Y-58191000D01*
X215011000Y-59091606D01*
G37*
%TD.AperFunction*%
%TD*%
D17*
%TO.N,GND*%
X193548000Y-59091606D02*
X193548000Y-61177394D01*
X192622394Y-62103000D01*
X176312606Y-62103000D01*
X175387000Y-61177394D01*
X175387000Y-59091606D01*
X176287606Y-58191000D01*
X192647394Y-58191000D01*
X193548000Y-59091606D01*
%TA.AperFunction,Conductor*%
D18*
G36*
X193548000Y-59091606D02*
G01*
X193548000Y-61177394D01*
X192622394Y-62103000D01*
X176312606Y-62103000D01*
X175387000Y-61177394D01*
X175387000Y-59091606D01*
X176287606Y-58191000D01*
X192647394Y-58191000D01*
X193548000Y-59091606D01*
G37*
%TD.AperFunction*%
%TD*%
M02*
