M48
; DRILL file {KiCad (5.1.10)-1} date 12/05/21 17:06:42
; FORMAT={-:-/ absolute / inch / decimal}
; #@! TF.CreationDate,2021-12-05T17:06:42+00:00
; #@! TF.GenerationSoftware,Kicad,Pcbnew,(5.1.10)-1
; #@! TF.FileFunction,Plated,1,2,PTH
FMAT,2
INCH
T1C0.0157
T2C0.0264
T3C0.0394
T4C0.0866
%
G90
G05
T1
X3.255Y-2.425
X3.255Y-4.14
X5.465Y-2.43
X5.465Y-4.145
X6.465Y-4.105
X6.8252Y-4.1048
X7.59Y-4.215
X8.04Y-4.25
X8.06Y-2.34
X8.415Y-2.425
X8.415Y-4.14
T2
X8.04Y-2.505
X8.04Y-2.605
X8.04Y-2.705
X8.04Y-2.805
X8.04Y-2.905
X8.04Y-3.005
X8.04Y-3.105
X8.04Y-3.205
X8.04Y-3.305
X8.04Y-3.405
X8.04Y-3.505
X8.04Y-3.605
X8.04Y-3.705
X8.04Y-3.805
X8.04Y-3.905
X8.04Y-4.005
X8.04Y-4.105
X8.115Y-2.455
X8.115Y-2.555
X8.115Y-2.655
X8.115Y-2.755
X8.115Y-2.855
X8.115Y-2.955
X8.115Y-3.055
X8.115Y-3.155
X8.115Y-3.255
X8.115Y-3.355
X8.115Y-3.455
X8.115Y-3.555
X8.115Y-3.655
X8.115Y-3.755
X8.115Y-3.855
X8.115Y-3.955
X8.115Y-4.055
X8.19Y-2.505
X8.19Y-2.605
X8.19Y-2.705
X8.19Y-2.805
X8.19Y-2.905
X8.19Y-3.005
X8.19Y-3.105
X8.19Y-3.205
X8.19Y-3.305
X8.19Y-3.405
X8.19Y-3.505
X8.19Y-3.605
X8.19Y-3.705
X8.19Y-3.805
X8.19Y-3.905
X8.19Y-4.005
X8.19Y-4.105
X8.265Y-2.455
X8.265Y-2.555
X8.265Y-2.655
X8.265Y-2.755
X8.265Y-2.855
X8.265Y-2.955
X8.265Y-3.055
X8.265Y-3.155
X8.265Y-3.255
X8.265Y-3.355
X8.265Y-3.455
X8.265Y-3.555
X8.265Y-3.655
X8.265Y-3.755
X8.265Y-3.855
X8.265Y-3.955
X8.265Y-4.055
T3
X7.14Y-2.36
X7.14Y-4.105
X7.24Y-2.36
X7.24Y-4.105
X7.34Y-2.36
X7.34Y-4.105
X7.44Y-2.36
X7.44Y-4.105
X7.54Y-4.105
X7.64Y-4.105
X7.73Y-3.835
X7.74Y-4.105
X7.83Y-3.835
X7.84Y-4.105
T4
X8.2374Y-2.255
X8.2374Y-4.305
T0
M30
