%TF.GenerationSoftware,KiCad,Pcbnew,(5.1.10)-1*%
%TF.CreationDate,2021-12-05T17:06:37+00:00*%
%TF.ProjectId,devboard,64657662-6f61-4726-942e-6b696361645f,rev?*%
%TF.SameCoordinates,Original*%
%TF.FileFunction,Soldermask,Top*%
%TF.FilePolarity,Negative*%
%FSLAX46Y46*%
G04 Gerber Fmt 4.6, Leading zero omitted, Abs format (unit mm)*
G04 Created by KiCad (PCBNEW (5.1.10)-1) date 2021-12-05 17:06:37*
%MOMM*%
%LPD*%
G01*
G04 APERTURE LIST*
%ADD10C,1.100000*%
%ADD11R,1.800000X0.650000*%
%ADD12O,1.700000X1.700000*%
%ADD13R,1.700000X1.700000*%
%ADD14R,4.000000X0.800000*%
G04 APERTURE END LIST*
D10*
%TO.C,J2*%
X209231000Y-109347000D03*
X209231000Y-57277000D03*
X209931000Y-62357000D03*
X208026000Y-63627000D03*
X209931000Y-64897000D03*
X208026000Y-66167000D03*
X209931000Y-67437000D03*
X208026000Y-68707000D03*
X209931000Y-69977000D03*
X208026000Y-71247000D03*
X209931000Y-72517000D03*
X208026000Y-73787000D03*
X209931000Y-75057000D03*
X208026000Y-76327000D03*
X209931000Y-77597000D03*
X208026000Y-78867000D03*
X209931000Y-80137000D03*
X208026000Y-81407000D03*
X209931000Y-82677000D03*
X208026000Y-83947000D03*
X209931000Y-85217000D03*
X208026000Y-86487000D03*
X209931000Y-87757000D03*
X208026000Y-89027000D03*
X209931000Y-90297000D03*
X208026000Y-91567000D03*
X209931000Y-92837000D03*
X208026000Y-94107000D03*
X209931000Y-95377000D03*
X208026000Y-96647000D03*
X209931000Y-97917000D03*
X208026000Y-99187000D03*
X209931000Y-100457000D03*
X208026000Y-101727000D03*
X209931000Y-102997000D03*
X208026000Y-104267000D03*
X206122000Y-62357000D03*
X204216000Y-63627000D03*
X206122000Y-64897000D03*
X204216000Y-66167000D03*
X206122000Y-67437000D03*
X204216000Y-68707000D03*
X206122000Y-69977000D03*
X204216000Y-71247000D03*
X206122000Y-72517000D03*
X204216000Y-73787000D03*
X206122000Y-75057000D03*
X204216000Y-76327000D03*
X206122000Y-77597000D03*
X204216000Y-78867000D03*
X206122000Y-80137000D03*
X204216000Y-81407000D03*
X206122000Y-82677000D03*
X204216000Y-83947000D03*
X206122000Y-85217000D03*
X204216000Y-86487000D03*
X206122000Y-87757000D03*
X204216000Y-89027000D03*
X206122000Y-90297000D03*
X204216000Y-91567000D03*
X206122000Y-92837000D03*
X204216000Y-94107000D03*
X206122000Y-95377000D03*
X204216000Y-96647000D03*
X206122000Y-97917000D03*
X204216000Y-99187000D03*
X206122000Y-100457000D03*
X204216000Y-101727000D03*
X206122000Y-102997000D03*
X204216000Y-104267000D03*
%TD*%
D11*
%TO.C,J4*%
X198835000Y-75057000D03*
X198835000Y-72517000D03*
X198835000Y-69977000D03*
X196135000Y-76327000D03*
X196135000Y-73787000D03*
X196135000Y-71247000D03*
X196135000Y-68707000D03*
%TD*%
D12*
%TO.C,J7*%
X181356000Y-59944000D03*
X183896000Y-59944000D03*
X186436000Y-59944000D03*
D13*
X188976000Y-59944000D03*
%TD*%
D12*
%TO.C,J6*%
X198882000Y-97409000D03*
D13*
X196342000Y-97409000D03*
%TD*%
D12*
%TO.C,J3*%
X181356000Y-104267000D03*
X183896000Y-104267000D03*
X186436000Y-104267000D03*
X188976000Y-104267000D03*
X191516000Y-104267000D03*
X194056000Y-104267000D03*
X196596000Y-104267000D03*
D13*
X199136000Y-104267000D03*
%TD*%
D14*
%TO.C,J1*%
X79280000Y-104262000D03*
X79280000Y-102992000D03*
X79280000Y-101722000D03*
X79280000Y-100452000D03*
X79280000Y-99182000D03*
X79280000Y-97912000D03*
X79280000Y-96642000D03*
X79280000Y-95372000D03*
X79280000Y-94102000D03*
X79280000Y-92832000D03*
X79280000Y-91562000D03*
X79280000Y-90292000D03*
X79280000Y-89022000D03*
X79280000Y-87752000D03*
X79280000Y-86482000D03*
X79280000Y-85212000D03*
X79280000Y-83942000D03*
X79280000Y-82672000D03*
X79280000Y-81402000D03*
X79280000Y-80132000D03*
X79280000Y-78862000D03*
X79280000Y-77592000D03*
X79280000Y-76322000D03*
X79280000Y-75052000D03*
X79280000Y-73782000D03*
X79280000Y-72512000D03*
X79280000Y-71242000D03*
X79280000Y-69972000D03*
X79280000Y-68702000D03*
X79280000Y-67432000D03*
X79280000Y-66162000D03*
X79280000Y-64892000D03*
X79280000Y-63622000D03*
X79280000Y-62352000D03*
%TD*%
M02*
