%TF.GenerationSoftware,KiCad,Pcbnew,(5.1.10)-1*%
%TF.CreationDate,2021-12-05T17:06:37+00:00*%
%TF.ProjectId,devboard,64657662-6f61-4726-942e-6b696361645f,rev?*%
%TF.SameCoordinates,Original*%
%TF.FileFunction,Copper,L2,Bot*%
%TF.FilePolarity,Positive*%
%FSLAX46Y46*%
G04 Gerber Fmt 4.6, Leading zero omitted, Abs format (unit mm)*
G04 Created by KiCad (PCBNEW (5.1.10)-1) date 2021-12-05 17:06:37*
%MOMM*%
%LPD*%
G01*
G04 APERTURE LIST*
%TA.AperFunction,ComponentPad*%
%ADD10C,1.100000*%
%TD*%
%TA.AperFunction,ComponentPad*%
%ADD11O,1.700000X1.700000*%
%TD*%
%TA.AperFunction,ComponentPad*%
%ADD12R,1.700000X1.700000*%
%TD*%
%TA.AperFunction,SMDPad,CuDef*%
%ADD13R,4.000000X0.800000*%
%TD*%
%TA.AperFunction,ViaPad*%
%ADD14C,0.800000*%
%TD*%
%TA.AperFunction,Conductor*%
%ADD15C,0.250000*%
%TD*%
%TA.AperFunction,Conductor*%
%ADD16C,0.254000*%
%TD*%
%TA.AperFunction,Conductor*%
%ADD17C,0.100000*%
%TD*%
G04 APERTURE END LIST*
D10*
%TO.P,J2,MH2*%
%TO.N,N/C*%
X209231000Y-109347000D03*
%TO.P,J2,MH1*%
X209231000Y-57277000D03*
%TO.P,J2,68*%
%TO.N,GND*%
X209931000Y-62357000D03*
%TO.P,J2,67*%
%TO.N,/CD2*%
X208026000Y-63627000D03*
%TO.P,J2,66*%
%TO.N,/D10*%
X209931000Y-64897000D03*
%TO.P,J2,65*%
%TO.N,/D9*%
X208026000Y-66167000D03*
%TO.P,J2,64*%
%TO.N,/D8*%
X209931000Y-67437000D03*
%TO.P,J2,63*%
%TO.N,/STSHG*%
X208026000Y-68707000D03*
%TO.P,J2,62*%
%TO.N,/SPKR*%
X209931000Y-69977000D03*
%TO.P,J2,61*%
%TO.N,/REG*%
X208026000Y-71247000D03*
%TO.P,J2,60*%
%TO.N,/INPACK*%
X209931000Y-72517000D03*
%TO.P,J2,59*%
%TO.N,/WAIT*%
X208026000Y-73787000D03*
%TO.P,J2,58*%
%TO.N,/RESET*%
X209931000Y-75057000D03*
%TO.P,J2,57*%
%TO.N,/VS2*%
X208026000Y-76327000D03*
%TO.P,J2,56*%
%TO.N,/A25*%
X209931000Y-77597000D03*
%TO.P,J2,55*%
%TO.N,/A24*%
X208026000Y-78867000D03*
%TO.P,J2,54*%
%TO.N,/A23*%
X209931000Y-80137000D03*
%TO.P,J2,53*%
%TO.N,/A22*%
X208026000Y-81407000D03*
%TO.P,J2,52*%
%TO.N,/VPP*%
X209931000Y-82677000D03*
%TO.P,J2,51*%
%TO.N,/VCC*%
X208026000Y-83947000D03*
%TO.P,J2,50*%
%TO.N,/A21*%
X209931000Y-85217000D03*
%TO.P,J2,49*%
%TO.N,/A20*%
X208026000Y-86487000D03*
%TO.P,J2,48*%
%TO.N,/A19*%
X209931000Y-87757000D03*
%TO.P,J2,47*%
%TO.N,/A18*%
X208026000Y-89027000D03*
%TO.P,J2,46*%
%TO.N,/A17*%
X209931000Y-90297000D03*
%TO.P,J2,45*%
%TO.N,/IOWR*%
X208026000Y-91567000D03*
%TO.P,J2,44*%
%TO.N,/IORD*%
X209931000Y-92837000D03*
%TO.P,J2,43*%
%TO.N,/VS1*%
X208026000Y-94107000D03*
%TO.P,J2,42*%
%TO.N,/CE2*%
X209931000Y-95377000D03*
%TO.P,J2,41*%
%TO.N,/D15*%
X208026000Y-96647000D03*
%TO.P,J2,40*%
%TO.N,/D14*%
X209931000Y-97917000D03*
%TO.P,J2,39*%
%TO.N,/D13*%
X208026000Y-99187000D03*
%TO.P,J2,38*%
%TO.N,/D12*%
X209931000Y-100457000D03*
%TO.P,J2,37*%
%TO.N,/D11*%
X208026000Y-101727000D03*
%TO.P,J2,36*%
%TO.N,/CD1*%
X209931000Y-102997000D03*
%TO.P,J2,35*%
%TO.N,GND*%
X208026000Y-104267000D03*
%TO.P,J2,34*%
X206122000Y-62357000D03*
%TO.P,J2,33*%
%TO.N,/IOIS16*%
X204216000Y-63627000D03*
%TO.P,J2,32*%
%TO.N,/D2*%
X206122000Y-64897000D03*
%TO.P,J2,31*%
%TO.N,/D1*%
X204216000Y-66167000D03*
%TO.P,J2,30*%
%TO.N,/D0*%
X206122000Y-67437000D03*
%TO.P,J2,29*%
%TO.N,/A0*%
X204216000Y-68707000D03*
%TO.P,J2,28*%
%TO.N,/A1*%
X206122000Y-69977000D03*
%TO.P,J2,27*%
%TO.N,/A2*%
X204216000Y-71247000D03*
%TO.P,J2,26*%
%TO.N,/A3*%
X206122000Y-72517000D03*
%TO.P,J2,25*%
%TO.N,/A4*%
X204216000Y-73787000D03*
%TO.P,J2,24*%
%TO.N,/A5*%
X206122000Y-75057000D03*
%TO.P,J2,23*%
%TO.N,/A6*%
X204216000Y-76327000D03*
%TO.P,J2,22*%
%TO.N,/A7*%
X206122000Y-77597000D03*
%TO.P,J2,21*%
%TO.N,/A12*%
X204216000Y-78867000D03*
%TO.P,J2,20*%
%TO.N,/A15*%
X206122000Y-80137000D03*
%TO.P,J2,19*%
%TO.N,/A16*%
X204216000Y-81407000D03*
%TO.P,J2,18*%
%TO.N,/VPP*%
X206122000Y-82677000D03*
%TO.P,J2,17*%
%TO.N,/VCC*%
X204216000Y-83947000D03*
%TO.P,J2,16*%
%TO.N,/IREQ*%
X206122000Y-85217000D03*
%TO.P,J2,15*%
%TO.N,/WE*%
X204216000Y-86487000D03*
%TO.P,J2,14*%
%TO.N,/A14*%
X206122000Y-87757000D03*
%TO.P,J2,13*%
%TO.N,/A13*%
X204216000Y-89027000D03*
%TO.P,J2,12*%
%TO.N,/A8*%
X206122000Y-90297000D03*
%TO.P,J2,11*%
%TO.N,/A9*%
X204216000Y-91567000D03*
%TO.P,J2,10*%
%TO.N,/A11*%
X206122000Y-92837000D03*
%TO.P,J2,9*%
%TO.N,/OE*%
X204216000Y-94107000D03*
%TO.P,J2,8*%
%TO.N,/A10*%
X206122000Y-95377000D03*
%TO.P,J2,7*%
%TO.N,/CE1*%
X204216000Y-96647000D03*
%TO.P,J2,6*%
%TO.N,/D7*%
X206122000Y-97917000D03*
%TO.P,J2,5*%
%TO.N,/D6*%
X204216000Y-99187000D03*
%TO.P,J2,4*%
%TO.N,/D5*%
X206122000Y-100457000D03*
%TO.P,J2,3*%
%TO.N,/D4*%
X204216000Y-101727000D03*
%TO.P,J2,2*%
%TO.N,/D3*%
X206122000Y-102997000D03*
%TO.P,J2,1*%
%TO.N,GND*%
X204216000Y-104267000D03*
%TD*%
D11*
%TO.P,J7,4*%
%TO.N,GND*%
X181356000Y-59944000D03*
%TO.P,J7,3*%
X183896000Y-59944000D03*
%TO.P,J7,2*%
X186436000Y-59944000D03*
D12*
%TO.P,J7,1*%
X188976000Y-59944000D03*
%TD*%
D11*
%TO.P,J6,2*%
%TO.N,/CE2*%
X198882000Y-97409000D03*
D12*
%TO.P,J6,1*%
%TO.N,/CE1*%
X196342000Y-97409000D03*
%TD*%
D11*
%TO.P,J3,8*%
%TO.N,/D7*%
X181356000Y-104267000D03*
%TO.P,J3,7*%
%TO.N,/D6*%
X183896000Y-104267000D03*
%TO.P,J3,6*%
%TO.N,/D5*%
X186436000Y-104267000D03*
%TO.P,J3,5*%
%TO.N,/D4*%
X188976000Y-104267000D03*
%TO.P,J3,4*%
%TO.N,/D3*%
X191516000Y-104267000D03*
%TO.P,J3,3*%
%TO.N,/D2*%
X194056000Y-104267000D03*
%TO.P,J3,2*%
%TO.N,/D1*%
X196596000Y-104267000D03*
D12*
%TO.P,J3,1*%
%TO.N,/D0*%
X199136000Y-104267000D03*
%TD*%
D13*
%TO.P,J1,35*%
%TO.N,GND*%
X79280000Y-104262000D03*
%TO.P,J1,36*%
%TO.N,/CD1*%
X79280000Y-102992000D03*
%TO.P,J1,37*%
%TO.N,/D11*%
X79280000Y-101722000D03*
%TO.P,J1,38*%
%TO.N,/D12*%
X79280000Y-100452000D03*
%TO.P,J1,39*%
%TO.N,/D13*%
X79280000Y-99182000D03*
%TO.P,J1,40*%
%TO.N,/D14*%
X79280000Y-97912000D03*
%TO.P,J1,41*%
%TO.N,/D15*%
X79280000Y-96642000D03*
%TO.P,J1,42*%
%TO.N,/CE2*%
X79280000Y-95372000D03*
%TO.P,J1,43*%
%TO.N,/VS1*%
X79280000Y-94102000D03*
%TO.P,J1,44*%
%TO.N,/IORD*%
X79280000Y-92832000D03*
%TO.P,J1,45*%
%TO.N,/IOWR*%
X79280000Y-91562000D03*
%TO.P,J1,46*%
%TO.N,/A17*%
X79280000Y-90292000D03*
%TO.P,J1,47*%
%TO.N,/A18*%
X79280000Y-89022000D03*
%TO.P,J1,48*%
%TO.N,/A19*%
X79280000Y-87752000D03*
%TO.P,J1,49*%
%TO.N,/A20*%
X79280000Y-86482000D03*
%TO.P,J1,50*%
%TO.N,/A21*%
X79280000Y-85212000D03*
%TO.P,J1,51*%
%TO.N,/VCC*%
X79280000Y-83942000D03*
%TO.P,J1,52*%
%TO.N,/VPP*%
X79280000Y-82672000D03*
%TO.P,J1,53*%
%TO.N,/A22*%
X79280000Y-81402000D03*
%TO.P,J1,54*%
%TO.N,/A23*%
X79280000Y-80132000D03*
%TO.P,J1,55*%
%TO.N,/A24*%
X79280000Y-78862000D03*
%TO.P,J1,56*%
%TO.N,/A25*%
X79280000Y-77592000D03*
%TO.P,J1,57*%
%TO.N,/VS2*%
X79280000Y-76322000D03*
%TO.P,J1,58*%
%TO.N,/RESET*%
X79280000Y-75052000D03*
%TO.P,J1,59*%
%TO.N,/WAIT*%
X79280000Y-73782000D03*
%TO.P,J1,60*%
%TO.N,/INPACK*%
X79280000Y-72512000D03*
%TO.P,J1,61*%
%TO.N,/REG*%
X79280000Y-71242000D03*
%TO.P,J1,62*%
%TO.N,/SPKR*%
X79280000Y-69972000D03*
%TO.P,J1,63*%
%TO.N,/STSHG*%
X79280000Y-68702000D03*
%TO.P,J1,64*%
%TO.N,/D8*%
X79280000Y-67432000D03*
%TO.P,J1,65*%
%TO.N,/D9*%
X79280000Y-66162000D03*
%TO.P,J1,66*%
%TO.N,/D10*%
X79280000Y-64892000D03*
%TO.P,J1,67*%
%TO.N,/CD2*%
X79280000Y-63622000D03*
%TO.P,J1,68*%
%TO.N,GND*%
X79280000Y-62352000D03*
%TD*%
D14*
%TO.N,GND*%
X164211000Y-104267000D03*
X173360000Y-104262000D03*
X82677000Y-61595000D03*
X82677000Y-105156000D03*
X213741000Y-105156000D03*
X213741000Y-61595000D03*
X138811000Y-105283000D03*
X138811000Y-61722000D03*
X192786000Y-107061000D03*
%TO.N,/GND*%
X204216000Y-107950000D03*
%TO.N,GND*%
X204724000Y-59436000D03*
%TD*%
D15*
%TO.N,GND*%
X206066989Y-62301989D02*
X206122000Y-62357000D01*
X203609599Y-62301989D02*
X206066989Y-62301989D01*
X203559588Y-62352000D02*
X203609599Y-62301989D01*
X79280000Y-62352000D02*
X203559588Y-62352000D01*
X202112990Y-106370010D02*
X204216000Y-104267000D01*
X175468010Y-106370010D02*
X202112990Y-106370010D01*
X173365000Y-104267000D02*
X173487000Y-104389000D01*
X164211000Y-104267000D02*
X173365000Y-104267000D01*
X173487000Y-104389000D02*
X175468010Y-106370010D01*
X173360000Y-104262000D02*
X173360000Y-104262000D01*
X173360000Y-104262000D02*
X173487000Y-104389000D01*
X79285000Y-104267000D02*
X79280000Y-104262000D01*
X164211000Y-104267000D02*
X79285000Y-104267000D01*
%TO.N,/VCC*%
X207970989Y-83891989D02*
X208026000Y-83947000D01*
X79280000Y-83942000D02*
X81530000Y-83942000D01*
X81580011Y-83947000D02*
X207970989Y-83947000D01*
%TO.N,/VPP*%
X209926000Y-82672000D02*
X209931000Y-82677000D01*
X79280000Y-82672000D02*
X209926000Y-82672000D01*
%TO.N,/CD1*%
X208000998Y-102997000D02*
X209931000Y-102997000D01*
X205257002Y-104013000D02*
X206984998Y-104013000D01*
X203407992Y-102163990D02*
X205257002Y-104013000D01*
X179443374Y-102163990D02*
X203407992Y-102163990D01*
X206984998Y-104013000D02*
X208000998Y-102997000D01*
X178615364Y-102992000D02*
X179443374Y-102163990D01*
X79280000Y-102992000D02*
X178615364Y-102992000D01*
%TO.N,/D11*%
X176035020Y-101713980D02*
X176027000Y-101722000D01*
X202934018Y-101713980D02*
X176035020Y-101713980D01*
X204636001Y-100851999D02*
X203795999Y-100851999D01*
X205511002Y-101727000D02*
X204636001Y-100851999D01*
X203795999Y-100851999D02*
X202934018Y-101713980D01*
X208026000Y-101727000D02*
X205511002Y-101727000D01*
X79280000Y-101722000D02*
X176027000Y-101722000D01*
%TO.N,/D12*%
X208026000Y-100457000D02*
X209931000Y-100457000D01*
X205701999Y-99581999D02*
X207150999Y-99581999D01*
X204882009Y-100401989D02*
X205701999Y-99581999D01*
X202665140Y-100735040D02*
X202998191Y-100401989D01*
X207150999Y-99581999D02*
X208026000Y-100457000D01*
X202998191Y-100401989D02*
X204882009Y-100401989D01*
X193557788Y-100735040D02*
X202665140Y-100735040D01*
X193274748Y-100452000D02*
X193557788Y-100735040D01*
X79280000Y-100452000D02*
X193274748Y-100452000D01*
%TO.N,/D13*%
X205455991Y-99131989D02*
X207970989Y-99131989D01*
X204636001Y-98311999D02*
X205455991Y-99131989D01*
X201822968Y-100285030D02*
X203795999Y-98311999D01*
X207970989Y-99131989D02*
X208026000Y-99187000D01*
X193744188Y-100285030D02*
X201822968Y-100285030D01*
X192641158Y-99182000D02*
X193744188Y-100285030D01*
X203795999Y-98311999D02*
X204636001Y-98311999D01*
X79280000Y-99182000D02*
X192641158Y-99182000D01*
%TO.N,/D14*%
X208026000Y-97917000D02*
X209931000Y-97917000D01*
X205219999Y-97523999D02*
X205701999Y-97041999D01*
X205701999Y-97041999D02*
X207150999Y-97041999D01*
X203947589Y-97523999D02*
X205219999Y-97523999D01*
X79121000Y-97917000D02*
X192012568Y-97917000D01*
X207150999Y-97041999D02*
X208026000Y-97917000D01*
X201636568Y-99835020D02*
X203947589Y-97523999D01*
X79280000Y-97912000D02*
X79330011Y-97861989D01*
X194677980Y-99835020D02*
X193930588Y-99835020D01*
X193930588Y-99835020D02*
X192012568Y-97917000D01*
X194194610Y-99835020D02*
X194677980Y-99835020D01*
X194677980Y-99835020D02*
X201636568Y-99835020D01*
%TO.N,/D15*%
X191384000Y-96642000D02*
X79280000Y-96642000D01*
X191384000Y-96652022D02*
X191384000Y-96642000D01*
X202925998Y-96642000D02*
X202925998Y-97253638D01*
X203795999Y-95771999D02*
X202925998Y-96642000D01*
X202925998Y-97253638D02*
X200794626Y-99385010D01*
X204636001Y-95771999D02*
X203795999Y-95771999D01*
X205455991Y-96591989D02*
X204636001Y-95771999D01*
X200794626Y-99385010D02*
X194116988Y-99385010D01*
X207970989Y-96591989D02*
X205455991Y-96591989D01*
X194116988Y-99385010D02*
X191384000Y-96652022D01*
X208026000Y-96647000D02*
X207970989Y-96591989D01*
%TO.N,/CE2*%
X79280000Y-95372000D02*
X81530000Y-95372000D01*
X198826990Y-97464010D02*
X200914000Y-95377000D01*
X208661000Y-95377000D02*
X209931000Y-95377000D01*
X207125997Y-94501999D02*
X208000998Y-95377000D01*
X208000998Y-95377000D02*
X208661000Y-95377000D01*
X205742979Y-94501999D02*
X207125997Y-94501999D01*
X204922989Y-95321989D02*
X205742979Y-94501999D01*
X203609599Y-95321989D02*
X204922989Y-95321989D01*
X203554588Y-95377000D02*
X203609599Y-95321989D01*
X81580010Y-95377000D02*
X203554588Y-95377000D01*
%TO.N,/VS1*%
X207970990Y-94051990D02*
X208026000Y-94107000D01*
X205416991Y-94051990D02*
X207970990Y-94051990D01*
X204597000Y-93231999D02*
X205416991Y-94051990D01*
X203795999Y-93231999D02*
X204597000Y-93231999D01*
X202925998Y-94102000D02*
X203795999Y-93231999D01*
X79280000Y-94102000D02*
X202925998Y-94102000D01*
%TO.N,/IORD*%
X208026000Y-92837000D02*
X209931000Y-92837000D01*
X204882009Y-92781989D02*
X205701999Y-91961999D01*
X207150999Y-91961999D02*
X208026000Y-92837000D01*
X205701999Y-91961999D02*
X207150999Y-91961999D01*
X79280000Y-92832000D02*
X81530000Y-92832000D01*
X203609599Y-92781989D02*
X204882009Y-92781989D01*
X203554588Y-92837000D02*
X203609599Y-92781989D01*
X202438000Y-92837000D02*
X203554588Y-92837000D01*
X81580011Y-92837000D02*
X202438000Y-92837000D01*
%TO.N,/IOWR*%
X79280000Y-91562000D02*
X202925998Y-91562000D01*
X206066989Y-91511989D02*
X207970989Y-91511989D01*
X202925998Y-91562000D02*
X203795999Y-90691999D01*
X203795999Y-90691999D02*
X205246999Y-90691999D01*
X205246999Y-90691999D02*
X206066989Y-91511989D01*
X207970989Y-91511989D02*
X208026000Y-91567000D01*
%TO.N,/A17*%
X206542001Y-89421999D02*
X207417002Y-90297000D01*
X205701999Y-89421999D02*
X206542001Y-89421999D01*
X207417002Y-90297000D02*
X209931000Y-90297000D01*
X204882009Y-90241989D02*
X205701999Y-89421999D01*
X79280000Y-90292000D02*
X81530000Y-90292000D01*
X203609599Y-90241989D02*
X204882009Y-90241989D01*
X203554588Y-90297000D02*
X203609599Y-90241989D01*
X202184000Y-90297000D02*
X203554588Y-90297000D01*
X81580011Y-90297000D02*
X202184000Y-90297000D01*
%TO.N,/A18*%
X79280000Y-89022000D02*
X202925998Y-89022000D01*
X202925998Y-89022000D02*
X203795999Y-88151999D01*
X207970989Y-88971989D02*
X208026000Y-89027000D01*
X205938989Y-88971989D02*
X207970989Y-88971989D01*
X205118999Y-88151999D02*
X205938989Y-88971989D01*
X203795999Y-88151999D02*
X205118999Y-88151999D01*
%TO.N,/A19*%
X79280000Y-87752000D02*
X79330011Y-87701989D01*
X208026000Y-87757000D02*
X209931000Y-87757000D01*
X205701999Y-86881999D02*
X207150999Y-86881999D01*
X207150999Y-86881999D02*
X208026000Y-87757000D01*
X204882009Y-87701989D02*
X205701999Y-86881999D01*
X203609599Y-87701989D02*
X204882009Y-87701989D01*
X203559588Y-87752000D02*
X203609599Y-87701989D01*
X79375000Y-87752000D02*
X203559588Y-87752000D01*
%TO.N,/A20*%
X206041987Y-86431989D02*
X207970989Y-86431989D01*
X205221997Y-85611999D02*
X206041987Y-86431989D01*
X203795999Y-85611999D02*
X205221997Y-85611999D01*
X207970989Y-86431989D02*
X208026000Y-86487000D01*
X202925998Y-86482000D02*
X203795999Y-85611999D01*
X79280000Y-86482000D02*
X202925998Y-86482000D01*
%TO.N,/A21*%
X208026000Y-85217000D02*
X209931000Y-85217000D01*
X207150999Y-84341999D02*
X208026000Y-85217000D01*
X204882009Y-85161989D02*
X205701999Y-84341999D01*
X205701999Y-84341999D02*
X207150999Y-84341999D01*
X203559588Y-85212000D02*
X203609599Y-85161989D01*
X203609599Y-85161989D02*
X204882009Y-85161989D01*
X79280000Y-85212000D02*
X203559588Y-85212000D01*
%TO.N,/A22*%
X206122000Y-81407000D02*
X208026000Y-81407000D01*
X205246999Y-80531999D02*
X206122000Y-81407000D01*
X203795999Y-80531999D02*
X205246999Y-80531999D01*
X202925998Y-81402000D02*
X203795999Y-80531999D01*
X79280000Y-81402000D02*
X202925998Y-81402000D01*
%TO.N,/A23*%
X81530000Y-80132000D02*
X79280000Y-80132000D01*
X81652000Y-80137000D02*
X82296000Y-80137000D01*
X79285000Y-80137000D02*
X79280000Y-80132000D01*
X82296000Y-80137000D02*
X79285000Y-80137000D01*
X208026000Y-80137000D02*
X209931000Y-80137000D01*
X207150999Y-79261999D02*
X208026000Y-80137000D01*
X204882009Y-80081989D02*
X205701999Y-79261999D01*
X203609599Y-80081989D02*
X204882009Y-80081989D01*
X205701999Y-79261999D02*
X207150999Y-79261999D01*
X203554588Y-80137000D02*
X203609599Y-80081989D01*
X82296000Y-80137000D02*
X203554588Y-80137000D01*
%TO.N,/A24*%
X207970990Y-78811990D02*
X208026000Y-78867000D01*
X204636001Y-77991999D02*
X205455992Y-78811990D01*
X203795999Y-77991999D02*
X204636001Y-77991999D01*
X205455992Y-78811990D02*
X207970990Y-78811990D01*
X202925998Y-78862000D02*
X203795999Y-77991999D01*
X79280000Y-78862000D02*
X202925998Y-78862000D01*
%TO.N,/A25*%
X207111998Y-76708000D02*
X208000998Y-77597000D01*
X205741000Y-76708000D02*
X207111998Y-76708000D01*
X208000998Y-77597000D02*
X209931000Y-77597000D01*
X204907011Y-77541989D02*
X205741000Y-76708000D01*
X203609599Y-77541989D02*
X204907011Y-77541989D01*
X203559588Y-77592000D02*
X203609599Y-77541989D01*
X79280000Y-77592000D02*
X203559588Y-77592000D01*
%TO.N,/VS2*%
X207956990Y-76257990D02*
X208026000Y-76327000D01*
X204864999Y-75451999D02*
X205670990Y-76257990D01*
X205670990Y-76257990D02*
X207956990Y-76257990D01*
X203795999Y-75451999D02*
X204864999Y-75451999D01*
X202925998Y-76322000D02*
X203795999Y-75451999D01*
X79280000Y-76322000D02*
X202925998Y-76322000D01*
%TO.N,/RESET*%
X208026000Y-75057000D02*
X209931000Y-75057000D01*
X207150999Y-74181999D02*
X208026000Y-75057000D01*
X205701999Y-74181999D02*
X207150999Y-74181999D01*
X204882009Y-75001989D02*
X205701999Y-74181999D01*
X79280000Y-75052000D02*
X79330011Y-75001989D01*
X204882009Y-75001989D02*
X205600999Y-74282999D01*
X203609599Y-75001989D02*
X204882009Y-75001989D01*
X203554588Y-75057000D02*
X203609599Y-75001989D01*
X202946000Y-75057000D02*
X203554588Y-75057000D01*
X79330011Y-75057000D02*
X202946000Y-75057000D01*
%TO.N,/WAIT*%
X207970989Y-73731989D02*
X208026000Y-73787000D01*
X205455991Y-73731989D02*
X207970989Y-73731989D01*
X204636001Y-72911999D02*
X205455991Y-73731989D01*
X203795999Y-72911999D02*
X204636001Y-72911999D01*
X202925998Y-73782000D02*
X203795999Y-72911999D01*
X79280000Y-73782000D02*
X202925998Y-73782000D01*
%TO.N,/INPACK*%
X208026000Y-72517000D02*
X209931000Y-72517000D01*
X205701999Y-71641999D02*
X207150999Y-71641999D01*
X204882009Y-72461989D02*
X205701999Y-71641999D01*
X203609599Y-72461989D02*
X204882009Y-72461989D01*
X203559588Y-72512000D02*
X203609599Y-72461989D01*
X207150999Y-71641999D02*
X208026000Y-72517000D01*
X79280000Y-72512000D02*
X203559588Y-72512000D01*
%TO.N,/REG*%
X207970989Y-71191989D02*
X208026000Y-71247000D01*
X206066989Y-71191989D02*
X207970989Y-71191989D01*
X205246999Y-70371999D02*
X206066989Y-71191989D01*
X203795999Y-70371999D02*
X205246999Y-70371999D01*
X202925998Y-71242000D02*
X203795999Y-70371999D01*
X79280000Y-71242000D02*
X202925998Y-71242000D01*
%TO.N,/SPKR*%
X208026000Y-69977000D02*
X209931000Y-69977000D01*
X207150999Y-69101999D02*
X208026000Y-69977000D01*
X205701999Y-69101999D02*
X207150999Y-69101999D01*
X204882009Y-69921989D02*
X205701999Y-69101999D01*
X203609599Y-69921989D02*
X204882009Y-69921989D01*
X203559588Y-69972000D02*
X203609599Y-69921989D01*
X79280000Y-69972000D02*
X203559588Y-69972000D01*
%TO.N,/STSHG*%
X207970989Y-68651989D02*
X208026000Y-68707000D01*
X206066989Y-68651989D02*
X207970989Y-68651989D01*
X205246999Y-67831999D02*
X206066989Y-68651989D01*
X203795999Y-67831999D02*
X205246999Y-67831999D01*
X202925998Y-68702000D02*
X203795999Y-67831999D01*
X79280000Y-68702000D02*
X202925998Y-68702000D01*
%TO.N,/D8*%
X208026000Y-67437000D02*
X209931000Y-67437000D01*
X207150999Y-66561999D02*
X208026000Y-67437000D01*
X205701999Y-66561999D02*
X207150999Y-66561999D01*
X204882009Y-67381989D02*
X205701999Y-66561999D01*
X203609599Y-67381989D02*
X204882009Y-67381989D01*
X203559588Y-67432000D02*
X203609599Y-67381989D01*
X79280000Y-67432000D02*
X203559588Y-67432000D01*
%TO.N,/D9*%
X207970989Y-66111989D02*
X208026000Y-66167000D01*
X206066989Y-66111989D02*
X207970989Y-66111989D01*
X205246999Y-65291999D02*
X206066989Y-66111989D01*
X203795999Y-65291999D02*
X205246999Y-65291999D01*
X202925998Y-66162000D02*
X203795999Y-65291999D01*
X79280000Y-66162000D02*
X202925998Y-66162000D01*
%TO.N,/D10*%
X207125997Y-64021999D02*
X208000998Y-64897000D01*
X208000998Y-64897000D02*
X209931000Y-64897000D01*
X205701999Y-64021999D02*
X207125997Y-64021999D01*
X204882009Y-64841989D02*
X205701999Y-64021999D01*
X203609599Y-64841989D02*
X204882009Y-64841989D01*
X203559588Y-64892000D02*
X203609599Y-64841989D01*
X79280000Y-64892000D02*
X203559588Y-64892000D01*
%TO.N,/CD2*%
X205246999Y-62751999D02*
X206066989Y-63571989D01*
X203795999Y-62751999D02*
X205246999Y-62751999D01*
X202925998Y-63622000D02*
X203795999Y-62751999D01*
X207970989Y-63571989D02*
X208026000Y-63627000D01*
X206066989Y-63571989D02*
X207970989Y-63571989D01*
X79280000Y-63622000D02*
X202925998Y-63622000D01*
%TD*%
D16*
%TO.N,GND*%
X215011000Y-62012606D02*
X215011000Y-107151394D01*
X214237394Y-107925000D01*
X205251000Y-107925000D01*
X205251000Y-107848061D01*
X205211226Y-107648102D01*
X205133205Y-107459744D01*
X205019937Y-107290226D01*
X204875774Y-107146063D01*
X204706256Y-107032795D01*
X204517898Y-106954774D01*
X204317939Y-106915000D01*
X204114061Y-106915000D01*
X203914102Y-106954774D01*
X203725744Y-107032795D01*
X203556226Y-107146063D01*
X203412063Y-107290226D01*
X203298795Y-107459744D01*
X203220774Y-107648102D01*
X203181000Y-107848061D01*
X203181000Y-107925000D01*
X167282302Y-107925000D01*
X165988834Y-107389228D01*
X165007910Y-106408304D01*
X164988664Y-106392510D01*
X164966708Y-106380774D01*
X163259601Y-105673667D01*
X163235776Y-105666440D01*
X163211000Y-105664000D01*
X78649606Y-105664000D01*
X78003000Y-105017394D01*
X78003000Y-104030072D01*
X81280000Y-104030072D01*
X81404482Y-104017812D01*
X81524180Y-103981502D01*
X81634494Y-103922537D01*
X81731185Y-103843185D01*
X81806018Y-103752000D01*
X178578042Y-103752000D01*
X178615364Y-103755676D01*
X178652686Y-103752000D01*
X178652697Y-103752000D01*
X178764350Y-103741003D01*
X178907611Y-103697546D01*
X179039640Y-103626974D01*
X179155365Y-103532001D01*
X179179167Y-103502998D01*
X179758176Y-102923990D01*
X180717821Y-102923990D01*
X180652589Y-102951010D01*
X180409368Y-103113525D01*
X180202525Y-103320368D01*
X180040010Y-103563589D01*
X179928068Y-103833842D01*
X179871000Y-104120740D01*
X179871000Y-104413260D01*
X179928068Y-104700158D01*
X180040010Y-104970411D01*
X180202525Y-105213632D01*
X180409368Y-105420475D01*
X180652589Y-105582990D01*
X180922842Y-105694932D01*
X181209740Y-105752000D01*
X181502260Y-105752000D01*
X181789158Y-105694932D01*
X182059411Y-105582990D01*
X182302632Y-105420475D01*
X182509475Y-105213632D01*
X182626000Y-105039240D01*
X182742525Y-105213632D01*
X182949368Y-105420475D01*
X183192589Y-105582990D01*
X183462842Y-105694932D01*
X183749740Y-105752000D01*
X184042260Y-105752000D01*
X184329158Y-105694932D01*
X184599411Y-105582990D01*
X184842632Y-105420475D01*
X185049475Y-105213632D01*
X185166000Y-105039240D01*
X185282525Y-105213632D01*
X185489368Y-105420475D01*
X185732589Y-105582990D01*
X186002842Y-105694932D01*
X186289740Y-105752000D01*
X186582260Y-105752000D01*
X186869158Y-105694932D01*
X187139411Y-105582990D01*
X187382632Y-105420475D01*
X187589475Y-105213632D01*
X187706000Y-105039240D01*
X187822525Y-105213632D01*
X188029368Y-105420475D01*
X188272589Y-105582990D01*
X188542842Y-105694932D01*
X188829740Y-105752000D01*
X189122260Y-105752000D01*
X189409158Y-105694932D01*
X189679411Y-105582990D01*
X189922632Y-105420475D01*
X190129475Y-105213632D01*
X190246000Y-105039240D01*
X190362525Y-105213632D01*
X190569368Y-105420475D01*
X190812589Y-105582990D01*
X191082842Y-105694932D01*
X191369740Y-105752000D01*
X191662260Y-105752000D01*
X191949158Y-105694932D01*
X192219411Y-105582990D01*
X192462632Y-105420475D01*
X192669475Y-105213632D01*
X192786000Y-105039240D01*
X192902525Y-105213632D01*
X193109368Y-105420475D01*
X193352589Y-105582990D01*
X193622842Y-105694932D01*
X193909740Y-105752000D01*
X194202260Y-105752000D01*
X194489158Y-105694932D01*
X194759411Y-105582990D01*
X195002632Y-105420475D01*
X195209475Y-105213632D01*
X195326000Y-105039240D01*
X195442525Y-105213632D01*
X195649368Y-105420475D01*
X195892589Y-105582990D01*
X196162842Y-105694932D01*
X196449740Y-105752000D01*
X196742260Y-105752000D01*
X197029158Y-105694932D01*
X197299411Y-105582990D01*
X197542632Y-105420475D01*
X197674487Y-105288620D01*
X197696498Y-105361180D01*
X197755463Y-105471494D01*
X197834815Y-105568185D01*
X197931506Y-105647537D01*
X198041820Y-105706502D01*
X198161518Y-105742812D01*
X198286000Y-105755072D01*
X199986000Y-105755072D01*
X200110482Y-105742812D01*
X200230180Y-105706502D01*
X200340494Y-105647537D01*
X200437185Y-105568185D01*
X200516537Y-105471494D01*
X200575502Y-105361180D01*
X200611812Y-105241482D01*
X200624072Y-105117000D01*
X200624072Y-103417000D01*
X200611812Y-103292518D01*
X200575502Y-103172820D01*
X200516537Y-103062506D01*
X200437185Y-102965815D01*
X200386221Y-102923990D01*
X203093191Y-102923990D01*
X204693203Y-104524003D01*
X204717001Y-104553001D01*
X204745999Y-104576799D01*
X204832725Y-104647974D01*
X204930354Y-104700158D01*
X204964755Y-104718546D01*
X205108016Y-104762003D01*
X205219669Y-104773000D01*
X205219679Y-104773000D01*
X205257001Y-104776676D01*
X205294324Y-104773000D01*
X206947676Y-104773000D01*
X206984998Y-104776676D01*
X207022320Y-104773000D01*
X207022331Y-104773000D01*
X207133984Y-104762003D01*
X207277245Y-104718546D01*
X207409274Y-104647974D01*
X207524999Y-104553001D01*
X207548802Y-104523998D01*
X208315800Y-103757000D01*
X209015156Y-103757000D01*
X209175606Y-103917450D01*
X209369692Y-104047134D01*
X209585348Y-104136461D01*
X209814288Y-104182000D01*
X210047712Y-104182000D01*
X210276652Y-104136461D01*
X210492308Y-104047134D01*
X210686394Y-103917450D01*
X210851450Y-103752394D01*
X210981134Y-103558308D01*
X211070461Y-103342652D01*
X211116000Y-103113712D01*
X211116000Y-102880288D01*
X211070461Y-102651348D01*
X210981134Y-102435692D01*
X210851450Y-102241606D01*
X210686394Y-102076550D01*
X210492308Y-101946866D01*
X210276652Y-101857539D01*
X210047712Y-101812000D01*
X209814288Y-101812000D01*
X209585348Y-101857539D01*
X209369692Y-101946866D01*
X209175606Y-102076550D01*
X209155531Y-102096625D01*
X209165461Y-102072652D01*
X209211000Y-101843712D01*
X209211000Y-101610288D01*
X209165461Y-101381348D01*
X209155531Y-101357375D01*
X209175606Y-101377450D01*
X209369692Y-101507134D01*
X209585348Y-101596461D01*
X209814288Y-101642000D01*
X210047712Y-101642000D01*
X210276652Y-101596461D01*
X210492308Y-101507134D01*
X210686394Y-101377450D01*
X210851450Y-101212394D01*
X210981134Y-101018308D01*
X211070461Y-100802652D01*
X211116000Y-100573712D01*
X211116000Y-100340288D01*
X211070461Y-100111348D01*
X210981134Y-99895692D01*
X210851450Y-99701606D01*
X210686394Y-99536550D01*
X210492308Y-99406866D01*
X210276652Y-99317539D01*
X210047712Y-99272000D01*
X209814288Y-99272000D01*
X209585348Y-99317539D01*
X209369692Y-99406866D01*
X209175606Y-99536550D01*
X209155531Y-99556625D01*
X209165461Y-99532652D01*
X209211000Y-99303712D01*
X209211000Y-99070288D01*
X209165461Y-98841348D01*
X209155531Y-98817375D01*
X209175606Y-98837450D01*
X209369692Y-98967134D01*
X209585348Y-99056461D01*
X209814288Y-99102000D01*
X210047712Y-99102000D01*
X210276652Y-99056461D01*
X210492308Y-98967134D01*
X210686394Y-98837450D01*
X210851450Y-98672394D01*
X210981134Y-98478308D01*
X211070461Y-98262652D01*
X211116000Y-98033712D01*
X211116000Y-97800288D01*
X211070461Y-97571348D01*
X210981134Y-97355692D01*
X210851450Y-97161606D01*
X210686394Y-96996550D01*
X210492308Y-96866866D01*
X210276652Y-96777539D01*
X210047712Y-96732000D01*
X209814288Y-96732000D01*
X209585348Y-96777539D01*
X209369692Y-96866866D01*
X209175606Y-96996550D01*
X209155531Y-97016625D01*
X209165461Y-96992652D01*
X209211000Y-96763712D01*
X209211000Y-96530288D01*
X209165461Y-96301348D01*
X209155531Y-96277375D01*
X209175606Y-96297450D01*
X209369692Y-96427134D01*
X209585348Y-96516461D01*
X209814288Y-96562000D01*
X210047712Y-96562000D01*
X210276652Y-96516461D01*
X210492308Y-96427134D01*
X210686394Y-96297450D01*
X210851450Y-96132394D01*
X210981134Y-95938308D01*
X211070461Y-95722652D01*
X211116000Y-95493712D01*
X211116000Y-95260288D01*
X211070461Y-95031348D01*
X210981134Y-94815692D01*
X210851450Y-94621606D01*
X210686394Y-94456550D01*
X210492308Y-94326866D01*
X210276652Y-94237539D01*
X210047712Y-94192000D01*
X209814288Y-94192000D01*
X209585348Y-94237539D01*
X209369692Y-94326866D01*
X209175606Y-94456550D01*
X209155531Y-94476625D01*
X209165461Y-94452652D01*
X209211000Y-94223712D01*
X209211000Y-93990288D01*
X209165461Y-93761348D01*
X209155531Y-93737375D01*
X209175606Y-93757450D01*
X209369692Y-93887134D01*
X209585348Y-93976461D01*
X209814288Y-94022000D01*
X210047712Y-94022000D01*
X210276652Y-93976461D01*
X210492308Y-93887134D01*
X210686394Y-93757450D01*
X210851450Y-93592394D01*
X210981134Y-93398308D01*
X211070461Y-93182652D01*
X211116000Y-92953712D01*
X211116000Y-92720288D01*
X211070461Y-92491348D01*
X210981134Y-92275692D01*
X210851450Y-92081606D01*
X210686394Y-91916550D01*
X210492308Y-91786866D01*
X210276652Y-91697539D01*
X210047712Y-91652000D01*
X209814288Y-91652000D01*
X209585348Y-91697539D01*
X209369692Y-91786866D01*
X209175606Y-91916550D01*
X209155531Y-91936625D01*
X209165461Y-91912652D01*
X209211000Y-91683712D01*
X209211000Y-91450288D01*
X209165461Y-91221348D01*
X209155531Y-91197375D01*
X209175606Y-91217450D01*
X209369692Y-91347134D01*
X209585348Y-91436461D01*
X209814288Y-91482000D01*
X210047712Y-91482000D01*
X210276652Y-91436461D01*
X210492308Y-91347134D01*
X210686394Y-91217450D01*
X210851450Y-91052394D01*
X210981134Y-90858308D01*
X211070461Y-90642652D01*
X211116000Y-90413712D01*
X211116000Y-90180288D01*
X211070461Y-89951348D01*
X210981134Y-89735692D01*
X210851450Y-89541606D01*
X210686394Y-89376550D01*
X210492308Y-89246866D01*
X210276652Y-89157539D01*
X210047712Y-89112000D01*
X209814288Y-89112000D01*
X209585348Y-89157539D01*
X209369692Y-89246866D01*
X209175606Y-89376550D01*
X209155531Y-89396625D01*
X209165461Y-89372652D01*
X209211000Y-89143712D01*
X209211000Y-88910288D01*
X209165461Y-88681348D01*
X209155531Y-88657375D01*
X209175606Y-88677450D01*
X209369692Y-88807134D01*
X209585348Y-88896461D01*
X209814288Y-88942000D01*
X210047712Y-88942000D01*
X210276652Y-88896461D01*
X210492308Y-88807134D01*
X210686394Y-88677450D01*
X210851450Y-88512394D01*
X210981134Y-88318308D01*
X211070461Y-88102652D01*
X211116000Y-87873712D01*
X211116000Y-87640288D01*
X211070461Y-87411348D01*
X210981134Y-87195692D01*
X210851450Y-87001606D01*
X210686394Y-86836550D01*
X210492308Y-86706866D01*
X210276652Y-86617539D01*
X210047712Y-86572000D01*
X209814288Y-86572000D01*
X209585348Y-86617539D01*
X209369692Y-86706866D01*
X209175606Y-86836550D01*
X209155531Y-86856625D01*
X209165461Y-86832652D01*
X209211000Y-86603712D01*
X209211000Y-86370288D01*
X209165461Y-86141348D01*
X209155531Y-86117375D01*
X209175606Y-86137450D01*
X209369692Y-86267134D01*
X209585348Y-86356461D01*
X209814288Y-86402000D01*
X210047712Y-86402000D01*
X210276652Y-86356461D01*
X210492308Y-86267134D01*
X210686394Y-86137450D01*
X210851450Y-85972394D01*
X210981134Y-85778308D01*
X211070461Y-85562652D01*
X211116000Y-85333712D01*
X211116000Y-85100288D01*
X211070461Y-84871348D01*
X210981134Y-84655692D01*
X210851450Y-84461606D01*
X210686394Y-84296550D01*
X210492308Y-84166866D01*
X210276652Y-84077539D01*
X210047712Y-84032000D01*
X209814288Y-84032000D01*
X209585348Y-84077539D01*
X209369692Y-84166866D01*
X209175606Y-84296550D01*
X209155531Y-84316625D01*
X209165461Y-84292652D01*
X209211000Y-84063712D01*
X209211000Y-83830288D01*
X209165461Y-83601348D01*
X209155531Y-83577375D01*
X209175606Y-83597450D01*
X209369692Y-83727134D01*
X209585348Y-83816461D01*
X209814288Y-83862000D01*
X210047712Y-83862000D01*
X210276652Y-83816461D01*
X210492308Y-83727134D01*
X210686394Y-83597450D01*
X210851450Y-83432394D01*
X210981134Y-83238308D01*
X211070461Y-83022652D01*
X211116000Y-82793712D01*
X211116000Y-82560288D01*
X211070461Y-82331348D01*
X210981134Y-82115692D01*
X210851450Y-81921606D01*
X210686394Y-81756550D01*
X210492308Y-81626866D01*
X210276652Y-81537539D01*
X210047712Y-81492000D01*
X209814288Y-81492000D01*
X209585348Y-81537539D01*
X209369692Y-81626866D01*
X209175606Y-81756550D01*
X209155531Y-81776625D01*
X209165461Y-81752652D01*
X209211000Y-81523712D01*
X209211000Y-81290288D01*
X209165461Y-81061348D01*
X209155531Y-81037375D01*
X209175606Y-81057450D01*
X209369692Y-81187134D01*
X209585348Y-81276461D01*
X209814288Y-81322000D01*
X210047712Y-81322000D01*
X210276652Y-81276461D01*
X210492308Y-81187134D01*
X210686394Y-81057450D01*
X210851450Y-80892394D01*
X210981134Y-80698308D01*
X211070461Y-80482652D01*
X211116000Y-80253712D01*
X211116000Y-80020288D01*
X211070461Y-79791348D01*
X210981134Y-79575692D01*
X210851450Y-79381606D01*
X210686394Y-79216550D01*
X210492308Y-79086866D01*
X210276652Y-78997539D01*
X210047712Y-78952000D01*
X209814288Y-78952000D01*
X209585348Y-78997539D01*
X209369692Y-79086866D01*
X209175606Y-79216550D01*
X209155531Y-79236625D01*
X209165461Y-79212652D01*
X209211000Y-78983712D01*
X209211000Y-78750288D01*
X209165461Y-78521348D01*
X209155531Y-78497375D01*
X209175606Y-78517450D01*
X209369692Y-78647134D01*
X209585348Y-78736461D01*
X209814288Y-78782000D01*
X210047712Y-78782000D01*
X210276652Y-78736461D01*
X210492308Y-78647134D01*
X210686394Y-78517450D01*
X210851450Y-78352394D01*
X210981134Y-78158308D01*
X211070461Y-77942652D01*
X211116000Y-77713712D01*
X211116000Y-77480288D01*
X211070461Y-77251348D01*
X210981134Y-77035692D01*
X210851450Y-76841606D01*
X210686394Y-76676550D01*
X210492308Y-76546866D01*
X210276652Y-76457539D01*
X210047712Y-76412000D01*
X209814288Y-76412000D01*
X209585348Y-76457539D01*
X209369692Y-76546866D01*
X209175606Y-76676550D01*
X209155531Y-76696625D01*
X209165461Y-76672652D01*
X209211000Y-76443712D01*
X209211000Y-76210288D01*
X209165461Y-75981348D01*
X209155531Y-75957375D01*
X209175606Y-75977450D01*
X209369692Y-76107134D01*
X209585348Y-76196461D01*
X209814288Y-76242000D01*
X210047712Y-76242000D01*
X210276652Y-76196461D01*
X210492308Y-76107134D01*
X210686394Y-75977450D01*
X210851450Y-75812394D01*
X210981134Y-75618308D01*
X211070461Y-75402652D01*
X211116000Y-75173712D01*
X211116000Y-74940288D01*
X211070461Y-74711348D01*
X210981134Y-74495692D01*
X210851450Y-74301606D01*
X210686394Y-74136550D01*
X210492308Y-74006866D01*
X210276652Y-73917539D01*
X210047712Y-73872000D01*
X209814288Y-73872000D01*
X209585348Y-73917539D01*
X209369692Y-74006866D01*
X209175606Y-74136550D01*
X209155531Y-74156625D01*
X209165461Y-74132652D01*
X209211000Y-73903712D01*
X209211000Y-73670288D01*
X209165461Y-73441348D01*
X209155531Y-73417375D01*
X209175606Y-73437450D01*
X209369692Y-73567134D01*
X209585348Y-73656461D01*
X209814288Y-73702000D01*
X210047712Y-73702000D01*
X210276652Y-73656461D01*
X210492308Y-73567134D01*
X210686394Y-73437450D01*
X210851450Y-73272394D01*
X210981134Y-73078308D01*
X211070461Y-72862652D01*
X211116000Y-72633712D01*
X211116000Y-72400288D01*
X211070461Y-72171348D01*
X210981134Y-71955692D01*
X210851450Y-71761606D01*
X210686394Y-71596550D01*
X210492308Y-71466866D01*
X210276652Y-71377539D01*
X210047712Y-71332000D01*
X209814288Y-71332000D01*
X209585348Y-71377539D01*
X209369692Y-71466866D01*
X209175606Y-71596550D01*
X209155531Y-71616625D01*
X209165461Y-71592652D01*
X209211000Y-71363712D01*
X209211000Y-71130288D01*
X209165461Y-70901348D01*
X209155531Y-70877375D01*
X209175606Y-70897450D01*
X209369692Y-71027134D01*
X209585348Y-71116461D01*
X209814288Y-71162000D01*
X210047712Y-71162000D01*
X210276652Y-71116461D01*
X210492308Y-71027134D01*
X210686394Y-70897450D01*
X210851450Y-70732394D01*
X210981134Y-70538308D01*
X211070461Y-70322652D01*
X211116000Y-70093712D01*
X211116000Y-69860288D01*
X211070461Y-69631348D01*
X210981134Y-69415692D01*
X210851450Y-69221606D01*
X210686394Y-69056550D01*
X210492308Y-68926866D01*
X210276652Y-68837539D01*
X210047712Y-68792000D01*
X209814288Y-68792000D01*
X209585348Y-68837539D01*
X209369692Y-68926866D01*
X209175606Y-69056550D01*
X209155531Y-69076625D01*
X209165461Y-69052652D01*
X209211000Y-68823712D01*
X209211000Y-68590288D01*
X209165461Y-68361348D01*
X209155531Y-68337375D01*
X209175606Y-68357450D01*
X209369692Y-68487134D01*
X209585348Y-68576461D01*
X209814288Y-68622000D01*
X210047712Y-68622000D01*
X210276652Y-68576461D01*
X210492308Y-68487134D01*
X210686394Y-68357450D01*
X210851450Y-68192394D01*
X210981134Y-67998308D01*
X211070461Y-67782652D01*
X211116000Y-67553712D01*
X211116000Y-67320288D01*
X211070461Y-67091348D01*
X210981134Y-66875692D01*
X210851450Y-66681606D01*
X210686394Y-66516550D01*
X210492308Y-66386866D01*
X210276652Y-66297539D01*
X210047712Y-66252000D01*
X209814288Y-66252000D01*
X209585348Y-66297539D01*
X209369692Y-66386866D01*
X209175606Y-66516550D01*
X209155531Y-66536625D01*
X209165461Y-66512652D01*
X209211000Y-66283712D01*
X209211000Y-66050288D01*
X209165461Y-65821348D01*
X209155531Y-65797375D01*
X209175606Y-65817450D01*
X209369692Y-65947134D01*
X209585348Y-66036461D01*
X209814288Y-66082000D01*
X210047712Y-66082000D01*
X210276652Y-66036461D01*
X210492308Y-65947134D01*
X210686394Y-65817450D01*
X210851450Y-65652394D01*
X210981134Y-65458308D01*
X211070461Y-65242652D01*
X211116000Y-65013712D01*
X211116000Y-64780288D01*
X211070461Y-64551348D01*
X210981134Y-64335692D01*
X210851450Y-64141606D01*
X210686394Y-63976550D01*
X210492308Y-63846866D01*
X210276652Y-63757539D01*
X210047712Y-63712000D01*
X209814288Y-63712000D01*
X209585348Y-63757539D01*
X209369692Y-63846866D01*
X209175606Y-63976550D01*
X209155531Y-63996625D01*
X209165461Y-63972652D01*
X209211000Y-63743712D01*
X209211000Y-63510288D01*
X209165461Y-63281348D01*
X209076134Y-63065692D01*
X208946450Y-62871606D01*
X208781394Y-62706550D01*
X208587308Y-62576866D01*
X208371652Y-62487539D01*
X208142712Y-62442000D01*
X207909288Y-62442000D01*
X207680348Y-62487539D01*
X207464692Y-62576866D01*
X207270606Y-62706550D01*
X207165167Y-62811989D01*
X206381791Y-62811989D01*
X205810802Y-62241001D01*
X205787000Y-62211998D01*
X205671275Y-62117025D01*
X205539246Y-62046453D01*
X205395985Y-62002996D01*
X205284332Y-61991999D01*
X205284321Y-61991999D01*
X205246999Y-61988323D01*
X205209677Y-61991999D01*
X203833321Y-61991999D01*
X203795998Y-61988323D01*
X203758675Y-61991999D01*
X203758666Y-61991999D01*
X203647013Y-62002996D01*
X203503752Y-62046453D01*
X203371723Y-62117025D01*
X203255998Y-62211998D01*
X203232200Y-62240996D01*
X202611197Y-62862000D01*
X81806018Y-62862000D01*
X81731185Y-62770815D01*
X81634494Y-62691463D01*
X81524180Y-62632498D01*
X81404482Y-62596188D01*
X81280000Y-62583928D01*
X78003000Y-62583928D01*
X78003000Y-61733606D01*
X78649606Y-61087000D01*
X214085394Y-61087000D01*
X215011000Y-62012606D01*
%TA.AperFunction,Conductor*%
D17*
G36*
X215011000Y-62012606D02*
G01*
X215011000Y-107151394D01*
X214237394Y-107925000D01*
X205251000Y-107925000D01*
X205251000Y-107848061D01*
X205211226Y-107648102D01*
X205133205Y-107459744D01*
X205019937Y-107290226D01*
X204875774Y-107146063D01*
X204706256Y-107032795D01*
X204517898Y-106954774D01*
X204317939Y-106915000D01*
X204114061Y-106915000D01*
X203914102Y-106954774D01*
X203725744Y-107032795D01*
X203556226Y-107146063D01*
X203412063Y-107290226D01*
X203298795Y-107459744D01*
X203220774Y-107648102D01*
X203181000Y-107848061D01*
X203181000Y-107925000D01*
X167282302Y-107925000D01*
X165988834Y-107389228D01*
X165007910Y-106408304D01*
X164988664Y-106392510D01*
X164966708Y-106380774D01*
X163259601Y-105673667D01*
X163235776Y-105666440D01*
X163211000Y-105664000D01*
X78649606Y-105664000D01*
X78003000Y-105017394D01*
X78003000Y-104030072D01*
X81280000Y-104030072D01*
X81404482Y-104017812D01*
X81524180Y-103981502D01*
X81634494Y-103922537D01*
X81731185Y-103843185D01*
X81806018Y-103752000D01*
X178578042Y-103752000D01*
X178615364Y-103755676D01*
X178652686Y-103752000D01*
X178652697Y-103752000D01*
X178764350Y-103741003D01*
X178907611Y-103697546D01*
X179039640Y-103626974D01*
X179155365Y-103532001D01*
X179179167Y-103502998D01*
X179758176Y-102923990D01*
X180717821Y-102923990D01*
X180652589Y-102951010D01*
X180409368Y-103113525D01*
X180202525Y-103320368D01*
X180040010Y-103563589D01*
X179928068Y-103833842D01*
X179871000Y-104120740D01*
X179871000Y-104413260D01*
X179928068Y-104700158D01*
X180040010Y-104970411D01*
X180202525Y-105213632D01*
X180409368Y-105420475D01*
X180652589Y-105582990D01*
X180922842Y-105694932D01*
X181209740Y-105752000D01*
X181502260Y-105752000D01*
X181789158Y-105694932D01*
X182059411Y-105582990D01*
X182302632Y-105420475D01*
X182509475Y-105213632D01*
X182626000Y-105039240D01*
X182742525Y-105213632D01*
X182949368Y-105420475D01*
X183192589Y-105582990D01*
X183462842Y-105694932D01*
X183749740Y-105752000D01*
X184042260Y-105752000D01*
X184329158Y-105694932D01*
X184599411Y-105582990D01*
X184842632Y-105420475D01*
X185049475Y-105213632D01*
X185166000Y-105039240D01*
X185282525Y-105213632D01*
X185489368Y-105420475D01*
X185732589Y-105582990D01*
X186002842Y-105694932D01*
X186289740Y-105752000D01*
X186582260Y-105752000D01*
X186869158Y-105694932D01*
X187139411Y-105582990D01*
X187382632Y-105420475D01*
X187589475Y-105213632D01*
X187706000Y-105039240D01*
X187822525Y-105213632D01*
X188029368Y-105420475D01*
X188272589Y-105582990D01*
X188542842Y-105694932D01*
X188829740Y-105752000D01*
X189122260Y-105752000D01*
X189409158Y-105694932D01*
X189679411Y-105582990D01*
X189922632Y-105420475D01*
X190129475Y-105213632D01*
X190246000Y-105039240D01*
X190362525Y-105213632D01*
X190569368Y-105420475D01*
X190812589Y-105582990D01*
X191082842Y-105694932D01*
X191369740Y-105752000D01*
X191662260Y-105752000D01*
X191949158Y-105694932D01*
X192219411Y-105582990D01*
X192462632Y-105420475D01*
X192669475Y-105213632D01*
X192786000Y-105039240D01*
X192902525Y-105213632D01*
X193109368Y-105420475D01*
X193352589Y-105582990D01*
X193622842Y-105694932D01*
X193909740Y-105752000D01*
X194202260Y-105752000D01*
X194489158Y-105694932D01*
X194759411Y-105582990D01*
X195002632Y-105420475D01*
X195209475Y-105213632D01*
X195326000Y-105039240D01*
X195442525Y-105213632D01*
X195649368Y-105420475D01*
X195892589Y-105582990D01*
X196162842Y-105694932D01*
X196449740Y-105752000D01*
X196742260Y-105752000D01*
X197029158Y-105694932D01*
X197299411Y-105582990D01*
X197542632Y-105420475D01*
X197674487Y-105288620D01*
X197696498Y-105361180D01*
X197755463Y-105471494D01*
X197834815Y-105568185D01*
X197931506Y-105647537D01*
X198041820Y-105706502D01*
X198161518Y-105742812D01*
X198286000Y-105755072D01*
X199986000Y-105755072D01*
X200110482Y-105742812D01*
X200230180Y-105706502D01*
X200340494Y-105647537D01*
X200437185Y-105568185D01*
X200516537Y-105471494D01*
X200575502Y-105361180D01*
X200611812Y-105241482D01*
X200624072Y-105117000D01*
X200624072Y-103417000D01*
X200611812Y-103292518D01*
X200575502Y-103172820D01*
X200516537Y-103062506D01*
X200437185Y-102965815D01*
X200386221Y-102923990D01*
X203093191Y-102923990D01*
X204693203Y-104524003D01*
X204717001Y-104553001D01*
X204745999Y-104576799D01*
X204832725Y-104647974D01*
X204930354Y-104700158D01*
X204964755Y-104718546D01*
X205108016Y-104762003D01*
X205219669Y-104773000D01*
X205219679Y-104773000D01*
X205257001Y-104776676D01*
X205294324Y-104773000D01*
X206947676Y-104773000D01*
X206984998Y-104776676D01*
X207022320Y-104773000D01*
X207022331Y-104773000D01*
X207133984Y-104762003D01*
X207277245Y-104718546D01*
X207409274Y-104647974D01*
X207524999Y-104553001D01*
X207548802Y-104523998D01*
X208315800Y-103757000D01*
X209015156Y-103757000D01*
X209175606Y-103917450D01*
X209369692Y-104047134D01*
X209585348Y-104136461D01*
X209814288Y-104182000D01*
X210047712Y-104182000D01*
X210276652Y-104136461D01*
X210492308Y-104047134D01*
X210686394Y-103917450D01*
X210851450Y-103752394D01*
X210981134Y-103558308D01*
X211070461Y-103342652D01*
X211116000Y-103113712D01*
X211116000Y-102880288D01*
X211070461Y-102651348D01*
X210981134Y-102435692D01*
X210851450Y-102241606D01*
X210686394Y-102076550D01*
X210492308Y-101946866D01*
X210276652Y-101857539D01*
X210047712Y-101812000D01*
X209814288Y-101812000D01*
X209585348Y-101857539D01*
X209369692Y-101946866D01*
X209175606Y-102076550D01*
X209155531Y-102096625D01*
X209165461Y-102072652D01*
X209211000Y-101843712D01*
X209211000Y-101610288D01*
X209165461Y-101381348D01*
X209155531Y-101357375D01*
X209175606Y-101377450D01*
X209369692Y-101507134D01*
X209585348Y-101596461D01*
X209814288Y-101642000D01*
X210047712Y-101642000D01*
X210276652Y-101596461D01*
X210492308Y-101507134D01*
X210686394Y-101377450D01*
X210851450Y-101212394D01*
X210981134Y-101018308D01*
X211070461Y-100802652D01*
X211116000Y-100573712D01*
X211116000Y-100340288D01*
X211070461Y-100111348D01*
X210981134Y-99895692D01*
X210851450Y-99701606D01*
X210686394Y-99536550D01*
X210492308Y-99406866D01*
X210276652Y-99317539D01*
X210047712Y-99272000D01*
X209814288Y-99272000D01*
X209585348Y-99317539D01*
X209369692Y-99406866D01*
X209175606Y-99536550D01*
X209155531Y-99556625D01*
X209165461Y-99532652D01*
X209211000Y-99303712D01*
X209211000Y-99070288D01*
X209165461Y-98841348D01*
X209155531Y-98817375D01*
X209175606Y-98837450D01*
X209369692Y-98967134D01*
X209585348Y-99056461D01*
X209814288Y-99102000D01*
X210047712Y-99102000D01*
X210276652Y-99056461D01*
X210492308Y-98967134D01*
X210686394Y-98837450D01*
X210851450Y-98672394D01*
X210981134Y-98478308D01*
X211070461Y-98262652D01*
X211116000Y-98033712D01*
X211116000Y-97800288D01*
X211070461Y-97571348D01*
X210981134Y-97355692D01*
X210851450Y-97161606D01*
X210686394Y-96996550D01*
X210492308Y-96866866D01*
X210276652Y-96777539D01*
X210047712Y-96732000D01*
X209814288Y-96732000D01*
X209585348Y-96777539D01*
X209369692Y-96866866D01*
X209175606Y-96996550D01*
X209155531Y-97016625D01*
X209165461Y-96992652D01*
X209211000Y-96763712D01*
X209211000Y-96530288D01*
X209165461Y-96301348D01*
X209155531Y-96277375D01*
X209175606Y-96297450D01*
X209369692Y-96427134D01*
X209585348Y-96516461D01*
X209814288Y-96562000D01*
X210047712Y-96562000D01*
X210276652Y-96516461D01*
X210492308Y-96427134D01*
X210686394Y-96297450D01*
X210851450Y-96132394D01*
X210981134Y-95938308D01*
X211070461Y-95722652D01*
X211116000Y-95493712D01*
X211116000Y-95260288D01*
X211070461Y-95031348D01*
X210981134Y-94815692D01*
X210851450Y-94621606D01*
X210686394Y-94456550D01*
X210492308Y-94326866D01*
X210276652Y-94237539D01*
X210047712Y-94192000D01*
X209814288Y-94192000D01*
X209585348Y-94237539D01*
X209369692Y-94326866D01*
X209175606Y-94456550D01*
X209155531Y-94476625D01*
X209165461Y-94452652D01*
X209211000Y-94223712D01*
X209211000Y-93990288D01*
X209165461Y-93761348D01*
X209155531Y-93737375D01*
X209175606Y-93757450D01*
X209369692Y-93887134D01*
X209585348Y-93976461D01*
X209814288Y-94022000D01*
X210047712Y-94022000D01*
X210276652Y-93976461D01*
X210492308Y-93887134D01*
X210686394Y-93757450D01*
X210851450Y-93592394D01*
X210981134Y-93398308D01*
X211070461Y-93182652D01*
X211116000Y-92953712D01*
X211116000Y-92720288D01*
X211070461Y-92491348D01*
X210981134Y-92275692D01*
X210851450Y-92081606D01*
X210686394Y-91916550D01*
X210492308Y-91786866D01*
X210276652Y-91697539D01*
X210047712Y-91652000D01*
X209814288Y-91652000D01*
X209585348Y-91697539D01*
X209369692Y-91786866D01*
X209175606Y-91916550D01*
X209155531Y-91936625D01*
X209165461Y-91912652D01*
X209211000Y-91683712D01*
X209211000Y-91450288D01*
X209165461Y-91221348D01*
X209155531Y-91197375D01*
X209175606Y-91217450D01*
X209369692Y-91347134D01*
X209585348Y-91436461D01*
X209814288Y-91482000D01*
X210047712Y-91482000D01*
X210276652Y-91436461D01*
X210492308Y-91347134D01*
X210686394Y-91217450D01*
X210851450Y-91052394D01*
X210981134Y-90858308D01*
X211070461Y-90642652D01*
X211116000Y-90413712D01*
X211116000Y-90180288D01*
X211070461Y-89951348D01*
X210981134Y-89735692D01*
X210851450Y-89541606D01*
X210686394Y-89376550D01*
X210492308Y-89246866D01*
X210276652Y-89157539D01*
X210047712Y-89112000D01*
X209814288Y-89112000D01*
X209585348Y-89157539D01*
X209369692Y-89246866D01*
X209175606Y-89376550D01*
X209155531Y-89396625D01*
X209165461Y-89372652D01*
X209211000Y-89143712D01*
X209211000Y-88910288D01*
X209165461Y-88681348D01*
X209155531Y-88657375D01*
X209175606Y-88677450D01*
X209369692Y-88807134D01*
X209585348Y-88896461D01*
X209814288Y-88942000D01*
X210047712Y-88942000D01*
X210276652Y-88896461D01*
X210492308Y-88807134D01*
X210686394Y-88677450D01*
X210851450Y-88512394D01*
X210981134Y-88318308D01*
X211070461Y-88102652D01*
X211116000Y-87873712D01*
X211116000Y-87640288D01*
X211070461Y-87411348D01*
X210981134Y-87195692D01*
X210851450Y-87001606D01*
X210686394Y-86836550D01*
X210492308Y-86706866D01*
X210276652Y-86617539D01*
X210047712Y-86572000D01*
X209814288Y-86572000D01*
X209585348Y-86617539D01*
X209369692Y-86706866D01*
X209175606Y-86836550D01*
X209155531Y-86856625D01*
X209165461Y-86832652D01*
X209211000Y-86603712D01*
X209211000Y-86370288D01*
X209165461Y-86141348D01*
X209155531Y-86117375D01*
X209175606Y-86137450D01*
X209369692Y-86267134D01*
X209585348Y-86356461D01*
X209814288Y-86402000D01*
X210047712Y-86402000D01*
X210276652Y-86356461D01*
X210492308Y-86267134D01*
X210686394Y-86137450D01*
X210851450Y-85972394D01*
X210981134Y-85778308D01*
X211070461Y-85562652D01*
X211116000Y-85333712D01*
X211116000Y-85100288D01*
X211070461Y-84871348D01*
X210981134Y-84655692D01*
X210851450Y-84461606D01*
X210686394Y-84296550D01*
X210492308Y-84166866D01*
X210276652Y-84077539D01*
X210047712Y-84032000D01*
X209814288Y-84032000D01*
X209585348Y-84077539D01*
X209369692Y-84166866D01*
X209175606Y-84296550D01*
X209155531Y-84316625D01*
X209165461Y-84292652D01*
X209211000Y-84063712D01*
X209211000Y-83830288D01*
X209165461Y-83601348D01*
X209155531Y-83577375D01*
X209175606Y-83597450D01*
X209369692Y-83727134D01*
X209585348Y-83816461D01*
X209814288Y-83862000D01*
X210047712Y-83862000D01*
X210276652Y-83816461D01*
X210492308Y-83727134D01*
X210686394Y-83597450D01*
X210851450Y-83432394D01*
X210981134Y-83238308D01*
X211070461Y-83022652D01*
X211116000Y-82793712D01*
X211116000Y-82560288D01*
X211070461Y-82331348D01*
X210981134Y-82115692D01*
X210851450Y-81921606D01*
X210686394Y-81756550D01*
X210492308Y-81626866D01*
X210276652Y-81537539D01*
X210047712Y-81492000D01*
X209814288Y-81492000D01*
X209585348Y-81537539D01*
X209369692Y-81626866D01*
X209175606Y-81756550D01*
X209155531Y-81776625D01*
X209165461Y-81752652D01*
X209211000Y-81523712D01*
X209211000Y-81290288D01*
X209165461Y-81061348D01*
X209155531Y-81037375D01*
X209175606Y-81057450D01*
X209369692Y-81187134D01*
X209585348Y-81276461D01*
X209814288Y-81322000D01*
X210047712Y-81322000D01*
X210276652Y-81276461D01*
X210492308Y-81187134D01*
X210686394Y-81057450D01*
X210851450Y-80892394D01*
X210981134Y-80698308D01*
X211070461Y-80482652D01*
X211116000Y-80253712D01*
X211116000Y-80020288D01*
X211070461Y-79791348D01*
X210981134Y-79575692D01*
X210851450Y-79381606D01*
X210686394Y-79216550D01*
X210492308Y-79086866D01*
X210276652Y-78997539D01*
X210047712Y-78952000D01*
X209814288Y-78952000D01*
X209585348Y-78997539D01*
X209369692Y-79086866D01*
X209175606Y-79216550D01*
X209155531Y-79236625D01*
X209165461Y-79212652D01*
X209211000Y-78983712D01*
X209211000Y-78750288D01*
X209165461Y-78521348D01*
X209155531Y-78497375D01*
X209175606Y-78517450D01*
X209369692Y-78647134D01*
X209585348Y-78736461D01*
X209814288Y-78782000D01*
X210047712Y-78782000D01*
X210276652Y-78736461D01*
X210492308Y-78647134D01*
X210686394Y-78517450D01*
X210851450Y-78352394D01*
X210981134Y-78158308D01*
X211070461Y-77942652D01*
X211116000Y-77713712D01*
X211116000Y-77480288D01*
X211070461Y-77251348D01*
X210981134Y-77035692D01*
X210851450Y-76841606D01*
X210686394Y-76676550D01*
X210492308Y-76546866D01*
X210276652Y-76457539D01*
X210047712Y-76412000D01*
X209814288Y-76412000D01*
X209585348Y-76457539D01*
X209369692Y-76546866D01*
X209175606Y-76676550D01*
X209155531Y-76696625D01*
X209165461Y-76672652D01*
X209211000Y-76443712D01*
X209211000Y-76210288D01*
X209165461Y-75981348D01*
X209155531Y-75957375D01*
X209175606Y-75977450D01*
X209369692Y-76107134D01*
X209585348Y-76196461D01*
X209814288Y-76242000D01*
X210047712Y-76242000D01*
X210276652Y-76196461D01*
X210492308Y-76107134D01*
X210686394Y-75977450D01*
X210851450Y-75812394D01*
X210981134Y-75618308D01*
X211070461Y-75402652D01*
X211116000Y-75173712D01*
X211116000Y-74940288D01*
X211070461Y-74711348D01*
X210981134Y-74495692D01*
X210851450Y-74301606D01*
X210686394Y-74136550D01*
X210492308Y-74006866D01*
X210276652Y-73917539D01*
X210047712Y-73872000D01*
X209814288Y-73872000D01*
X209585348Y-73917539D01*
X209369692Y-74006866D01*
X209175606Y-74136550D01*
X209155531Y-74156625D01*
X209165461Y-74132652D01*
X209211000Y-73903712D01*
X209211000Y-73670288D01*
X209165461Y-73441348D01*
X209155531Y-73417375D01*
X209175606Y-73437450D01*
X209369692Y-73567134D01*
X209585348Y-73656461D01*
X209814288Y-73702000D01*
X210047712Y-73702000D01*
X210276652Y-73656461D01*
X210492308Y-73567134D01*
X210686394Y-73437450D01*
X210851450Y-73272394D01*
X210981134Y-73078308D01*
X211070461Y-72862652D01*
X211116000Y-72633712D01*
X211116000Y-72400288D01*
X211070461Y-72171348D01*
X210981134Y-71955692D01*
X210851450Y-71761606D01*
X210686394Y-71596550D01*
X210492308Y-71466866D01*
X210276652Y-71377539D01*
X210047712Y-71332000D01*
X209814288Y-71332000D01*
X209585348Y-71377539D01*
X209369692Y-71466866D01*
X209175606Y-71596550D01*
X209155531Y-71616625D01*
X209165461Y-71592652D01*
X209211000Y-71363712D01*
X209211000Y-71130288D01*
X209165461Y-70901348D01*
X209155531Y-70877375D01*
X209175606Y-70897450D01*
X209369692Y-71027134D01*
X209585348Y-71116461D01*
X209814288Y-71162000D01*
X210047712Y-71162000D01*
X210276652Y-71116461D01*
X210492308Y-71027134D01*
X210686394Y-70897450D01*
X210851450Y-70732394D01*
X210981134Y-70538308D01*
X211070461Y-70322652D01*
X211116000Y-70093712D01*
X211116000Y-69860288D01*
X211070461Y-69631348D01*
X210981134Y-69415692D01*
X210851450Y-69221606D01*
X210686394Y-69056550D01*
X210492308Y-68926866D01*
X210276652Y-68837539D01*
X210047712Y-68792000D01*
X209814288Y-68792000D01*
X209585348Y-68837539D01*
X209369692Y-68926866D01*
X209175606Y-69056550D01*
X209155531Y-69076625D01*
X209165461Y-69052652D01*
X209211000Y-68823712D01*
X209211000Y-68590288D01*
X209165461Y-68361348D01*
X209155531Y-68337375D01*
X209175606Y-68357450D01*
X209369692Y-68487134D01*
X209585348Y-68576461D01*
X209814288Y-68622000D01*
X210047712Y-68622000D01*
X210276652Y-68576461D01*
X210492308Y-68487134D01*
X210686394Y-68357450D01*
X210851450Y-68192394D01*
X210981134Y-67998308D01*
X211070461Y-67782652D01*
X211116000Y-67553712D01*
X211116000Y-67320288D01*
X211070461Y-67091348D01*
X210981134Y-66875692D01*
X210851450Y-66681606D01*
X210686394Y-66516550D01*
X210492308Y-66386866D01*
X210276652Y-66297539D01*
X210047712Y-66252000D01*
X209814288Y-66252000D01*
X209585348Y-66297539D01*
X209369692Y-66386866D01*
X209175606Y-66516550D01*
X209155531Y-66536625D01*
X209165461Y-66512652D01*
X209211000Y-66283712D01*
X209211000Y-66050288D01*
X209165461Y-65821348D01*
X209155531Y-65797375D01*
X209175606Y-65817450D01*
X209369692Y-65947134D01*
X209585348Y-66036461D01*
X209814288Y-66082000D01*
X210047712Y-66082000D01*
X210276652Y-66036461D01*
X210492308Y-65947134D01*
X210686394Y-65817450D01*
X210851450Y-65652394D01*
X210981134Y-65458308D01*
X211070461Y-65242652D01*
X211116000Y-65013712D01*
X211116000Y-64780288D01*
X211070461Y-64551348D01*
X210981134Y-64335692D01*
X210851450Y-64141606D01*
X210686394Y-63976550D01*
X210492308Y-63846866D01*
X210276652Y-63757539D01*
X210047712Y-63712000D01*
X209814288Y-63712000D01*
X209585348Y-63757539D01*
X209369692Y-63846866D01*
X209175606Y-63976550D01*
X209155531Y-63996625D01*
X209165461Y-63972652D01*
X209211000Y-63743712D01*
X209211000Y-63510288D01*
X209165461Y-63281348D01*
X209076134Y-63065692D01*
X208946450Y-62871606D01*
X208781394Y-62706550D01*
X208587308Y-62576866D01*
X208371652Y-62487539D01*
X208142712Y-62442000D01*
X207909288Y-62442000D01*
X207680348Y-62487539D01*
X207464692Y-62576866D01*
X207270606Y-62706550D01*
X207165167Y-62811989D01*
X206381791Y-62811989D01*
X205810802Y-62241001D01*
X205787000Y-62211998D01*
X205671275Y-62117025D01*
X205539246Y-62046453D01*
X205395985Y-62002996D01*
X205284332Y-61991999D01*
X205284321Y-61991999D01*
X205246999Y-61988323D01*
X205209677Y-61991999D01*
X203833321Y-61991999D01*
X203795998Y-61988323D01*
X203758675Y-61991999D01*
X203758666Y-61991999D01*
X203647013Y-62002996D01*
X203503752Y-62046453D01*
X203371723Y-62117025D01*
X203255998Y-62211998D01*
X203232200Y-62240996D01*
X202611197Y-62862000D01*
X81806018Y-62862000D01*
X81731185Y-62770815D01*
X81634494Y-62691463D01*
X81524180Y-62632498D01*
X81404482Y-62596188D01*
X81280000Y-62583928D01*
X78003000Y-62583928D01*
X78003000Y-61733606D01*
X78649606Y-61087000D01*
X214085394Y-61087000D01*
X215011000Y-62012606D01*
G37*
%TD.AperFunction*%
%TD*%
D16*
%TO.N,GND*%
X215011000Y-59091606D02*
X215011000Y-63590394D01*
X214085394Y-64516000D01*
X213523606Y-64516000D01*
X212598000Y-63590394D01*
X212598000Y-63357000D01*
X212595560Y-63332224D01*
X212588333Y-63308399D01*
X212576597Y-63286443D01*
X212560803Y-63267197D01*
X211560803Y-62267197D01*
X211541557Y-62251403D01*
X211519601Y-62239667D01*
X211495776Y-62232440D01*
X211471000Y-62230000D01*
X202681106Y-62230000D01*
X202109606Y-61658500D01*
X202681106Y-61087000D01*
X202692000Y-61087000D01*
X202716776Y-61084560D01*
X202740601Y-61077333D01*
X202762557Y-61065597D01*
X202781803Y-61049803D01*
X203543803Y-60287803D01*
X203559597Y-60268557D01*
X203571333Y-60246601D01*
X203578560Y-60222776D01*
X203581000Y-60198000D01*
X203581000Y-59091606D01*
X204481606Y-58191000D01*
X214110394Y-58191000D01*
X215011000Y-59091606D01*
%TA.AperFunction,Conductor*%
D17*
G36*
X215011000Y-59091606D02*
G01*
X215011000Y-63590394D01*
X214085394Y-64516000D01*
X213523606Y-64516000D01*
X212598000Y-63590394D01*
X212598000Y-63357000D01*
X212595560Y-63332224D01*
X212588333Y-63308399D01*
X212576597Y-63286443D01*
X212560803Y-63267197D01*
X211560803Y-62267197D01*
X211541557Y-62251403D01*
X211519601Y-62239667D01*
X211495776Y-62232440D01*
X211471000Y-62230000D01*
X202681106Y-62230000D01*
X202109606Y-61658500D01*
X202681106Y-61087000D01*
X202692000Y-61087000D01*
X202716776Y-61084560D01*
X202740601Y-61077333D01*
X202762557Y-61065597D01*
X202781803Y-61049803D01*
X203543803Y-60287803D01*
X203559597Y-60268557D01*
X203571333Y-60246601D01*
X203578560Y-60222776D01*
X203581000Y-60198000D01*
X203581000Y-59091606D01*
X204481606Y-58191000D01*
X214110394Y-58191000D01*
X215011000Y-59091606D01*
G37*
%TD.AperFunction*%
%TD*%
D16*
%TO.N,GND*%
X193548000Y-59091606D02*
X193548000Y-61177394D01*
X192622394Y-62103000D01*
X176312606Y-62103000D01*
X175387000Y-61177394D01*
X175387000Y-59091606D01*
X176287606Y-58191000D01*
X192647394Y-58191000D01*
X193548000Y-59091606D01*
%TA.AperFunction,Conductor*%
D17*
G36*
X193548000Y-59091606D02*
G01*
X193548000Y-61177394D01*
X192622394Y-62103000D01*
X176312606Y-62103000D01*
X175387000Y-61177394D01*
X175387000Y-59091606D01*
X176287606Y-58191000D01*
X192647394Y-58191000D01*
X193548000Y-59091606D01*
G37*
%TD.AperFunction*%
%TD*%
M02*
