%TF.GenerationSoftware,KiCad,Pcbnew,(5.1.10)-1*%
%TF.CreationDate,2021-12-05T17:06:37+00:00*%
%TF.ProjectId,devboard,64657662-6f61-4726-942e-6b696361645f,rev?*%
%TF.SameCoordinates,Original*%
%TF.FileFunction,Paste,Top*%
%TF.FilePolarity,Positive*%
%FSLAX46Y46*%
G04 Gerber Fmt 4.6, Leading zero omitted, Abs format (unit mm)*
G04 Created by KiCad (PCBNEW (5.1.10)-1) date 2021-12-05 17:06:37*
%MOMM*%
%LPD*%
G01*
G04 APERTURE LIST*
%ADD10R,1.800000X0.650000*%
%ADD11R,4.000000X0.800000*%
G04 APERTURE END LIST*
D10*
%TO.C,J4*%
X198835000Y-75057000D03*
X198835000Y-72517000D03*
X198835000Y-69977000D03*
X196135000Y-76327000D03*
X196135000Y-73787000D03*
X196135000Y-71247000D03*
X196135000Y-68707000D03*
%TD*%
D11*
%TO.C,J1*%
X79280000Y-104262000D03*
X79280000Y-102992000D03*
X79280000Y-101722000D03*
X79280000Y-100452000D03*
X79280000Y-99182000D03*
X79280000Y-97912000D03*
X79280000Y-96642000D03*
X79280000Y-95372000D03*
X79280000Y-94102000D03*
X79280000Y-92832000D03*
X79280000Y-91562000D03*
X79280000Y-90292000D03*
X79280000Y-89022000D03*
X79280000Y-87752000D03*
X79280000Y-86482000D03*
X79280000Y-85212000D03*
X79280000Y-83942000D03*
X79280000Y-82672000D03*
X79280000Y-81402000D03*
X79280000Y-80132000D03*
X79280000Y-78862000D03*
X79280000Y-77592000D03*
X79280000Y-76322000D03*
X79280000Y-75052000D03*
X79280000Y-73782000D03*
X79280000Y-72512000D03*
X79280000Y-71242000D03*
X79280000Y-69972000D03*
X79280000Y-68702000D03*
X79280000Y-67432000D03*
X79280000Y-66162000D03*
X79280000Y-64892000D03*
X79280000Y-63622000D03*
X79280000Y-62352000D03*
%TD*%
M02*
