%FSLAX45Y45*%
G04 Gerber Fmt 4.5, Leading zero omitted, Abs format (unit mm)*
G04 Created by KiCad (PCBNEW (5.1.10)-1) date 2021-11-28 20:39:46*
%MOMM*%
%LPD*%
G01*
G04 APERTURE LIST*
%TA.AperFunction,Profile*%
%ADD10C,0.050000*%
%TD*%
%ADD11C,0.200000*%
%ADD12C,0.300000*%
G04 APERTURE END LIST*
D10*
X16802100Y-5727700D02*
X10325100Y-5727700D01*
X16802100Y-10477500D02*
X16802100Y-5727700D01*
X10325100Y-10477500D02*
X16802100Y-10477500D01*
X10325100Y-5727700D02*
X10325100Y-10477500D01*
D11*
D12*
X10609028Y-10945714D02*
X10609028Y-10645714D01*
X10680457Y-10645714D01*
X10723314Y-10660000D01*
X10751886Y-10688572D01*
X10766171Y-10717143D01*
X10780457Y-10774286D01*
X10780457Y-10817143D01*
X10766171Y-10874286D01*
X10751886Y-10902857D01*
X10723314Y-10931429D01*
X10680457Y-10945714D01*
X10609028Y-10945714D01*
X10909028Y-10945714D02*
X10909028Y-10745714D01*
X10909028Y-10802857D02*
X10923314Y-10774286D01*
X10937600Y-10760000D01*
X10966171Y-10745714D01*
X10994743Y-10745714D01*
X11094743Y-10945714D02*
X11094743Y-10745714D01*
X11094743Y-10645714D02*
X11080457Y-10660000D01*
X11094743Y-10674286D01*
X11109028Y-10660000D01*
X11094743Y-10645714D01*
X11094743Y-10674286D01*
X11280457Y-10945714D02*
X11251886Y-10931429D01*
X11237600Y-10902857D01*
X11237600Y-10645714D01*
X11437600Y-10945714D02*
X11409028Y-10931429D01*
X11394743Y-10902857D01*
X11394743Y-10645714D01*
X11780457Y-10945714D02*
X11780457Y-10645714D01*
X11880457Y-10860000D01*
X11980457Y-10645714D01*
X11980457Y-10945714D01*
X12251886Y-10945714D02*
X12251886Y-10788572D01*
X12237600Y-10760000D01*
X12209028Y-10745714D01*
X12151886Y-10745714D01*
X12123314Y-10760000D01*
X12251886Y-10931429D02*
X12223314Y-10945714D01*
X12151886Y-10945714D01*
X12123314Y-10931429D01*
X12109028Y-10902857D01*
X12109028Y-10874286D01*
X12123314Y-10845714D01*
X12151886Y-10831429D01*
X12223314Y-10831429D01*
X12251886Y-10817143D01*
X12394743Y-10745714D02*
X12394743Y-11045714D01*
X12394743Y-10760000D02*
X12423314Y-10745714D01*
X12480457Y-10745714D01*
X12509028Y-10760000D01*
X12523314Y-10774286D01*
X12537600Y-10802857D01*
X12537600Y-10888572D01*
X12523314Y-10917143D01*
X12509028Y-10931429D01*
X12480457Y-10945714D01*
X12423314Y-10945714D01*
X12394743Y-10931429D01*
X12666171Y-10917143D02*
X12680457Y-10931429D01*
X12666171Y-10945714D01*
X12651886Y-10931429D01*
X12666171Y-10917143D01*
X12666171Y-10945714D01*
X12666171Y-10760000D02*
X12680457Y-10774286D01*
X12666171Y-10788572D01*
X12651886Y-10774286D01*
X12666171Y-10760000D01*
X12666171Y-10788572D01*
M02*
