G04 #@! TF.GenerationSoftware,KiCad,Pcbnew,(5.1.10)-1*
G04 #@! TF.CreationDate,2021-11-29T18:47:30+00:00*
G04 #@! TF.ProjectId,pc_card_sound_barker,70635f63-6172-4645-9f73-6f756e645f62,rev?*
G04 #@! TF.SameCoordinates,Original*
G04 #@! TF.FileFunction,Other,Fab,Bot*
%FSLAX46Y46*%
G04 Gerber Fmt 4.6, Leading zero omitted, Abs format (unit mm)*
G04 Created by KiCad (PCBNEW (5.1.10)-1) date 2021-11-29 18:47:30*
%MOMM*%
%LPD*%
G01*
G04 APERTURE LIST*
%ADD10C,0.150000*%
G04 APERTURE END LIST*
G04 #@! TO.C,TP2*
D10*
X157852904Y-83960380D02*
X157281476Y-83960380D01*
X157567190Y-84960380D02*
X157567190Y-83960380D01*
X156948142Y-84960380D02*
X156948142Y-83960380D01*
X156567190Y-83960380D01*
X156471952Y-84008000D01*
X156424333Y-84055619D01*
X156376714Y-84150857D01*
X156376714Y-84293714D01*
X156424333Y-84388952D01*
X156471952Y-84436571D01*
X156567190Y-84484190D01*
X156948142Y-84484190D01*
X155995761Y-84055619D02*
X155948142Y-84008000D01*
X155852904Y-83960380D01*
X155614809Y-83960380D01*
X155519571Y-84008000D01*
X155471952Y-84055619D01*
X155424333Y-84150857D01*
X155424333Y-84246095D01*
X155471952Y-84388952D01*
X156043380Y-84960380D01*
X155424333Y-84960380D01*
G04 #@! TO.C,TP1*
X160011904Y-83960380D02*
X159440476Y-83960380D01*
X159726190Y-84960380D02*
X159726190Y-83960380D01*
X159107142Y-84960380D02*
X159107142Y-83960380D01*
X158726190Y-83960380D01*
X158630952Y-84008000D01*
X158583333Y-84055619D01*
X158535714Y-84150857D01*
X158535714Y-84293714D01*
X158583333Y-84388952D01*
X158630952Y-84436571D01*
X158726190Y-84484190D01*
X159107142Y-84484190D01*
X157583333Y-84960380D02*
X158154761Y-84960380D01*
X157869047Y-84960380D02*
X157869047Y-83960380D01*
X157964285Y-84103238D01*
X158059523Y-84198476D01*
X158154761Y-84246095D01*
G04 #@! TD*
M02*
