G04 #@! TF.GenerationSoftware,KiCad,Pcbnew,(5.1.10)-1*
G04 #@! TF.CreationDate,2021-11-29T18:47:30+00:00*
G04 #@! TF.ProjectId,pc_card_sound_barker,70635f63-6172-4645-9f73-6f756e645f62,rev?*
G04 #@! TF.SameCoordinates,Original*
G04 #@! TF.FileFunction,Soldermask,Bot*
G04 #@! TF.FilePolarity,Negative*
%FSLAX46Y46*%
G04 Gerber Fmt 4.6, Leading zero omitted, Abs format (unit mm)*
G04 Created by KiCad (PCBNEW (5.1.10)-1) date 2021-11-29 18:47:30*
%MOMM*%
%LPD*%
G01*
G04 APERTURE LIST*
%ADD10C,0.100000*%
%ADD11R,1.000000X1.500000*%
%ADD12C,1.000000*%
%ADD13O,1.000000X1.000000*%
%ADD14R,1.000000X1.000000*%
G04 APERTURE END LIST*
D10*
G04 #@! TO.C,JP3*
G36*
X139815000Y-61226000D02*
G01*
X140365000Y-61226000D01*
X140365000Y-61226602D01*
X140389534Y-61226602D01*
X140438365Y-61231412D01*
X140486490Y-61240984D01*
X140533445Y-61255228D01*
X140578778Y-61274005D01*
X140622051Y-61297136D01*
X140662850Y-61324396D01*
X140700779Y-61355524D01*
X140735476Y-61390221D01*
X140766604Y-61428150D01*
X140793864Y-61468949D01*
X140816995Y-61512222D01*
X140835772Y-61557555D01*
X140850016Y-61604510D01*
X140859588Y-61652635D01*
X140864398Y-61701466D01*
X140864398Y-61726000D01*
X140865000Y-61726000D01*
X140865000Y-62226000D01*
X140864398Y-62226000D01*
X140864398Y-62250534D01*
X140859588Y-62299365D01*
X140850016Y-62347490D01*
X140835772Y-62394445D01*
X140816995Y-62439778D01*
X140793864Y-62483051D01*
X140766604Y-62523850D01*
X140735476Y-62561779D01*
X140700779Y-62596476D01*
X140662850Y-62627604D01*
X140622051Y-62654864D01*
X140578778Y-62677995D01*
X140533445Y-62696772D01*
X140486490Y-62711016D01*
X140438365Y-62720588D01*
X140389534Y-62725398D01*
X140365000Y-62725398D01*
X140365000Y-62726000D01*
X139815000Y-62726000D01*
X139815000Y-61226000D01*
G37*
D11*
X139065000Y-61976000D03*
D10*
G36*
X137765000Y-62725398D02*
G01*
X137740466Y-62725398D01*
X137691635Y-62720588D01*
X137643510Y-62711016D01*
X137596555Y-62696772D01*
X137551222Y-62677995D01*
X137507949Y-62654864D01*
X137467150Y-62627604D01*
X137429221Y-62596476D01*
X137394524Y-62561779D01*
X137363396Y-62523850D01*
X137336136Y-62483051D01*
X137313005Y-62439778D01*
X137294228Y-62394445D01*
X137279984Y-62347490D01*
X137270412Y-62299365D01*
X137265602Y-62250534D01*
X137265602Y-62226000D01*
X137265000Y-62226000D01*
X137265000Y-61726000D01*
X137265602Y-61726000D01*
X137265602Y-61701466D01*
X137270412Y-61652635D01*
X137279984Y-61604510D01*
X137294228Y-61557555D01*
X137313005Y-61512222D01*
X137336136Y-61468949D01*
X137363396Y-61428150D01*
X137394524Y-61390221D01*
X137429221Y-61355524D01*
X137467150Y-61324396D01*
X137507949Y-61297136D01*
X137551222Y-61274005D01*
X137596555Y-61255228D01*
X137643510Y-61240984D01*
X137691635Y-61231412D01*
X137740466Y-61226602D01*
X137765000Y-61226602D01*
X137765000Y-61226000D01*
X138315000Y-61226000D01*
X138315000Y-62726000D01*
X137765000Y-62726000D01*
X137765000Y-62725398D01*
G37*
G04 #@! TD*
G04 #@! TO.C,JP1*
G36*
X106576000Y-69862000D02*
G01*
X107076000Y-69862000D01*
X107076000Y-69862602D01*
X107100534Y-69862602D01*
X107149365Y-69867412D01*
X107197490Y-69876984D01*
X107244445Y-69891228D01*
X107289778Y-69910005D01*
X107333051Y-69933136D01*
X107373850Y-69960396D01*
X107411779Y-69991524D01*
X107446476Y-70026221D01*
X107477604Y-70064150D01*
X107504864Y-70104949D01*
X107527995Y-70148222D01*
X107546772Y-70193555D01*
X107561016Y-70240510D01*
X107570588Y-70288635D01*
X107575398Y-70337466D01*
X107575398Y-70362000D01*
X107576000Y-70362000D01*
X107576000Y-70862000D01*
X107575398Y-70862000D01*
X107575398Y-70886534D01*
X107570588Y-70935365D01*
X107561016Y-70983490D01*
X107546772Y-71030445D01*
X107527995Y-71075778D01*
X107504864Y-71119051D01*
X107477604Y-71159850D01*
X107446476Y-71197779D01*
X107411779Y-71232476D01*
X107373850Y-71263604D01*
X107333051Y-71290864D01*
X107289778Y-71313995D01*
X107244445Y-71332772D01*
X107197490Y-71347016D01*
X107149365Y-71356588D01*
X107100534Y-71361398D01*
X107076000Y-71361398D01*
X107076000Y-71362000D01*
X106576000Y-71362000D01*
X106576000Y-69862000D01*
G37*
G36*
X105776000Y-71361398D02*
G01*
X105751466Y-71361398D01*
X105702635Y-71356588D01*
X105654510Y-71347016D01*
X105607555Y-71332772D01*
X105562222Y-71313995D01*
X105518949Y-71290864D01*
X105478150Y-71263604D01*
X105440221Y-71232476D01*
X105405524Y-71197779D01*
X105374396Y-71159850D01*
X105347136Y-71119051D01*
X105324005Y-71075778D01*
X105305228Y-71030445D01*
X105290984Y-70983490D01*
X105281412Y-70935365D01*
X105276602Y-70886534D01*
X105276602Y-70862000D01*
X105276000Y-70862000D01*
X105276000Y-70362000D01*
X105276602Y-70362000D01*
X105276602Y-70337466D01*
X105281412Y-70288635D01*
X105290984Y-70240510D01*
X105305228Y-70193555D01*
X105324005Y-70148222D01*
X105347136Y-70104949D01*
X105374396Y-70064150D01*
X105405524Y-70026221D01*
X105440221Y-69991524D01*
X105478150Y-69960396D01*
X105518949Y-69933136D01*
X105562222Y-69910005D01*
X105607555Y-69891228D01*
X105654510Y-69876984D01*
X105702635Y-69867412D01*
X105751466Y-69862602D01*
X105776000Y-69862602D01*
X105776000Y-69862000D01*
X106276000Y-69862000D01*
X106276000Y-71362000D01*
X105776000Y-71362000D01*
X105776000Y-71361398D01*
G37*
G04 #@! TD*
D12*
G04 #@! TO.C,TP2*
X156591000Y-83058000D03*
G04 #@! TD*
G04 #@! TO.C,TP1*
X158750000Y-83058000D03*
G04 #@! TD*
D13*
G04 #@! TO.C,J2*
X157226000Y-59690000D03*
X155956000Y-59690000D03*
D14*
X154686000Y-59690000D03*
G04 #@! TD*
D10*
G04 #@! TO.C,JP2*
G36*
X105776000Y-90284398D02*
G01*
X105751466Y-90284398D01*
X105702635Y-90279588D01*
X105654510Y-90270016D01*
X105607555Y-90255772D01*
X105562222Y-90236995D01*
X105518949Y-90213864D01*
X105478150Y-90186604D01*
X105440221Y-90155476D01*
X105405524Y-90120779D01*
X105374396Y-90082850D01*
X105347136Y-90042051D01*
X105324005Y-89998778D01*
X105305228Y-89953445D01*
X105290984Y-89906490D01*
X105281412Y-89858365D01*
X105276602Y-89809534D01*
X105276602Y-89785000D01*
X105276000Y-89785000D01*
X105276000Y-89285000D01*
X105276602Y-89285000D01*
X105276602Y-89260466D01*
X105281412Y-89211635D01*
X105290984Y-89163510D01*
X105305228Y-89116555D01*
X105324005Y-89071222D01*
X105347136Y-89027949D01*
X105374396Y-88987150D01*
X105405524Y-88949221D01*
X105440221Y-88914524D01*
X105478150Y-88883396D01*
X105518949Y-88856136D01*
X105562222Y-88833005D01*
X105607555Y-88814228D01*
X105654510Y-88799984D01*
X105702635Y-88790412D01*
X105751466Y-88785602D01*
X105776000Y-88785602D01*
X105776000Y-88785000D01*
X106276000Y-88785000D01*
X106276000Y-90285000D01*
X105776000Y-90285000D01*
X105776000Y-90284398D01*
G37*
G36*
X106576000Y-88785000D02*
G01*
X107076000Y-88785000D01*
X107076000Y-88785602D01*
X107100534Y-88785602D01*
X107149365Y-88790412D01*
X107197490Y-88799984D01*
X107244445Y-88814228D01*
X107289778Y-88833005D01*
X107333051Y-88856136D01*
X107373850Y-88883396D01*
X107411779Y-88914524D01*
X107446476Y-88949221D01*
X107477604Y-88987150D01*
X107504864Y-89027949D01*
X107527995Y-89071222D01*
X107546772Y-89116555D01*
X107561016Y-89163510D01*
X107570588Y-89211635D01*
X107575398Y-89260466D01*
X107575398Y-89285000D01*
X107576000Y-89285000D01*
X107576000Y-89785000D01*
X107575398Y-89785000D01*
X107575398Y-89809534D01*
X107570588Y-89858365D01*
X107561016Y-89906490D01*
X107546772Y-89953445D01*
X107527995Y-89998778D01*
X107504864Y-90042051D01*
X107477604Y-90082850D01*
X107446476Y-90120779D01*
X107411779Y-90155476D01*
X107373850Y-90186604D01*
X107333051Y-90213864D01*
X107289778Y-90236995D01*
X107244445Y-90255772D01*
X107197490Y-90270016D01*
X107149365Y-90279588D01*
X107100534Y-90284398D01*
X107076000Y-90284398D01*
X107076000Y-90285000D01*
X106576000Y-90285000D01*
X106576000Y-88785000D01*
G37*
G04 #@! TD*
M02*
