G04 #@! TF.GenerationSoftware,KiCad,Pcbnew,(5.1.10)-1*
G04 #@! TF.CreationDate,2021-11-30T15:46:28+00:00*
G04 #@! TF.ProjectId,pc_card_sound_barker,70635f63-6172-4645-9f73-6f756e645f62,rev?*
G04 #@! TF.SameCoordinates,Original*
G04 #@! TF.FileFunction,Paste,Top*
G04 #@! TF.FilePolarity,Positive*
%FSLAX46Y46*%
G04 Gerber Fmt 4.6, Leading zero omitted, Abs format (unit mm)*
G04 Created by KiCad (PCBNEW (5.1.10)-1) date 2021-11-30 15:46:28*
%MOMM*%
%LPD*%
G01*
G04 APERTURE LIST*
%ADD10R,1.000000X1.000000*%
%ADD11R,0.900000X0.900000*%
%ADD12R,0.650000X1.560000*%
%ADD13R,0.800000X0.900000*%
%ADD14R,0.450000X0.700000*%
%ADD15C,0.100000*%
%ADD16R,1.300000X0.250000*%
%ADD17R,0.250000X1.300000*%
%ADD18R,1.498600X0.304800*%
G04 APERTURE END LIST*
G04 #@! TO.C,IC4*
G36*
G01*
X154583000Y-73256000D02*
X154583000Y-73556000D01*
G75*
G02*
X154433000Y-73706000I-150000J0D01*
G01*
X152783000Y-73706000D01*
G75*
G02*
X152633000Y-73556000I0J150000D01*
G01*
X152633000Y-73256000D01*
G75*
G02*
X152783000Y-73106000I150000J0D01*
G01*
X154433000Y-73106000D01*
G75*
G02*
X154583000Y-73256000I0J-150000D01*
G01*
G37*
G36*
G01*
X154583000Y-71986000D02*
X154583000Y-72286000D01*
G75*
G02*
X154433000Y-72436000I-150000J0D01*
G01*
X152783000Y-72436000D01*
G75*
G02*
X152633000Y-72286000I0J150000D01*
G01*
X152633000Y-71986000D01*
G75*
G02*
X152783000Y-71836000I150000J0D01*
G01*
X154433000Y-71836000D01*
G75*
G02*
X154583000Y-71986000I0J-150000D01*
G01*
G37*
G36*
G01*
X154583000Y-70716000D02*
X154583000Y-71016000D01*
G75*
G02*
X154433000Y-71166000I-150000J0D01*
G01*
X152783000Y-71166000D01*
G75*
G02*
X152633000Y-71016000I0J150000D01*
G01*
X152633000Y-70716000D01*
G75*
G02*
X152783000Y-70566000I150000J0D01*
G01*
X154433000Y-70566000D01*
G75*
G02*
X154583000Y-70716000I0J-150000D01*
G01*
G37*
G36*
G01*
X154583000Y-69446000D02*
X154583000Y-69746000D01*
G75*
G02*
X154433000Y-69896000I-150000J0D01*
G01*
X152783000Y-69896000D01*
G75*
G02*
X152633000Y-69746000I0J150000D01*
G01*
X152633000Y-69446000D01*
G75*
G02*
X152783000Y-69296000I150000J0D01*
G01*
X154433000Y-69296000D01*
G75*
G02*
X154583000Y-69446000I0J-150000D01*
G01*
G37*
G36*
G01*
X159533000Y-69446000D02*
X159533000Y-69746000D01*
G75*
G02*
X159383000Y-69896000I-150000J0D01*
G01*
X157733000Y-69896000D01*
G75*
G02*
X157583000Y-69746000I0J150000D01*
G01*
X157583000Y-69446000D01*
G75*
G02*
X157733000Y-69296000I150000J0D01*
G01*
X159383000Y-69296000D01*
G75*
G02*
X159533000Y-69446000I0J-150000D01*
G01*
G37*
G36*
G01*
X159533000Y-70716000D02*
X159533000Y-71016000D01*
G75*
G02*
X159383000Y-71166000I-150000J0D01*
G01*
X157733000Y-71166000D01*
G75*
G02*
X157583000Y-71016000I0J150000D01*
G01*
X157583000Y-70716000D01*
G75*
G02*
X157733000Y-70566000I150000J0D01*
G01*
X159383000Y-70566000D01*
G75*
G02*
X159533000Y-70716000I0J-150000D01*
G01*
G37*
G36*
G01*
X159533000Y-71986000D02*
X159533000Y-72286000D01*
G75*
G02*
X159383000Y-72436000I-150000J0D01*
G01*
X157733000Y-72436000D01*
G75*
G02*
X157583000Y-72286000I0J150000D01*
G01*
X157583000Y-71986000D01*
G75*
G02*
X157733000Y-71836000I150000J0D01*
G01*
X159383000Y-71836000D01*
G75*
G02*
X159533000Y-71986000I0J-150000D01*
G01*
G37*
G36*
G01*
X159533000Y-73256000D02*
X159533000Y-73556000D01*
G75*
G02*
X159383000Y-73706000I-150000J0D01*
G01*
X157733000Y-73706000D01*
G75*
G02*
X157583000Y-73556000I0J150000D01*
G01*
X157583000Y-73256000D01*
G75*
G02*
X157733000Y-73106000I150000J0D01*
G01*
X159383000Y-73106000D01*
G75*
G02*
X159533000Y-73256000I0J-150000D01*
G01*
G37*
G04 #@! TD*
G04 #@! TO.C,U1*
G36*
G01*
X123810000Y-84890000D02*
X122485000Y-84890000D01*
G75*
G02*
X122410000Y-84815000I0J75000D01*
G01*
X122410000Y-84665000D01*
G75*
G02*
X122485000Y-84590000I75000J0D01*
G01*
X123810000Y-84590000D01*
G75*
G02*
X123885000Y-84665000I0J-75000D01*
G01*
X123885000Y-84815000D01*
G75*
G02*
X123810000Y-84890000I-75000J0D01*
G01*
G37*
G36*
G01*
X123810000Y-84390000D02*
X122485000Y-84390000D01*
G75*
G02*
X122410000Y-84315000I0J75000D01*
G01*
X122410000Y-84165000D01*
G75*
G02*
X122485000Y-84090000I75000J0D01*
G01*
X123810000Y-84090000D01*
G75*
G02*
X123885000Y-84165000I0J-75000D01*
G01*
X123885000Y-84315000D01*
G75*
G02*
X123810000Y-84390000I-75000J0D01*
G01*
G37*
G36*
G01*
X123810000Y-83890000D02*
X122485000Y-83890000D01*
G75*
G02*
X122410000Y-83815000I0J75000D01*
G01*
X122410000Y-83665000D01*
G75*
G02*
X122485000Y-83590000I75000J0D01*
G01*
X123810000Y-83590000D01*
G75*
G02*
X123885000Y-83665000I0J-75000D01*
G01*
X123885000Y-83815000D01*
G75*
G02*
X123810000Y-83890000I-75000J0D01*
G01*
G37*
G36*
G01*
X123810000Y-83390000D02*
X122485000Y-83390000D01*
G75*
G02*
X122410000Y-83315000I0J75000D01*
G01*
X122410000Y-83165000D01*
G75*
G02*
X122485000Y-83090000I75000J0D01*
G01*
X123810000Y-83090000D01*
G75*
G02*
X123885000Y-83165000I0J-75000D01*
G01*
X123885000Y-83315000D01*
G75*
G02*
X123810000Y-83390000I-75000J0D01*
G01*
G37*
G36*
G01*
X123810000Y-82890000D02*
X122485000Y-82890000D01*
G75*
G02*
X122410000Y-82815000I0J75000D01*
G01*
X122410000Y-82665000D01*
G75*
G02*
X122485000Y-82590000I75000J0D01*
G01*
X123810000Y-82590000D01*
G75*
G02*
X123885000Y-82665000I0J-75000D01*
G01*
X123885000Y-82815000D01*
G75*
G02*
X123810000Y-82890000I-75000J0D01*
G01*
G37*
G36*
G01*
X123810000Y-82390000D02*
X122485000Y-82390000D01*
G75*
G02*
X122410000Y-82315000I0J75000D01*
G01*
X122410000Y-82165000D01*
G75*
G02*
X122485000Y-82090000I75000J0D01*
G01*
X123810000Y-82090000D01*
G75*
G02*
X123885000Y-82165000I0J-75000D01*
G01*
X123885000Y-82315000D01*
G75*
G02*
X123810000Y-82390000I-75000J0D01*
G01*
G37*
G36*
G01*
X123810000Y-81890000D02*
X122485000Y-81890000D01*
G75*
G02*
X122410000Y-81815000I0J75000D01*
G01*
X122410000Y-81665000D01*
G75*
G02*
X122485000Y-81590000I75000J0D01*
G01*
X123810000Y-81590000D01*
G75*
G02*
X123885000Y-81665000I0J-75000D01*
G01*
X123885000Y-81815000D01*
G75*
G02*
X123810000Y-81890000I-75000J0D01*
G01*
G37*
G36*
G01*
X123810000Y-81390000D02*
X122485000Y-81390000D01*
G75*
G02*
X122410000Y-81315000I0J75000D01*
G01*
X122410000Y-81165000D01*
G75*
G02*
X122485000Y-81090000I75000J0D01*
G01*
X123810000Y-81090000D01*
G75*
G02*
X123885000Y-81165000I0J-75000D01*
G01*
X123885000Y-81315000D01*
G75*
G02*
X123810000Y-81390000I-75000J0D01*
G01*
G37*
G36*
G01*
X123810000Y-80890000D02*
X122485000Y-80890000D01*
G75*
G02*
X122410000Y-80815000I0J75000D01*
G01*
X122410000Y-80665000D01*
G75*
G02*
X122485000Y-80590000I75000J0D01*
G01*
X123810000Y-80590000D01*
G75*
G02*
X123885000Y-80665000I0J-75000D01*
G01*
X123885000Y-80815000D01*
G75*
G02*
X123810000Y-80890000I-75000J0D01*
G01*
G37*
G36*
G01*
X123810000Y-80390000D02*
X122485000Y-80390000D01*
G75*
G02*
X122410000Y-80315000I0J75000D01*
G01*
X122410000Y-80165000D01*
G75*
G02*
X122485000Y-80090000I75000J0D01*
G01*
X123810000Y-80090000D01*
G75*
G02*
X123885000Y-80165000I0J-75000D01*
G01*
X123885000Y-80315000D01*
G75*
G02*
X123810000Y-80390000I-75000J0D01*
G01*
G37*
G36*
G01*
X123810000Y-79890000D02*
X122485000Y-79890000D01*
G75*
G02*
X122410000Y-79815000I0J75000D01*
G01*
X122410000Y-79665000D01*
G75*
G02*
X122485000Y-79590000I75000J0D01*
G01*
X123810000Y-79590000D01*
G75*
G02*
X123885000Y-79665000I0J-75000D01*
G01*
X123885000Y-79815000D01*
G75*
G02*
X123810000Y-79890000I-75000J0D01*
G01*
G37*
G36*
G01*
X123810000Y-79390000D02*
X122485000Y-79390000D01*
G75*
G02*
X122410000Y-79315000I0J75000D01*
G01*
X122410000Y-79165000D01*
G75*
G02*
X122485000Y-79090000I75000J0D01*
G01*
X123810000Y-79090000D01*
G75*
G02*
X123885000Y-79165000I0J-75000D01*
G01*
X123885000Y-79315000D01*
G75*
G02*
X123810000Y-79390000I-75000J0D01*
G01*
G37*
G36*
G01*
X123810000Y-78890000D02*
X122485000Y-78890000D01*
G75*
G02*
X122410000Y-78815000I0J75000D01*
G01*
X122410000Y-78665000D01*
G75*
G02*
X122485000Y-78590000I75000J0D01*
G01*
X123810000Y-78590000D01*
G75*
G02*
X123885000Y-78665000I0J-75000D01*
G01*
X123885000Y-78815000D01*
G75*
G02*
X123810000Y-78890000I-75000J0D01*
G01*
G37*
G36*
G01*
X123810000Y-78390000D02*
X122485000Y-78390000D01*
G75*
G02*
X122410000Y-78315000I0J75000D01*
G01*
X122410000Y-78165000D01*
G75*
G02*
X122485000Y-78090000I75000J0D01*
G01*
X123810000Y-78090000D01*
G75*
G02*
X123885000Y-78165000I0J-75000D01*
G01*
X123885000Y-78315000D01*
G75*
G02*
X123810000Y-78390000I-75000J0D01*
G01*
G37*
G36*
G01*
X123810000Y-77890000D02*
X122485000Y-77890000D01*
G75*
G02*
X122410000Y-77815000I0J75000D01*
G01*
X122410000Y-77665000D01*
G75*
G02*
X122485000Y-77590000I75000J0D01*
G01*
X123810000Y-77590000D01*
G75*
G02*
X123885000Y-77665000I0J-75000D01*
G01*
X123885000Y-77815000D01*
G75*
G02*
X123810000Y-77890000I-75000J0D01*
G01*
G37*
G36*
G01*
X123810000Y-77390000D02*
X122485000Y-77390000D01*
G75*
G02*
X122410000Y-77315000I0J75000D01*
G01*
X122410000Y-77165000D01*
G75*
G02*
X122485000Y-77090000I75000J0D01*
G01*
X123810000Y-77090000D01*
G75*
G02*
X123885000Y-77165000I0J-75000D01*
G01*
X123885000Y-77315000D01*
G75*
G02*
X123810000Y-77390000I-75000J0D01*
G01*
G37*
G36*
G01*
X123810000Y-76890000D02*
X122485000Y-76890000D01*
G75*
G02*
X122410000Y-76815000I0J75000D01*
G01*
X122410000Y-76665000D01*
G75*
G02*
X122485000Y-76590000I75000J0D01*
G01*
X123810000Y-76590000D01*
G75*
G02*
X123885000Y-76665000I0J-75000D01*
G01*
X123885000Y-76815000D01*
G75*
G02*
X123810000Y-76890000I-75000J0D01*
G01*
G37*
G36*
G01*
X123810000Y-76390000D02*
X122485000Y-76390000D01*
G75*
G02*
X122410000Y-76315000I0J75000D01*
G01*
X122410000Y-76165000D01*
G75*
G02*
X122485000Y-76090000I75000J0D01*
G01*
X123810000Y-76090000D01*
G75*
G02*
X123885000Y-76165000I0J-75000D01*
G01*
X123885000Y-76315000D01*
G75*
G02*
X123810000Y-76390000I-75000J0D01*
G01*
G37*
G36*
G01*
X123810000Y-75890000D02*
X122485000Y-75890000D01*
G75*
G02*
X122410000Y-75815000I0J75000D01*
G01*
X122410000Y-75665000D01*
G75*
G02*
X122485000Y-75590000I75000J0D01*
G01*
X123810000Y-75590000D01*
G75*
G02*
X123885000Y-75665000I0J-75000D01*
G01*
X123885000Y-75815000D01*
G75*
G02*
X123810000Y-75890000I-75000J0D01*
G01*
G37*
G36*
G01*
X123810000Y-75390000D02*
X122485000Y-75390000D01*
G75*
G02*
X122410000Y-75315000I0J75000D01*
G01*
X122410000Y-75165000D01*
G75*
G02*
X122485000Y-75090000I75000J0D01*
G01*
X123810000Y-75090000D01*
G75*
G02*
X123885000Y-75165000I0J-75000D01*
G01*
X123885000Y-75315000D01*
G75*
G02*
X123810000Y-75390000I-75000J0D01*
G01*
G37*
G36*
G01*
X123810000Y-74890000D02*
X122485000Y-74890000D01*
G75*
G02*
X122410000Y-74815000I0J75000D01*
G01*
X122410000Y-74665000D01*
G75*
G02*
X122485000Y-74590000I75000J0D01*
G01*
X123810000Y-74590000D01*
G75*
G02*
X123885000Y-74665000I0J-75000D01*
G01*
X123885000Y-74815000D01*
G75*
G02*
X123810000Y-74890000I-75000J0D01*
G01*
G37*
G36*
G01*
X123810000Y-74390000D02*
X122485000Y-74390000D01*
G75*
G02*
X122410000Y-74315000I0J75000D01*
G01*
X122410000Y-74165000D01*
G75*
G02*
X122485000Y-74090000I75000J0D01*
G01*
X123810000Y-74090000D01*
G75*
G02*
X123885000Y-74165000I0J-75000D01*
G01*
X123885000Y-74315000D01*
G75*
G02*
X123810000Y-74390000I-75000J0D01*
G01*
G37*
G36*
G01*
X123810000Y-73890000D02*
X122485000Y-73890000D01*
G75*
G02*
X122410000Y-73815000I0J75000D01*
G01*
X122410000Y-73665000D01*
G75*
G02*
X122485000Y-73590000I75000J0D01*
G01*
X123810000Y-73590000D01*
G75*
G02*
X123885000Y-73665000I0J-75000D01*
G01*
X123885000Y-73815000D01*
G75*
G02*
X123810000Y-73890000I-75000J0D01*
G01*
G37*
G36*
G01*
X123810000Y-73390000D02*
X122485000Y-73390000D01*
G75*
G02*
X122410000Y-73315000I0J75000D01*
G01*
X122410000Y-73165000D01*
G75*
G02*
X122485000Y-73090000I75000J0D01*
G01*
X123810000Y-73090000D01*
G75*
G02*
X123885000Y-73165000I0J-75000D01*
G01*
X123885000Y-73315000D01*
G75*
G02*
X123810000Y-73390000I-75000J0D01*
G01*
G37*
G36*
G01*
X123810000Y-72890000D02*
X122485000Y-72890000D01*
G75*
G02*
X122410000Y-72815000I0J75000D01*
G01*
X122410000Y-72665000D01*
G75*
G02*
X122485000Y-72590000I75000J0D01*
G01*
X123810000Y-72590000D01*
G75*
G02*
X123885000Y-72665000I0J-75000D01*
G01*
X123885000Y-72815000D01*
G75*
G02*
X123810000Y-72890000I-75000J0D01*
G01*
G37*
G36*
G01*
X124885000Y-71815000D02*
X124735000Y-71815000D01*
G75*
G02*
X124660000Y-71740000I0J75000D01*
G01*
X124660000Y-70415000D01*
G75*
G02*
X124735000Y-70340000I75000J0D01*
G01*
X124885000Y-70340000D01*
G75*
G02*
X124960000Y-70415000I0J-75000D01*
G01*
X124960000Y-71740000D01*
G75*
G02*
X124885000Y-71815000I-75000J0D01*
G01*
G37*
G36*
G01*
X125385000Y-71815000D02*
X125235000Y-71815000D01*
G75*
G02*
X125160000Y-71740000I0J75000D01*
G01*
X125160000Y-70415000D01*
G75*
G02*
X125235000Y-70340000I75000J0D01*
G01*
X125385000Y-70340000D01*
G75*
G02*
X125460000Y-70415000I0J-75000D01*
G01*
X125460000Y-71740000D01*
G75*
G02*
X125385000Y-71815000I-75000J0D01*
G01*
G37*
G36*
G01*
X125885000Y-71815000D02*
X125735000Y-71815000D01*
G75*
G02*
X125660000Y-71740000I0J75000D01*
G01*
X125660000Y-70415000D01*
G75*
G02*
X125735000Y-70340000I75000J0D01*
G01*
X125885000Y-70340000D01*
G75*
G02*
X125960000Y-70415000I0J-75000D01*
G01*
X125960000Y-71740000D01*
G75*
G02*
X125885000Y-71815000I-75000J0D01*
G01*
G37*
G36*
G01*
X126385000Y-71815000D02*
X126235000Y-71815000D01*
G75*
G02*
X126160000Y-71740000I0J75000D01*
G01*
X126160000Y-70415000D01*
G75*
G02*
X126235000Y-70340000I75000J0D01*
G01*
X126385000Y-70340000D01*
G75*
G02*
X126460000Y-70415000I0J-75000D01*
G01*
X126460000Y-71740000D01*
G75*
G02*
X126385000Y-71815000I-75000J0D01*
G01*
G37*
G36*
G01*
X126885000Y-71815000D02*
X126735000Y-71815000D01*
G75*
G02*
X126660000Y-71740000I0J75000D01*
G01*
X126660000Y-70415000D01*
G75*
G02*
X126735000Y-70340000I75000J0D01*
G01*
X126885000Y-70340000D01*
G75*
G02*
X126960000Y-70415000I0J-75000D01*
G01*
X126960000Y-71740000D01*
G75*
G02*
X126885000Y-71815000I-75000J0D01*
G01*
G37*
G36*
G01*
X127385000Y-71815000D02*
X127235000Y-71815000D01*
G75*
G02*
X127160000Y-71740000I0J75000D01*
G01*
X127160000Y-70415000D01*
G75*
G02*
X127235000Y-70340000I75000J0D01*
G01*
X127385000Y-70340000D01*
G75*
G02*
X127460000Y-70415000I0J-75000D01*
G01*
X127460000Y-71740000D01*
G75*
G02*
X127385000Y-71815000I-75000J0D01*
G01*
G37*
G36*
G01*
X127885000Y-71815000D02*
X127735000Y-71815000D01*
G75*
G02*
X127660000Y-71740000I0J75000D01*
G01*
X127660000Y-70415000D01*
G75*
G02*
X127735000Y-70340000I75000J0D01*
G01*
X127885000Y-70340000D01*
G75*
G02*
X127960000Y-70415000I0J-75000D01*
G01*
X127960000Y-71740000D01*
G75*
G02*
X127885000Y-71815000I-75000J0D01*
G01*
G37*
G36*
G01*
X128385000Y-71815000D02*
X128235000Y-71815000D01*
G75*
G02*
X128160000Y-71740000I0J75000D01*
G01*
X128160000Y-70415000D01*
G75*
G02*
X128235000Y-70340000I75000J0D01*
G01*
X128385000Y-70340000D01*
G75*
G02*
X128460000Y-70415000I0J-75000D01*
G01*
X128460000Y-71740000D01*
G75*
G02*
X128385000Y-71815000I-75000J0D01*
G01*
G37*
G36*
G01*
X128885000Y-71815000D02*
X128735000Y-71815000D01*
G75*
G02*
X128660000Y-71740000I0J75000D01*
G01*
X128660000Y-70415000D01*
G75*
G02*
X128735000Y-70340000I75000J0D01*
G01*
X128885000Y-70340000D01*
G75*
G02*
X128960000Y-70415000I0J-75000D01*
G01*
X128960000Y-71740000D01*
G75*
G02*
X128885000Y-71815000I-75000J0D01*
G01*
G37*
G36*
G01*
X129385000Y-71815000D02*
X129235000Y-71815000D01*
G75*
G02*
X129160000Y-71740000I0J75000D01*
G01*
X129160000Y-70415000D01*
G75*
G02*
X129235000Y-70340000I75000J0D01*
G01*
X129385000Y-70340000D01*
G75*
G02*
X129460000Y-70415000I0J-75000D01*
G01*
X129460000Y-71740000D01*
G75*
G02*
X129385000Y-71815000I-75000J0D01*
G01*
G37*
G36*
G01*
X129885000Y-71815000D02*
X129735000Y-71815000D01*
G75*
G02*
X129660000Y-71740000I0J75000D01*
G01*
X129660000Y-70415000D01*
G75*
G02*
X129735000Y-70340000I75000J0D01*
G01*
X129885000Y-70340000D01*
G75*
G02*
X129960000Y-70415000I0J-75000D01*
G01*
X129960000Y-71740000D01*
G75*
G02*
X129885000Y-71815000I-75000J0D01*
G01*
G37*
G36*
G01*
X130385000Y-71815000D02*
X130235000Y-71815000D01*
G75*
G02*
X130160000Y-71740000I0J75000D01*
G01*
X130160000Y-70415000D01*
G75*
G02*
X130235000Y-70340000I75000J0D01*
G01*
X130385000Y-70340000D01*
G75*
G02*
X130460000Y-70415000I0J-75000D01*
G01*
X130460000Y-71740000D01*
G75*
G02*
X130385000Y-71815000I-75000J0D01*
G01*
G37*
G36*
G01*
X130885000Y-71815000D02*
X130735000Y-71815000D01*
G75*
G02*
X130660000Y-71740000I0J75000D01*
G01*
X130660000Y-70415000D01*
G75*
G02*
X130735000Y-70340000I75000J0D01*
G01*
X130885000Y-70340000D01*
G75*
G02*
X130960000Y-70415000I0J-75000D01*
G01*
X130960000Y-71740000D01*
G75*
G02*
X130885000Y-71815000I-75000J0D01*
G01*
G37*
G36*
G01*
X131385000Y-71815000D02*
X131235000Y-71815000D01*
G75*
G02*
X131160000Y-71740000I0J75000D01*
G01*
X131160000Y-70415000D01*
G75*
G02*
X131235000Y-70340000I75000J0D01*
G01*
X131385000Y-70340000D01*
G75*
G02*
X131460000Y-70415000I0J-75000D01*
G01*
X131460000Y-71740000D01*
G75*
G02*
X131385000Y-71815000I-75000J0D01*
G01*
G37*
G36*
G01*
X131885000Y-71815000D02*
X131735000Y-71815000D01*
G75*
G02*
X131660000Y-71740000I0J75000D01*
G01*
X131660000Y-70415000D01*
G75*
G02*
X131735000Y-70340000I75000J0D01*
G01*
X131885000Y-70340000D01*
G75*
G02*
X131960000Y-70415000I0J-75000D01*
G01*
X131960000Y-71740000D01*
G75*
G02*
X131885000Y-71815000I-75000J0D01*
G01*
G37*
G36*
G01*
X132385000Y-71815000D02*
X132235000Y-71815000D01*
G75*
G02*
X132160000Y-71740000I0J75000D01*
G01*
X132160000Y-70415000D01*
G75*
G02*
X132235000Y-70340000I75000J0D01*
G01*
X132385000Y-70340000D01*
G75*
G02*
X132460000Y-70415000I0J-75000D01*
G01*
X132460000Y-71740000D01*
G75*
G02*
X132385000Y-71815000I-75000J0D01*
G01*
G37*
G36*
G01*
X132885000Y-71815000D02*
X132735000Y-71815000D01*
G75*
G02*
X132660000Y-71740000I0J75000D01*
G01*
X132660000Y-70415000D01*
G75*
G02*
X132735000Y-70340000I75000J0D01*
G01*
X132885000Y-70340000D01*
G75*
G02*
X132960000Y-70415000I0J-75000D01*
G01*
X132960000Y-71740000D01*
G75*
G02*
X132885000Y-71815000I-75000J0D01*
G01*
G37*
G36*
G01*
X133385000Y-71815000D02*
X133235000Y-71815000D01*
G75*
G02*
X133160000Y-71740000I0J75000D01*
G01*
X133160000Y-70415000D01*
G75*
G02*
X133235000Y-70340000I75000J0D01*
G01*
X133385000Y-70340000D01*
G75*
G02*
X133460000Y-70415000I0J-75000D01*
G01*
X133460000Y-71740000D01*
G75*
G02*
X133385000Y-71815000I-75000J0D01*
G01*
G37*
G36*
G01*
X133885000Y-71815000D02*
X133735000Y-71815000D01*
G75*
G02*
X133660000Y-71740000I0J75000D01*
G01*
X133660000Y-70415000D01*
G75*
G02*
X133735000Y-70340000I75000J0D01*
G01*
X133885000Y-70340000D01*
G75*
G02*
X133960000Y-70415000I0J-75000D01*
G01*
X133960000Y-71740000D01*
G75*
G02*
X133885000Y-71815000I-75000J0D01*
G01*
G37*
G36*
G01*
X134385000Y-71815000D02*
X134235000Y-71815000D01*
G75*
G02*
X134160000Y-71740000I0J75000D01*
G01*
X134160000Y-70415000D01*
G75*
G02*
X134235000Y-70340000I75000J0D01*
G01*
X134385000Y-70340000D01*
G75*
G02*
X134460000Y-70415000I0J-75000D01*
G01*
X134460000Y-71740000D01*
G75*
G02*
X134385000Y-71815000I-75000J0D01*
G01*
G37*
G36*
G01*
X134885000Y-71815000D02*
X134735000Y-71815000D01*
G75*
G02*
X134660000Y-71740000I0J75000D01*
G01*
X134660000Y-70415000D01*
G75*
G02*
X134735000Y-70340000I75000J0D01*
G01*
X134885000Y-70340000D01*
G75*
G02*
X134960000Y-70415000I0J-75000D01*
G01*
X134960000Y-71740000D01*
G75*
G02*
X134885000Y-71815000I-75000J0D01*
G01*
G37*
G36*
G01*
X135385000Y-71815000D02*
X135235000Y-71815000D01*
G75*
G02*
X135160000Y-71740000I0J75000D01*
G01*
X135160000Y-70415000D01*
G75*
G02*
X135235000Y-70340000I75000J0D01*
G01*
X135385000Y-70340000D01*
G75*
G02*
X135460000Y-70415000I0J-75000D01*
G01*
X135460000Y-71740000D01*
G75*
G02*
X135385000Y-71815000I-75000J0D01*
G01*
G37*
G36*
G01*
X135885000Y-71815000D02*
X135735000Y-71815000D01*
G75*
G02*
X135660000Y-71740000I0J75000D01*
G01*
X135660000Y-70415000D01*
G75*
G02*
X135735000Y-70340000I75000J0D01*
G01*
X135885000Y-70340000D01*
G75*
G02*
X135960000Y-70415000I0J-75000D01*
G01*
X135960000Y-71740000D01*
G75*
G02*
X135885000Y-71815000I-75000J0D01*
G01*
G37*
G36*
G01*
X136385000Y-71815000D02*
X136235000Y-71815000D01*
G75*
G02*
X136160000Y-71740000I0J75000D01*
G01*
X136160000Y-70415000D01*
G75*
G02*
X136235000Y-70340000I75000J0D01*
G01*
X136385000Y-70340000D01*
G75*
G02*
X136460000Y-70415000I0J-75000D01*
G01*
X136460000Y-71740000D01*
G75*
G02*
X136385000Y-71815000I-75000J0D01*
G01*
G37*
G36*
G01*
X136885000Y-71815000D02*
X136735000Y-71815000D01*
G75*
G02*
X136660000Y-71740000I0J75000D01*
G01*
X136660000Y-70415000D01*
G75*
G02*
X136735000Y-70340000I75000J0D01*
G01*
X136885000Y-70340000D01*
G75*
G02*
X136960000Y-70415000I0J-75000D01*
G01*
X136960000Y-71740000D01*
G75*
G02*
X136885000Y-71815000I-75000J0D01*
G01*
G37*
G36*
G01*
X139135000Y-72890000D02*
X137810000Y-72890000D01*
G75*
G02*
X137735000Y-72815000I0J75000D01*
G01*
X137735000Y-72665000D01*
G75*
G02*
X137810000Y-72590000I75000J0D01*
G01*
X139135000Y-72590000D01*
G75*
G02*
X139210000Y-72665000I0J-75000D01*
G01*
X139210000Y-72815000D01*
G75*
G02*
X139135000Y-72890000I-75000J0D01*
G01*
G37*
G36*
G01*
X139135000Y-73390000D02*
X137810000Y-73390000D01*
G75*
G02*
X137735000Y-73315000I0J75000D01*
G01*
X137735000Y-73165000D01*
G75*
G02*
X137810000Y-73090000I75000J0D01*
G01*
X139135000Y-73090000D01*
G75*
G02*
X139210000Y-73165000I0J-75000D01*
G01*
X139210000Y-73315000D01*
G75*
G02*
X139135000Y-73390000I-75000J0D01*
G01*
G37*
G36*
G01*
X139135000Y-73890000D02*
X137810000Y-73890000D01*
G75*
G02*
X137735000Y-73815000I0J75000D01*
G01*
X137735000Y-73665000D01*
G75*
G02*
X137810000Y-73590000I75000J0D01*
G01*
X139135000Y-73590000D01*
G75*
G02*
X139210000Y-73665000I0J-75000D01*
G01*
X139210000Y-73815000D01*
G75*
G02*
X139135000Y-73890000I-75000J0D01*
G01*
G37*
G36*
G01*
X139135000Y-74390000D02*
X137810000Y-74390000D01*
G75*
G02*
X137735000Y-74315000I0J75000D01*
G01*
X137735000Y-74165000D01*
G75*
G02*
X137810000Y-74090000I75000J0D01*
G01*
X139135000Y-74090000D01*
G75*
G02*
X139210000Y-74165000I0J-75000D01*
G01*
X139210000Y-74315000D01*
G75*
G02*
X139135000Y-74390000I-75000J0D01*
G01*
G37*
G36*
G01*
X139135000Y-74890000D02*
X137810000Y-74890000D01*
G75*
G02*
X137735000Y-74815000I0J75000D01*
G01*
X137735000Y-74665000D01*
G75*
G02*
X137810000Y-74590000I75000J0D01*
G01*
X139135000Y-74590000D01*
G75*
G02*
X139210000Y-74665000I0J-75000D01*
G01*
X139210000Y-74815000D01*
G75*
G02*
X139135000Y-74890000I-75000J0D01*
G01*
G37*
G36*
G01*
X139135000Y-75390000D02*
X137810000Y-75390000D01*
G75*
G02*
X137735000Y-75315000I0J75000D01*
G01*
X137735000Y-75165000D01*
G75*
G02*
X137810000Y-75090000I75000J0D01*
G01*
X139135000Y-75090000D01*
G75*
G02*
X139210000Y-75165000I0J-75000D01*
G01*
X139210000Y-75315000D01*
G75*
G02*
X139135000Y-75390000I-75000J0D01*
G01*
G37*
G36*
G01*
X139135000Y-75890000D02*
X137810000Y-75890000D01*
G75*
G02*
X137735000Y-75815000I0J75000D01*
G01*
X137735000Y-75665000D01*
G75*
G02*
X137810000Y-75590000I75000J0D01*
G01*
X139135000Y-75590000D01*
G75*
G02*
X139210000Y-75665000I0J-75000D01*
G01*
X139210000Y-75815000D01*
G75*
G02*
X139135000Y-75890000I-75000J0D01*
G01*
G37*
G36*
G01*
X139135000Y-76390000D02*
X137810000Y-76390000D01*
G75*
G02*
X137735000Y-76315000I0J75000D01*
G01*
X137735000Y-76165000D01*
G75*
G02*
X137810000Y-76090000I75000J0D01*
G01*
X139135000Y-76090000D01*
G75*
G02*
X139210000Y-76165000I0J-75000D01*
G01*
X139210000Y-76315000D01*
G75*
G02*
X139135000Y-76390000I-75000J0D01*
G01*
G37*
G36*
G01*
X139135000Y-76890000D02*
X137810000Y-76890000D01*
G75*
G02*
X137735000Y-76815000I0J75000D01*
G01*
X137735000Y-76665000D01*
G75*
G02*
X137810000Y-76590000I75000J0D01*
G01*
X139135000Y-76590000D01*
G75*
G02*
X139210000Y-76665000I0J-75000D01*
G01*
X139210000Y-76815000D01*
G75*
G02*
X139135000Y-76890000I-75000J0D01*
G01*
G37*
G36*
G01*
X139135000Y-77390000D02*
X137810000Y-77390000D01*
G75*
G02*
X137735000Y-77315000I0J75000D01*
G01*
X137735000Y-77165000D01*
G75*
G02*
X137810000Y-77090000I75000J0D01*
G01*
X139135000Y-77090000D01*
G75*
G02*
X139210000Y-77165000I0J-75000D01*
G01*
X139210000Y-77315000D01*
G75*
G02*
X139135000Y-77390000I-75000J0D01*
G01*
G37*
G36*
G01*
X139135000Y-77890000D02*
X137810000Y-77890000D01*
G75*
G02*
X137735000Y-77815000I0J75000D01*
G01*
X137735000Y-77665000D01*
G75*
G02*
X137810000Y-77590000I75000J0D01*
G01*
X139135000Y-77590000D01*
G75*
G02*
X139210000Y-77665000I0J-75000D01*
G01*
X139210000Y-77815000D01*
G75*
G02*
X139135000Y-77890000I-75000J0D01*
G01*
G37*
G36*
G01*
X139135000Y-78390000D02*
X137810000Y-78390000D01*
G75*
G02*
X137735000Y-78315000I0J75000D01*
G01*
X137735000Y-78165000D01*
G75*
G02*
X137810000Y-78090000I75000J0D01*
G01*
X139135000Y-78090000D01*
G75*
G02*
X139210000Y-78165000I0J-75000D01*
G01*
X139210000Y-78315000D01*
G75*
G02*
X139135000Y-78390000I-75000J0D01*
G01*
G37*
G36*
G01*
X139135000Y-78890000D02*
X137810000Y-78890000D01*
G75*
G02*
X137735000Y-78815000I0J75000D01*
G01*
X137735000Y-78665000D01*
G75*
G02*
X137810000Y-78590000I75000J0D01*
G01*
X139135000Y-78590000D01*
G75*
G02*
X139210000Y-78665000I0J-75000D01*
G01*
X139210000Y-78815000D01*
G75*
G02*
X139135000Y-78890000I-75000J0D01*
G01*
G37*
G36*
G01*
X139135000Y-79390000D02*
X137810000Y-79390000D01*
G75*
G02*
X137735000Y-79315000I0J75000D01*
G01*
X137735000Y-79165000D01*
G75*
G02*
X137810000Y-79090000I75000J0D01*
G01*
X139135000Y-79090000D01*
G75*
G02*
X139210000Y-79165000I0J-75000D01*
G01*
X139210000Y-79315000D01*
G75*
G02*
X139135000Y-79390000I-75000J0D01*
G01*
G37*
G36*
G01*
X139135000Y-79890000D02*
X137810000Y-79890000D01*
G75*
G02*
X137735000Y-79815000I0J75000D01*
G01*
X137735000Y-79665000D01*
G75*
G02*
X137810000Y-79590000I75000J0D01*
G01*
X139135000Y-79590000D01*
G75*
G02*
X139210000Y-79665000I0J-75000D01*
G01*
X139210000Y-79815000D01*
G75*
G02*
X139135000Y-79890000I-75000J0D01*
G01*
G37*
G36*
G01*
X139135000Y-80390000D02*
X137810000Y-80390000D01*
G75*
G02*
X137735000Y-80315000I0J75000D01*
G01*
X137735000Y-80165000D01*
G75*
G02*
X137810000Y-80090000I75000J0D01*
G01*
X139135000Y-80090000D01*
G75*
G02*
X139210000Y-80165000I0J-75000D01*
G01*
X139210000Y-80315000D01*
G75*
G02*
X139135000Y-80390000I-75000J0D01*
G01*
G37*
G36*
G01*
X139135000Y-80890000D02*
X137810000Y-80890000D01*
G75*
G02*
X137735000Y-80815000I0J75000D01*
G01*
X137735000Y-80665000D01*
G75*
G02*
X137810000Y-80590000I75000J0D01*
G01*
X139135000Y-80590000D01*
G75*
G02*
X139210000Y-80665000I0J-75000D01*
G01*
X139210000Y-80815000D01*
G75*
G02*
X139135000Y-80890000I-75000J0D01*
G01*
G37*
G36*
G01*
X139135000Y-81390000D02*
X137810000Y-81390000D01*
G75*
G02*
X137735000Y-81315000I0J75000D01*
G01*
X137735000Y-81165000D01*
G75*
G02*
X137810000Y-81090000I75000J0D01*
G01*
X139135000Y-81090000D01*
G75*
G02*
X139210000Y-81165000I0J-75000D01*
G01*
X139210000Y-81315000D01*
G75*
G02*
X139135000Y-81390000I-75000J0D01*
G01*
G37*
G36*
G01*
X139135000Y-81890000D02*
X137810000Y-81890000D01*
G75*
G02*
X137735000Y-81815000I0J75000D01*
G01*
X137735000Y-81665000D01*
G75*
G02*
X137810000Y-81590000I75000J0D01*
G01*
X139135000Y-81590000D01*
G75*
G02*
X139210000Y-81665000I0J-75000D01*
G01*
X139210000Y-81815000D01*
G75*
G02*
X139135000Y-81890000I-75000J0D01*
G01*
G37*
G36*
G01*
X139135000Y-82390000D02*
X137810000Y-82390000D01*
G75*
G02*
X137735000Y-82315000I0J75000D01*
G01*
X137735000Y-82165000D01*
G75*
G02*
X137810000Y-82090000I75000J0D01*
G01*
X139135000Y-82090000D01*
G75*
G02*
X139210000Y-82165000I0J-75000D01*
G01*
X139210000Y-82315000D01*
G75*
G02*
X139135000Y-82390000I-75000J0D01*
G01*
G37*
G36*
G01*
X139135000Y-82890000D02*
X137810000Y-82890000D01*
G75*
G02*
X137735000Y-82815000I0J75000D01*
G01*
X137735000Y-82665000D01*
G75*
G02*
X137810000Y-82590000I75000J0D01*
G01*
X139135000Y-82590000D01*
G75*
G02*
X139210000Y-82665000I0J-75000D01*
G01*
X139210000Y-82815000D01*
G75*
G02*
X139135000Y-82890000I-75000J0D01*
G01*
G37*
G36*
G01*
X139135000Y-83390000D02*
X137810000Y-83390000D01*
G75*
G02*
X137735000Y-83315000I0J75000D01*
G01*
X137735000Y-83165000D01*
G75*
G02*
X137810000Y-83090000I75000J0D01*
G01*
X139135000Y-83090000D01*
G75*
G02*
X139210000Y-83165000I0J-75000D01*
G01*
X139210000Y-83315000D01*
G75*
G02*
X139135000Y-83390000I-75000J0D01*
G01*
G37*
G36*
G01*
X139135000Y-83890000D02*
X137810000Y-83890000D01*
G75*
G02*
X137735000Y-83815000I0J75000D01*
G01*
X137735000Y-83665000D01*
G75*
G02*
X137810000Y-83590000I75000J0D01*
G01*
X139135000Y-83590000D01*
G75*
G02*
X139210000Y-83665000I0J-75000D01*
G01*
X139210000Y-83815000D01*
G75*
G02*
X139135000Y-83890000I-75000J0D01*
G01*
G37*
G36*
G01*
X139135000Y-84390000D02*
X137810000Y-84390000D01*
G75*
G02*
X137735000Y-84315000I0J75000D01*
G01*
X137735000Y-84165000D01*
G75*
G02*
X137810000Y-84090000I75000J0D01*
G01*
X139135000Y-84090000D01*
G75*
G02*
X139210000Y-84165000I0J-75000D01*
G01*
X139210000Y-84315000D01*
G75*
G02*
X139135000Y-84390000I-75000J0D01*
G01*
G37*
G36*
G01*
X139135000Y-84890000D02*
X137810000Y-84890000D01*
G75*
G02*
X137735000Y-84815000I0J75000D01*
G01*
X137735000Y-84665000D01*
G75*
G02*
X137810000Y-84590000I75000J0D01*
G01*
X139135000Y-84590000D01*
G75*
G02*
X139210000Y-84665000I0J-75000D01*
G01*
X139210000Y-84815000D01*
G75*
G02*
X139135000Y-84890000I-75000J0D01*
G01*
G37*
G36*
G01*
X136885000Y-87140000D02*
X136735000Y-87140000D01*
G75*
G02*
X136660000Y-87065000I0J75000D01*
G01*
X136660000Y-85740000D01*
G75*
G02*
X136735000Y-85665000I75000J0D01*
G01*
X136885000Y-85665000D01*
G75*
G02*
X136960000Y-85740000I0J-75000D01*
G01*
X136960000Y-87065000D01*
G75*
G02*
X136885000Y-87140000I-75000J0D01*
G01*
G37*
G36*
G01*
X136385000Y-87140000D02*
X136235000Y-87140000D01*
G75*
G02*
X136160000Y-87065000I0J75000D01*
G01*
X136160000Y-85740000D01*
G75*
G02*
X136235000Y-85665000I75000J0D01*
G01*
X136385000Y-85665000D01*
G75*
G02*
X136460000Y-85740000I0J-75000D01*
G01*
X136460000Y-87065000D01*
G75*
G02*
X136385000Y-87140000I-75000J0D01*
G01*
G37*
G36*
G01*
X135885000Y-87140000D02*
X135735000Y-87140000D01*
G75*
G02*
X135660000Y-87065000I0J75000D01*
G01*
X135660000Y-85740000D01*
G75*
G02*
X135735000Y-85665000I75000J0D01*
G01*
X135885000Y-85665000D01*
G75*
G02*
X135960000Y-85740000I0J-75000D01*
G01*
X135960000Y-87065000D01*
G75*
G02*
X135885000Y-87140000I-75000J0D01*
G01*
G37*
G36*
G01*
X135385000Y-87140000D02*
X135235000Y-87140000D01*
G75*
G02*
X135160000Y-87065000I0J75000D01*
G01*
X135160000Y-85740000D01*
G75*
G02*
X135235000Y-85665000I75000J0D01*
G01*
X135385000Y-85665000D01*
G75*
G02*
X135460000Y-85740000I0J-75000D01*
G01*
X135460000Y-87065000D01*
G75*
G02*
X135385000Y-87140000I-75000J0D01*
G01*
G37*
G36*
G01*
X134885000Y-87140000D02*
X134735000Y-87140000D01*
G75*
G02*
X134660000Y-87065000I0J75000D01*
G01*
X134660000Y-85740000D01*
G75*
G02*
X134735000Y-85665000I75000J0D01*
G01*
X134885000Y-85665000D01*
G75*
G02*
X134960000Y-85740000I0J-75000D01*
G01*
X134960000Y-87065000D01*
G75*
G02*
X134885000Y-87140000I-75000J0D01*
G01*
G37*
G36*
G01*
X134385000Y-87140000D02*
X134235000Y-87140000D01*
G75*
G02*
X134160000Y-87065000I0J75000D01*
G01*
X134160000Y-85740000D01*
G75*
G02*
X134235000Y-85665000I75000J0D01*
G01*
X134385000Y-85665000D01*
G75*
G02*
X134460000Y-85740000I0J-75000D01*
G01*
X134460000Y-87065000D01*
G75*
G02*
X134385000Y-87140000I-75000J0D01*
G01*
G37*
G36*
G01*
X133885000Y-87140000D02*
X133735000Y-87140000D01*
G75*
G02*
X133660000Y-87065000I0J75000D01*
G01*
X133660000Y-85740000D01*
G75*
G02*
X133735000Y-85665000I75000J0D01*
G01*
X133885000Y-85665000D01*
G75*
G02*
X133960000Y-85740000I0J-75000D01*
G01*
X133960000Y-87065000D01*
G75*
G02*
X133885000Y-87140000I-75000J0D01*
G01*
G37*
G36*
G01*
X133385000Y-87140000D02*
X133235000Y-87140000D01*
G75*
G02*
X133160000Y-87065000I0J75000D01*
G01*
X133160000Y-85740000D01*
G75*
G02*
X133235000Y-85665000I75000J0D01*
G01*
X133385000Y-85665000D01*
G75*
G02*
X133460000Y-85740000I0J-75000D01*
G01*
X133460000Y-87065000D01*
G75*
G02*
X133385000Y-87140000I-75000J0D01*
G01*
G37*
G36*
G01*
X132885000Y-87140000D02*
X132735000Y-87140000D01*
G75*
G02*
X132660000Y-87065000I0J75000D01*
G01*
X132660000Y-85740000D01*
G75*
G02*
X132735000Y-85665000I75000J0D01*
G01*
X132885000Y-85665000D01*
G75*
G02*
X132960000Y-85740000I0J-75000D01*
G01*
X132960000Y-87065000D01*
G75*
G02*
X132885000Y-87140000I-75000J0D01*
G01*
G37*
G36*
G01*
X132385000Y-87140000D02*
X132235000Y-87140000D01*
G75*
G02*
X132160000Y-87065000I0J75000D01*
G01*
X132160000Y-85740000D01*
G75*
G02*
X132235000Y-85665000I75000J0D01*
G01*
X132385000Y-85665000D01*
G75*
G02*
X132460000Y-85740000I0J-75000D01*
G01*
X132460000Y-87065000D01*
G75*
G02*
X132385000Y-87140000I-75000J0D01*
G01*
G37*
G36*
G01*
X131885000Y-87140000D02*
X131735000Y-87140000D01*
G75*
G02*
X131660000Y-87065000I0J75000D01*
G01*
X131660000Y-85740000D01*
G75*
G02*
X131735000Y-85665000I75000J0D01*
G01*
X131885000Y-85665000D01*
G75*
G02*
X131960000Y-85740000I0J-75000D01*
G01*
X131960000Y-87065000D01*
G75*
G02*
X131885000Y-87140000I-75000J0D01*
G01*
G37*
G36*
G01*
X131385000Y-87140000D02*
X131235000Y-87140000D01*
G75*
G02*
X131160000Y-87065000I0J75000D01*
G01*
X131160000Y-85740000D01*
G75*
G02*
X131235000Y-85665000I75000J0D01*
G01*
X131385000Y-85665000D01*
G75*
G02*
X131460000Y-85740000I0J-75000D01*
G01*
X131460000Y-87065000D01*
G75*
G02*
X131385000Y-87140000I-75000J0D01*
G01*
G37*
G36*
G01*
X130885000Y-87140000D02*
X130735000Y-87140000D01*
G75*
G02*
X130660000Y-87065000I0J75000D01*
G01*
X130660000Y-85740000D01*
G75*
G02*
X130735000Y-85665000I75000J0D01*
G01*
X130885000Y-85665000D01*
G75*
G02*
X130960000Y-85740000I0J-75000D01*
G01*
X130960000Y-87065000D01*
G75*
G02*
X130885000Y-87140000I-75000J0D01*
G01*
G37*
G36*
G01*
X130385000Y-87140000D02*
X130235000Y-87140000D01*
G75*
G02*
X130160000Y-87065000I0J75000D01*
G01*
X130160000Y-85740000D01*
G75*
G02*
X130235000Y-85665000I75000J0D01*
G01*
X130385000Y-85665000D01*
G75*
G02*
X130460000Y-85740000I0J-75000D01*
G01*
X130460000Y-87065000D01*
G75*
G02*
X130385000Y-87140000I-75000J0D01*
G01*
G37*
G36*
G01*
X129885000Y-87140000D02*
X129735000Y-87140000D01*
G75*
G02*
X129660000Y-87065000I0J75000D01*
G01*
X129660000Y-85740000D01*
G75*
G02*
X129735000Y-85665000I75000J0D01*
G01*
X129885000Y-85665000D01*
G75*
G02*
X129960000Y-85740000I0J-75000D01*
G01*
X129960000Y-87065000D01*
G75*
G02*
X129885000Y-87140000I-75000J0D01*
G01*
G37*
G36*
G01*
X129385000Y-87140000D02*
X129235000Y-87140000D01*
G75*
G02*
X129160000Y-87065000I0J75000D01*
G01*
X129160000Y-85740000D01*
G75*
G02*
X129235000Y-85665000I75000J0D01*
G01*
X129385000Y-85665000D01*
G75*
G02*
X129460000Y-85740000I0J-75000D01*
G01*
X129460000Y-87065000D01*
G75*
G02*
X129385000Y-87140000I-75000J0D01*
G01*
G37*
G36*
G01*
X128885000Y-87140000D02*
X128735000Y-87140000D01*
G75*
G02*
X128660000Y-87065000I0J75000D01*
G01*
X128660000Y-85740000D01*
G75*
G02*
X128735000Y-85665000I75000J0D01*
G01*
X128885000Y-85665000D01*
G75*
G02*
X128960000Y-85740000I0J-75000D01*
G01*
X128960000Y-87065000D01*
G75*
G02*
X128885000Y-87140000I-75000J0D01*
G01*
G37*
G36*
G01*
X128385000Y-87140000D02*
X128235000Y-87140000D01*
G75*
G02*
X128160000Y-87065000I0J75000D01*
G01*
X128160000Y-85740000D01*
G75*
G02*
X128235000Y-85665000I75000J0D01*
G01*
X128385000Y-85665000D01*
G75*
G02*
X128460000Y-85740000I0J-75000D01*
G01*
X128460000Y-87065000D01*
G75*
G02*
X128385000Y-87140000I-75000J0D01*
G01*
G37*
G36*
G01*
X127885000Y-87140000D02*
X127735000Y-87140000D01*
G75*
G02*
X127660000Y-87065000I0J75000D01*
G01*
X127660000Y-85740000D01*
G75*
G02*
X127735000Y-85665000I75000J0D01*
G01*
X127885000Y-85665000D01*
G75*
G02*
X127960000Y-85740000I0J-75000D01*
G01*
X127960000Y-87065000D01*
G75*
G02*
X127885000Y-87140000I-75000J0D01*
G01*
G37*
G36*
G01*
X127385000Y-87140000D02*
X127235000Y-87140000D01*
G75*
G02*
X127160000Y-87065000I0J75000D01*
G01*
X127160000Y-85740000D01*
G75*
G02*
X127235000Y-85665000I75000J0D01*
G01*
X127385000Y-85665000D01*
G75*
G02*
X127460000Y-85740000I0J-75000D01*
G01*
X127460000Y-87065000D01*
G75*
G02*
X127385000Y-87140000I-75000J0D01*
G01*
G37*
G36*
G01*
X126885000Y-87140000D02*
X126735000Y-87140000D01*
G75*
G02*
X126660000Y-87065000I0J75000D01*
G01*
X126660000Y-85740000D01*
G75*
G02*
X126735000Y-85665000I75000J0D01*
G01*
X126885000Y-85665000D01*
G75*
G02*
X126960000Y-85740000I0J-75000D01*
G01*
X126960000Y-87065000D01*
G75*
G02*
X126885000Y-87140000I-75000J0D01*
G01*
G37*
G36*
G01*
X126385000Y-87140000D02*
X126235000Y-87140000D01*
G75*
G02*
X126160000Y-87065000I0J75000D01*
G01*
X126160000Y-85740000D01*
G75*
G02*
X126235000Y-85665000I75000J0D01*
G01*
X126385000Y-85665000D01*
G75*
G02*
X126460000Y-85740000I0J-75000D01*
G01*
X126460000Y-87065000D01*
G75*
G02*
X126385000Y-87140000I-75000J0D01*
G01*
G37*
G36*
G01*
X125885000Y-87140000D02*
X125735000Y-87140000D01*
G75*
G02*
X125660000Y-87065000I0J75000D01*
G01*
X125660000Y-85740000D01*
G75*
G02*
X125735000Y-85665000I75000J0D01*
G01*
X125885000Y-85665000D01*
G75*
G02*
X125960000Y-85740000I0J-75000D01*
G01*
X125960000Y-87065000D01*
G75*
G02*
X125885000Y-87140000I-75000J0D01*
G01*
G37*
G36*
G01*
X125385000Y-87140000D02*
X125235000Y-87140000D01*
G75*
G02*
X125160000Y-87065000I0J75000D01*
G01*
X125160000Y-85740000D01*
G75*
G02*
X125235000Y-85665000I75000J0D01*
G01*
X125385000Y-85665000D01*
G75*
G02*
X125460000Y-85740000I0J-75000D01*
G01*
X125460000Y-87065000D01*
G75*
G02*
X125385000Y-87140000I-75000J0D01*
G01*
G37*
G36*
G01*
X124885000Y-87140000D02*
X124735000Y-87140000D01*
G75*
G02*
X124660000Y-87065000I0J75000D01*
G01*
X124660000Y-85740000D01*
G75*
G02*
X124735000Y-85665000I75000J0D01*
G01*
X124885000Y-85665000D01*
G75*
G02*
X124960000Y-85740000I0J-75000D01*
G01*
X124960000Y-87065000D01*
G75*
G02*
X124885000Y-87140000I-75000J0D01*
G01*
G37*
G04 #@! TD*
D10*
G04 #@! TO.C,D1*
X129052000Y-59563000D03*
X131552000Y-59563000D03*
G04 #@! TD*
G04 #@! TO.C,C5*
G36*
G01*
X163714000Y-102123003D02*
X163714000Y-100822997D01*
G75*
G02*
X163963997Y-100573000I249997J0D01*
G01*
X164789003Y-100573000D01*
G75*
G02*
X165039000Y-100822997I0J-249997D01*
G01*
X165039000Y-102123003D01*
G75*
G02*
X164789003Y-102373000I-249997J0D01*
G01*
X163963997Y-102373000D01*
G75*
G02*
X163714000Y-102123003I0J249997D01*
G01*
G37*
G36*
G01*
X160589000Y-102123003D02*
X160589000Y-100822997D01*
G75*
G02*
X160838997Y-100573000I249997J0D01*
G01*
X161664003Y-100573000D01*
G75*
G02*
X161914000Y-100822997I0J-249997D01*
G01*
X161914000Y-102123003D01*
G75*
G02*
X161664003Y-102373000I-249997J0D01*
G01*
X160838997Y-102373000D01*
G75*
G02*
X160589000Y-102123003I0J249997D01*
G01*
G37*
G04 #@! TD*
D11*
G04 #@! TO.C,RN1*
X158267000Y-78129000D03*
X159607000Y-78129000D03*
X155607000Y-78129000D03*
X156947000Y-78129000D03*
X158267000Y-81129000D03*
X156947000Y-81129000D03*
X159607000Y-81129000D03*
X155607000Y-81129000D03*
G04 #@! TD*
D12*
G04 #@! TO.C,IC2*
X142179000Y-67865000D03*
X144079000Y-67865000D03*
X144079000Y-70565000D03*
X143129000Y-70565000D03*
X142179000Y-70565000D03*
G04 #@! TD*
G04 #@! TO.C,R11*
G36*
G01*
X144261000Y-85099999D02*
X144261000Y-86350001D01*
G75*
G02*
X144011001Y-86600000I-249999J0D01*
G01*
X143210999Y-86600000D01*
G75*
G02*
X142961000Y-86350001I0J249999D01*
G01*
X142961000Y-85099999D01*
G75*
G02*
X143210999Y-84850000I249999J0D01*
G01*
X144011001Y-84850000D01*
G75*
G02*
X144261000Y-85099999I0J-249999D01*
G01*
G37*
G36*
G01*
X147361000Y-85099999D02*
X147361000Y-86350001D01*
G75*
G02*
X147111001Y-86600000I-249999J0D01*
G01*
X146310999Y-86600000D01*
G75*
G02*
X146061000Y-86350001I0J249999D01*
G01*
X146061000Y-85099999D01*
G75*
G02*
X146310999Y-84850000I249999J0D01*
G01*
X147111001Y-84850000D01*
G75*
G02*
X147361000Y-85099999I0J-249999D01*
G01*
G37*
G04 #@! TD*
D13*
G04 #@! TO.C,IC3*
X143256000Y-100568000D03*
X142306000Y-98568000D03*
X144206000Y-98568000D03*
G04 #@! TD*
D14*
G04 #@! TO.C,Y1*
X131445000Y-62881000D03*
X132095000Y-64881000D03*
X130795000Y-64881000D03*
G04 #@! TD*
G04 #@! TO.C,C8*
G36*
G01*
X125779774Y-62691017D02*
X126699017Y-61771774D01*
G75*
G02*
X127052567Y-61771774I176775J-176775D01*
G01*
X127635934Y-62355141D01*
G75*
G02*
X127635934Y-62708691I-176775J-176775D01*
G01*
X126716691Y-63627934D01*
G75*
G02*
X126363141Y-63627934I-176775J176775D01*
G01*
X125779774Y-63044567D01*
G75*
G02*
X125779774Y-62691017I176775J176775D01*
G01*
G37*
G36*
G01*
X123570066Y-60481309D02*
X124489309Y-59562066D01*
G75*
G02*
X124842859Y-59562066I176775J-176775D01*
G01*
X125426226Y-60145433D01*
G75*
G02*
X125426226Y-60498983I-176775J-176775D01*
G01*
X124506983Y-61418226D01*
G75*
G02*
X124153433Y-61418226I-176775J176775D01*
G01*
X123570066Y-60834859D01*
G75*
G02*
X123570066Y-60481309I176775J176775D01*
G01*
G37*
G04 #@! TD*
G04 #@! TO.C,R10*
G36*
G01*
X139098000Y-92597000D02*
X138778000Y-92597000D01*
G75*
G02*
X138618000Y-92437000I0J160000D01*
G01*
X138618000Y-92042000D01*
G75*
G02*
X138778000Y-91882000I160000J0D01*
G01*
X139098000Y-91882000D01*
G75*
G02*
X139258000Y-92042000I0J-160000D01*
G01*
X139258000Y-92437000D01*
G75*
G02*
X139098000Y-92597000I-160000J0D01*
G01*
G37*
G36*
G01*
X139098000Y-93792000D02*
X138778000Y-93792000D01*
G75*
G02*
X138618000Y-93632000I0J160000D01*
G01*
X138618000Y-93237000D01*
G75*
G02*
X138778000Y-93077000I160000J0D01*
G01*
X139098000Y-93077000D01*
G75*
G02*
X139258000Y-93237000I0J-160000D01*
G01*
X139258000Y-93632000D01*
G75*
G02*
X139098000Y-93792000I-160000J0D01*
G01*
G37*
G04 #@! TD*
G04 #@! TO.C,C18*
G36*
G01*
X140679000Y-90474500D02*
X140499000Y-90474500D01*
G75*
G02*
X140409000Y-90384500I0J90000D01*
G01*
X140409000Y-90106500D01*
G75*
G02*
X140499000Y-90016500I90000J0D01*
G01*
X140679000Y-90016500D01*
G75*
G02*
X140769000Y-90106500I0J-90000D01*
G01*
X140769000Y-90384500D01*
G75*
G02*
X140679000Y-90474500I-90000J0D01*
G01*
G37*
G36*
G01*
X140679000Y-91339500D02*
X140499000Y-91339500D01*
G75*
G02*
X140409000Y-91249500I0J90000D01*
G01*
X140409000Y-90971500D01*
G75*
G02*
X140499000Y-90881500I90000J0D01*
G01*
X140679000Y-90881500D01*
G75*
G02*
X140769000Y-90971500I0J-90000D01*
G01*
X140769000Y-91249500D01*
G75*
G02*
X140679000Y-91339500I-90000J0D01*
G01*
G37*
G04 #@! TD*
G04 #@! TO.C,C17*
G36*
G01*
X140679000Y-94792500D02*
X140499000Y-94792500D01*
G75*
G02*
X140409000Y-94702500I0J90000D01*
G01*
X140409000Y-94424500D01*
G75*
G02*
X140499000Y-94334500I90000J0D01*
G01*
X140679000Y-94334500D01*
G75*
G02*
X140769000Y-94424500I0J-90000D01*
G01*
X140769000Y-94702500D01*
G75*
G02*
X140679000Y-94792500I-90000J0D01*
G01*
G37*
G36*
G01*
X140679000Y-95657500D02*
X140499000Y-95657500D01*
G75*
G02*
X140409000Y-95567500I0J90000D01*
G01*
X140409000Y-95289500D01*
G75*
G02*
X140499000Y-95199500I90000J0D01*
G01*
X140679000Y-95199500D01*
G75*
G02*
X140769000Y-95289500I0J-90000D01*
G01*
X140769000Y-95567500D01*
G75*
G02*
X140679000Y-95657500I-90000J0D01*
G01*
G37*
G04 #@! TD*
D15*
G04 #@! TO.C,Y2*
G36*
X142209762Y-93417107D02*
G01*
X141644076Y-92851421D01*
X142280472Y-92215025D01*
X142846158Y-92780711D01*
X142209762Y-93417107D01*
G37*
G36*
X143199711Y-92427158D02*
G01*
X142634025Y-91861472D01*
X143270421Y-91225076D01*
X143836107Y-91790762D01*
X143199711Y-92427158D01*
G37*
G36*
X143977528Y-93204975D02*
G01*
X143411842Y-92639289D01*
X144048238Y-92002893D01*
X144613924Y-92568579D01*
X143977528Y-93204975D01*
G37*
G36*
X142987579Y-94194924D02*
G01*
X142421893Y-93629238D01*
X143058289Y-92992842D01*
X143623975Y-93558528D01*
X142987579Y-94194924D01*
G37*
G04 #@! TD*
D13*
G04 #@! TO.C,IC1*
X145161000Y-78851000D03*
X144211000Y-76851000D03*
X146111000Y-76851000D03*
G04 #@! TD*
G04 #@! TO.C,R2*
G36*
G01*
X156815399Y-64908000D02*
X158065401Y-64908000D01*
G75*
G02*
X158315400Y-65157999I0J-249999D01*
G01*
X158315400Y-65958001D01*
G75*
G02*
X158065401Y-66208000I-249999J0D01*
G01*
X156815399Y-66208000D01*
G75*
G02*
X156565400Y-65958001I0J249999D01*
G01*
X156565400Y-65157999D01*
G75*
G02*
X156815399Y-64908000I249999J0D01*
G01*
G37*
G36*
G01*
X156815399Y-61808000D02*
X158065401Y-61808000D01*
G75*
G02*
X158315400Y-62057999I0J-249999D01*
G01*
X158315400Y-62858001D01*
G75*
G02*
X158065401Y-63108000I-249999J0D01*
G01*
X156815399Y-63108000D01*
G75*
G02*
X156565400Y-62858001I0J249999D01*
G01*
X156565400Y-62057999D01*
G75*
G02*
X156815399Y-61808000I249999J0D01*
G01*
G37*
G04 #@! TD*
G04 #@! TO.C,C10*
G36*
G01*
X159535197Y-64908000D02*
X161735203Y-64908000D01*
G75*
G02*
X161985200Y-65157997I0J-249997D01*
G01*
X161985200Y-65983003D01*
G75*
G02*
X161735203Y-66233000I-249997J0D01*
G01*
X159535197Y-66233000D01*
G75*
G02*
X159285200Y-65983003I0J249997D01*
G01*
X159285200Y-65157997D01*
G75*
G02*
X159535197Y-64908000I249997J0D01*
G01*
G37*
G36*
G01*
X159535197Y-61783000D02*
X161735203Y-61783000D01*
G75*
G02*
X161985200Y-62032997I0J-249997D01*
G01*
X161985200Y-62858003D01*
G75*
G02*
X161735203Y-63108000I-249997J0D01*
G01*
X159535197Y-63108000D01*
G75*
G02*
X159285200Y-62858003I0J249997D01*
G01*
X159285200Y-62032997D01*
G75*
G02*
X159535197Y-61783000I249997J0D01*
G01*
G37*
G04 #@! TD*
G04 #@! TO.C,R9*
G36*
G01*
X154100599Y-64908000D02*
X155350601Y-64908000D01*
G75*
G02*
X155600600Y-65157999I0J-249999D01*
G01*
X155600600Y-65958001D01*
G75*
G02*
X155350601Y-66208000I-249999J0D01*
G01*
X154100599Y-66208000D01*
G75*
G02*
X153850600Y-65958001I0J249999D01*
G01*
X153850600Y-65157999D01*
G75*
G02*
X154100599Y-64908000I249999J0D01*
G01*
G37*
G36*
G01*
X154100599Y-61808000D02*
X155350601Y-61808000D01*
G75*
G02*
X155600600Y-62057999I0J-249999D01*
G01*
X155600600Y-62858001D01*
G75*
G02*
X155350601Y-63108000I-249999J0D01*
G01*
X154100599Y-63108000D01*
G75*
G02*
X153850600Y-62858001I0J249999D01*
G01*
X153850600Y-62057999D01*
G75*
G02*
X154100599Y-61808000I249999J0D01*
G01*
G37*
G04 #@! TD*
G04 #@! TO.C,C14*
G36*
G01*
X150430797Y-64908000D02*
X152630803Y-64908000D01*
G75*
G02*
X152880800Y-65157997I0J-249997D01*
G01*
X152880800Y-65983003D01*
G75*
G02*
X152630803Y-66233000I-249997J0D01*
G01*
X150430797Y-66233000D01*
G75*
G02*
X150180800Y-65983003I0J249997D01*
G01*
X150180800Y-65157997D01*
G75*
G02*
X150430797Y-64908000I249997J0D01*
G01*
G37*
G36*
G01*
X150430797Y-61783000D02*
X152630803Y-61783000D01*
G75*
G02*
X152880800Y-62032997I0J-249997D01*
G01*
X152880800Y-62858003D01*
G75*
G02*
X152630803Y-63108000I-249997J0D01*
G01*
X150430797Y-63108000D01*
G75*
G02*
X150180800Y-62858003I0J249997D01*
G01*
X150180800Y-62032997D01*
G75*
G02*
X150430797Y-61783000I249997J0D01*
G01*
G37*
G04 #@! TD*
G04 #@! TO.C,R8*
G36*
G01*
X148961001Y-66208000D02*
X147710999Y-66208000D01*
G75*
G02*
X147461000Y-65958001I0J249999D01*
G01*
X147461000Y-65157999D01*
G75*
G02*
X147710999Y-64908000I249999J0D01*
G01*
X148961001Y-64908000D01*
G75*
G02*
X149211000Y-65157999I0J-249999D01*
G01*
X149211000Y-65958001D01*
G75*
G02*
X148961001Y-66208000I-249999J0D01*
G01*
G37*
G36*
G01*
X148961001Y-63108000D02*
X147710999Y-63108000D01*
G75*
G02*
X147461000Y-62858001I0J249999D01*
G01*
X147461000Y-62057999D01*
G75*
G02*
X147710999Y-61808000I249999J0D01*
G01*
X148961001Y-61808000D01*
G75*
G02*
X149211000Y-62057999I0J-249999D01*
G01*
X149211000Y-62858001D01*
G75*
G02*
X148961001Y-63108000I-249999J0D01*
G01*
G37*
G04 #@! TD*
G04 #@! TO.C,R4*
G36*
G01*
X163204999Y-64908000D02*
X164455001Y-64908000D01*
G75*
G02*
X164705000Y-65157999I0J-249999D01*
G01*
X164705000Y-65958001D01*
G75*
G02*
X164455001Y-66208000I-249999J0D01*
G01*
X163204999Y-66208000D01*
G75*
G02*
X162955000Y-65958001I0J249999D01*
G01*
X162955000Y-65157999D01*
G75*
G02*
X163204999Y-64908000I249999J0D01*
G01*
G37*
G36*
G01*
X163204999Y-61808000D02*
X164455001Y-61808000D01*
G75*
G02*
X164705000Y-62057999I0J-249999D01*
G01*
X164705000Y-62858001D01*
G75*
G02*
X164455001Y-63108000I-249999J0D01*
G01*
X163204999Y-63108000D01*
G75*
G02*
X162955000Y-62858001I0J249999D01*
G01*
X162955000Y-62057999D01*
G75*
G02*
X163204999Y-61808000I249999J0D01*
G01*
G37*
G04 #@! TD*
G04 #@! TO.C,C16*
G36*
G01*
X148986003Y-98541000D02*
X147685997Y-98541000D01*
G75*
G02*
X147436000Y-98291003I0J249997D01*
G01*
X147436000Y-97465997D01*
G75*
G02*
X147685997Y-97216000I249997J0D01*
G01*
X148986003Y-97216000D01*
G75*
G02*
X149236000Y-97465997I0J-249997D01*
G01*
X149236000Y-98291003D01*
G75*
G02*
X148986003Y-98541000I-249997J0D01*
G01*
G37*
G36*
G01*
X148986003Y-101666000D02*
X147685997Y-101666000D01*
G75*
G02*
X147436000Y-101416003I0J249997D01*
G01*
X147436000Y-100590997D01*
G75*
G02*
X147685997Y-100341000I249997J0D01*
G01*
X148986003Y-100341000D01*
G75*
G02*
X149236000Y-100590997I0J-249997D01*
G01*
X149236000Y-101416003D01*
G75*
G02*
X148986003Y-101666000I-249997J0D01*
G01*
G37*
G04 #@! TD*
G04 #@! TO.C,C15*
G36*
G01*
X138541997Y-100341000D02*
X139842003Y-100341000D01*
G75*
G02*
X140092000Y-100590997I0J-249997D01*
G01*
X140092000Y-101416003D01*
G75*
G02*
X139842003Y-101666000I-249997J0D01*
G01*
X138541997Y-101666000D01*
G75*
G02*
X138292000Y-101416003I0J249997D01*
G01*
X138292000Y-100590997D01*
G75*
G02*
X138541997Y-100341000I249997J0D01*
G01*
G37*
G36*
G01*
X138541997Y-97216000D02*
X139842003Y-97216000D01*
G75*
G02*
X140092000Y-97465997I0J-249997D01*
G01*
X140092000Y-98291003D01*
G75*
G02*
X139842003Y-98541000I-249997J0D01*
G01*
X138541997Y-98541000D01*
G75*
G02*
X138292000Y-98291003I0J249997D01*
G01*
X138292000Y-97465997D01*
G75*
G02*
X138541997Y-97216000I249997J0D01*
G01*
G37*
G04 #@! TD*
G04 #@! TO.C,C13*
G36*
G01*
X151925000Y-80084000D02*
X152875000Y-80084000D01*
G75*
G02*
X153125000Y-80334000I0J-250000D01*
G01*
X153125000Y-81009000D01*
G75*
G02*
X152875000Y-81259000I-250000J0D01*
G01*
X151925000Y-81259000D01*
G75*
G02*
X151675000Y-81009000I0J250000D01*
G01*
X151675000Y-80334000D01*
G75*
G02*
X151925000Y-80084000I250000J0D01*
G01*
G37*
G36*
G01*
X151925000Y-78009000D02*
X152875000Y-78009000D01*
G75*
G02*
X153125000Y-78259000I0J-250000D01*
G01*
X153125000Y-78934000D01*
G75*
G02*
X152875000Y-79184000I-250000J0D01*
G01*
X151925000Y-79184000D01*
G75*
G02*
X151675000Y-78934000I0J250000D01*
G01*
X151675000Y-78259000D01*
G75*
G02*
X151925000Y-78009000I250000J0D01*
G01*
G37*
G04 #@! TD*
G04 #@! TO.C,C12*
G36*
G01*
X161577000Y-72078000D02*
X162527000Y-72078000D01*
G75*
G02*
X162777000Y-72328000I0J-250000D01*
G01*
X162777000Y-73003000D01*
G75*
G02*
X162527000Y-73253000I-250000J0D01*
G01*
X161577000Y-73253000D01*
G75*
G02*
X161327000Y-73003000I0J250000D01*
G01*
X161327000Y-72328000D01*
G75*
G02*
X161577000Y-72078000I250000J0D01*
G01*
G37*
G36*
G01*
X161577000Y-70003000D02*
X162527000Y-70003000D01*
G75*
G02*
X162777000Y-70253000I0J-250000D01*
G01*
X162777000Y-70928000D01*
G75*
G02*
X162527000Y-71178000I-250000J0D01*
G01*
X161577000Y-71178000D01*
G75*
G02*
X161327000Y-70928000I0J250000D01*
G01*
X161327000Y-70253000D01*
G75*
G02*
X161577000Y-70003000I250000J0D01*
G01*
G37*
G04 #@! TD*
G04 #@! TO.C,C11*
G36*
G01*
X162339000Y-80084000D02*
X163289000Y-80084000D01*
G75*
G02*
X163539000Y-80334000I0J-250000D01*
G01*
X163539000Y-81009000D01*
G75*
G02*
X163289000Y-81259000I-250000J0D01*
G01*
X162339000Y-81259000D01*
G75*
G02*
X162089000Y-81009000I0J250000D01*
G01*
X162089000Y-80334000D01*
G75*
G02*
X162339000Y-80084000I250000J0D01*
G01*
G37*
G36*
G01*
X162339000Y-78009000D02*
X163289000Y-78009000D01*
G75*
G02*
X163539000Y-78259000I0J-250000D01*
G01*
X163539000Y-78934000D01*
G75*
G02*
X163289000Y-79184000I-250000J0D01*
G01*
X162339000Y-79184000D01*
G75*
G02*
X162089000Y-78934000I0J250000D01*
G01*
X162089000Y-78259000D01*
G75*
G02*
X162339000Y-78009000I250000J0D01*
G01*
G37*
G04 #@! TD*
G04 #@! TO.C,C9*
G36*
G01*
X150589000Y-71051000D02*
X149639000Y-71051000D01*
G75*
G02*
X149389000Y-70801000I0J250000D01*
G01*
X149389000Y-70126000D01*
G75*
G02*
X149639000Y-69876000I250000J0D01*
G01*
X150589000Y-69876000D01*
G75*
G02*
X150839000Y-70126000I0J-250000D01*
G01*
X150839000Y-70801000D01*
G75*
G02*
X150589000Y-71051000I-250000J0D01*
G01*
G37*
G36*
G01*
X150589000Y-73126000D02*
X149639000Y-73126000D01*
G75*
G02*
X149389000Y-72876000I0J250000D01*
G01*
X149389000Y-72201000D01*
G75*
G02*
X149639000Y-71951000I250000J0D01*
G01*
X150589000Y-71951000D01*
G75*
G02*
X150839000Y-72201000I0J-250000D01*
G01*
X150839000Y-72876000D01*
G75*
G02*
X150589000Y-73126000I-250000J0D01*
G01*
G37*
G04 #@! TD*
G04 #@! TO.C,C6*
G36*
G01*
X153532000Y-85074997D02*
X153532000Y-86375003D01*
G75*
G02*
X153282003Y-86625000I-249997J0D01*
G01*
X152456997Y-86625000D01*
G75*
G02*
X152207000Y-86375003I0J249997D01*
G01*
X152207000Y-85074997D01*
G75*
G02*
X152456997Y-84825000I249997J0D01*
G01*
X153282003Y-84825000D01*
G75*
G02*
X153532000Y-85074997I0J-249997D01*
G01*
G37*
G36*
G01*
X156657000Y-85074997D02*
X156657000Y-86375003D01*
G75*
G02*
X156407003Y-86625000I-249997J0D01*
G01*
X155581997Y-86625000D01*
G75*
G02*
X155332000Y-86375003I0J249997D01*
G01*
X155332000Y-85074997D01*
G75*
G02*
X155581997Y-84825000I249997J0D01*
G01*
X156407003Y-84825000D01*
G75*
G02*
X156657000Y-85074997I0J-249997D01*
G01*
G37*
G04 #@! TD*
G04 #@! TO.C,C3*
G36*
G01*
X116216000Y-77231003D02*
X116216000Y-75930997D01*
G75*
G02*
X116465997Y-75681000I249997J0D01*
G01*
X117291003Y-75681000D01*
G75*
G02*
X117541000Y-75930997I0J-249997D01*
G01*
X117541000Y-77231003D01*
G75*
G02*
X117291003Y-77481000I-249997J0D01*
G01*
X116465997Y-77481000D01*
G75*
G02*
X116216000Y-77231003I0J249997D01*
G01*
G37*
G36*
G01*
X113091000Y-77231003D02*
X113091000Y-75930997D01*
G75*
G02*
X113340997Y-75681000I249997J0D01*
G01*
X114166003Y-75681000D01*
G75*
G02*
X114416000Y-75930997I0J-249997D01*
G01*
X114416000Y-77231003D01*
G75*
G02*
X114166003Y-77481000I-249997J0D01*
G01*
X113340997Y-77481000D01*
G75*
G02*
X113091000Y-77231003I0J249997D01*
G01*
G37*
G04 #@! TD*
G04 #@! TO.C,C2*
G36*
G01*
X161914000Y-85074997D02*
X161914000Y-86375003D01*
G75*
G02*
X161664003Y-86625000I-249997J0D01*
G01*
X160838997Y-86625000D01*
G75*
G02*
X160589000Y-86375003I0J249997D01*
G01*
X160589000Y-85074997D01*
G75*
G02*
X160838997Y-84825000I249997J0D01*
G01*
X161664003Y-84825000D01*
G75*
G02*
X161914000Y-85074997I0J-249997D01*
G01*
G37*
G36*
G01*
X165039000Y-85074997D02*
X165039000Y-86375003D01*
G75*
G02*
X164789003Y-86625000I-249997J0D01*
G01*
X163963997Y-86625000D01*
G75*
G02*
X163714000Y-86375003I0J249997D01*
G01*
X163714000Y-85074997D01*
G75*
G02*
X163963997Y-84825000I249997J0D01*
G01*
X164789003Y-84825000D01*
G75*
G02*
X165039000Y-85074997I0J-249997D01*
G01*
G37*
G04 #@! TD*
G04 #@! TO.C,C4*
G36*
G01*
X163693999Y-96309000D02*
X165744001Y-96309000D01*
G75*
G02*
X165994000Y-96558999I0J-249999D01*
G01*
X165994000Y-98309001D01*
G75*
G02*
X165744001Y-98559000I-249999J0D01*
G01*
X163693999Y-98559000D01*
G75*
G02*
X163444000Y-98309001I0J249999D01*
G01*
X163444000Y-96558999D01*
G75*
G02*
X163693999Y-96309000I249999J0D01*
G01*
G37*
G36*
G01*
X163693999Y-89909000D02*
X165744001Y-89909000D01*
G75*
G02*
X165994000Y-90158999I0J-249999D01*
G01*
X165994000Y-91909001D01*
G75*
G02*
X165744001Y-92159000I-249999J0D01*
G01*
X163693999Y-92159000D01*
G75*
G02*
X163444000Y-91909001I0J249999D01*
G01*
X163444000Y-90158999D01*
G75*
G02*
X163693999Y-89909000I249999J0D01*
G01*
G37*
G04 #@! TD*
G04 #@! TO.C,R1*
G36*
G01*
X109356999Y-82307000D02*
X110607001Y-82307000D01*
G75*
G02*
X110857000Y-82556999I0J-249999D01*
G01*
X110857000Y-83357001D01*
G75*
G02*
X110607001Y-83607000I-249999J0D01*
G01*
X109356999Y-83607000D01*
G75*
G02*
X109107000Y-83357001I0J249999D01*
G01*
X109107000Y-82556999D01*
G75*
G02*
X109356999Y-82307000I249999J0D01*
G01*
G37*
G36*
G01*
X109356999Y-79207000D02*
X110607001Y-79207000D01*
G75*
G02*
X110857000Y-79456999I0J-249999D01*
G01*
X110857000Y-80257001D01*
G75*
G02*
X110607001Y-80507000I-249999J0D01*
G01*
X109356999Y-80507000D01*
G75*
G02*
X109107000Y-80257001I0J249999D01*
G01*
X109107000Y-79456999D01*
G75*
G02*
X109356999Y-79207000I249999J0D01*
G01*
G37*
G04 #@! TD*
G04 #@! TO.C,C7*
G36*
G01*
X120302032Y-89681538D02*
X118852462Y-88231968D01*
G75*
G02*
X118852462Y-87878416I176776J176776D01*
G01*
X120089900Y-86640978D01*
G75*
G02*
X120443452Y-86640978I176776J-176776D01*
G01*
X121893022Y-88090548D01*
G75*
G02*
X121893022Y-88444100I-176776J-176776D01*
G01*
X120655584Y-89681538D01*
G75*
G02*
X120302032Y-89681538I-176776J176776D01*
G01*
G37*
G36*
G01*
X115776548Y-94207022D02*
X114326978Y-92757452D01*
G75*
G02*
X114326978Y-92403900I176776J176776D01*
G01*
X115564416Y-91166462D01*
G75*
G02*
X115917968Y-91166462I176776J-176776D01*
G01*
X117367538Y-92616032D01*
G75*
G02*
X117367538Y-92969584I-176776J-176776D01*
G01*
X116130100Y-94207022D01*
G75*
G02*
X115776548Y-94207022I-176776J176776D01*
G01*
G37*
G04 #@! TD*
G04 #@! TO.C,C1*
G36*
G01*
X113495000Y-66030999D02*
X113495000Y-68081001D01*
G75*
G02*
X113245001Y-68331000I-249999J0D01*
G01*
X111494999Y-68331000D01*
G75*
G02*
X111245000Y-68081001I0J249999D01*
G01*
X111245000Y-66030999D01*
G75*
G02*
X111494999Y-65781000I249999J0D01*
G01*
X113245001Y-65781000D01*
G75*
G02*
X113495000Y-66030999I0J-249999D01*
G01*
G37*
G36*
G01*
X119895000Y-66030999D02*
X119895000Y-68081001D01*
G75*
G02*
X119645001Y-68331000I-249999J0D01*
G01*
X117894999Y-68331000D01*
G75*
G02*
X117645000Y-68081001I0J249999D01*
G01*
X117645000Y-66030999D01*
G75*
G02*
X117894999Y-65781000I249999J0D01*
G01*
X119645001Y-65781000D01*
G75*
G02*
X119895000Y-66030999I0J-249999D01*
G01*
G37*
G04 #@! TD*
G04 #@! TO.C,U4*
G36*
G01*
X152735000Y-91513000D02*
X152535000Y-91513000D01*
G75*
G02*
X152435000Y-91413000I0J100000D01*
G01*
X152435000Y-90138000D01*
G75*
G02*
X152535000Y-90038000I100000J0D01*
G01*
X152735000Y-90038000D01*
G75*
G02*
X152835000Y-90138000I0J-100000D01*
G01*
X152835000Y-91413000D01*
G75*
G02*
X152735000Y-91513000I-100000J0D01*
G01*
G37*
G36*
G01*
X153385000Y-91513000D02*
X153185000Y-91513000D01*
G75*
G02*
X153085000Y-91413000I0J100000D01*
G01*
X153085000Y-90138000D01*
G75*
G02*
X153185000Y-90038000I100000J0D01*
G01*
X153385000Y-90038000D01*
G75*
G02*
X153485000Y-90138000I0J-100000D01*
G01*
X153485000Y-91413000D01*
G75*
G02*
X153385000Y-91513000I-100000J0D01*
G01*
G37*
G36*
G01*
X154035000Y-91513000D02*
X153835000Y-91513000D01*
G75*
G02*
X153735000Y-91413000I0J100000D01*
G01*
X153735000Y-90138000D01*
G75*
G02*
X153835000Y-90038000I100000J0D01*
G01*
X154035000Y-90038000D01*
G75*
G02*
X154135000Y-90138000I0J-100000D01*
G01*
X154135000Y-91413000D01*
G75*
G02*
X154035000Y-91513000I-100000J0D01*
G01*
G37*
G36*
G01*
X154685000Y-91513000D02*
X154485000Y-91513000D01*
G75*
G02*
X154385000Y-91413000I0J100000D01*
G01*
X154385000Y-90138000D01*
G75*
G02*
X154485000Y-90038000I100000J0D01*
G01*
X154685000Y-90038000D01*
G75*
G02*
X154785000Y-90138000I0J-100000D01*
G01*
X154785000Y-91413000D01*
G75*
G02*
X154685000Y-91513000I-100000J0D01*
G01*
G37*
G36*
G01*
X155335000Y-91513000D02*
X155135000Y-91513000D01*
G75*
G02*
X155035000Y-91413000I0J100000D01*
G01*
X155035000Y-90138000D01*
G75*
G02*
X155135000Y-90038000I100000J0D01*
G01*
X155335000Y-90038000D01*
G75*
G02*
X155435000Y-90138000I0J-100000D01*
G01*
X155435000Y-91413000D01*
G75*
G02*
X155335000Y-91513000I-100000J0D01*
G01*
G37*
G36*
G01*
X155985000Y-91513000D02*
X155785000Y-91513000D01*
G75*
G02*
X155685000Y-91413000I0J100000D01*
G01*
X155685000Y-90138000D01*
G75*
G02*
X155785000Y-90038000I100000J0D01*
G01*
X155985000Y-90038000D01*
G75*
G02*
X156085000Y-90138000I0J-100000D01*
G01*
X156085000Y-91413000D01*
G75*
G02*
X155985000Y-91513000I-100000J0D01*
G01*
G37*
G36*
G01*
X156635000Y-91513000D02*
X156435000Y-91513000D01*
G75*
G02*
X156335000Y-91413000I0J100000D01*
G01*
X156335000Y-90138000D01*
G75*
G02*
X156435000Y-90038000I100000J0D01*
G01*
X156635000Y-90038000D01*
G75*
G02*
X156735000Y-90138000I0J-100000D01*
G01*
X156735000Y-91413000D01*
G75*
G02*
X156635000Y-91513000I-100000J0D01*
G01*
G37*
G36*
G01*
X157285000Y-91513000D02*
X157085000Y-91513000D01*
G75*
G02*
X156985000Y-91413000I0J100000D01*
G01*
X156985000Y-90138000D01*
G75*
G02*
X157085000Y-90038000I100000J0D01*
G01*
X157285000Y-90038000D01*
G75*
G02*
X157385000Y-90138000I0J-100000D01*
G01*
X157385000Y-91413000D01*
G75*
G02*
X157285000Y-91513000I-100000J0D01*
G01*
G37*
G36*
G01*
X157935000Y-91513000D02*
X157735000Y-91513000D01*
G75*
G02*
X157635000Y-91413000I0J100000D01*
G01*
X157635000Y-90138000D01*
G75*
G02*
X157735000Y-90038000I100000J0D01*
G01*
X157935000Y-90038000D01*
G75*
G02*
X158035000Y-90138000I0J-100000D01*
G01*
X158035000Y-91413000D01*
G75*
G02*
X157935000Y-91513000I-100000J0D01*
G01*
G37*
G36*
G01*
X158585000Y-91513000D02*
X158385000Y-91513000D01*
G75*
G02*
X158285000Y-91413000I0J100000D01*
G01*
X158285000Y-90138000D01*
G75*
G02*
X158385000Y-90038000I100000J0D01*
G01*
X158585000Y-90038000D01*
G75*
G02*
X158685000Y-90138000I0J-100000D01*
G01*
X158685000Y-91413000D01*
G75*
G02*
X158585000Y-91513000I-100000J0D01*
G01*
G37*
G36*
G01*
X159235000Y-91513000D02*
X159035000Y-91513000D01*
G75*
G02*
X158935000Y-91413000I0J100000D01*
G01*
X158935000Y-90138000D01*
G75*
G02*
X159035000Y-90038000I100000J0D01*
G01*
X159235000Y-90038000D01*
G75*
G02*
X159335000Y-90138000I0J-100000D01*
G01*
X159335000Y-91413000D01*
G75*
G02*
X159235000Y-91513000I-100000J0D01*
G01*
G37*
G36*
G01*
X159885000Y-91513000D02*
X159685000Y-91513000D01*
G75*
G02*
X159585000Y-91413000I0J100000D01*
G01*
X159585000Y-90138000D01*
G75*
G02*
X159685000Y-90038000I100000J0D01*
G01*
X159885000Y-90038000D01*
G75*
G02*
X159985000Y-90138000I0J-100000D01*
G01*
X159985000Y-91413000D01*
G75*
G02*
X159885000Y-91513000I-100000J0D01*
G01*
G37*
G36*
G01*
X159885000Y-98938000D02*
X159685000Y-98938000D01*
G75*
G02*
X159585000Y-98838000I0J100000D01*
G01*
X159585000Y-97563000D01*
G75*
G02*
X159685000Y-97463000I100000J0D01*
G01*
X159885000Y-97463000D01*
G75*
G02*
X159985000Y-97563000I0J-100000D01*
G01*
X159985000Y-98838000D01*
G75*
G02*
X159885000Y-98938000I-100000J0D01*
G01*
G37*
G36*
G01*
X159235000Y-98938000D02*
X159035000Y-98938000D01*
G75*
G02*
X158935000Y-98838000I0J100000D01*
G01*
X158935000Y-97563000D01*
G75*
G02*
X159035000Y-97463000I100000J0D01*
G01*
X159235000Y-97463000D01*
G75*
G02*
X159335000Y-97563000I0J-100000D01*
G01*
X159335000Y-98838000D01*
G75*
G02*
X159235000Y-98938000I-100000J0D01*
G01*
G37*
G36*
G01*
X158585000Y-98938000D02*
X158385000Y-98938000D01*
G75*
G02*
X158285000Y-98838000I0J100000D01*
G01*
X158285000Y-97563000D01*
G75*
G02*
X158385000Y-97463000I100000J0D01*
G01*
X158585000Y-97463000D01*
G75*
G02*
X158685000Y-97563000I0J-100000D01*
G01*
X158685000Y-98838000D01*
G75*
G02*
X158585000Y-98938000I-100000J0D01*
G01*
G37*
G36*
G01*
X157935000Y-98938000D02*
X157735000Y-98938000D01*
G75*
G02*
X157635000Y-98838000I0J100000D01*
G01*
X157635000Y-97563000D01*
G75*
G02*
X157735000Y-97463000I100000J0D01*
G01*
X157935000Y-97463000D01*
G75*
G02*
X158035000Y-97563000I0J-100000D01*
G01*
X158035000Y-98838000D01*
G75*
G02*
X157935000Y-98938000I-100000J0D01*
G01*
G37*
G36*
G01*
X157285000Y-98938000D02*
X157085000Y-98938000D01*
G75*
G02*
X156985000Y-98838000I0J100000D01*
G01*
X156985000Y-97563000D01*
G75*
G02*
X157085000Y-97463000I100000J0D01*
G01*
X157285000Y-97463000D01*
G75*
G02*
X157385000Y-97563000I0J-100000D01*
G01*
X157385000Y-98838000D01*
G75*
G02*
X157285000Y-98938000I-100000J0D01*
G01*
G37*
G36*
G01*
X156635000Y-98938000D02*
X156435000Y-98938000D01*
G75*
G02*
X156335000Y-98838000I0J100000D01*
G01*
X156335000Y-97563000D01*
G75*
G02*
X156435000Y-97463000I100000J0D01*
G01*
X156635000Y-97463000D01*
G75*
G02*
X156735000Y-97563000I0J-100000D01*
G01*
X156735000Y-98838000D01*
G75*
G02*
X156635000Y-98938000I-100000J0D01*
G01*
G37*
G36*
G01*
X155985000Y-98938000D02*
X155785000Y-98938000D01*
G75*
G02*
X155685000Y-98838000I0J100000D01*
G01*
X155685000Y-97563000D01*
G75*
G02*
X155785000Y-97463000I100000J0D01*
G01*
X155985000Y-97463000D01*
G75*
G02*
X156085000Y-97563000I0J-100000D01*
G01*
X156085000Y-98838000D01*
G75*
G02*
X155985000Y-98938000I-100000J0D01*
G01*
G37*
G36*
G01*
X155335000Y-98938000D02*
X155135000Y-98938000D01*
G75*
G02*
X155035000Y-98838000I0J100000D01*
G01*
X155035000Y-97563000D01*
G75*
G02*
X155135000Y-97463000I100000J0D01*
G01*
X155335000Y-97463000D01*
G75*
G02*
X155435000Y-97563000I0J-100000D01*
G01*
X155435000Y-98838000D01*
G75*
G02*
X155335000Y-98938000I-100000J0D01*
G01*
G37*
G36*
G01*
X154685000Y-98938000D02*
X154485000Y-98938000D01*
G75*
G02*
X154385000Y-98838000I0J100000D01*
G01*
X154385000Y-97563000D01*
G75*
G02*
X154485000Y-97463000I100000J0D01*
G01*
X154685000Y-97463000D01*
G75*
G02*
X154785000Y-97563000I0J-100000D01*
G01*
X154785000Y-98838000D01*
G75*
G02*
X154685000Y-98938000I-100000J0D01*
G01*
G37*
G36*
G01*
X154035000Y-98938000D02*
X153835000Y-98938000D01*
G75*
G02*
X153735000Y-98838000I0J100000D01*
G01*
X153735000Y-97563000D01*
G75*
G02*
X153835000Y-97463000I100000J0D01*
G01*
X154035000Y-97463000D01*
G75*
G02*
X154135000Y-97563000I0J-100000D01*
G01*
X154135000Y-98838000D01*
G75*
G02*
X154035000Y-98938000I-100000J0D01*
G01*
G37*
G36*
G01*
X153385000Y-98938000D02*
X153185000Y-98938000D01*
G75*
G02*
X153085000Y-98838000I0J100000D01*
G01*
X153085000Y-97563000D01*
G75*
G02*
X153185000Y-97463000I100000J0D01*
G01*
X153385000Y-97463000D01*
G75*
G02*
X153485000Y-97563000I0J-100000D01*
G01*
X153485000Y-98838000D01*
G75*
G02*
X153385000Y-98938000I-100000J0D01*
G01*
G37*
G36*
G01*
X152735000Y-98938000D02*
X152535000Y-98938000D01*
G75*
G02*
X152435000Y-98838000I0J100000D01*
G01*
X152435000Y-97563000D01*
G75*
G02*
X152535000Y-97463000I100000J0D01*
G01*
X152735000Y-97463000D01*
G75*
G02*
X152835000Y-97563000I0J-100000D01*
G01*
X152835000Y-98838000D01*
G75*
G02*
X152735000Y-98938000I-100000J0D01*
G01*
G37*
G04 #@! TD*
G04 #@! TO.C,U2*
G36*
G01*
X140693000Y-63603000D02*
X140993000Y-63603000D01*
G75*
G02*
X141143000Y-63753000I0J-150000D01*
G01*
X141143000Y-65403000D01*
G75*
G02*
X140993000Y-65553000I-150000J0D01*
G01*
X140693000Y-65553000D01*
G75*
G02*
X140543000Y-65403000I0J150000D01*
G01*
X140543000Y-63753000D01*
G75*
G02*
X140693000Y-63603000I150000J0D01*
G01*
G37*
G36*
G01*
X139423000Y-63603000D02*
X139723000Y-63603000D01*
G75*
G02*
X139873000Y-63753000I0J-150000D01*
G01*
X139873000Y-65403000D01*
G75*
G02*
X139723000Y-65553000I-150000J0D01*
G01*
X139423000Y-65553000D01*
G75*
G02*
X139273000Y-65403000I0J150000D01*
G01*
X139273000Y-63753000D01*
G75*
G02*
X139423000Y-63603000I150000J0D01*
G01*
G37*
G36*
G01*
X138153000Y-63603000D02*
X138453000Y-63603000D01*
G75*
G02*
X138603000Y-63753000I0J-150000D01*
G01*
X138603000Y-65403000D01*
G75*
G02*
X138453000Y-65553000I-150000J0D01*
G01*
X138153000Y-65553000D01*
G75*
G02*
X138003000Y-65403000I0J150000D01*
G01*
X138003000Y-63753000D01*
G75*
G02*
X138153000Y-63603000I150000J0D01*
G01*
G37*
G36*
G01*
X136883000Y-63603000D02*
X137183000Y-63603000D01*
G75*
G02*
X137333000Y-63753000I0J-150000D01*
G01*
X137333000Y-65403000D01*
G75*
G02*
X137183000Y-65553000I-150000J0D01*
G01*
X136883000Y-65553000D01*
G75*
G02*
X136733000Y-65403000I0J150000D01*
G01*
X136733000Y-63753000D01*
G75*
G02*
X136883000Y-63603000I150000J0D01*
G01*
G37*
G36*
G01*
X136883000Y-58653000D02*
X137183000Y-58653000D01*
G75*
G02*
X137333000Y-58803000I0J-150000D01*
G01*
X137333000Y-60453000D01*
G75*
G02*
X137183000Y-60603000I-150000J0D01*
G01*
X136883000Y-60603000D01*
G75*
G02*
X136733000Y-60453000I0J150000D01*
G01*
X136733000Y-58803000D01*
G75*
G02*
X136883000Y-58653000I150000J0D01*
G01*
G37*
G36*
G01*
X138153000Y-58653000D02*
X138453000Y-58653000D01*
G75*
G02*
X138603000Y-58803000I0J-150000D01*
G01*
X138603000Y-60453000D01*
G75*
G02*
X138453000Y-60603000I-150000J0D01*
G01*
X138153000Y-60603000D01*
G75*
G02*
X138003000Y-60453000I0J150000D01*
G01*
X138003000Y-58803000D01*
G75*
G02*
X138153000Y-58653000I150000J0D01*
G01*
G37*
G36*
G01*
X139423000Y-58653000D02*
X139723000Y-58653000D01*
G75*
G02*
X139873000Y-58803000I0J-150000D01*
G01*
X139873000Y-60453000D01*
G75*
G02*
X139723000Y-60603000I-150000J0D01*
G01*
X139423000Y-60603000D01*
G75*
G02*
X139273000Y-60453000I0J150000D01*
G01*
X139273000Y-58803000D01*
G75*
G02*
X139423000Y-58653000I150000J0D01*
G01*
G37*
G36*
G01*
X140693000Y-58653000D02*
X140993000Y-58653000D01*
G75*
G02*
X141143000Y-58803000I0J-150000D01*
G01*
X141143000Y-60453000D01*
G75*
G02*
X140993000Y-60603000I-150000J0D01*
G01*
X140693000Y-60603000D01*
G75*
G02*
X140543000Y-60453000I0J150000D01*
G01*
X140543000Y-58803000D01*
G75*
G02*
X140693000Y-58653000I150000J0D01*
G01*
G37*
G04 #@! TD*
D16*
G04 #@! TO.C,U3*
X134144000Y-94913000D03*
X134144000Y-95413000D03*
X134144000Y-95913000D03*
X134144000Y-96413000D03*
X134144000Y-96913000D03*
X134144000Y-97413000D03*
X134144000Y-97913000D03*
X134144000Y-98413000D03*
X134144000Y-98913000D03*
X134144000Y-99413000D03*
X134144000Y-99913000D03*
X134144000Y-100413000D03*
D17*
X132544000Y-102013000D03*
X132044000Y-102013000D03*
X131544000Y-102013000D03*
X131044000Y-102013000D03*
X130544000Y-102013000D03*
X130044000Y-102013000D03*
X129544000Y-102013000D03*
X129044000Y-102013000D03*
X128544000Y-102013000D03*
X128044000Y-102013000D03*
X127544000Y-102013000D03*
X127044000Y-102013000D03*
D16*
X125444000Y-100413000D03*
X125444000Y-99913000D03*
X125444000Y-99413000D03*
X125444000Y-98913000D03*
X125444000Y-98413000D03*
X125444000Y-97913000D03*
X125444000Y-97413000D03*
X125444000Y-96913000D03*
X125444000Y-96413000D03*
X125444000Y-95913000D03*
X125444000Y-95413000D03*
X125444000Y-94913000D03*
D17*
X127044000Y-93313000D03*
X127544000Y-93313000D03*
X128044000Y-93313000D03*
X128544000Y-93313000D03*
X129044000Y-93313000D03*
X129544000Y-93313000D03*
X130044000Y-93313000D03*
X130544000Y-93313000D03*
X131044000Y-93313000D03*
X131544000Y-93313000D03*
X132044000Y-93313000D03*
X132544000Y-93313000D03*
G04 #@! TD*
D18*
G04 #@! TO.C,J1*
X104300001Y-102311201D03*
X104300001Y-101041201D03*
X104300001Y-99771201D03*
X104300001Y-98501201D03*
X104300001Y-97231201D03*
X104300001Y-95961201D03*
X104300001Y-94691201D03*
X104300001Y-93421201D03*
X104300001Y-92151201D03*
X104300001Y-90881201D03*
X104300001Y-89611201D03*
X104300001Y-88341201D03*
X104300001Y-87071201D03*
X104300001Y-85801201D03*
X104300001Y-84531201D03*
X104300001Y-83261201D03*
X104300001Y-81991201D03*
X104300001Y-80721201D03*
X104300001Y-79451201D03*
X104300001Y-78181201D03*
X104300001Y-76911201D03*
X104300001Y-75641201D03*
X104300001Y-74371201D03*
X104300001Y-73101201D03*
X104300001Y-71831201D03*
X104300001Y-70561201D03*
X104300001Y-69291201D03*
X104300001Y-68021201D03*
X104300001Y-66751201D03*
X104300001Y-65481201D03*
X104300001Y-64211201D03*
X104300001Y-62941201D03*
X104300001Y-61671201D03*
X104300001Y-60401201D03*
X104300001Y-101676201D03*
X104300001Y-100406201D03*
X104300001Y-99136201D03*
X104300001Y-97866201D03*
X104300001Y-96596201D03*
X104300001Y-95326201D03*
X104300001Y-94056201D03*
X104300001Y-92786201D03*
X104300001Y-91516201D03*
X104300001Y-90246201D03*
X104300001Y-88976201D03*
X104300001Y-87706201D03*
X104300001Y-86436201D03*
X104300001Y-85166201D03*
X104300001Y-83896201D03*
X104300001Y-82626201D03*
X104300001Y-81356201D03*
X104300001Y-80086201D03*
X104300001Y-78816201D03*
X104300001Y-77546201D03*
X104300001Y-76276201D03*
X104300001Y-75006201D03*
X104300001Y-73736201D03*
X104300001Y-72466201D03*
X104300001Y-71196201D03*
X104300001Y-69926201D03*
X104300001Y-68656201D03*
X104300001Y-67386201D03*
X104300001Y-66116201D03*
X104300001Y-64846201D03*
X104300001Y-63576201D03*
X104300001Y-62306201D03*
X104300001Y-61036201D03*
X104300001Y-59766201D03*
G04 #@! TD*
M02*
