G04 #@! TF.GenerationSoftware,KiCad,Pcbnew,(5.1.10)-1*
G04 #@! TF.CreationDate,2021-11-29T18:47:30+00:00*
G04 #@! TF.ProjectId,pc_card_sound_barker,70635f63-6172-4645-9f73-6f756e645f62,rev?*
G04 #@! TF.SameCoordinates,Original*
G04 #@! TF.FileFunction,Copper,L2,Bot*
G04 #@! TF.FilePolarity,Positive*
%FSLAX46Y46*%
G04 Gerber Fmt 4.6, Leading zero omitted, Abs format (unit mm)*
G04 Created by KiCad (PCBNEW (5.1.10)-1) date 2021-11-29 18:47:30*
%MOMM*%
%LPD*%
G01*
G04 APERTURE LIST*
G04 #@! TA.AperFunction,EtchedComponent*
%ADD10C,0.100000*%
G04 #@! TD*
G04 #@! TA.AperFunction,SMDPad,CuDef*
%ADD11C,0.100000*%
G04 #@! TD*
G04 #@! TA.AperFunction,SMDPad,CuDef*
%ADD12R,1.000000X1.500000*%
G04 #@! TD*
G04 #@! TA.AperFunction,SMDPad,CuDef*
%ADD13C,1.000000*%
G04 #@! TD*
G04 #@! TA.AperFunction,ComponentPad*
%ADD14O,1.000000X1.000000*%
G04 #@! TD*
G04 #@! TA.AperFunction,ComponentPad*
%ADD15R,1.000000X1.000000*%
G04 #@! TD*
G04 #@! TA.AperFunction,ViaPad*
%ADD16C,0.800000*%
G04 #@! TD*
G04 #@! TA.AperFunction,Conductor*
%ADD17C,0.250000*%
G04 #@! TD*
G04 #@! TA.AperFunction,Conductor*
%ADD18C,0.500000*%
G04 #@! TD*
G04 #@! TA.AperFunction,Conductor*
%ADD19C,1.000000*%
G04 #@! TD*
G04 #@! TA.AperFunction,Conductor*
%ADD20C,0.254000*%
G04 #@! TD*
G04 #@! TA.AperFunction,Conductor*
%ADD21C,0.100000*%
G04 #@! TD*
G04 APERTURE END LIST*
D10*
G04 #@! TO.C,JP3*
G36*
X139965000Y-61676000D02*
G01*
X139465000Y-61676000D01*
X139465000Y-62276000D01*
X139965000Y-62276000D01*
X139965000Y-61676000D01*
G37*
G04 #@! TO.C,JP1*
G36*
X106176000Y-70312000D02*
G01*
X106676000Y-70312000D01*
X106676000Y-70912000D01*
X106176000Y-70912000D01*
X106176000Y-70312000D01*
G37*
G04 #@! TD*
G04 #@! TA.AperFunction,SMDPad,CuDef*
D11*
G04 #@! TO.P,JP3,1*
G04 #@! TO.N,VCC*
G36*
X139815000Y-61226000D02*
G01*
X140365000Y-61226000D01*
X140365000Y-61226602D01*
X140389534Y-61226602D01*
X140438365Y-61231412D01*
X140486490Y-61240984D01*
X140533445Y-61255228D01*
X140578778Y-61274005D01*
X140622051Y-61297136D01*
X140662850Y-61324396D01*
X140700779Y-61355524D01*
X140735476Y-61390221D01*
X140766604Y-61428150D01*
X140793864Y-61468949D01*
X140816995Y-61512222D01*
X140835772Y-61557555D01*
X140850016Y-61604510D01*
X140859588Y-61652635D01*
X140864398Y-61701466D01*
X140864398Y-61726000D01*
X140865000Y-61726000D01*
X140865000Y-62226000D01*
X140864398Y-62226000D01*
X140864398Y-62250534D01*
X140859588Y-62299365D01*
X140850016Y-62347490D01*
X140835772Y-62394445D01*
X140816995Y-62439778D01*
X140793864Y-62483051D01*
X140766604Y-62523850D01*
X140735476Y-62561779D01*
X140700779Y-62596476D01*
X140662850Y-62627604D01*
X140622051Y-62654864D01*
X140578778Y-62677995D01*
X140533445Y-62696772D01*
X140486490Y-62711016D01*
X140438365Y-62720588D01*
X140389534Y-62725398D01*
X140365000Y-62725398D01*
X140365000Y-62726000D01*
X139815000Y-62726000D01*
X139815000Y-61226000D01*
G37*
G04 #@! TD.AperFunction*
D12*
G04 #@! TO.P,JP3,2*
G04 #@! TO.N,WP#*
X139065000Y-61976000D03*
G04 #@! TA.AperFunction,SMDPad,CuDef*
D11*
G04 #@! TO.P,JP3,3*
G04 #@! TO.N,AGND*
G36*
X137765000Y-62725398D02*
G01*
X137740466Y-62725398D01*
X137691635Y-62720588D01*
X137643510Y-62711016D01*
X137596555Y-62696772D01*
X137551222Y-62677995D01*
X137507949Y-62654864D01*
X137467150Y-62627604D01*
X137429221Y-62596476D01*
X137394524Y-62561779D01*
X137363396Y-62523850D01*
X137336136Y-62483051D01*
X137313005Y-62439778D01*
X137294228Y-62394445D01*
X137279984Y-62347490D01*
X137270412Y-62299365D01*
X137265602Y-62250534D01*
X137265602Y-62226000D01*
X137265000Y-62226000D01*
X137265000Y-61726000D01*
X137265602Y-61726000D01*
X137265602Y-61701466D01*
X137270412Y-61652635D01*
X137279984Y-61604510D01*
X137294228Y-61557555D01*
X137313005Y-61512222D01*
X137336136Y-61468949D01*
X137363396Y-61428150D01*
X137394524Y-61390221D01*
X137429221Y-61355524D01*
X137467150Y-61324396D01*
X137507949Y-61297136D01*
X137551222Y-61274005D01*
X137596555Y-61255228D01*
X137643510Y-61240984D01*
X137691635Y-61231412D01*
X137740466Y-61226602D01*
X137765000Y-61226602D01*
X137765000Y-61226000D01*
X138315000Y-61226000D01*
X138315000Y-62726000D01*
X137765000Y-62726000D01*
X137765000Y-62725398D01*
G37*
G04 #@! TD.AperFunction*
G04 #@! TD*
G04 #@! TA.AperFunction,SMDPad,CuDef*
G04 #@! TO.P,JP1,1*
G04 #@! TO.N,Net-(J1-Pad43)*
G36*
X106576000Y-69862000D02*
G01*
X107076000Y-69862000D01*
X107076000Y-69862602D01*
X107100534Y-69862602D01*
X107149365Y-69867412D01*
X107197490Y-69876984D01*
X107244445Y-69891228D01*
X107289778Y-69910005D01*
X107333051Y-69933136D01*
X107373850Y-69960396D01*
X107411779Y-69991524D01*
X107446476Y-70026221D01*
X107477604Y-70064150D01*
X107504864Y-70104949D01*
X107527995Y-70148222D01*
X107546772Y-70193555D01*
X107561016Y-70240510D01*
X107570588Y-70288635D01*
X107575398Y-70337466D01*
X107575398Y-70362000D01*
X107576000Y-70362000D01*
X107576000Y-70862000D01*
X107575398Y-70862000D01*
X107575398Y-70886534D01*
X107570588Y-70935365D01*
X107561016Y-70983490D01*
X107546772Y-71030445D01*
X107527995Y-71075778D01*
X107504864Y-71119051D01*
X107477604Y-71159850D01*
X107446476Y-71197779D01*
X107411779Y-71232476D01*
X107373850Y-71263604D01*
X107333051Y-71290864D01*
X107289778Y-71313995D01*
X107244445Y-71332772D01*
X107197490Y-71347016D01*
X107149365Y-71356588D01*
X107100534Y-71361398D01*
X107076000Y-71361398D01*
X107076000Y-71362000D01*
X106576000Y-71362000D01*
X106576000Y-69862000D01*
G37*
G04 #@! TD.AperFunction*
G04 #@! TA.AperFunction,SMDPad,CuDef*
G04 #@! TO.P,JP1,2*
G04 #@! TO.N,AGND*
G36*
X105776000Y-71361398D02*
G01*
X105751466Y-71361398D01*
X105702635Y-71356588D01*
X105654510Y-71347016D01*
X105607555Y-71332772D01*
X105562222Y-71313995D01*
X105518949Y-71290864D01*
X105478150Y-71263604D01*
X105440221Y-71232476D01*
X105405524Y-71197779D01*
X105374396Y-71159850D01*
X105347136Y-71119051D01*
X105324005Y-71075778D01*
X105305228Y-71030445D01*
X105290984Y-70983490D01*
X105281412Y-70935365D01*
X105276602Y-70886534D01*
X105276602Y-70862000D01*
X105276000Y-70862000D01*
X105276000Y-70362000D01*
X105276602Y-70362000D01*
X105276602Y-70337466D01*
X105281412Y-70288635D01*
X105290984Y-70240510D01*
X105305228Y-70193555D01*
X105324005Y-70148222D01*
X105347136Y-70104949D01*
X105374396Y-70064150D01*
X105405524Y-70026221D01*
X105440221Y-69991524D01*
X105478150Y-69960396D01*
X105518949Y-69933136D01*
X105562222Y-69910005D01*
X105607555Y-69891228D01*
X105654510Y-69876984D01*
X105702635Y-69867412D01*
X105751466Y-69862602D01*
X105776000Y-69862602D01*
X105776000Y-69862000D01*
X106276000Y-69862000D01*
X106276000Y-71362000D01*
X105776000Y-71362000D01*
X105776000Y-71361398D01*
G37*
G04 #@! TD.AperFunction*
G04 #@! TD*
D13*
G04 #@! TO.P,TP2,1*
G04 #@! TO.N,AOTL*
X156591000Y-83058000D03*
G04 #@! TD*
G04 #@! TO.P,TP1,1*
G04 #@! TO.N,AOTR*
X158750000Y-83058000D03*
G04 #@! TD*
D14*
G04 #@! TO.P,J2,T*
G04 #@! TO.N,LEFT*
X157226000Y-59690000D03*
G04 #@! TO.P,J2,R*
G04 #@! TO.N,RIGHT*
X155956000Y-59690000D03*
D15*
G04 #@! TO.P,J2,S*
G04 #@! TO.N,AGND*
X154686000Y-59690000D03*
G04 #@! TD*
G04 #@! TA.AperFunction,SMDPad,CuDef*
D11*
G04 #@! TO.P,JP2,2*
G04 #@! TO.N,AGND*
G36*
X105776000Y-90284398D02*
G01*
X105751466Y-90284398D01*
X105702635Y-90279588D01*
X105654510Y-90270016D01*
X105607555Y-90255772D01*
X105562222Y-90236995D01*
X105518949Y-90213864D01*
X105478150Y-90186604D01*
X105440221Y-90155476D01*
X105405524Y-90120779D01*
X105374396Y-90082850D01*
X105347136Y-90042051D01*
X105324005Y-89998778D01*
X105305228Y-89953445D01*
X105290984Y-89906490D01*
X105281412Y-89858365D01*
X105276602Y-89809534D01*
X105276602Y-89785000D01*
X105276000Y-89785000D01*
X105276000Y-89285000D01*
X105276602Y-89285000D01*
X105276602Y-89260466D01*
X105281412Y-89211635D01*
X105290984Y-89163510D01*
X105305228Y-89116555D01*
X105324005Y-89071222D01*
X105347136Y-89027949D01*
X105374396Y-88987150D01*
X105405524Y-88949221D01*
X105440221Y-88914524D01*
X105478150Y-88883396D01*
X105518949Y-88856136D01*
X105562222Y-88833005D01*
X105607555Y-88814228D01*
X105654510Y-88799984D01*
X105702635Y-88790412D01*
X105751466Y-88785602D01*
X105776000Y-88785602D01*
X105776000Y-88785000D01*
X106276000Y-88785000D01*
X106276000Y-90285000D01*
X105776000Y-90285000D01*
X105776000Y-90284398D01*
G37*
G04 #@! TD.AperFunction*
G04 #@! TA.AperFunction,SMDPad,CuDef*
G04 #@! TO.P,JP2,1*
G04 #@! TO.N,Net-(J1-Pad57)*
G36*
X106576000Y-88785000D02*
G01*
X107076000Y-88785000D01*
X107076000Y-88785602D01*
X107100534Y-88785602D01*
X107149365Y-88790412D01*
X107197490Y-88799984D01*
X107244445Y-88814228D01*
X107289778Y-88833005D01*
X107333051Y-88856136D01*
X107373850Y-88883396D01*
X107411779Y-88914524D01*
X107446476Y-88949221D01*
X107477604Y-88987150D01*
X107504864Y-89027949D01*
X107527995Y-89071222D01*
X107546772Y-89116555D01*
X107561016Y-89163510D01*
X107570588Y-89211635D01*
X107575398Y-89260466D01*
X107575398Y-89285000D01*
X107576000Y-89285000D01*
X107576000Y-89785000D01*
X107575398Y-89785000D01*
X107575398Y-89809534D01*
X107570588Y-89858365D01*
X107561016Y-89906490D01*
X107546772Y-89953445D01*
X107527995Y-89998778D01*
X107504864Y-90042051D01*
X107477604Y-90082850D01*
X107446476Y-90120779D01*
X107411779Y-90155476D01*
X107373850Y-90186604D01*
X107333051Y-90213864D01*
X107289778Y-90236995D01*
X107244445Y-90255772D01*
X107197490Y-90270016D01*
X107149365Y-90279588D01*
X107100534Y-90284398D01*
X107076000Y-90284398D01*
X107076000Y-90285000D01*
X106576000Y-90285000D01*
X106576000Y-88785000D01*
G37*
G04 #@! TD.AperFunction*
G04 #@! TD*
D16*
G04 #@! TO.N,Net-(J1-Pad43)*
X110998000Y-71120000D03*
G04 #@! TO.N,Net-(J1-Pad57)*
X110617000Y-87757000D03*
G04 #@! TO.N,VCC*
X128524000Y-64516000D03*
X134366000Y-82804000D03*
X124968000Y-81280000D03*
X131318000Y-81280000D03*
X136144000Y-73279000D03*
X144399000Y-74676000D03*
X136338000Y-97028000D03*
X151003000Y-96139000D03*
X140208000Y-67945000D03*
X121412000Y-68453000D03*
X148463000Y-85725000D03*
X126746000Y-76073000D03*
X112522000Y-78740000D03*
X113284000Y-79756000D03*
X113792000Y-78613000D03*
X121412000Y-69977000D03*
X120396000Y-69215000D03*
X111760000Y-77724000D03*
G04 #@! TO.N,RESET*
X117094000Y-82296000D03*
X118999000Y-81153000D03*
G04 #@! TO.N,IOWR#*
X116967000Y-72644000D03*
X114554000Y-71755000D03*
G04 #@! TO.N,WP#*
X135255000Y-61722000D03*
G04 #@! TO.N,ICS0#*
X142113000Y-76073000D03*
X118618000Y-100203000D03*
G04 #@! TO.N,IA0*
X142113000Y-77470000D03*
X123571000Y-101600000D03*
G04 #@! TO.N,IA1*
X142113000Y-78867000D03*
X122047000Y-101600000D03*
G04 #@! TO.N,IIRQ#*
X142113000Y-80264000D03*
X121920000Y-98806000D03*
G04 #@! TO.N,IWR#*
X142113000Y-83058000D03*
X120777000Y-99568000D03*
G04 #@! TO.N,BCO*
X131222750Y-99060000D03*
X157607000Y-94869000D03*
G04 #@! TO.N,DO*
X129857500Y-99060000D03*
X159004000Y-94869000D03*
G04 #@! TO.N,LRO*
X128492250Y-99060000D03*
X160401000Y-94869000D03*
G04 #@! TO.N,IRD#*
X142113000Y-81661000D03*
X119888000Y-100457000D03*
G04 #@! TO.N,AGND*
X112776000Y-103124000D03*
X106680000Y-102108000D03*
X108204000Y-60833000D03*
X106172000Y-59690000D03*
X126746000Y-84582000D03*
X136906000Y-81788000D03*
X133350000Y-84582000D03*
X128270000Y-73406000D03*
X125222000Y-74168000D03*
X122047000Y-86233000D03*
X109601000Y-68199000D03*
X107442000Y-58674000D03*
X109220000Y-58674000D03*
X110998000Y-58674000D03*
X112776000Y-58674000D03*
X109220000Y-103124000D03*
X123063000Y-87376000D03*
X125222000Y-78740000D03*
X110490000Y-67183000D03*
X147701000Y-59817000D03*
X151796750Y-59817000D03*
X159988250Y-59817000D03*
X164084000Y-59817000D03*
X161798000Y-90678000D03*
X162941000Y-83058000D03*
X164719000Y-68199000D03*
X147447000Y-68199000D03*
X156083000Y-67437000D03*
X162687000Y-96774000D03*
X154940000Y-99949000D03*
X151638000Y-94107000D03*
X110998000Y-103124000D03*
X131699000Y-95504000D03*
X134493000Y-101727000D03*
X142494000Y-89154000D03*
X148463000Y-96012000D03*
X122809000Y-58674000D03*
X128778000Y-58674000D03*
X144907000Y-72390000D03*
X134112000Y-59563000D03*
X165862000Y-99822000D03*
X165862000Y-102616000D03*
X158242000Y-99949000D03*
X162687000Y-94869000D03*
X142875000Y-65405000D03*
X137287000Y-68580000D03*
X130810000Y-66929000D03*
X131953000Y-68072000D03*
X150114000Y-75311000D03*
X164719000Y-72771000D03*
X136906000Y-94234000D03*
X145796000Y-101727000D03*
X131445000Y-60198000D03*
X144145000Y-59817000D03*
X140081000Y-70231000D03*
X134493000Y-76200000D03*
X141097000Y-72517000D03*
X117348000Y-101473000D03*
X118491000Y-101727000D03*
X128524000Y-83566000D03*
X138303000Y-86360000D03*
X136906000Y-90678000D03*
X147066000Y-91694000D03*
X147066000Y-82677000D03*
X151638000Y-88392000D03*
X165862000Y-80137000D03*
X118618000Y-76073000D03*
X119888000Y-77343000D03*
X116840000Y-78359000D03*
X118618000Y-77343000D03*
X108077000Y-78232000D03*
X105791000Y-74676000D03*
X110363000Y-75692000D03*
X114173000Y-81788000D03*
X106045000Y-84264500D03*
G04 #@! TO.N,AVDD*
X114300000Y-94361000D03*
X112522000Y-94361000D03*
X113411000Y-93472000D03*
X155575000Y-88392000D03*
X148209000Y-70358000D03*
X159258000Y-102108000D03*
X111125000Y-84836000D03*
X109791500Y-84836000D03*
X108521500Y-84836000D03*
X112014000Y-84010500D03*
G04 #@! TO.N,Net-(C10-Pad2)*
X160528000Y-67691000D03*
X157607000Y-79375000D03*
X160782000Y-75057000D03*
G04 #@! TO.N,AOTR*
X160401000Y-83058000D03*
G04 #@! TO.N,AOTL*
X154813000Y-83058000D03*
G04 #@! TO.N,DACPD*
X153797000Y-95758000D03*
X128524000Y-97536000D03*
G04 #@! TO.N,CLKO*
X156210000Y-94869000D03*
X132588000Y-99060000D03*
G04 #@! TO.N,POR#*
X136144000Y-77343000D03*
X146812000Y-80518000D03*
G04 #@! TO.N,ATA_HRESET#*
X129032000Y-95504000D03*
X154813000Y-94869000D03*
G04 #@! TO.N,EE_CS*
X135001000Y-74676000D03*
X141097000Y-73914000D03*
G04 #@! TD*
D17*
G04 #@! TO.N,Net-(J1-Pad43)*
X107330000Y-70866000D02*
X107076000Y-70612000D01*
X107584000Y-71120000D02*
X107076000Y-70612000D01*
X110998000Y-71120000D02*
X107584000Y-71120000D01*
G04 #@! TO.N,Net-(J1-Pad57)*
X107076000Y-89535000D02*
X107076000Y-88631000D01*
X107950000Y-87757000D02*
X110617000Y-87757000D01*
X107076000Y-88631000D02*
X107950000Y-87757000D01*
G04 #@! TO.N,VCC*
X140365000Y-61976000D02*
X140365000Y-66264000D01*
D18*
X136906000Y-71374000D02*
X140208000Y-68072000D01*
X136906000Y-71374000D02*
X141859000Y-71374000D01*
X151003000Y-96139000D02*
X149098000Y-94234000D01*
X149098000Y-78613000D02*
X144907000Y-74422000D01*
X149098000Y-94234000D02*
X149098000Y-93980000D01*
X149098000Y-92710000D02*
X149098000Y-93218000D01*
X149098000Y-93980000D02*
X149098000Y-92710000D01*
X149098000Y-92710000D02*
X149098000Y-88138000D01*
X146812000Y-95504000D02*
X146304000Y-96012000D01*
X145288000Y-97028000D02*
X146812000Y-95504000D01*
X149098000Y-93218000D02*
X146812000Y-95504000D01*
X143256000Y-97028000D02*
X145288000Y-97028000D01*
X136338000Y-97028000D02*
X143256000Y-97028000D01*
X143256000Y-97028000D02*
X143637000Y-97028000D01*
D17*
X140365000Y-67788000D02*
X140208000Y-67945000D01*
X140365000Y-61976000D02*
X140365000Y-67788000D01*
D18*
X133731000Y-71374000D02*
X134366000Y-71374000D01*
X136779000Y-71374000D02*
X140208000Y-67945000D01*
X136398000Y-71374000D02*
X136779000Y-71374000D01*
X134366000Y-71374000D02*
X136398000Y-71374000D01*
X134239000Y-71374000D02*
X133731000Y-71374000D01*
X136144000Y-73279000D02*
X134239000Y-71374000D01*
X121412000Y-69088000D02*
X121412000Y-69342000D01*
X121412000Y-69977000D02*
X121412000Y-69088000D01*
X121412000Y-69088000D02*
X121412000Y-68453000D01*
X121412000Y-69977000D02*
X121158000Y-69977000D01*
X121412000Y-68453000D02*
X121158000Y-68453000D01*
X124333000Y-71374000D02*
X124714000Y-71374000D01*
X133858000Y-82296000D02*
X134366000Y-82804000D01*
X130429000Y-82169000D02*
X130429000Y-82296000D01*
X131318000Y-81280000D02*
X130429000Y-82169000D01*
X130175000Y-82296000D02*
X133858000Y-82296000D01*
X124968000Y-81280000D02*
X123952000Y-82296000D01*
X123952000Y-82296000D02*
X123825000Y-82296000D01*
X144081500Y-73596500D02*
X144907000Y-74422000D01*
X141859000Y-71374000D02*
X144081500Y-73596500D01*
X144399000Y-73914000D02*
X144081500Y-73596500D01*
X144399000Y-74676000D02*
X144399000Y-73914000D01*
X149098000Y-85090000D02*
X149098000Y-84836000D01*
X148463000Y-85725000D02*
X149098000Y-85090000D01*
X149098000Y-84836000D02*
X149098000Y-78613000D01*
X149098000Y-88138000D02*
X149098000Y-84836000D01*
X123507500Y-82296000D02*
X124460000Y-82296000D01*
X124460000Y-82296000D02*
X130429000Y-82296000D01*
X123825000Y-82296000D02*
X124460000Y-82296000D01*
X113474500Y-78295500D02*
X113792000Y-78613000D01*
X112966500Y-78295500D02*
X113474500Y-78295500D01*
X112522000Y-78740000D02*
X112966500Y-78295500D01*
X112966500Y-78803500D02*
X113284000Y-79121000D01*
X112966500Y-78295500D02*
X112966500Y-78803500D01*
X113474500Y-78930500D02*
X113792000Y-78613000D01*
X113284000Y-79121000D02*
X113474500Y-78930500D01*
X113125250Y-77946250D02*
X113792000Y-78613000D01*
X111760000Y-77724000D02*
X112204500Y-78168500D01*
X112204500Y-78168500D02*
X112712500Y-78168500D01*
X112712500Y-78168500D02*
X113474500Y-78930500D01*
X112490250Y-77946250D02*
X112712500Y-78168500D01*
X113125250Y-78136750D02*
X112522000Y-78740000D01*
X117094000Y-75501500D02*
X115760500Y-75501500D01*
X113538000Y-77724000D02*
X113792000Y-77470000D01*
X111760000Y-77724000D02*
X113538000Y-77724000D01*
X113792000Y-77470000D02*
X113125250Y-78136750D01*
X115760500Y-75501500D02*
X113792000Y-77470000D01*
X113792000Y-77470000D02*
X113792000Y-78613000D01*
X113284000Y-79248000D02*
X111760000Y-77724000D01*
X113284000Y-79756000D02*
X113284000Y-79248000D01*
X112522000Y-78486000D02*
X111760000Y-77724000D01*
X112522000Y-78740000D02*
X112522000Y-78486000D01*
X113284000Y-79502000D02*
X112522000Y-78740000D01*
X113284000Y-79756000D02*
X113284000Y-79502000D01*
X113284000Y-79121000D02*
X113792000Y-78613000D01*
X113284000Y-79756000D02*
X113284000Y-79121000D01*
X124714000Y-71374000D02*
X123888500Y-71374000D01*
X117094000Y-75501500D02*
X117157500Y-75501500D01*
X121412000Y-71247000D02*
X121348500Y-71310500D01*
X121412000Y-69977000D02*
X121412000Y-71247000D01*
X125095000Y-64516000D02*
X125222000Y-64516000D01*
X120396000Y-69215000D02*
X125095000Y-64516000D01*
X128524000Y-64516000D02*
X125222000Y-64516000D01*
X121412000Y-80200500D02*
X123317000Y-82105500D01*
X123317000Y-82105500D02*
X123507500Y-82296000D01*
X122555000Y-81343500D02*
X123317000Y-82105500D01*
X121412000Y-79502000D02*
X121412000Y-76962000D01*
X121412000Y-79502000D02*
X121412000Y-80200500D01*
X122682000Y-76073000D02*
X125095000Y-76073000D01*
X121412000Y-77343000D02*
X122682000Y-76073000D01*
X126746000Y-76073000D02*
X125095000Y-76073000D01*
X121412000Y-75057000D02*
X121412000Y-72580500D01*
X121412000Y-69977000D02*
X121412000Y-75057000D01*
X121412000Y-75057000D02*
X121412000Y-79502000D01*
X125857000Y-71374000D02*
X124714000Y-71374000D01*
X134366000Y-71374000D02*
X125857000Y-71374000D01*
X121158000Y-69977000D02*
X120967500Y-69786500D01*
X120967500Y-69786500D02*
X120967500Y-69151500D01*
X120967500Y-69786500D02*
X120396000Y-69215000D01*
X121221500Y-69088000D02*
X120872250Y-68738750D01*
X121412000Y-69088000D02*
X121221500Y-69088000D01*
X120872250Y-68738750D02*
X120396000Y-69215000D01*
X121158000Y-68453000D02*
X120872250Y-68738750D01*
X121285000Y-71374000D02*
X120999250Y-71659750D01*
X123317000Y-71374000D02*
X121285000Y-71374000D01*
X120999250Y-71659750D02*
X121348500Y-71310500D01*
X117157500Y-75501500D02*
X120999250Y-71659750D01*
X122618500Y-71374000D02*
X123317000Y-71374000D01*
X123317000Y-71374000D02*
X125857000Y-71374000D01*
D17*
G04 #@! TO.N,RESET*
X117856000Y-82296000D02*
X118999000Y-81153000D01*
X117094000Y-82296000D02*
X117856000Y-82296000D01*
G04 #@! TO.N,IOWR#*
X116078000Y-71755000D02*
X116967000Y-72644000D01*
X114554000Y-71755000D02*
X116078000Y-71755000D01*
G04 #@! TO.N,WP#*
X135255000Y-61722000D02*
X135255000Y-60833000D01*
X135255000Y-60833000D02*
X136144000Y-59944000D01*
X136144000Y-59944000D02*
X138811000Y-59944000D01*
X139065000Y-60198000D02*
X139065000Y-61214000D01*
X138811000Y-59944000D02*
X139065000Y-60198000D01*
X139065000Y-61976000D02*
X139065000Y-61214000D01*
G04 #@! TO.N,ICS0#*
X121154959Y-94869221D02*
X121154959Y-96901221D01*
X128395590Y-87628590D02*
X121154959Y-94869221D01*
X138936590Y-87628590D02*
X128395590Y-87628590D01*
X118618000Y-99438180D02*
X118618000Y-100203000D01*
X140773990Y-85791190D02*
X138936590Y-87628590D01*
X140773990Y-77412010D02*
X140773990Y-85791190D01*
X121154959Y-96901221D02*
X118618000Y-99438180D01*
X142113000Y-76073000D02*
X140773990Y-77412010D01*
G04 #@! TO.N,IA0*
X143738019Y-79095019D02*
X142113000Y-77470000D01*
X143738019Y-86009211D02*
X143738019Y-79095019D01*
X139968590Y-89778640D02*
X143738019Y-86009211D01*
X129399304Y-89778640D02*
X139968590Y-89778640D01*
X126240115Y-92937829D02*
X129399304Y-89778640D01*
X126240115Y-92966115D02*
X126240115Y-92937829D01*
X123698000Y-95508230D02*
X126240115Y-92966115D01*
X123698000Y-101473000D02*
X123698000Y-95508230D01*
X123571000Y-101600000D02*
X123698000Y-101473000D01*
G04 #@! TO.N,IA1*
X122954999Y-99676001D02*
X122954999Y-99459999D01*
X122954999Y-98951999D02*
X122954999Y-99459999D01*
X122936000Y-98970998D02*
X122954999Y-98951999D01*
X122936000Y-100711000D02*
X122936000Y-98970998D01*
X122047000Y-101600000D02*
X122936000Y-100711000D01*
X143288011Y-80042011D02*
X142113000Y-78867000D01*
X143288010Y-85822810D02*
X143288011Y-80042011D01*
X139762190Y-89348630D02*
X143288010Y-85822810D01*
X129221190Y-89348630D02*
X139762190Y-89348630D01*
X122954999Y-95614821D02*
X129221190Y-89348630D01*
X122954999Y-98951999D02*
X122954999Y-95614821D01*
G04 #@! TO.N,IIRQ#*
X142838001Y-80989001D02*
X142838001Y-82005001D01*
X142113000Y-80264000D02*
X142838001Y-80989001D01*
X142838001Y-82005001D02*
X142838001Y-81312999D01*
X142838001Y-85636409D02*
X142838001Y-82005001D01*
X139555790Y-88918620D02*
X142838001Y-85636409D01*
X126111705Y-91820295D02*
X129013380Y-88918620D01*
X126111705Y-91821705D02*
X126111705Y-91820295D01*
X129013380Y-88918620D02*
X139555790Y-88918620D01*
X122504989Y-98221011D02*
X122504989Y-95428421D01*
X122504989Y-95428421D02*
X126111705Y-91821705D01*
X121920000Y-98806000D02*
X122504989Y-98221011D01*
G04 #@! TO.N,IWR#*
X121031000Y-98298000D02*
X121285000Y-98044000D01*
X120777000Y-98552000D02*
X121285000Y-98044000D01*
X120777000Y-99568000D02*
X120777000Y-98552000D01*
X142113000Y-85725000D02*
X142113000Y-83058000D01*
X139349390Y-88488610D02*
X142113000Y-85725000D01*
X128780104Y-88488610D02*
X139349390Y-88488610D01*
X125857000Y-91411714D02*
X128780104Y-88488610D01*
X125857000Y-91440000D02*
X125857000Y-91411714D01*
X122054979Y-95242021D02*
X125857000Y-91440000D01*
X122054979Y-97274021D02*
X122054979Y-95242021D01*
X121285000Y-98044000D02*
X122054979Y-97274021D01*
G04 #@! TO.N,BCO*
X156463295Y-96012705D02*
X157607000Y-94869000D01*
X151317810Y-99510010D02*
X153667310Y-97160510D01*
X154554900Y-97160510D02*
X155702705Y-96012705D01*
X153667310Y-97160510D02*
X154554900Y-97160510D01*
X133407990Y-99510010D02*
X151317810Y-99510010D01*
X155702705Y-96012705D02*
X156463295Y-96012705D01*
X133132999Y-99785001D02*
X133407990Y-99510010D01*
X131947751Y-99785001D02*
X133132999Y-99785001D01*
X131222750Y-99060000D02*
X131947751Y-99785001D01*
G04 #@! TO.N,DO*
X151504211Y-99960019D02*
X153853710Y-97610520D01*
X153853710Y-97610520D02*
X154741300Y-97610520D01*
X133594390Y-99960020D02*
X151504211Y-99960019D01*
X133319399Y-100235011D02*
X133594390Y-99960020D01*
X131032511Y-100235011D02*
X133319399Y-100235011D01*
X129857500Y-99060000D02*
X131032511Y-100235011D01*
X157924500Y-95948500D02*
X159004000Y-94869000D01*
X157163910Y-95948500D02*
X157924500Y-95948500D01*
X156649695Y-96462715D02*
X157163910Y-95948500D01*
X155889105Y-96462715D02*
X156649695Y-96462715D01*
X155766910Y-96584910D02*
X155889105Y-96462715D01*
X154741300Y-97610520D02*
X155766910Y-96584910D01*
X155766910Y-96584910D02*
X155859053Y-96492767D01*
G04 #@! TO.N,LRO*
X130117271Y-100685021D02*
X128492250Y-99060000D01*
X133756979Y-100685021D02*
X130117271Y-100685021D01*
X160401000Y-94869000D02*
X159447795Y-95822205D01*
X159447795Y-95822205D02*
X158687205Y-95822205D01*
X158687205Y-95822205D02*
X158110900Y-96398510D01*
X157350310Y-96398510D02*
X156836095Y-96912725D01*
X151430972Y-100410028D02*
X151430970Y-100410030D01*
X156836095Y-96912725D02*
X156075505Y-96912725D01*
X158110900Y-96398510D02*
X157350310Y-96398510D01*
X156075505Y-96912725D02*
X154927700Y-98060530D01*
X134031970Y-100410030D02*
X133756979Y-100685021D01*
X151430970Y-100410030D02*
X134031970Y-100410030D01*
X154927700Y-98060530D02*
X154040110Y-98060530D01*
X154040110Y-98060530D02*
X151690612Y-100410028D01*
X151690612Y-100410028D02*
X151430972Y-100410028D01*
G04 #@! TO.N,IRD#*
X141224000Y-82550000D02*
X142113000Y-81661000D01*
X141224000Y-85977590D02*
X141224000Y-82550000D01*
X128573704Y-88058600D02*
X139142990Y-88058600D01*
X125924600Y-90735990D02*
X125924600Y-90707704D01*
X121604969Y-95055621D02*
X125924600Y-90735990D01*
X139142990Y-88058600D02*
X141224000Y-85977590D01*
X125924600Y-90707704D02*
X128573704Y-88058600D01*
X121604969Y-97087621D02*
X121604969Y-95055621D01*
X119888000Y-98804590D02*
X121604969Y-97087621D01*
X119888000Y-100457000D02*
X119888000Y-98804590D01*
G04 #@! TO.N,AGND*
X105776000Y-70612000D02*
X105776000Y-71359592D01*
X137160000Y-85090000D02*
X136906000Y-85344000D01*
X126746000Y-84582000D02*
X127508000Y-85344000D01*
X127508000Y-85344000D02*
X128016000Y-85344000D01*
X135128000Y-85344000D02*
X135382000Y-85344000D01*
X135382000Y-85344000D02*
X134874000Y-85344000D01*
X105776000Y-71359592D02*
X106489204Y-72072796D01*
X108077000Y-61214000D02*
X106426000Y-61214000D01*
X106172000Y-60960000D02*
X106172000Y-59690000D01*
X106426000Y-61214000D02*
X106172000Y-60960000D01*
X137668000Y-84582000D02*
X136906000Y-85344000D01*
X137668000Y-82550000D02*
X137668000Y-84582000D01*
X136906000Y-81788000D02*
X137668000Y-82550000D01*
X133858000Y-85090000D02*
X133858000Y-85344000D01*
X133350000Y-84582000D02*
X133858000Y-85090000D01*
X134874000Y-85344000D02*
X133858000Y-85344000D01*
X136652000Y-85344000D02*
X135382000Y-85344000D01*
X136906000Y-85344000D02*
X136652000Y-85344000D01*
X128778000Y-85344000D02*
X128016000Y-85344000D01*
X133858000Y-85344000D02*
X128778000Y-85344000D01*
X136936000Y-85344000D02*
X136906000Y-85344000D01*
X105776000Y-69864408D02*
X105776000Y-70612000D01*
X106444407Y-69196001D02*
X105776000Y-69864408D01*
X106680000Y-102108000D02*
X108458000Y-102108000D01*
X126619000Y-84455000D02*
X126746000Y-84582000D01*
X136271000Y-90805000D02*
X136271000Y-90551000D01*
X136398000Y-90424000D02*
X137795000Y-90424000D01*
X136271000Y-90551000D02*
X136398000Y-90424000D01*
X137795000Y-90424000D02*
X141097000Y-90424000D01*
X118491000Y-101727000D02*
X119380000Y-101727000D01*
X119380000Y-101727000D02*
X120269000Y-102616000D01*
X120269000Y-102616000D02*
X124206000Y-102616000D01*
X112776000Y-103124000D02*
X115189000Y-103124000D01*
X116332000Y-104267000D02*
X115570000Y-104267000D01*
X115570000Y-104267000D02*
X115443000Y-104267000D01*
X115443000Y-104267000D02*
X114935000Y-103759000D01*
X125730000Y-104267000D02*
X126238000Y-104267000D01*
X126238000Y-104267000D02*
X126492000Y-104267000D01*
X126492000Y-104267000D02*
X126619000Y-104140000D01*
X116967000Y-104267000D02*
X116586000Y-104267000D01*
X116332000Y-104267000D02*
X116967000Y-104267000D01*
X115760500Y-103441500D02*
X115506500Y-103441500D01*
X116586000Y-104267000D02*
X115760500Y-103441500D01*
X115506500Y-103441500D02*
X116205000Y-104140000D01*
X115189000Y-103124000D02*
X115506500Y-103441500D01*
X124841000Y-104267000D02*
X125222000Y-104267000D01*
X116967000Y-104267000D02*
X124841000Y-104267000D01*
X124841000Y-104267000D02*
X125730000Y-104267000D01*
X125222000Y-104267000D02*
X125476000Y-104013000D01*
X125476000Y-104013000D02*
X126111000Y-104013000D01*
D18*
G04 #@! TO.N,AVDD*
X148209000Y-70358000D02*
X152781000Y-74930000D01*
X152781000Y-74930000D02*
X152781000Y-85979000D01*
X154559000Y-87757000D02*
X155956000Y-87757000D01*
X152781000Y-85979000D02*
X154559000Y-87757000D01*
X166116000Y-89408000D02*
X166116000Y-97536000D01*
X164465000Y-87757000D02*
X166116000Y-89408000D01*
X160935934Y-102716066D02*
X159030934Y-102716066D01*
X166116000Y-97536000D02*
X160935934Y-102716066D01*
X158649934Y-102716066D02*
X158141934Y-102716066D01*
X159258000Y-102108000D02*
X158649934Y-102716066D01*
X159030934Y-102716066D02*
X158141934Y-102716066D01*
X156210000Y-87757000D02*
X156337000Y-87757000D01*
X155575000Y-88392000D02*
X156210000Y-87757000D01*
X156337000Y-87757000D02*
X164465000Y-87757000D01*
X155956000Y-87757000D02*
X156337000Y-87757000D01*
X148235934Y-102716066D02*
X158141934Y-102716066D01*
X147828000Y-103124000D02*
X148235934Y-102716066D01*
X117094000Y-103505000D02*
X124714000Y-103505000D01*
X125095000Y-103124000D02*
X147828000Y-103124000D01*
X124714000Y-103505000D02*
X125095000Y-103124000D01*
X115189000Y-101600000D02*
X117094000Y-103505000D01*
X112268000Y-85598000D02*
X112966500Y-86296500D01*
X109791500Y-84836000D02*
X110553500Y-85598000D01*
X109283500Y-85598000D02*
X110553500Y-85598000D01*
X111887000Y-85598000D02*
X112014000Y-85598000D01*
X112014000Y-85598000D02*
X112268000Y-85598000D01*
X110553500Y-85598000D02*
X112014000Y-85598000D01*
X108934250Y-85248750D02*
X111410750Y-85248750D01*
X112014000Y-84010500D02*
X112014000Y-84645500D01*
X108521500Y-84836000D02*
X108934250Y-85248750D01*
X108934250Y-85248750D02*
X109283500Y-85598000D01*
X115189000Y-95250000D02*
X115189000Y-95504000D01*
X112966500Y-93916500D02*
X112522000Y-94361000D01*
X114300000Y-94361000D02*
X115189000Y-95250000D01*
X113411000Y-94043500D02*
X113093500Y-94361000D01*
X113411000Y-93472000D02*
X113411000Y-94043500D01*
X113093500Y-94361000D02*
X114300000Y-94361000D01*
X112522000Y-94361000D02*
X113093500Y-94361000D01*
X113411000Y-93472000D02*
X114300000Y-94361000D01*
X113728500Y-94361000D02*
X113411000Y-94043500D01*
X114300000Y-94361000D02*
X113728500Y-94361000D01*
X112966500Y-91821000D02*
X112966500Y-92646500D01*
X112966500Y-92646500D02*
X112966500Y-93916500D01*
X115189000Y-98107500D02*
X115189000Y-95504000D01*
X115189000Y-101600000D02*
X115189000Y-98107500D01*
X112966500Y-91821000D02*
X112966500Y-91122500D01*
X112966500Y-91122500D02*
X112966500Y-92456000D01*
X112966500Y-91122500D02*
X112966500Y-86296500D01*
X113093500Y-94361000D02*
X113855500Y-94361000D01*
X115189000Y-95694500D02*
X115189000Y-98107500D01*
X112014000Y-85344000D02*
X112268000Y-85598000D01*
X112014000Y-84010500D02*
X112014000Y-85344000D01*
X111125000Y-84836000D02*
X111188500Y-84836000D01*
X112014000Y-84772500D02*
X111537750Y-85248750D01*
X112014000Y-84010500D02*
X112014000Y-84772500D01*
X111537750Y-85248750D02*
X111887000Y-85598000D01*
X111125000Y-84836000D02*
X111537750Y-85248750D01*
D17*
G04 #@! TO.N,Net-(C10-Pad2)*
X157607000Y-79375000D02*
X159004000Y-79375000D01*
X159004000Y-79375000D02*
X160528000Y-77851000D01*
X160528000Y-67691000D02*
X160528000Y-75057000D01*
X160782000Y-75057000D02*
X160528000Y-74803000D01*
X160528000Y-75311000D02*
X160782000Y-75057000D01*
X160528000Y-75565000D02*
X160528000Y-75311000D01*
X160528000Y-77851000D02*
X160528000Y-75565000D01*
X160528000Y-75565000D02*
X160528000Y-75057000D01*
D19*
G04 #@! TO.N,AOTR*
X158750000Y-83058000D02*
X160401000Y-83058000D01*
G04 #@! TO.N,AOTL*
X154813000Y-83058000D02*
X156591000Y-83058000D01*
D17*
G04 #@! TO.N,DACPD*
X133513999Y-98334999D02*
X133788990Y-98609990D01*
X129411590Y-97536000D02*
X130210589Y-98334999D01*
X130210589Y-98334999D02*
X133513999Y-98334999D01*
X128524000Y-97536000D02*
X129411590Y-97536000D01*
X150945010Y-98609990D02*
X150552990Y-98609990D01*
X153797000Y-95758000D02*
X150945010Y-98609990D01*
X133788990Y-98609990D02*
X150552990Y-98609990D01*
G04 #@! TO.N,CLKO*
X154368500Y-96710500D02*
X156210000Y-94869000D01*
X153480910Y-96710500D02*
X154368500Y-96710500D01*
X151131411Y-99059999D02*
X153480910Y-96710500D01*
X132588000Y-99060000D02*
X151131411Y-99059999D01*
G04 #@! TO.N,POR#*
X142621000Y-75057000D02*
X146812000Y-79248000D01*
X140462000Y-75057000D02*
X142621000Y-75057000D01*
X138176000Y-77343000D02*
X140462000Y-75057000D01*
X146812000Y-79248000D02*
X146812000Y-80518000D01*
X136144000Y-77343000D02*
X138176000Y-77343000D01*
G04 #@! TO.N,ATA_HRESET#*
X144399000Y-98148960D02*
X144387980Y-98159980D01*
X144387980Y-98159980D02*
X146442020Y-98159980D01*
X129032000Y-96520000D02*
X129032000Y-96012000D01*
X130396989Y-97884989D02*
X129032000Y-96520000D01*
X133700400Y-97884990D02*
X130396989Y-97884989D01*
X133975390Y-98159980D02*
X133700400Y-97884990D01*
X144387980Y-98159980D02*
X133975390Y-98159980D01*
X129032000Y-96012000D02*
X129032000Y-95504000D01*
X153416000Y-94869000D02*
X154813000Y-94869000D01*
X153162000Y-94869000D02*
X153416000Y-94869000D01*
X152781000Y-95250000D02*
X153162000Y-94869000D01*
X152781000Y-96137590D02*
X152781000Y-95250000D01*
X150758610Y-98159980D02*
X152781000Y-96137590D01*
X146442020Y-98159980D02*
X150758610Y-98159980D01*
G04 #@! TO.N,EE_CS*
X141097000Y-73914000D02*
X138430000Y-73914000D01*
X138430000Y-73914000D02*
X137668000Y-74676000D01*
X137668000Y-74676000D02*
X135001000Y-74676000D01*
G04 #@! TD*
D20*
G04 #@! TO.N,AGND*
X167361001Y-58939607D02*
X167361000Y-103366394D01*
X166612394Y-104115000D01*
X125358260Y-104115000D01*
X125370534Y-104100044D01*
X125461578Y-104009000D01*
X147784531Y-104009000D01*
X147828000Y-104013281D01*
X147871469Y-104009000D01*
X147871477Y-104009000D01*
X148001490Y-103996195D01*
X148168313Y-103945589D01*
X148322059Y-103863411D01*
X148456817Y-103752817D01*
X148484534Y-103719044D01*
X148602512Y-103601066D01*
X158606465Y-103601066D01*
X158649934Y-103605347D01*
X158693403Y-103601066D01*
X160892465Y-103601066D01*
X160935934Y-103605347D01*
X160979403Y-103601066D01*
X160979411Y-103601066D01*
X161109424Y-103588261D01*
X161276247Y-103537655D01*
X161429993Y-103455477D01*
X161564751Y-103344883D01*
X161592468Y-103311110D01*
X166711049Y-98192530D01*
X166744817Y-98164817D01*
X166855411Y-98030059D01*
X166884832Y-97975016D01*
X166937589Y-97876314D01*
X166988195Y-97709490D01*
X166990608Y-97684986D01*
X167001000Y-97579477D01*
X167001000Y-97579469D01*
X167005281Y-97536000D01*
X167001000Y-97492531D01*
X167001000Y-89451469D01*
X167005281Y-89408000D01*
X167001000Y-89364531D01*
X167001000Y-89364523D01*
X166988195Y-89234510D01*
X166975954Y-89194156D01*
X166937589Y-89067686D01*
X166855411Y-88913941D01*
X166772532Y-88812953D01*
X166772530Y-88812951D01*
X166744817Y-88779183D01*
X166711050Y-88751471D01*
X165121534Y-87161956D01*
X165093817Y-87128183D01*
X164959059Y-87017589D01*
X164805313Y-86935411D01*
X164638490Y-86884805D01*
X164508477Y-86872000D01*
X164508469Y-86872000D01*
X164465000Y-86867719D01*
X164421531Y-86872000D01*
X156253469Y-86872000D01*
X156210000Y-86867719D01*
X156166531Y-86872000D01*
X154925579Y-86872000D01*
X153666000Y-85612422D01*
X153666000Y-83058000D01*
X153672509Y-83058000D01*
X153694423Y-83280499D01*
X153759324Y-83494447D01*
X153864716Y-83691623D01*
X154006551Y-83864449D01*
X154179377Y-84006284D01*
X154376553Y-84111676D01*
X154590501Y-84176577D01*
X154757248Y-84193000D01*
X156702788Y-84193000D01*
X156757747Y-84182068D01*
X156813499Y-84176577D01*
X156867106Y-84160315D01*
X156922067Y-84149383D01*
X156973842Y-84127937D01*
X157027447Y-84111676D01*
X157076851Y-84085269D01*
X157128624Y-84063824D01*
X157175214Y-84032693D01*
X157224623Y-84006284D01*
X157267932Y-83970741D01*
X157314520Y-83939612D01*
X157354141Y-83899991D01*
X157397449Y-83864449D01*
X157432991Y-83821141D01*
X157472612Y-83781520D01*
X157503741Y-83734932D01*
X157539284Y-83691623D01*
X157565693Y-83642214D01*
X157596824Y-83595624D01*
X157618269Y-83543851D01*
X157644676Y-83494447D01*
X157660937Y-83440842D01*
X157670500Y-83417755D01*
X157680063Y-83440842D01*
X157696324Y-83494447D01*
X157722731Y-83543851D01*
X157744176Y-83595624D01*
X157775307Y-83642214D01*
X157801716Y-83691623D01*
X157837259Y-83734932D01*
X157868388Y-83781520D01*
X157908009Y-83821141D01*
X157943551Y-83864449D01*
X157986859Y-83899991D01*
X158026480Y-83939612D01*
X158073068Y-83970741D01*
X158116377Y-84006284D01*
X158165786Y-84032693D01*
X158212376Y-84063824D01*
X158264149Y-84085269D01*
X158313553Y-84111676D01*
X158367158Y-84127937D01*
X158418933Y-84149383D01*
X158473894Y-84160315D01*
X158527501Y-84176577D01*
X158583253Y-84182068D01*
X158638212Y-84193000D01*
X160456752Y-84193000D01*
X160623499Y-84176577D01*
X160837447Y-84111676D01*
X161034623Y-84006284D01*
X161207449Y-83864449D01*
X161349284Y-83691623D01*
X161454676Y-83494447D01*
X161519577Y-83280499D01*
X161541491Y-83058000D01*
X161519577Y-82835501D01*
X161454676Y-82621553D01*
X161349284Y-82424377D01*
X161207449Y-82251551D01*
X161034623Y-82109716D01*
X160837447Y-82004324D01*
X160623499Y-81939423D01*
X160456752Y-81923000D01*
X158638212Y-81923000D01*
X158583253Y-81933932D01*
X158527501Y-81939423D01*
X158473894Y-81955685D01*
X158418933Y-81966617D01*
X158367158Y-81988063D01*
X158313553Y-82004324D01*
X158264149Y-82030731D01*
X158212376Y-82052176D01*
X158165786Y-82083307D01*
X158116377Y-82109716D01*
X158073068Y-82145259D01*
X158026480Y-82176388D01*
X157986859Y-82216009D01*
X157943551Y-82251551D01*
X157908009Y-82294859D01*
X157868388Y-82334480D01*
X157837259Y-82381068D01*
X157801716Y-82424377D01*
X157775307Y-82473786D01*
X157744176Y-82520376D01*
X157722731Y-82572149D01*
X157696324Y-82621553D01*
X157680063Y-82675158D01*
X157670500Y-82698245D01*
X157660937Y-82675158D01*
X157644676Y-82621553D01*
X157618269Y-82572149D01*
X157596824Y-82520376D01*
X157565693Y-82473786D01*
X157539284Y-82424377D01*
X157503741Y-82381068D01*
X157472612Y-82334480D01*
X157432991Y-82294859D01*
X157397449Y-82251551D01*
X157354141Y-82216009D01*
X157314520Y-82176388D01*
X157267932Y-82145259D01*
X157224623Y-82109716D01*
X157175214Y-82083307D01*
X157128624Y-82052176D01*
X157076851Y-82030731D01*
X157027447Y-82004324D01*
X156973842Y-81988063D01*
X156922067Y-81966617D01*
X156867106Y-81955685D01*
X156813499Y-81939423D01*
X156757747Y-81933932D01*
X156702788Y-81923000D01*
X154757248Y-81923000D01*
X154590501Y-81939423D01*
X154376553Y-82004324D01*
X154179377Y-82109716D01*
X154006551Y-82251551D01*
X153864716Y-82424377D01*
X153759324Y-82621553D01*
X153694423Y-82835501D01*
X153672509Y-83058000D01*
X153666000Y-83058000D01*
X153666000Y-79273061D01*
X156572000Y-79273061D01*
X156572000Y-79476939D01*
X156611774Y-79676898D01*
X156689795Y-79865256D01*
X156803063Y-80034774D01*
X156947226Y-80178937D01*
X157116744Y-80292205D01*
X157305102Y-80370226D01*
X157505061Y-80410000D01*
X157708939Y-80410000D01*
X157908898Y-80370226D01*
X158097256Y-80292205D01*
X158266774Y-80178937D01*
X158310711Y-80135000D01*
X158966678Y-80135000D01*
X159004000Y-80138676D01*
X159041322Y-80135000D01*
X159041333Y-80135000D01*
X159152986Y-80124003D01*
X159296247Y-80080546D01*
X159428276Y-80009974D01*
X159544001Y-79915001D01*
X159567803Y-79885998D01*
X161039009Y-78414794D01*
X161068001Y-78391001D01*
X161091795Y-78362008D01*
X161091799Y-78362004D01*
X161162973Y-78275277D01*
X161162974Y-78275276D01*
X161233546Y-78143247D01*
X161277003Y-77999986D01*
X161288000Y-77888333D01*
X161288000Y-77888324D01*
X161291676Y-77851001D01*
X161288000Y-77813678D01*
X161288000Y-75963685D01*
X161441774Y-75860937D01*
X161585937Y-75716774D01*
X161699205Y-75547256D01*
X161777226Y-75358898D01*
X161817000Y-75158939D01*
X161817000Y-74955061D01*
X161777226Y-74755102D01*
X161699205Y-74566744D01*
X161585937Y-74397226D01*
X161441774Y-74253063D01*
X161288000Y-74150315D01*
X161288000Y-68394711D01*
X161331937Y-68350774D01*
X161445205Y-68181256D01*
X161523226Y-67992898D01*
X161563000Y-67792939D01*
X161563000Y-67589061D01*
X161523226Y-67389102D01*
X161445205Y-67200744D01*
X161331937Y-67031226D01*
X161187774Y-66887063D01*
X161018256Y-66773795D01*
X160829898Y-66695774D01*
X160629939Y-66656000D01*
X160426061Y-66656000D01*
X160226102Y-66695774D01*
X160037744Y-66773795D01*
X159868226Y-66887063D01*
X159724063Y-67031226D01*
X159610795Y-67200744D01*
X159532774Y-67389102D01*
X159493000Y-67589061D01*
X159493000Y-67792939D01*
X159532774Y-67992898D01*
X159610795Y-68181256D01*
X159724063Y-68350774D01*
X159768000Y-68394711D01*
X159768001Y-74765668D01*
X159764324Y-74803000D01*
X159768001Y-74840332D01*
X159768001Y-74849481D01*
X159747000Y-74955061D01*
X159747000Y-75158939D01*
X159768000Y-75264514D01*
X159768000Y-75273678D01*
X159764324Y-75311000D01*
X159768000Y-75348322D01*
X159768000Y-75602332D01*
X159768001Y-75602342D01*
X159768000Y-77536197D01*
X158689199Y-78615000D01*
X158310711Y-78615000D01*
X158266774Y-78571063D01*
X158097256Y-78457795D01*
X157908898Y-78379774D01*
X157708939Y-78340000D01*
X157505061Y-78340000D01*
X157305102Y-78379774D01*
X157116744Y-78457795D01*
X156947226Y-78571063D01*
X156803063Y-78715226D01*
X156689795Y-78884744D01*
X156611774Y-79073102D01*
X156572000Y-79273061D01*
X153666000Y-79273061D01*
X153666000Y-74973465D01*
X153670281Y-74929999D01*
X153666000Y-74886533D01*
X153666000Y-74886523D01*
X153653195Y-74756510D01*
X153602589Y-74589687D01*
X153520411Y-74435941D01*
X153409817Y-74301183D01*
X153376050Y-74273472D01*
X149215535Y-70112957D01*
X149204226Y-70056102D01*
X149126205Y-69867744D01*
X149012937Y-69698226D01*
X148868774Y-69554063D01*
X148699256Y-69440795D01*
X148510898Y-69362774D01*
X148310939Y-69323000D01*
X148107061Y-69323000D01*
X147907102Y-69362774D01*
X147718744Y-69440795D01*
X147549226Y-69554063D01*
X147405063Y-69698226D01*
X147291795Y-69867744D01*
X147213774Y-70056102D01*
X147174000Y-70256061D01*
X147174000Y-70459939D01*
X147213774Y-70659898D01*
X147291795Y-70848256D01*
X147405063Y-71017774D01*
X147549226Y-71161937D01*
X147718744Y-71275205D01*
X147907102Y-71353226D01*
X147963957Y-71364535D01*
X151896000Y-75296579D01*
X151896001Y-85935521D01*
X151891719Y-85979000D01*
X151908805Y-86152490D01*
X151959412Y-86319313D01*
X152041590Y-86473059D01*
X152124468Y-86574046D01*
X152124471Y-86574049D01*
X152152184Y-86607817D01*
X152185951Y-86635529D01*
X153902468Y-88352047D01*
X153930183Y-88385817D01*
X153963951Y-88413530D01*
X153963953Y-88413532D01*
X154055437Y-88488611D01*
X154064941Y-88496411D01*
X154218687Y-88578589D01*
X154385510Y-88629195D01*
X154515523Y-88642000D01*
X154515531Y-88642000D01*
X154559000Y-88646281D01*
X154570085Y-88645189D01*
X154579774Y-88693898D01*
X154657795Y-88882256D01*
X154771063Y-89051774D01*
X154915226Y-89195937D01*
X155084744Y-89309205D01*
X155273102Y-89387226D01*
X155473061Y-89427000D01*
X155676939Y-89427000D01*
X155876898Y-89387226D01*
X156065256Y-89309205D01*
X156234774Y-89195937D01*
X156378937Y-89051774D01*
X156492205Y-88882256D01*
X156570226Y-88693898D01*
X156580549Y-88642000D01*
X164098422Y-88642000D01*
X165231000Y-89774579D01*
X165231001Y-97169420D01*
X160569356Y-101831066D01*
X160258192Y-101831066D01*
X160253226Y-101806102D01*
X160175205Y-101617744D01*
X160061937Y-101448226D01*
X159917774Y-101304063D01*
X159748256Y-101190795D01*
X159559898Y-101112774D01*
X159359939Y-101073000D01*
X159156061Y-101073000D01*
X158956102Y-101112774D01*
X158767744Y-101190795D01*
X158598226Y-101304063D01*
X158454063Y-101448226D01*
X158340795Y-101617744D01*
X158262774Y-101806102D01*
X158257808Y-101831066D01*
X148279403Y-101831066D01*
X148235934Y-101826785D01*
X148192465Y-101831066D01*
X148192457Y-101831066D01*
X148062444Y-101843871D01*
X147895621Y-101894477D01*
X147741875Y-101976655D01*
X147607117Y-102087249D01*
X147579402Y-102121020D01*
X147461422Y-102239000D01*
X125138465Y-102239000D01*
X125094999Y-102234719D01*
X125051533Y-102239000D01*
X125051523Y-102239000D01*
X124921510Y-102251805D01*
X124754687Y-102302411D01*
X124600941Y-102384589D01*
X124466183Y-102495183D01*
X124438468Y-102528954D01*
X124347422Y-102620000D01*
X123748350Y-102620000D01*
X123872898Y-102595226D01*
X124061256Y-102517205D01*
X124230774Y-102403937D01*
X124374937Y-102259774D01*
X124488205Y-102090256D01*
X124566226Y-101901898D01*
X124606000Y-101701939D01*
X124606000Y-101498061D01*
X124566226Y-101298102D01*
X124488205Y-101109744D01*
X124458000Y-101064539D01*
X124458000Y-95823031D01*
X126751119Y-93529913D01*
X126780116Y-93506116D01*
X126875089Y-93390391D01*
X126889713Y-93363032D01*
X129714106Y-90538640D01*
X137541080Y-90538640D01*
X137541000Y-90539455D01*
X137541000Y-95134546D01*
X137543403Y-95159134D01*
X137550594Y-95182969D01*
X137562297Y-95204943D01*
X137578061Y-95224212D01*
X137597283Y-95240036D01*
X137619221Y-95251805D01*
X137643035Y-95259068D01*
X137667808Y-95261546D01*
X145287808Y-95273091D01*
X145312776Y-95270651D01*
X145336601Y-95263424D01*
X145358557Y-95251688D01*
X145377803Y-95235894D01*
X145393597Y-95216648D01*
X145405333Y-95194692D01*
X145412560Y-95170867D01*
X145415000Y-95146091D01*
X145415000Y-90551000D01*
X145412597Y-90526412D01*
X145405406Y-90502577D01*
X145393703Y-90480603D01*
X145377939Y-90461334D01*
X145358717Y-90445510D01*
X145336779Y-90433741D01*
X145312965Y-90426478D01*
X145288192Y-90424000D01*
X140387327Y-90416575D01*
X140392866Y-90413614D01*
X140508591Y-90318641D01*
X140532394Y-90289637D01*
X144249023Y-86573009D01*
X144278020Y-86549212D01*
X144372993Y-86433487D01*
X144443565Y-86301458D01*
X144487022Y-86158197D01*
X144498019Y-86046544D01*
X144498019Y-86046543D01*
X144501696Y-86009211D01*
X144498019Y-85971878D01*
X144498019Y-79132342D01*
X144501695Y-79095019D01*
X144498019Y-79057696D01*
X144498019Y-79057686D01*
X144487022Y-78946033D01*
X144443565Y-78802772D01*
X144436502Y-78789558D01*
X144372993Y-78670742D01*
X144301818Y-78584016D01*
X144278020Y-78555018D01*
X144249022Y-78531220D01*
X143148000Y-77430199D01*
X143148000Y-77368061D01*
X143108226Y-77168102D01*
X143030205Y-76979744D01*
X142916937Y-76810226D01*
X142878211Y-76771500D01*
X142916937Y-76732774D01*
X143030205Y-76563256D01*
X143036722Y-76547523D01*
X146052000Y-79562802D01*
X146052000Y-79814289D01*
X146008063Y-79858226D01*
X145894795Y-80027744D01*
X145816774Y-80216102D01*
X145777000Y-80416061D01*
X145777000Y-80619939D01*
X145816774Y-80819898D01*
X145894795Y-81008256D01*
X146008063Y-81177774D01*
X146152226Y-81321937D01*
X146321744Y-81435205D01*
X146510102Y-81513226D01*
X146710061Y-81553000D01*
X146913939Y-81553000D01*
X147113898Y-81513226D01*
X147302256Y-81435205D01*
X147471774Y-81321937D01*
X147615937Y-81177774D01*
X147729205Y-81008256D01*
X147807226Y-80819898D01*
X147847000Y-80619939D01*
X147847000Y-80416061D01*
X147807226Y-80216102D01*
X147729205Y-80027744D01*
X147615937Y-79858226D01*
X147572000Y-79814289D01*
X147572000Y-79285322D01*
X147575676Y-79247999D01*
X147572000Y-79210676D01*
X147572000Y-79210667D01*
X147561003Y-79099014D01*
X147517546Y-78955753D01*
X147513140Y-78947510D01*
X147446974Y-78823723D01*
X147375799Y-78736997D01*
X147352001Y-78707999D01*
X147323004Y-78684202D01*
X144349801Y-75711000D01*
X144500939Y-75711000D01*
X144700898Y-75671226D01*
X144844971Y-75611549D01*
X148213001Y-78979580D01*
X148213000Y-84719451D01*
X148161102Y-84729774D01*
X147972744Y-84807795D01*
X147803226Y-84921063D01*
X147659063Y-85065226D01*
X147545795Y-85234744D01*
X147467774Y-85423102D01*
X147428000Y-85623061D01*
X147428000Y-85826939D01*
X147467774Y-86026898D01*
X147545795Y-86215256D01*
X147659063Y-86384774D01*
X147803226Y-86528937D01*
X147972744Y-86642205D01*
X148161102Y-86720226D01*
X148213000Y-86730549D01*
X148213000Y-88181476D01*
X148213001Y-88181486D01*
X148213000Y-92666523D01*
X148213000Y-92851421D01*
X146216958Y-94847464D01*
X146216953Y-94847468D01*
X144921422Y-96143000D01*
X136876454Y-96143000D01*
X136828256Y-96110795D01*
X136639898Y-96032774D01*
X136439939Y-95993000D01*
X136236061Y-95993000D01*
X136036102Y-96032774D01*
X135847744Y-96110795D01*
X135678226Y-96224063D01*
X135534063Y-96368226D01*
X135420795Y-96537744D01*
X135342774Y-96726102D01*
X135303000Y-96926061D01*
X135303000Y-97129939D01*
X135342774Y-97329898D01*
X135371803Y-97399980D01*
X134290191Y-97399980D01*
X134264197Y-97373986D01*
X134240401Y-97344990D01*
X134211402Y-97321191D01*
X134124676Y-97250016D01*
X133992646Y-97179444D01*
X133887376Y-97147512D01*
X133849386Y-97135988D01*
X133737733Y-97124991D01*
X133700400Y-97121314D01*
X133663068Y-97124991D01*
X130711791Y-97124989D01*
X129793256Y-96206455D01*
X129835937Y-96163774D01*
X129949205Y-95994256D01*
X130027226Y-95805898D01*
X130067000Y-95605939D01*
X130067000Y-95402061D01*
X130027226Y-95202102D01*
X129949205Y-95013744D01*
X129835937Y-94844226D01*
X129691774Y-94700063D01*
X129522256Y-94586795D01*
X129333898Y-94508774D01*
X129133939Y-94469000D01*
X128930061Y-94469000D01*
X128730102Y-94508774D01*
X128541744Y-94586795D01*
X128372226Y-94700063D01*
X128228063Y-94844226D01*
X128114795Y-95013744D01*
X128036774Y-95202102D01*
X127997000Y-95402061D01*
X127997000Y-95605939D01*
X128036774Y-95805898D01*
X128114795Y-95994256D01*
X128228063Y-96163774D01*
X128272000Y-96207711D01*
X128272000Y-96482678D01*
X128268324Y-96520000D01*
X128269443Y-96531357D01*
X128222102Y-96540774D01*
X128033744Y-96618795D01*
X127864226Y-96732063D01*
X127720063Y-96876226D01*
X127606795Y-97045744D01*
X127528774Y-97234102D01*
X127489000Y-97434061D01*
X127489000Y-97637939D01*
X127528774Y-97837898D01*
X127606795Y-98026256D01*
X127720063Y-98195774D01*
X127806414Y-98282125D01*
X127688313Y-98400226D01*
X127575045Y-98569744D01*
X127497024Y-98758102D01*
X127457250Y-98958061D01*
X127457250Y-99161939D01*
X127497024Y-99361898D01*
X127575045Y-99550256D01*
X127688313Y-99719774D01*
X127832476Y-99863937D01*
X128001994Y-99977205D01*
X128190352Y-100055226D01*
X128390311Y-100095000D01*
X128452449Y-100095000D01*
X129553472Y-101196024D01*
X129577270Y-101225022D01*
X129692995Y-101319995D01*
X129825024Y-101390567D01*
X129968285Y-101434024D01*
X130079938Y-101445021D01*
X130079946Y-101445021D01*
X130117271Y-101448697D01*
X130154596Y-101445021D01*
X133719657Y-101445021D01*
X133756979Y-101448697D01*
X133794301Y-101445021D01*
X133794312Y-101445021D01*
X133905965Y-101434024D01*
X134049226Y-101390567D01*
X134181255Y-101319995D01*
X134296980Y-101225022D01*
X134320783Y-101196018D01*
X134346771Y-101170030D01*
X151393648Y-101170030D01*
X151430970Y-101173706D01*
X151468292Y-101170030D01*
X151468303Y-101170030D01*
X151468323Y-101170028D01*
X151653290Y-101170028D01*
X151690612Y-101173704D01*
X151727934Y-101170028D01*
X151727945Y-101170028D01*
X151839598Y-101159031D01*
X151982859Y-101115574D01*
X152114888Y-101045002D01*
X152230613Y-100950029D01*
X152254416Y-100921025D01*
X154354912Y-98820530D01*
X154890378Y-98820530D01*
X154927700Y-98824206D01*
X154965022Y-98820530D01*
X154965033Y-98820530D01*
X155076686Y-98809533D01*
X155219947Y-98766076D01*
X155351976Y-98695504D01*
X155467701Y-98600531D01*
X155491503Y-98571528D01*
X156390308Y-97672725D01*
X156798773Y-97672725D01*
X156836095Y-97676401D01*
X156873417Y-97672725D01*
X156873428Y-97672725D01*
X156985081Y-97661728D01*
X157128342Y-97618271D01*
X157260371Y-97547699D01*
X157376096Y-97452726D01*
X157399898Y-97423723D01*
X157665112Y-97158510D01*
X158073578Y-97158510D01*
X158110900Y-97162186D01*
X158148222Y-97158510D01*
X158148233Y-97158510D01*
X158259886Y-97147513D01*
X158403147Y-97104056D01*
X158535176Y-97033484D01*
X158650901Y-96938511D01*
X158674703Y-96909508D01*
X159002007Y-96582205D01*
X159410473Y-96582205D01*
X159447795Y-96585881D01*
X159485117Y-96582205D01*
X159485128Y-96582205D01*
X159596781Y-96571208D01*
X159740042Y-96527751D01*
X159872071Y-96457179D01*
X159987796Y-96362206D01*
X160011598Y-96333203D01*
X160440802Y-95904000D01*
X160502939Y-95904000D01*
X160702898Y-95864226D01*
X160891256Y-95786205D01*
X161060774Y-95672937D01*
X161204937Y-95528774D01*
X161318205Y-95359256D01*
X161396226Y-95170898D01*
X161436000Y-94970939D01*
X161436000Y-94767061D01*
X161396226Y-94567102D01*
X161318205Y-94378744D01*
X161204937Y-94209226D01*
X161060774Y-94065063D01*
X160891256Y-93951795D01*
X160702898Y-93873774D01*
X160502939Y-93834000D01*
X160299061Y-93834000D01*
X160099102Y-93873774D01*
X159910744Y-93951795D01*
X159741226Y-94065063D01*
X159702500Y-94103789D01*
X159663774Y-94065063D01*
X159494256Y-93951795D01*
X159305898Y-93873774D01*
X159105939Y-93834000D01*
X158902061Y-93834000D01*
X158702102Y-93873774D01*
X158513744Y-93951795D01*
X158344226Y-94065063D01*
X158305500Y-94103789D01*
X158266774Y-94065063D01*
X158097256Y-93951795D01*
X157908898Y-93873774D01*
X157708939Y-93834000D01*
X157505061Y-93834000D01*
X157305102Y-93873774D01*
X157116744Y-93951795D01*
X156947226Y-94065063D01*
X156908500Y-94103789D01*
X156869774Y-94065063D01*
X156700256Y-93951795D01*
X156511898Y-93873774D01*
X156311939Y-93834000D01*
X156108061Y-93834000D01*
X155908102Y-93873774D01*
X155719744Y-93951795D01*
X155550226Y-94065063D01*
X155511500Y-94103789D01*
X155472774Y-94065063D01*
X155303256Y-93951795D01*
X155114898Y-93873774D01*
X154914939Y-93834000D01*
X154711061Y-93834000D01*
X154511102Y-93873774D01*
X154322744Y-93951795D01*
X154153226Y-94065063D01*
X154109289Y-94109000D01*
X153199322Y-94109000D01*
X153161999Y-94105324D01*
X153124676Y-94109000D01*
X153124667Y-94109000D01*
X153013014Y-94119997D01*
X152869753Y-94163454D01*
X152737724Y-94234026D01*
X152621999Y-94328999D01*
X152598196Y-94358003D01*
X152269998Y-94686201D01*
X152241000Y-94709999D01*
X152217202Y-94738997D01*
X152217201Y-94738998D01*
X152146026Y-94825724D01*
X152075454Y-94957754D01*
X152057117Y-95018206D01*
X152031998Y-95101014D01*
X152021000Y-95212667D01*
X152021000Y-95212678D01*
X152017324Y-95250000D01*
X152021000Y-95287322D01*
X152021000Y-95822788D01*
X151999630Y-95844159D01*
X151998226Y-95837102D01*
X151920205Y-95648744D01*
X151806937Y-95479226D01*
X151662774Y-95335063D01*
X151493256Y-95221795D01*
X151304898Y-95143774D01*
X151248044Y-95132465D01*
X149983000Y-93867422D01*
X149983000Y-93261467D01*
X149987281Y-93218001D01*
X149983000Y-93174535D01*
X149983000Y-85133469D01*
X149987281Y-85090000D01*
X149983000Y-85046531D01*
X149983000Y-78656466D01*
X149987281Y-78612999D01*
X149983000Y-78569533D01*
X149983000Y-78569523D01*
X149970195Y-78439510D01*
X149919589Y-78272687D01*
X149837411Y-78118941D01*
X149761052Y-78025898D01*
X149754532Y-78017953D01*
X149754530Y-78017951D01*
X149726817Y-77984183D01*
X149693049Y-77956470D01*
X145563532Y-73826953D01*
X145055532Y-73318954D01*
X145027817Y-73285183D01*
X144994046Y-73257467D01*
X144738036Y-73001458D01*
X144738032Y-73001453D01*
X142515532Y-70778954D01*
X142487817Y-70745183D01*
X142353059Y-70634589D01*
X142199313Y-70552411D01*
X142032490Y-70501805D01*
X141902477Y-70489000D01*
X141902469Y-70489000D01*
X141859000Y-70484719D01*
X141815531Y-70489000D01*
X139042578Y-70489000D01*
X140648951Y-68882628D01*
X140698256Y-68862205D01*
X140867774Y-68748937D01*
X141011937Y-68604774D01*
X141125205Y-68435256D01*
X141203226Y-68246898D01*
X141243000Y-68046939D01*
X141243000Y-67843061D01*
X141203226Y-67643102D01*
X141125205Y-67454744D01*
X141125000Y-67454437D01*
X141125000Y-63070569D01*
X141133382Y-63063690D01*
X141202690Y-62994382D01*
X141282042Y-62897691D01*
X141336498Y-62816192D01*
X141395464Y-62705875D01*
X141432973Y-62615319D01*
X141469282Y-62495623D01*
X141488404Y-62399490D01*
X141500664Y-62275009D01*
X141500664Y-62250450D01*
X141503072Y-62226000D01*
X141503072Y-61726000D01*
X141500664Y-61701550D01*
X141500664Y-61676991D01*
X141488404Y-61552510D01*
X141469282Y-61456377D01*
X141432973Y-61336681D01*
X141395464Y-61246125D01*
X141336498Y-61135808D01*
X141282042Y-61054309D01*
X141202690Y-60957618D01*
X141133382Y-60888310D01*
X141036691Y-60808958D01*
X140955192Y-60754502D01*
X140844875Y-60695536D01*
X140754319Y-60658027D01*
X140634623Y-60621718D01*
X140538490Y-60602596D01*
X140414009Y-60590336D01*
X140389450Y-60590336D01*
X140365000Y-60587928D01*
X139825000Y-60587928D01*
X139825000Y-60235322D01*
X139828676Y-60197999D01*
X139825000Y-60160676D01*
X139825000Y-60160667D01*
X139814003Y-60049014D01*
X139770546Y-59905753D01*
X139699974Y-59773724D01*
X139605001Y-59657999D01*
X139575998Y-59634197D01*
X139520013Y-59578212D01*
X154821000Y-59578212D01*
X154821000Y-59801788D01*
X154864617Y-60021067D01*
X154950176Y-60227624D01*
X155074388Y-60413520D01*
X155232480Y-60571612D01*
X155418376Y-60695824D01*
X155624933Y-60781383D01*
X155844212Y-60825000D01*
X156067788Y-60825000D01*
X156287067Y-60781383D01*
X156493624Y-60695824D01*
X156591000Y-60630759D01*
X156688376Y-60695824D01*
X156894933Y-60781383D01*
X157114212Y-60825000D01*
X157337788Y-60825000D01*
X157557067Y-60781383D01*
X157763624Y-60695824D01*
X157949520Y-60571612D01*
X158107612Y-60413520D01*
X158231824Y-60227624D01*
X158317383Y-60021067D01*
X158361000Y-59801788D01*
X158361000Y-59578212D01*
X158317383Y-59358933D01*
X158231824Y-59152376D01*
X158107612Y-58966480D01*
X157949520Y-58808388D01*
X157763624Y-58684176D01*
X157557067Y-58598617D01*
X157337788Y-58555000D01*
X157114212Y-58555000D01*
X156894933Y-58598617D01*
X156688376Y-58684176D01*
X156591000Y-58749241D01*
X156493624Y-58684176D01*
X156287067Y-58598617D01*
X156067788Y-58555000D01*
X155844212Y-58555000D01*
X155624933Y-58598617D01*
X155418376Y-58684176D01*
X155232480Y-58808388D01*
X155074388Y-58966480D01*
X154950176Y-59152376D01*
X154864617Y-59358933D01*
X154821000Y-59578212D01*
X139520013Y-59578212D01*
X139374804Y-59433003D01*
X139351001Y-59403999D01*
X139235276Y-59309026D01*
X139103247Y-59238454D01*
X138959986Y-59194997D01*
X138848333Y-59184000D01*
X138848322Y-59184000D01*
X138811000Y-59180324D01*
X138773678Y-59184000D01*
X136181323Y-59184000D01*
X136144000Y-59180324D01*
X136106677Y-59184000D01*
X136106667Y-59184000D01*
X135995014Y-59194997D01*
X135851753Y-59238454D01*
X135719724Y-59309026D01*
X135603999Y-59403999D01*
X135580201Y-59432997D01*
X134743998Y-60269201D01*
X134715000Y-60292999D01*
X134691202Y-60321997D01*
X134691201Y-60321998D01*
X134620026Y-60408724D01*
X134549454Y-60540754D01*
X134534414Y-60590336D01*
X134505998Y-60684014D01*
X134495000Y-60795667D01*
X134495000Y-60795678D01*
X134491324Y-60833000D01*
X134495000Y-60870322D01*
X134495000Y-61018289D01*
X134451063Y-61062226D01*
X134337795Y-61231744D01*
X134259774Y-61420102D01*
X134220000Y-61620061D01*
X134220000Y-61823939D01*
X134259774Y-62023898D01*
X134337795Y-62212256D01*
X134451063Y-62381774D01*
X134595226Y-62525937D01*
X134764744Y-62639205D01*
X134953102Y-62717226D01*
X135153061Y-62757000D01*
X135356939Y-62757000D01*
X135556898Y-62717226D01*
X135745256Y-62639205D01*
X135914774Y-62525937D01*
X136058937Y-62381774D01*
X136172205Y-62212256D01*
X136250226Y-62023898D01*
X136290000Y-61823939D01*
X136290000Y-61620061D01*
X136250226Y-61420102D01*
X136172205Y-61231744D01*
X136075615Y-61087186D01*
X136458802Y-60704000D01*
X138200104Y-60704000D01*
X138113815Y-60774815D01*
X138034463Y-60871506D01*
X137975498Y-60981820D01*
X137939188Y-61101518D01*
X137926928Y-61226000D01*
X137926928Y-62726000D01*
X137939188Y-62850482D01*
X137975498Y-62970180D01*
X138034463Y-63080494D01*
X138113815Y-63177185D01*
X138210506Y-63256537D01*
X138320820Y-63315502D01*
X138440518Y-63351812D01*
X138565000Y-63364072D01*
X139565000Y-63364072D01*
X139605000Y-63360132D01*
X139605001Y-67103127D01*
X139548226Y-67141063D01*
X139404063Y-67285226D01*
X139290795Y-67454744D01*
X139212774Y-67643102D01*
X139201465Y-67699956D01*
X136412422Y-70489000D01*
X134282469Y-70489000D01*
X134239000Y-70484719D01*
X134195531Y-70489000D01*
X122314676Y-70489000D01*
X122329205Y-70467256D01*
X122407226Y-70278898D01*
X122447000Y-70078939D01*
X122447000Y-69875061D01*
X122407226Y-69675102D01*
X122329205Y-69486744D01*
X122297000Y-69438546D01*
X122297000Y-69131476D01*
X122301282Y-69088000D01*
X122297000Y-69044523D01*
X122297000Y-68991454D01*
X122329205Y-68943256D01*
X122407226Y-68754898D01*
X122447000Y-68554939D01*
X122447000Y-68415578D01*
X125461579Y-65401000D01*
X127985546Y-65401000D01*
X128033744Y-65433205D01*
X128222102Y-65511226D01*
X128422061Y-65551000D01*
X128625939Y-65551000D01*
X128825898Y-65511226D01*
X129014256Y-65433205D01*
X129183774Y-65319937D01*
X129327937Y-65175774D01*
X129413000Y-65048468D01*
X129413000Y-66040000D01*
X129415440Y-66064776D01*
X129422667Y-66088601D01*
X129434403Y-66110557D01*
X129450197Y-66129803D01*
X129469443Y-66145597D01*
X129491399Y-66157333D01*
X129515224Y-66164560D01*
X129540000Y-66167000D01*
X132842000Y-66167000D01*
X132842000Y-69977000D01*
X132844440Y-70001776D01*
X132851667Y-70025601D01*
X132863403Y-70047557D01*
X132879197Y-70066803D01*
X132898443Y-70082597D01*
X132920399Y-70094333D01*
X132944224Y-70101560D01*
X132969000Y-70104000D01*
X133604000Y-70104000D01*
X133628776Y-70101560D01*
X133652601Y-70094333D01*
X133674557Y-70082597D01*
X133693803Y-70066803D01*
X133709597Y-70047557D01*
X133721333Y-70025601D01*
X133728560Y-70001776D01*
X133731000Y-69977000D01*
X133731000Y-61849000D01*
X133728560Y-61824224D01*
X133721333Y-61800399D01*
X133709597Y-61778443D01*
X133693803Y-61759197D01*
X133674557Y-61743403D01*
X133652601Y-61731667D01*
X133628776Y-61724440D01*
X133604000Y-61722000D01*
X129540000Y-61722000D01*
X129515224Y-61724440D01*
X129491399Y-61731667D01*
X129469443Y-61743403D01*
X129450197Y-61759197D01*
X129434403Y-61778443D01*
X129422667Y-61800399D01*
X129415440Y-61824224D01*
X129413000Y-61849000D01*
X129413000Y-63983532D01*
X129327937Y-63856226D01*
X129183774Y-63712063D01*
X129014256Y-63598795D01*
X128825898Y-63520774D01*
X128625939Y-63481000D01*
X128422061Y-63481000D01*
X128222102Y-63520774D01*
X128033744Y-63598795D01*
X127985546Y-63631000D01*
X125138469Y-63631000D01*
X125095000Y-63626719D01*
X125051531Y-63631000D01*
X125051523Y-63631000D01*
X124921510Y-63643805D01*
X124754686Y-63694411D01*
X124600941Y-63776589D01*
X124499953Y-63859468D01*
X124499951Y-63859470D01*
X124466183Y-63887183D01*
X124438470Y-63920951D01*
X120562955Y-67796467D01*
X120529183Y-67824183D01*
X120501467Y-67857955D01*
X120277204Y-68082218D01*
X120243433Y-68109933D01*
X120215718Y-68143704D01*
X120150957Y-68208465D01*
X120094102Y-68219774D01*
X119905744Y-68297795D01*
X119736226Y-68411063D01*
X119592063Y-68555226D01*
X119478795Y-68724744D01*
X119400774Y-68913102D01*
X119361000Y-69113061D01*
X119361000Y-69316939D01*
X119400774Y-69516898D01*
X119478795Y-69705256D01*
X119592063Y-69874774D01*
X119736226Y-70018937D01*
X119905744Y-70132205D01*
X120094102Y-70210226D01*
X120150957Y-70221535D01*
X120310967Y-70381545D01*
X120338683Y-70415317D01*
X120372454Y-70443032D01*
X120501466Y-70572044D01*
X120527000Y-70603157D01*
X120527000Y-70880422D01*
X120404209Y-71003213D01*
X120404203Y-71003218D01*
X116790922Y-74616500D01*
X115803965Y-74616500D01*
X115760499Y-74612219D01*
X115717033Y-74616500D01*
X115717023Y-74616500D01*
X115587010Y-74629305D01*
X115420187Y-74679911D01*
X115266441Y-74762089D01*
X115266439Y-74762090D01*
X115266440Y-74762090D01*
X115165453Y-74844968D01*
X115165451Y-74844970D01*
X115131683Y-74872683D01*
X115103970Y-74906451D01*
X113196958Y-76813464D01*
X113196953Y-76813468D01*
X113196951Y-76813470D01*
X113165843Y-76839000D01*
X112298454Y-76839000D01*
X112250256Y-76806795D01*
X112061898Y-76728774D01*
X111861939Y-76689000D01*
X111658061Y-76689000D01*
X111458102Y-76728774D01*
X111269744Y-76806795D01*
X111100226Y-76920063D01*
X110956063Y-77064226D01*
X110842795Y-77233744D01*
X110764774Y-77422102D01*
X110725000Y-77622061D01*
X110725000Y-77825939D01*
X110764774Y-78025898D01*
X110842795Y-78214256D01*
X110956063Y-78383774D01*
X111100226Y-78527937D01*
X111269744Y-78641205D01*
X111458102Y-78719226D01*
X111487000Y-78724974D01*
X111487000Y-78841939D01*
X111526774Y-79041898D01*
X111604795Y-79230256D01*
X111718063Y-79399774D01*
X111862226Y-79543937D01*
X112031744Y-79657205D01*
X112220102Y-79735226D01*
X112249000Y-79740974D01*
X112249000Y-79857939D01*
X112288774Y-80057898D01*
X112366795Y-80246256D01*
X112480063Y-80415774D01*
X112624226Y-80559937D01*
X112793744Y-80673205D01*
X112982102Y-80751226D01*
X113182061Y-80791000D01*
X113385939Y-80791000D01*
X113585898Y-80751226D01*
X113774256Y-80673205D01*
X113943774Y-80559937D01*
X114087937Y-80415774D01*
X114201205Y-80246256D01*
X114279226Y-80057898D01*
X114319000Y-79857939D01*
X114319000Y-79654061D01*
X114292943Y-79523064D01*
X114451774Y-79416937D01*
X114595937Y-79272774D01*
X114709205Y-79103256D01*
X114787226Y-78914898D01*
X114827000Y-78714939D01*
X114827000Y-78511061D01*
X114787226Y-78311102D01*
X114709205Y-78122744D01*
X114677000Y-78074546D01*
X114677000Y-77836578D01*
X116127079Y-76386500D01*
X117114031Y-76386500D01*
X117157500Y-76390781D01*
X117200969Y-76386500D01*
X117200977Y-76386500D01*
X117330990Y-76373695D01*
X117497813Y-76323089D01*
X117651559Y-76240911D01*
X117786317Y-76130317D01*
X117814034Y-76096544D01*
X120527001Y-73383578D01*
X120527000Y-75013523D01*
X120527000Y-75013524D01*
X120527001Y-77283500D01*
X120527001Y-77299522D01*
X120522719Y-77343000D01*
X120527001Y-77386477D01*
X120527000Y-79458523D01*
X120527000Y-80157031D01*
X120522719Y-80200500D01*
X120527000Y-80243969D01*
X120527000Y-80243977D01*
X120531750Y-80292205D01*
X120539805Y-80373990D01*
X120590412Y-80540813D01*
X120672590Y-80694559D01*
X120755468Y-80795546D01*
X120755471Y-80795549D01*
X120783184Y-80829317D01*
X120816951Y-80857029D01*
X122721953Y-82762032D01*
X122721959Y-82762037D01*
X122850966Y-82891044D01*
X122878683Y-82924817D01*
X123013441Y-83035411D01*
X123167187Y-83117589D01*
X123334010Y-83168195D01*
X123464023Y-83181000D01*
X123464031Y-83181000D01*
X123507500Y-83185281D01*
X123550969Y-83181000D01*
X123908531Y-83181000D01*
X123952000Y-83185281D01*
X123995469Y-83181000D01*
X130385524Y-83181000D01*
X130429000Y-83185282D01*
X130472477Y-83181000D01*
X133401882Y-83181000D01*
X133448795Y-83294256D01*
X133562063Y-83463774D01*
X133706226Y-83607937D01*
X133875744Y-83721205D01*
X134064102Y-83799226D01*
X134264061Y-83839000D01*
X134467939Y-83839000D01*
X134667898Y-83799226D01*
X134856256Y-83721205D01*
X135025774Y-83607937D01*
X135169937Y-83463774D01*
X135283205Y-83294256D01*
X135361226Y-83105898D01*
X135401000Y-82905939D01*
X135401000Y-82702061D01*
X135361226Y-82502102D01*
X135283205Y-82313744D01*
X135169937Y-82144226D01*
X135025774Y-82000063D01*
X134856256Y-81886795D01*
X134667898Y-81808774D01*
X134611043Y-81797465D01*
X134514532Y-81700954D01*
X134486817Y-81667183D01*
X134352059Y-81556589D01*
X134198313Y-81474411D01*
X134031490Y-81423805D01*
X133901477Y-81411000D01*
X133901469Y-81411000D01*
X133858000Y-81406719D01*
X133814531Y-81411000D01*
X132347219Y-81411000D01*
X132353000Y-81381939D01*
X132353000Y-81178061D01*
X132313226Y-80978102D01*
X132235205Y-80789744D01*
X132121937Y-80620226D01*
X131977774Y-80476063D01*
X131808256Y-80362795D01*
X131619898Y-80284774D01*
X131419939Y-80245000D01*
X131216061Y-80245000D01*
X131016102Y-80284774D01*
X130827744Y-80362795D01*
X130658226Y-80476063D01*
X130514063Y-80620226D01*
X130400795Y-80789744D01*
X130322774Y-80978102D01*
X130311465Y-81034956D01*
X129935422Y-81411000D01*
X125997219Y-81411000D01*
X126003000Y-81381939D01*
X126003000Y-81178061D01*
X125963226Y-80978102D01*
X125885205Y-80789744D01*
X125771937Y-80620226D01*
X125627774Y-80476063D01*
X125458256Y-80362795D01*
X125269898Y-80284774D01*
X125069939Y-80245000D01*
X124866061Y-80245000D01*
X124666102Y-80284774D01*
X124477744Y-80362795D01*
X124308226Y-80476063D01*
X124164063Y-80620226D01*
X124050795Y-80789744D01*
X123972774Y-80978102D01*
X123961465Y-81034956D01*
X123729750Y-81266671D01*
X123569589Y-81106510D01*
X122297000Y-79833922D01*
X122297000Y-77709578D01*
X123048579Y-76958000D01*
X126207546Y-76958000D01*
X126255744Y-76990205D01*
X126444102Y-77068226D01*
X126644061Y-77108000D01*
X126847939Y-77108000D01*
X127047898Y-77068226D01*
X127236256Y-76990205D01*
X127405774Y-76876937D01*
X127549937Y-76732774D01*
X127663205Y-76563256D01*
X127741226Y-76374898D01*
X127781000Y-76174939D01*
X127781000Y-75971061D01*
X127741226Y-75771102D01*
X127663205Y-75582744D01*
X127549937Y-75413226D01*
X127405774Y-75269063D01*
X127236256Y-75155795D01*
X127047898Y-75077774D01*
X126847939Y-75038000D01*
X126644061Y-75038000D01*
X126444102Y-75077774D01*
X126255744Y-75155795D01*
X126207546Y-75188000D01*
X122725465Y-75188000D01*
X122681999Y-75183719D01*
X122638533Y-75188000D01*
X122638523Y-75188000D01*
X122508510Y-75200805D01*
X122341687Y-75251411D01*
X122297000Y-75275296D01*
X122297000Y-72259000D01*
X133872422Y-72259000D01*
X135137465Y-73524044D01*
X135148774Y-73580898D01*
X135180020Y-73656332D01*
X135102939Y-73641000D01*
X134899061Y-73641000D01*
X134699102Y-73680774D01*
X134510744Y-73758795D01*
X134341226Y-73872063D01*
X134197063Y-74016226D01*
X134083795Y-74185744D01*
X134005774Y-74374102D01*
X133966000Y-74574061D01*
X133966000Y-74777939D01*
X134005774Y-74977898D01*
X134083795Y-75166256D01*
X134197063Y-75335774D01*
X134341226Y-75479937D01*
X134510744Y-75593205D01*
X134699102Y-75671226D01*
X134899061Y-75711000D01*
X135102939Y-75711000D01*
X135302898Y-75671226D01*
X135491256Y-75593205D01*
X135660774Y-75479937D01*
X135704711Y-75436000D01*
X137630678Y-75436000D01*
X137668000Y-75439676D01*
X137705322Y-75436000D01*
X137705333Y-75436000D01*
X137816986Y-75425003D01*
X137960247Y-75381546D01*
X138092276Y-75310974D01*
X138208001Y-75216001D01*
X138231803Y-75186998D01*
X138744802Y-74674000D01*
X139770198Y-74674000D01*
X137861199Y-76583000D01*
X136847711Y-76583000D01*
X136803774Y-76539063D01*
X136634256Y-76425795D01*
X136445898Y-76347774D01*
X136245939Y-76308000D01*
X136042061Y-76308000D01*
X135842102Y-76347774D01*
X135653744Y-76425795D01*
X135484226Y-76539063D01*
X135340063Y-76683226D01*
X135226795Y-76852744D01*
X135148774Y-77041102D01*
X135109000Y-77241061D01*
X135109000Y-77444939D01*
X135148774Y-77644898D01*
X135226795Y-77833256D01*
X135340063Y-78002774D01*
X135484226Y-78146937D01*
X135653744Y-78260205D01*
X135842102Y-78338226D01*
X136042061Y-78378000D01*
X136245939Y-78378000D01*
X136445898Y-78338226D01*
X136634256Y-78260205D01*
X136803774Y-78146937D01*
X136847711Y-78103000D01*
X138138678Y-78103000D01*
X138176000Y-78106676D01*
X138213322Y-78103000D01*
X138213333Y-78103000D01*
X138324986Y-78092003D01*
X138468247Y-78048546D01*
X138600276Y-77977974D01*
X138716001Y-77883001D01*
X138739804Y-77853997D01*
X140776802Y-75817000D01*
X141108644Y-75817000D01*
X141078000Y-75971061D01*
X141078000Y-76033198D01*
X140262993Y-76848206D01*
X140233989Y-76872009D01*
X140186398Y-76929999D01*
X140139016Y-76987734D01*
X140105331Y-77050754D01*
X140068444Y-77119764D01*
X140024987Y-77263025D01*
X140013990Y-77374678D01*
X140013990Y-77374688D01*
X140010314Y-77412010D01*
X140013990Y-77449332D01*
X140013991Y-85476387D01*
X138621789Y-86868590D01*
X128432923Y-86868590D01*
X128395590Y-86864913D01*
X128358257Y-86868590D01*
X128246604Y-86879587D01*
X128103343Y-86923044D01*
X127971314Y-86993616D01*
X127855589Y-87088589D01*
X127831791Y-87117587D01*
X120643962Y-94305417D01*
X120614958Y-94329220D01*
X120575086Y-94377805D01*
X120519985Y-94444945D01*
X120466796Y-94544454D01*
X120449413Y-94576975D01*
X120405956Y-94720236D01*
X120394959Y-94831889D01*
X120394959Y-94831899D01*
X120391283Y-94869221D01*
X120394959Y-94906544D01*
X120394960Y-96586418D01*
X118107003Y-98874376D01*
X118077999Y-98898179D01*
X118032537Y-98953575D01*
X117983026Y-99013904D01*
X117936480Y-99100985D01*
X117912454Y-99145934D01*
X117868997Y-99289195D01*
X117858000Y-99400848D01*
X117858000Y-99400858D01*
X117854324Y-99438180D01*
X117858000Y-99475502D01*
X117858000Y-99499289D01*
X117814063Y-99543226D01*
X117700795Y-99712744D01*
X117622774Y-99901102D01*
X117583000Y-100101061D01*
X117583000Y-100304939D01*
X117622774Y-100504898D01*
X117700795Y-100693256D01*
X117814063Y-100862774D01*
X117958226Y-101006937D01*
X118127744Y-101120205D01*
X118316102Y-101198226D01*
X118516061Y-101238000D01*
X118719939Y-101238000D01*
X118919898Y-101198226D01*
X119093575Y-101126286D01*
X119228226Y-101260937D01*
X119397744Y-101374205D01*
X119586102Y-101452226D01*
X119786061Y-101492000D01*
X119989939Y-101492000D01*
X120189898Y-101452226D01*
X120378256Y-101374205D01*
X120547774Y-101260937D01*
X120691937Y-101116774D01*
X120805205Y-100947256D01*
X120883226Y-100758898D01*
X120915690Y-100595690D01*
X121078898Y-100563226D01*
X121267256Y-100485205D01*
X121436774Y-100371937D01*
X121580937Y-100227774D01*
X121694205Y-100058256D01*
X121772226Y-99869898D01*
X121779500Y-99833330D01*
X121818061Y-99841000D01*
X122021939Y-99841000D01*
X122176001Y-99810356D01*
X122176000Y-100396198D01*
X122007198Y-100565000D01*
X121945061Y-100565000D01*
X121745102Y-100604774D01*
X121556744Y-100682795D01*
X121387226Y-100796063D01*
X121243063Y-100940226D01*
X121129795Y-101109744D01*
X121051774Y-101298102D01*
X121012000Y-101498061D01*
X121012000Y-101701939D01*
X121051774Y-101901898D01*
X121129795Y-102090256D01*
X121243063Y-102259774D01*
X121387226Y-102403937D01*
X121556744Y-102517205D01*
X121745102Y-102595226D01*
X121869650Y-102620000D01*
X117460579Y-102620000D01*
X116074000Y-101233422D01*
X116074000Y-95293469D01*
X116078281Y-95250000D01*
X116074000Y-95206531D01*
X116074000Y-95206523D01*
X116061195Y-95076510D01*
X116010589Y-94909687D01*
X115928411Y-94755941D01*
X115901274Y-94722875D01*
X115845532Y-94654953D01*
X115845530Y-94654951D01*
X115817817Y-94621183D01*
X115784050Y-94593471D01*
X115306535Y-94115957D01*
X115295226Y-94059102D01*
X115217205Y-93870744D01*
X115103937Y-93701226D01*
X114959774Y-93557063D01*
X114790256Y-93443795D01*
X114601898Y-93365774D01*
X114545044Y-93354465D01*
X114417535Y-93226957D01*
X114406226Y-93170102D01*
X114328205Y-92981744D01*
X114214937Y-92812226D01*
X114070774Y-92668063D01*
X113901256Y-92554795D01*
X113851500Y-92534185D01*
X113851500Y-86339965D01*
X113855781Y-86296499D01*
X113851500Y-86253033D01*
X113851500Y-86253023D01*
X113838695Y-86123010D01*
X113788089Y-85956187D01*
X113705911Y-85802441D01*
X113642588Y-85725282D01*
X113623032Y-85701453D01*
X113623030Y-85701451D01*
X113595317Y-85667683D01*
X113561549Y-85639970D01*
X112924532Y-85002954D01*
X112899000Y-84971843D01*
X112899000Y-84815967D01*
X112903281Y-84772501D01*
X112899000Y-84729035D01*
X112899000Y-84548954D01*
X112931205Y-84500756D01*
X113009226Y-84312398D01*
X113049000Y-84112439D01*
X113049000Y-83908561D01*
X113009226Y-83708602D01*
X112931205Y-83520244D01*
X112817937Y-83350726D01*
X112673774Y-83206563D01*
X112504256Y-83093295D01*
X112315898Y-83015274D01*
X112115939Y-82975500D01*
X111912061Y-82975500D01*
X111712102Y-83015274D01*
X111523744Y-83093295D01*
X111354226Y-83206563D01*
X111210063Y-83350726D01*
X111096795Y-83520244D01*
X111018774Y-83708602D01*
X110999461Y-83805694D01*
X110823102Y-83840774D01*
X110634744Y-83918795D01*
X110465226Y-84032063D01*
X110458250Y-84039039D01*
X110451274Y-84032063D01*
X110281756Y-83918795D01*
X110093398Y-83840774D01*
X109893439Y-83801000D01*
X109689561Y-83801000D01*
X109489602Y-83840774D01*
X109301244Y-83918795D01*
X109156500Y-84015510D01*
X109011756Y-83918795D01*
X108823398Y-83840774D01*
X108623439Y-83801000D01*
X108419561Y-83801000D01*
X108219602Y-83840774D01*
X108031244Y-83918795D01*
X107861726Y-84032063D01*
X107717563Y-84176226D01*
X107604295Y-84345744D01*
X107526274Y-84534102D01*
X107486500Y-84734061D01*
X107486500Y-84937939D01*
X107526274Y-85137898D01*
X107604295Y-85326256D01*
X107717563Y-85495774D01*
X107861726Y-85639937D01*
X108031244Y-85753205D01*
X108219602Y-85831226D01*
X108276457Y-85842535D01*
X108277716Y-85843794D01*
X108305433Y-85877567D01*
X108339204Y-85905282D01*
X108626966Y-86193044D01*
X108654683Y-86226817D01*
X108789441Y-86337411D01*
X108943187Y-86419589D01*
X109110010Y-86470195D01*
X109240023Y-86483000D01*
X109240033Y-86483000D01*
X109283499Y-86487281D01*
X109326966Y-86483000D01*
X110510031Y-86483000D01*
X110553500Y-86487281D01*
X110596969Y-86483000D01*
X111843533Y-86483000D01*
X111886999Y-86487281D01*
X111904026Y-86485604D01*
X112081501Y-86663080D01*
X112081500Y-91079023D01*
X112081500Y-92603024D01*
X112081501Y-93423185D01*
X112031744Y-93443795D01*
X111862226Y-93557063D01*
X111718063Y-93701226D01*
X111604795Y-93870744D01*
X111526774Y-94059102D01*
X111487000Y-94259061D01*
X111487000Y-94462939D01*
X111526774Y-94662898D01*
X111604795Y-94851256D01*
X111718063Y-95020774D01*
X111862226Y-95164937D01*
X112031744Y-95278205D01*
X112220102Y-95356226D01*
X112420061Y-95396000D01*
X112623939Y-95396000D01*
X112823898Y-95356226D01*
X113012256Y-95278205D01*
X113059115Y-95246895D01*
X113093500Y-95250281D01*
X113136969Y-95246000D01*
X113685031Y-95246000D01*
X113728500Y-95250281D01*
X113762885Y-95246895D01*
X113809744Y-95278205D01*
X113998102Y-95356226D01*
X114054957Y-95367535D01*
X114304001Y-95616580D01*
X114304001Y-95651015D01*
X114304000Y-95651024D01*
X114304000Y-98150976D01*
X114304001Y-98150986D01*
X114304000Y-101556531D01*
X114299719Y-101600000D01*
X114304000Y-101643469D01*
X114304000Y-101643476D01*
X114309758Y-101701939D01*
X114316234Y-101767687D01*
X114316805Y-101773489D01*
X114367411Y-101940312D01*
X114449589Y-102094058D01*
X114560183Y-102228817D01*
X114593956Y-102256534D01*
X116437470Y-104100049D01*
X116449740Y-104115000D01*
X104855581Y-104115000D01*
X104081975Y-103341394D01*
X104081975Y-88785000D01*
X105937928Y-88785000D01*
X105937928Y-90285000D01*
X105950188Y-90409482D01*
X105986498Y-90529180D01*
X106045463Y-90639494D01*
X106124815Y-90736185D01*
X106221506Y-90815537D01*
X106331820Y-90874502D01*
X106451518Y-90910812D01*
X106576000Y-90923072D01*
X107076000Y-90923072D01*
X107100450Y-90920664D01*
X107125009Y-90920664D01*
X107249490Y-90908404D01*
X107345623Y-90889282D01*
X107465319Y-90852973D01*
X107555875Y-90815464D01*
X107666192Y-90756498D01*
X107747691Y-90702042D01*
X107844382Y-90622690D01*
X107913690Y-90553382D01*
X107993042Y-90456691D01*
X108047498Y-90375192D01*
X108106464Y-90264875D01*
X108143973Y-90174319D01*
X108180282Y-90054623D01*
X108199404Y-89958490D01*
X108211664Y-89834009D01*
X108211664Y-89809450D01*
X108214072Y-89785000D01*
X108214072Y-89285000D01*
X108211664Y-89260550D01*
X108211664Y-89235991D01*
X108199404Y-89111510D01*
X108180282Y-89015377D01*
X108143973Y-88895681D01*
X108106464Y-88805125D01*
X108061255Y-88720546D01*
X108264802Y-88517000D01*
X109913289Y-88517000D01*
X109957226Y-88560937D01*
X110126744Y-88674205D01*
X110315102Y-88752226D01*
X110515061Y-88792000D01*
X110718939Y-88792000D01*
X110918898Y-88752226D01*
X111107256Y-88674205D01*
X111276774Y-88560937D01*
X111420937Y-88416774D01*
X111534205Y-88247256D01*
X111612226Y-88058898D01*
X111652000Y-87858939D01*
X111652000Y-87655061D01*
X111612226Y-87455102D01*
X111534205Y-87266744D01*
X111420937Y-87097226D01*
X111276774Y-86953063D01*
X111107256Y-86839795D01*
X110918898Y-86761774D01*
X110718939Y-86722000D01*
X110515061Y-86722000D01*
X110315102Y-86761774D01*
X110126744Y-86839795D01*
X109957226Y-86953063D01*
X109913289Y-86997000D01*
X107987325Y-86997000D01*
X107950000Y-86993324D01*
X107912675Y-86997000D01*
X107912667Y-86997000D01*
X107801014Y-87007997D01*
X107657753Y-87051454D01*
X107525724Y-87122026D01*
X107409999Y-87216999D01*
X107386201Y-87245997D01*
X106564998Y-88067201D01*
X106536000Y-88090999D01*
X106512202Y-88119997D01*
X106512201Y-88119998D01*
X106482546Y-88156132D01*
X106451518Y-88159188D01*
X106331820Y-88195498D01*
X106221506Y-88254463D01*
X106124815Y-88333815D01*
X106045463Y-88430506D01*
X105986498Y-88540820D01*
X105950188Y-88660518D01*
X105937928Y-88785000D01*
X104081975Y-88785000D01*
X104081975Y-82194061D01*
X116059000Y-82194061D01*
X116059000Y-82397939D01*
X116098774Y-82597898D01*
X116176795Y-82786256D01*
X116290063Y-82955774D01*
X116434226Y-83099937D01*
X116603744Y-83213205D01*
X116792102Y-83291226D01*
X116992061Y-83331000D01*
X117195939Y-83331000D01*
X117395898Y-83291226D01*
X117584256Y-83213205D01*
X117753774Y-83099937D01*
X117797711Y-83056000D01*
X117818678Y-83056000D01*
X117856000Y-83059676D01*
X117893322Y-83056000D01*
X117893333Y-83056000D01*
X118004986Y-83045003D01*
X118148247Y-83001546D01*
X118280276Y-82930974D01*
X118396001Y-82836001D01*
X118419804Y-82806998D01*
X119038802Y-82188000D01*
X119100939Y-82188000D01*
X119300898Y-82148226D01*
X119489256Y-82070205D01*
X119658774Y-81956937D01*
X119802937Y-81812774D01*
X119916205Y-81643256D01*
X119994226Y-81454898D01*
X120034000Y-81254939D01*
X120034000Y-81051061D01*
X119994226Y-80851102D01*
X119916205Y-80662744D01*
X119802937Y-80493226D01*
X119658774Y-80349063D01*
X119489256Y-80235795D01*
X119300898Y-80157774D01*
X119100939Y-80118000D01*
X118897061Y-80118000D01*
X118697102Y-80157774D01*
X118508744Y-80235795D01*
X118339226Y-80349063D01*
X118195063Y-80493226D01*
X118081795Y-80662744D01*
X118003774Y-80851102D01*
X117964000Y-81051061D01*
X117964000Y-81113198D01*
X117652683Y-81424516D01*
X117584256Y-81378795D01*
X117395898Y-81300774D01*
X117195939Y-81261000D01*
X116992061Y-81261000D01*
X116792102Y-81300774D01*
X116603744Y-81378795D01*
X116434226Y-81492063D01*
X116290063Y-81636226D01*
X116176795Y-81805744D01*
X116098774Y-81994102D01*
X116059000Y-82194061D01*
X104081975Y-82194061D01*
X104081975Y-70312000D01*
X105541000Y-70312000D01*
X105541000Y-70912000D01*
X105546834Y-70971505D01*
X105552248Y-71030987D01*
X105552875Y-71033118D01*
X105553093Y-71035339D01*
X105570388Y-71092621D01*
X105587238Y-71149875D01*
X105588269Y-71151847D01*
X105588913Y-71153980D01*
X105616988Y-71206781D01*
X105644655Y-71259703D01*
X105646049Y-71261437D01*
X105647095Y-71263404D01*
X105684883Y-71309737D01*
X105722310Y-71356286D01*
X105724015Y-71357717D01*
X105725423Y-71359443D01*
X105771473Y-71397539D01*
X105817246Y-71435947D01*
X105819198Y-71437020D01*
X105820913Y-71438439D01*
X105873461Y-71466851D01*
X105925847Y-71495651D01*
X105927971Y-71496325D01*
X105929928Y-71497383D01*
X105955937Y-71505434D01*
X105986498Y-71606180D01*
X106045463Y-71716494D01*
X106124815Y-71813185D01*
X106221506Y-71892537D01*
X106331820Y-71951502D01*
X106451518Y-71987812D01*
X106576000Y-72000072D01*
X107076000Y-72000072D01*
X107100450Y-71997664D01*
X107125009Y-71997664D01*
X107249490Y-71985404D01*
X107345623Y-71966282D01*
X107465319Y-71929973D01*
X107555875Y-71892464D01*
X107574134Y-71882704D01*
X107583999Y-71883676D01*
X107621322Y-71880000D01*
X110294289Y-71880000D01*
X110338226Y-71923937D01*
X110507744Y-72037205D01*
X110696102Y-72115226D01*
X110896061Y-72155000D01*
X111099939Y-72155000D01*
X111299898Y-72115226D01*
X111488256Y-72037205D01*
X111657774Y-71923937D01*
X111801937Y-71779774D01*
X111886603Y-71653061D01*
X113519000Y-71653061D01*
X113519000Y-71856939D01*
X113558774Y-72056898D01*
X113636795Y-72245256D01*
X113750063Y-72414774D01*
X113894226Y-72558937D01*
X114063744Y-72672205D01*
X114252102Y-72750226D01*
X114452061Y-72790000D01*
X114655939Y-72790000D01*
X114855898Y-72750226D01*
X115044256Y-72672205D01*
X115213774Y-72558937D01*
X115257711Y-72515000D01*
X115763199Y-72515000D01*
X115932000Y-72683801D01*
X115932000Y-72745939D01*
X115971774Y-72945898D01*
X116049795Y-73134256D01*
X116163063Y-73303774D01*
X116307226Y-73447937D01*
X116476744Y-73561205D01*
X116665102Y-73639226D01*
X116865061Y-73679000D01*
X117068939Y-73679000D01*
X117268898Y-73639226D01*
X117457256Y-73561205D01*
X117626774Y-73447937D01*
X117770937Y-73303774D01*
X117884205Y-73134256D01*
X117962226Y-72945898D01*
X118002000Y-72745939D01*
X118002000Y-72542061D01*
X117962226Y-72342102D01*
X117884205Y-72153744D01*
X117770937Y-71984226D01*
X117626774Y-71840063D01*
X117457256Y-71726795D01*
X117268898Y-71648774D01*
X117068939Y-71609000D01*
X117006801Y-71609000D01*
X116641803Y-71244002D01*
X116618001Y-71214999D01*
X116502276Y-71120026D01*
X116370247Y-71049454D01*
X116226986Y-71005997D01*
X116115333Y-70995000D01*
X116115322Y-70995000D01*
X116078000Y-70991324D01*
X116040678Y-70995000D01*
X115257711Y-70995000D01*
X115213774Y-70951063D01*
X115044256Y-70837795D01*
X114855898Y-70759774D01*
X114655939Y-70720000D01*
X114452061Y-70720000D01*
X114252102Y-70759774D01*
X114063744Y-70837795D01*
X113894226Y-70951063D01*
X113750063Y-71095226D01*
X113636795Y-71264744D01*
X113558774Y-71453102D01*
X113519000Y-71653061D01*
X111886603Y-71653061D01*
X111915205Y-71610256D01*
X111993226Y-71421898D01*
X112033000Y-71221939D01*
X112033000Y-71018061D01*
X111993226Y-70818102D01*
X111915205Y-70629744D01*
X111801937Y-70460226D01*
X111657774Y-70316063D01*
X111488256Y-70202795D01*
X111299898Y-70124774D01*
X111099939Y-70085000D01*
X110896061Y-70085000D01*
X110696102Y-70124774D01*
X110507744Y-70202795D01*
X110338226Y-70316063D01*
X110294289Y-70360000D01*
X108213875Y-70360000D01*
X108211664Y-70337550D01*
X108211664Y-70312991D01*
X108199404Y-70188510D01*
X108180282Y-70092377D01*
X108143973Y-69972681D01*
X108106464Y-69882125D01*
X108047498Y-69771808D01*
X107993042Y-69690309D01*
X107913690Y-69593618D01*
X107844382Y-69524310D01*
X107747691Y-69444958D01*
X107666192Y-69390502D01*
X107555875Y-69331536D01*
X107465319Y-69294027D01*
X107345623Y-69257718D01*
X107249490Y-69238596D01*
X107125009Y-69226336D01*
X107100450Y-69226336D01*
X107076000Y-69223928D01*
X106576000Y-69223928D01*
X106451518Y-69236188D01*
X106331820Y-69272498D01*
X106221506Y-69331463D01*
X106124815Y-69410815D01*
X106045463Y-69507506D01*
X105986498Y-69617820D01*
X105956127Y-69717940D01*
X105938125Y-69723238D01*
X105936153Y-69724269D01*
X105934020Y-69724913D01*
X105881219Y-69752988D01*
X105828297Y-69780655D01*
X105826563Y-69782049D01*
X105824596Y-69783095D01*
X105778263Y-69820883D01*
X105731714Y-69858310D01*
X105730283Y-69860015D01*
X105728557Y-69861423D01*
X105690461Y-69907473D01*
X105652053Y-69953246D01*
X105650980Y-69955198D01*
X105649561Y-69956913D01*
X105621149Y-70009461D01*
X105592349Y-70061847D01*
X105591675Y-70063971D01*
X105590617Y-70065928D01*
X105572966Y-70122950D01*
X105554876Y-70179976D01*
X105554627Y-70182192D01*
X105553970Y-70184316D01*
X105547724Y-70243743D01*
X105541062Y-70303134D01*
X105541032Y-70307404D01*
X105541015Y-70307567D01*
X105541030Y-70307730D01*
X105541000Y-70312000D01*
X104081975Y-70312000D01*
X104081975Y-58964606D01*
X105007581Y-58039000D01*
X166460394Y-58039000D01*
X167361001Y-58939607D01*
G04 #@! TA.AperFunction,Conductor*
D21*
G36*
X167361001Y-58939607D02*
G01*
X167361000Y-103366394D01*
X166612394Y-104115000D01*
X125358260Y-104115000D01*
X125370534Y-104100044D01*
X125461578Y-104009000D01*
X147784531Y-104009000D01*
X147828000Y-104013281D01*
X147871469Y-104009000D01*
X147871477Y-104009000D01*
X148001490Y-103996195D01*
X148168313Y-103945589D01*
X148322059Y-103863411D01*
X148456817Y-103752817D01*
X148484534Y-103719044D01*
X148602512Y-103601066D01*
X158606465Y-103601066D01*
X158649934Y-103605347D01*
X158693403Y-103601066D01*
X160892465Y-103601066D01*
X160935934Y-103605347D01*
X160979403Y-103601066D01*
X160979411Y-103601066D01*
X161109424Y-103588261D01*
X161276247Y-103537655D01*
X161429993Y-103455477D01*
X161564751Y-103344883D01*
X161592468Y-103311110D01*
X166711049Y-98192530D01*
X166744817Y-98164817D01*
X166855411Y-98030059D01*
X166884832Y-97975016D01*
X166937589Y-97876314D01*
X166988195Y-97709490D01*
X166990608Y-97684986D01*
X167001000Y-97579477D01*
X167001000Y-97579469D01*
X167005281Y-97536000D01*
X167001000Y-97492531D01*
X167001000Y-89451469D01*
X167005281Y-89408000D01*
X167001000Y-89364531D01*
X167001000Y-89364523D01*
X166988195Y-89234510D01*
X166975954Y-89194156D01*
X166937589Y-89067686D01*
X166855411Y-88913941D01*
X166772532Y-88812953D01*
X166772530Y-88812951D01*
X166744817Y-88779183D01*
X166711050Y-88751471D01*
X165121534Y-87161956D01*
X165093817Y-87128183D01*
X164959059Y-87017589D01*
X164805313Y-86935411D01*
X164638490Y-86884805D01*
X164508477Y-86872000D01*
X164508469Y-86872000D01*
X164465000Y-86867719D01*
X164421531Y-86872000D01*
X156253469Y-86872000D01*
X156210000Y-86867719D01*
X156166531Y-86872000D01*
X154925579Y-86872000D01*
X153666000Y-85612422D01*
X153666000Y-83058000D01*
X153672509Y-83058000D01*
X153694423Y-83280499D01*
X153759324Y-83494447D01*
X153864716Y-83691623D01*
X154006551Y-83864449D01*
X154179377Y-84006284D01*
X154376553Y-84111676D01*
X154590501Y-84176577D01*
X154757248Y-84193000D01*
X156702788Y-84193000D01*
X156757747Y-84182068D01*
X156813499Y-84176577D01*
X156867106Y-84160315D01*
X156922067Y-84149383D01*
X156973842Y-84127937D01*
X157027447Y-84111676D01*
X157076851Y-84085269D01*
X157128624Y-84063824D01*
X157175214Y-84032693D01*
X157224623Y-84006284D01*
X157267932Y-83970741D01*
X157314520Y-83939612D01*
X157354141Y-83899991D01*
X157397449Y-83864449D01*
X157432991Y-83821141D01*
X157472612Y-83781520D01*
X157503741Y-83734932D01*
X157539284Y-83691623D01*
X157565693Y-83642214D01*
X157596824Y-83595624D01*
X157618269Y-83543851D01*
X157644676Y-83494447D01*
X157660937Y-83440842D01*
X157670500Y-83417755D01*
X157680063Y-83440842D01*
X157696324Y-83494447D01*
X157722731Y-83543851D01*
X157744176Y-83595624D01*
X157775307Y-83642214D01*
X157801716Y-83691623D01*
X157837259Y-83734932D01*
X157868388Y-83781520D01*
X157908009Y-83821141D01*
X157943551Y-83864449D01*
X157986859Y-83899991D01*
X158026480Y-83939612D01*
X158073068Y-83970741D01*
X158116377Y-84006284D01*
X158165786Y-84032693D01*
X158212376Y-84063824D01*
X158264149Y-84085269D01*
X158313553Y-84111676D01*
X158367158Y-84127937D01*
X158418933Y-84149383D01*
X158473894Y-84160315D01*
X158527501Y-84176577D01*
X158583253Y-84182068D01*
X158638212Y-84193000D01*
X160456752Y-84193000D01*
X160623499Y-84176577D01*
X160837447Y-84111676D01*
X161034623Y-84006284D01*
X161207449Y-83864449D01*
X161349284Y-83691623D01*
X161454676Y-83494447D01*
X161519577Y-83280499D01*
X161541491Y-83058000D01*
X161519577Y-82835501D01*
X161454676Y-82621553D01*
X161349284Y-82424377D01*
X161207449Y-82251551D01*
X161034623Y-82109716D01*
X160837447Y-82004324D01*
X160623499Y-81939423D01*
X160456752Y-81923000D01*
X158638212Y-81923000D01*
X158583253Y-81933932D01*
X158527501Y-81939423D01*
X158473894Y-81955685D01*
X158418933Y-81966617D01*
X158367158Y-81988063D01*
X158313553Y-82004324D01*
X158264149Y-82030731D01*
X158212376Y-82052176D01*
X158165786Y-82083307D01*
X158116377Y-82109716D01*
X158073068Y-82145259D01*
X158026480Y-82176388D01*
X157986859Y-82216009D01*
X157943551Y-82251551D01*
X157908009Y-82294859D01*
X157868388Y-82334480D01*
X157837259Y-82381068D01*
X157801716Y-82424377D01*
X157775307Y-82473786D01*
X157744176Y-82520376D01*
X157722731Y-82572149D01*
X157696324Y-82621553D01*
X157680063Y-82675158D01*
X157670500Y-82698245D01*
X157660937Y-82675158D01*
X157644676Y-82621553D01*
X157618269Y-82572149D01*
X157596824Y-82520376D01*
X157565693Y-82473786D01*
X157539284Y-82424377D01*
X157503741Y-82381068D01*
X157472612Y-82334480D01*
X157432991Y-82294859D01*
X157397449Y-82251551D01*
X157354141Y-82216009D01*
X157314520Y-82176388D01*
X157267932Y-82145259D01*
X157224623Y-82109716D01*
X157175214Y-82083307D01*
X157128624Y-82052176D01*
X157076851Y-82030731D01*
X157027447Y-82004324D01*
X156973842Y-81988063D01*
X156922067Y-81966617D01*
X156867106Y-81955685D01*
X156813499Y-81939423D01*
X156757747Y-81933932D01*
X156702788Y-81923000D01*
X154757248Y-81923000D01*
X154590501Y-81939423D01*
X154376553Y-82004324D01*
X154179377Y-82109716D01*
X154006551Y-82251551D01*
X153864716Y-82424377D01*
X153759324Y-82621553D01*
X153694423Y-82835501D01*
X153672509Y-83058000D01*
X153666000Y-83058000D01*
X153666000Y-79273061D01*
X156572000Y-79273061D01*
X156572000Y-79476939D01*
X156611774Y-79676898D01*
X156689795Y-79865256D01*
X156803063Y-80034774D01*
X156947226Y-80178937D01*
X157116744Y-80292205D01*
X157305102Y-80370226D01*
X157505061Y-80410000D01*
X157708939Y-80410000D01*
X157908898Y-80370226D01*
X158097256Y-80292205D01*
X158266774Y-80178937D01*
X158310711Y-80135000D01*
X158966678Y-80135000D01*
X159004000Y-80138676D01*
X159041322Y-80135000D01*
X159041333Y-80135000D01*
X159152986Y-80124003D01*
X159296247Y-80080546D01*
X159428276Y-80009974D01*
X159544001Y-79915001D01*
X159567803Y-79885998D01*
X161039009Y-78414794D01*
X161068001Y-78391001D01*
X161091795Y-78362008D01*
X161091799Y-78362004D01*
X161162973Y-78275277D01*
X161162974Y-78275276D01*
X161233546Y-78143247D01*
X161277003Y-77999986D01*
X161288000Y-77888333D01*
X161288000Y-77888324D01*
X161291676Y-77851001D01*
X161288000Y-77813678D01*
X161288000Y-75963685D01*
X161441774Y-75860937D01*
X161585937Y-75716774D01*
X161699205Y-75547256D01*
X161777226Y-75358898D01*
X161817000Y-75158939D01*
X161817000Y-74955061D01*
X161777226Y-74755102D01*
X161699205Y-74566744D01*
X161585937Y-74397226D01*
X161441774Y-74253063D01*
X161288000Y-74150315D01*
X161288000Y-68394711D01*
X161331937Y-68350774D01*
X161445205Y-68181256D01*
X161523226Y-67992898D01*
X161563000Y-67792939D01*
X161563000Y-67589061D01*
X161523226Y-67389102D01*
X161445205Y-67200744D01*
X161331937Y-67031226D01*
X161187774Y-66887063D01*
X161018256Y-66773795D01*
X160829898Y-66695774D01*
X160629939Y-66656000D01*
X160426061Y-66656000D01*
X160226102Y-66695774D01*
X160037744Y-66773795D01*
X159868226Y-66887063D01*
X159724063Y-67031226D01*
X159610795Y-67200744D01*
X159532774Y-67389102D01*
X159493000Y-67589061D01*
X159493000Y-67792939D01*
X159532774Y-67992898D01*
X159610795Y-68181256D01*
X159724063Y-68350774D01*
X159768000Y-68394711D01*
X159768001Y-74765668D01*
X159764324Y-74803000D01*
X159768001Y-74840332D01*
X159768001Y-74849481D01*
X159747000Y-74955061D01*
X159747000Y-75158939D01*
X159768000Y-75264514D01*
X159768000Y-75273678D01*
X159764324Y-75311000D01*
X159768000Y-75348322D01*
X159768000Y-75602332D01*
X159768001Y-75602342D01*
X159768000Y-77536197D01*
X158689199Y-78615000D01*
X158310711Y-78615000D01*
X158266774Y-78571063D01*
X158097256Y-78457795D01*
X157908898Y-78379774D01*
X157708939Y-78340000D01*
X157505061Y-78340000D01*
X157305102Y-78379774D01*
X157116744Y-78457795D01*
X156947226Y-78571063D01*
X156803063Y-78715226D01*
X156689795Y-78884744D01*
X156611774Y-79073102D01*
X156572000Y-79273061D01*
X153666000Y-79273061D01*
X153666000Y-74973465D01*
X153670281Y-74929999D01*
X153666000Y-74886533D01*
X153666000Y-74886523D01*
X153653195Y-74756510D01*
X153602589Y-74589687D01*
X153520411Y-74435941D01*
X153409817Y-74301183D01*
X153376050Y-74273472D01*
X149215535Y-70112957D01*
X149204226Y-70056102D01*
X149126205Y-69867744D01*
X149012937Y-69698226D01*
X148868774Y-69554063D01*
X148699256Y-69440795D01*
X148510898Y-69362774D01*
X148310939Y-69323000D01*
X148107061Y-69323000D01*
X147907102Y-69362774D01*
X147718744Y-69440795D01*
X147549226Y-69554063D01*
X147405063Y-69698226D01*
X147291795Y-69867744D01*
X147213774Y-70056102D01*
X147174000Y-70256061D01*
X147174000Y-70459939D01*
X147213774Y-70659898D01*
X147291795Y-70848256D01*
X147405063Y-71017774D01*
X147549226Y-71161937D01*
X147718744Y-71275205D01*
X147907102Y-71353226D01*
X147963957Y-71364535D01*
X151896000Y-75296579D01*
X151896001Y-85935521D01*
X151891719Y-85979000D01*
X151908805Y-86152490D01*
X151959412Y-86319313D01*
X152041590Y-86473059D01*
X152124468Y-86574046D01*
X152124471Y-86574049D01*
X152152184Y-86607817D01*
X152185951Y-86635529D01*
X153902468Y-88352047D01*
X153930183Y-88385817D01*
X153963951Y-88413530D01*
X153963953Y-88413532D01*
X154055437Y-88488611D01*
X154064941Y-88496411D01*
X154218687Y-88578589D01*
X154385510Y-88629195D01*
X154515523Y-88642000D01*
X154515531Y-88642000D01*
X154559000Y-88646281D01*
X154570085Y-88645189D01*
X154579774Y-88693898D01*
X154657795Y-88882256D01*
X154771063Y-89051774D01*
X154915226Y-89195937D01*
X155084744Y-89309205D01*
X155273102Y-89387226D01*
X155473061Y-89427000D01*
X155676939Y-89427000D01*
X155876898Y-89387226D01*
X156065256Y-89309205D01*
X156234774Y-89195937D01*
X156378937Y-89051774D01*
X156492205Y-88882256D01*
X156570226Y-88693898D01*
X156580549Y-88642000D01*
X164098422Y-88642000D01*
X165231000Y-89774579D01*
X165231001Y-97169420D01*
X160569356Y-101831066D01*
X160258192Y-101831066D01*
X160253226Y-101806102D01*
X160175205Y-101617744D01*
X160061937Y-101448226D01*
X159917774Y-101304063D01*
X159748256Y-101190795D01*
X159559898Y-101112774D01*
X159359939Y-101073000D01*
X159156061Y-101073000D01*
X158956102Y-101112774D01*
X158767744Y-101190795D01*
X158598226Y-101304063D01*
X158454063Y-101448226D01*
X158340795Y-101617744D01*
X158262774Y-101806102D01*
X158257808Y-101831066D01*
X148279403Y-101831066D01*
X148235934Y-101826785D01*
X148192465Y-101831066D01*
X148192457Y-101831066D01*
X148062444Y-101843871D01*
X147895621Y-101894477D01*
X147741875Y-101976655D01*
X147607117Y-102087249D01*
X147579402Y-102121020D01*
X147461422Y-102239000D01*
X125138465Y-102239000D01*
X125094999Y-102234719D01*
X125051533Y-102239000D01*
X125051523Y-102239000D01*
X124921510Y-102251805D01*
X124754687Y-102302411D01*
X124600941Y-102384589D01*
X124466183Y-102495183D01*
X124438468Y-102528954D01*
X124347422Y-102620000D01*
X123748350Y-102620000D01*
X123872898Y-102595226D01*
X124061256Y-102517205D01*
X124230774Y-102403937D01*
X124374937Y-102259774D01*
X124488205Y-102090256D01*
X124566226Y-101901898D01*
X124606000Y-101701939D01*
X124606000Y-101498061D01*
X124566226Y-101298102D01*
X124488205Y-101109744D01*
X124458000Y-101064539D01*
X124458000Y-95823031D01*
X126751119Y-93529913D01*
X126780116Y-93506116D01*
X126875089Y-93390391D01*
X126889713Y-93363032D01*
X129714106Y-90538640D01*
X137541080Y-90538640D01*
X137541000Y-90539455D01*
X137541000Y-95134546D01*
X137543403Y-95159134D01*
X137550594Y-95182969D01*
X137562297Y-95204943D01*
X137578061Y-95224212D01*
X137597283Y-95240036D01*
X137619221Y-95251805D01*
X137643035Y-95259068D01*
X137667808Y-95261546D01*
X145287808Y-95273091D01*
X145312776Y-95270651D01*
X145336601Y-95263424D01*
X145358557Y-95251688D01*
X145377803Y-95235894D01*
X145393597Y-95216648D01*
X145405333Y-95194692D01*
X145412560Y-95170867D01*
X145415000Y-95146091D01*
X145415000Y-90551000D01*
X145412597Y-90526412D01*
X145405406Y-90502577D01*
X145393703Y-90480603D01*
X145377939Y-90461334D01*
X145358717Y-90445510D01*
X145336779Y-90433741D01*
X145312965Y-90426478D01*
X145288192Y-90424000D01*
X140387327Y-90416575D01*
X140392866Y-90413614D01*
X140508591Y-90318641D01*
X140532394Y-90289637D01*
X144249023Y-86573009D01*
X144278020Y-86549212D01*
X144372993Y-86433487D01*
X144443565Y-86301458D01*
X144487022Y-86158197D01*
X144498019Y-86046544D01*
X144498019Y-86046543D01*
X144501696Y-86009211D01*
X144498019Y-85971878D01*
X144498019Y-79132342D01*
X144501695Y-79095019D01*
X144498019Y-79057696D01*
X144498019Y-79057686D01*
X144487022Y-78946033D01*
X144443565Y-78802772D01*
X144436502Y-78789558D01*
X144372993Y-78670742D01*
X144301818Y-78584016D01*
X144278020Y-78555018D01*
X144249022Y-78531220D01*
X143148000Y-77430199D01*
X143148000Y-77368061D01*
X143108226Y-77168102D01*
X143030205Y-76979744D01*
X142916937Y-76810226D01*
X142878211Y-76771500D01*
X142916937Y-76732774D01*
X143030205Y-76563256D01*
X143036722Y-76547523D01*
X146052000Y-79562802D01*
X146052000Y-79814289D01*
X146008063Y-79858226D01*
X145894795Y-80027744D01*
X145816774Y-80216102D01*
X145777000Y-80416061D01*
X145777000Y-80619939D01*
X145816774Y-80819898D01*
X145894795Y-81008256D01*
X146008063Y-81177774D01*
X146152226Y-81321937D01*
X146321744Y-81435205D01*
X146510102Y-81513226D01*
X146710061Y-81553000D01*
X146913939Y-81553000D01*
X147113898Y-81513226D01*
X147302256Y-81435205D01*
X147471774Y-81321937D01*
X147615937Y-81177774D01*
X147729205Y-81008256D01*
X147807226Y-80819898D01*
X147847000Y-80619939D01*
X147847000Y-80416061D01*
X147807226Y-80216102D01*
X147729205Y-80027744D01*
X147615937Y-79858226D01*
X147572000Y-79814289D01*
X147572000Y-79285322D01*
X147575676Y-79247999D01*
X147572000Y-79210676D01*
X147572000Y-79210667D01*
X147561003Y-79099014D01*
X147517546Y-78955753D01*
X147513140Y-78947510D01*
X147446974Y-78823723D01*
X147375799Y-78736997D01*
X147352001Y-78707999D01*
X147323004Y-78684202D01*
X144349801Y-75711000D01*
X144500939Y-75711000D01*
X144700898Y-75671226D01*
X144844971Y-75611549D01*
X148213001Y-78979580D01*
X148213000Y-84719451D01*
X148161102Y-84729774D01*
X147972744Y-84807795D01*
X147803226Y-84921063D01*
X147659063Y-85065226D01*
X147545795Y-85234744D01*
X147467774Y-85423102D01*
X147428000Y-85623061D01*
X147428000Y-85826939D01*
X147467774Y-86026898D01*
X147545795Y-86215256D01*
X147659063Y-86384774D01*
X147803226Y-86528937D01*
X147972744Y-86642205D01*
X148161102Y-86720226D01*
X148213000Y-86730549D01*
X148213000Y-88181476D01*
X148213001Y-88181486D01*
X148213000Y-92666523D01*
X148213000Y-92851421D01*
X146216958Y-94847464D01*
X146216953Y-94847468D01*
X144921422Y-96143000D01*
X136876454Y-96143000D01*
X136828256Y-96110795D01*
X136639898Y-96032774D01*
X136439939Y-95993000D01*
X136236061Y-95993000D01*
X136036102Y-96032774D01*
X135847744Y-96110795D01*
X135678226Y-96224063D01*
X135534063Y-96368226D01*
X135420795Y-96537744D01*
X135342774Y-96726102D01*
X135303000Y-96926061D01*
X135303000Y-97129939D01*
X135342774Y-97329898D01*
X135371803Y-97399980D01*
X134290191Y-97399980D01*
X134264197Y-97373986D01*
X134240401Y-97344990D01*
X134211402Y-97321191D01*
X134124676Y-97250016D01*
X133992646Y-97179444D01*
X133887376Y-97147512D01*
X133849386Y-97135988D01*
X133737733Y-97124991D01*
X133700400Y-97121314D01*
X133663068Y-97124991D01*
X130711791Y-97124989D01*
X129793256Y-96206455D01*
X129835937Y-96163774D01*
X129949205Y-95994256D01*
X130027226Y-95805898D01*
X130067000Y-95605939D01*
X130067000Y-95402061D01*
X130027226Y-95202102D01*
X129949205Y-95013744D01*
X129835937Y-94844226D01*
X129691774Y-94700063D01*
X129522256Y-94586795D01*
X129333898Y-94508774D01*
X129133939Y-94469000D01*
X128930061Y-94469000D01*
X128730102Y-94508774D01*
X128541744Y-94586795D01*
X128372226Y-94700063D01*
X128228063Y-94844226D01*
X128114795Y-95013744D01*
X128036774Y-95202102D01*
X127997000Y-95402061D01*
X127997000Y-95605939D01*
X128036774Y-95805898D01*
X128114795Y-95994256D01*
X128228063Y-96163774D01*
X128272000Y-96207711D01*
X128272000Y-96482678D01*
X128268324Y-96520000D01*
X128269443Y-96531357D01*
X128222102Y-96540774D01*
X128033744Y-96618795D01*
X127864226Y-96732063D01*
X127720063Y-96876226D01*
X127606795Y-97045744D01*
X127528774Y-97234102D01*
X127489000Y-97434061D01*
X127489000Y-97637939D01*
X127528774Y-97837898D01*
X127606795Y-98026256D01*
X127720063Y-98195774D01*
X127806414Y-98282125D01*
X127688313Y-98400226D01*
X127575045Y-98569744D01*
X127497024Y-98758102D01*
X127457250Y-98958061D01*
X127457250Y-99161939D01*
X127497024Y-99361898D01*
X127575045Y-99550256D01*
X127688313Y-99719774D01*
X127832476Y-99863937D01*
X128001994Y-99977205D01*
X128190352Y-100055226D01*
X128390311Y-100095000D01*
X128452449Y-100095000D01*
X129553472Y-101196024D01*
X129577270Y-101225022D01*
X129692995Y-101319995D01*
X129825024Y-101390567D01*
X129968285Y-101434024D01*
X130079938Y-101445021D01*
X130079946Y-101445021D01*
X130117271Y-101448697D01*
X130154596Y-101445021D01*
X133719657Y-101445021D01*
X133756979Y-101448697D01*
X133794301Y-101445021D01*
X133794312Y-101445021D01*
X133905965Y-101434024D01*
X134049226Y-101390567D01*
X134181255Y-101319995D01*
X134296980Y-101225022D01*
X134320783Y-101196018D01*
X134346771Y-101170030D01*
X151393648Y-101170030D01*
X151430970Y-101173706D01*
X151468292Y-101170030D01*
X151468303Y-101170030D01*
X151468323Y-101170028D01*
X151653290Y-101170028D01*
X151690612Y-101173704D01*
X151727934Y-101170028D01*
X151727945Y-101170028D01*
X151839598Y-101159031D01*
X151982859Y-101115574D01*
X152114888Y-101045002D01*
X152230613Y-100950029D01*
X152254416Y-100921025D01*
X154354912Y-98820530D01*
X154890378Y-98820530D01*
X154927700Y-98824206D01*
X154965022Y-98820530D01*
X154965033Y-98820530D01*
X155076686Y-98809533D01*
X155219947Y-98766076D01*
X155351976Y-98695504D01*
X155467701Y-98600531D01*
X155491503Y-98571528D01*
X156390308Y-97672725D01*
X156798773Y-97672725D01*
X156836095Y-97676401D01*
X156873417Y-97672725D01*
X156873428Y-97672725D01*
X156985081Y-97661728D01*
X157128342Y-97618271D01*
X157260371Y-97547699D01*
X157376096Y-97452726D01*
X157399898Y-97423723D01*
X157665112Y-97158510D01*
X158073578Y-97158510D01*
X158110900Y-97162186D01*
X158148222Y-97158510D01*
X158148233Y-97158510D01*
X158259886Y-97147513D01*
X158403147Y-97104056D01*
X158535176Y-97033484D01*
X158650901Y-96938511D01*
X158674703Y-96909508D01*
X159002007Y-96582205D01*
X159410473Y-96582205D01*
X159447795Y-96585881D01*
X159485117Y-96582205D01*
X159485128Y-96582205D01*
X159596781Y-96571208D01*
X159740042Y-96527751D01*
X159872071Y-96457179D01*
X159987796Y-96362206D01*
X160011598Y-96333203D01*
X160440802Y-95904000D01*
X160502939Y-95904000D01*
X160702898Y-95864226D01*
X160891256Y-95786205D01*
X161060774Y-95672937D01*
X161204937Y-95528774D01*
X161318205Y-95359256D01*
X161396226Y-95170898D01*
X161436000Y-94970939D01*
X161436000Y-94767061D01*
X161396226Y-94567102D01*
X161318205Y-94378744D01*
X161204937Y-94209226D01*
X161060774Y-94065063D01*
X160891256Y-93951795D01*
X160702898Y-93873774D01*
X160502939Y-93834000D01*
X160299061Y-93834000D01*
X160099102Y-93873774D01*
X159910744Y-93951795D01*
X159741226Y-94065063D01*
X159702500Y-94103789D01*
X159663774Y-94065063D01*
X159494256Y-93951795D01*
X159305898Y-93873774D01*
X159105939Y-93834000D01*
X158902061Y-93834000D01*
X158702102Y-93873774D01*
X158513744Y-93951795D01*
X158344226Y-94065063D01*
X158305500Y-94103789D01*
X158266774Y-94065063D01*
X158097256Y-93951795D01*
X157908898Y-93873774D01*
X157708939Y-93834000D01*
X157505061Y-93834000D01*
X157305102Y-93873774D01*
X157116744Y-93951795D01*
X156947226Y-94065063D01*
X156908500Y-94103789D01*
X156869774Y-94065063D01*
X156700256Y-93951795D01*
X156511898Y-93873774D01*
X156311939Y-93834000D01*
X156108061Y-93834000D01*
X155908102Y-93873774D01*
X155719744Y-93951795D01*
X155550226Y-94065063D01*
X155511500Y-94103789D01*
X155472774Y-94065063D01*
X155303256Y-93951795D01*
X155114898Y-93873774D01*
X154914939Y-93834000D01*
X154711061Y-93834000D01*
X154511102Y-93873774D01*
X154322744Y-93951795D01*
X154153226Y-94065063D01*
X154109289Y-94109000D01*
X153199322Y-94109000D01*
X153161999Y-94105324D01*
X153124676Y-94109000D01*
X153124667Y-94109000D01*
X153013014Y-94119997D01*
X152869753Y-94163454D01*
X152737724Y-94234026D01*
X152621999Y-94328999D01*
X152598196Y-94358003D01*
X152269998Y-94686201D01*
X152241000Y-94709999D01*
X152217202Y-94738997D01*
X152217201Y-94738998D01*
X152146026Y-94825724D01*
X152075454Y-94957754D01*
X152057117Y-95018206D01*
X152031998Y-95101014D01*
X152021000Y-95212667D01*
X152021000Y-95212678D01*
X152017324Y-95250000D01*
X152021000Y-95287322D01*
X152021000Y-95822788D01*
X151999630Y-95844159D01*
X151998226Y-95837102D01*
X151920205Y-95648744D01*
X151806937Y-95479226D01*
X151662774Y-95335063D01*
X151493256Y-95221795D01*
X151304898Y-95143774D01*
X151248044Y-95132465D01*
X149983000Y-93867422D01*
X149983000Y-93261467D01*
X149987281Y-93218001D01*
X149983000Y-93174535D01*
X149983000Y-85133469D01*
X149987281Y-85090000D01*
X149983000Y-85046531D01*
X149983000Y-78656466D01*
X149987281Y-78612999D01*
X149983000Y-78569533D01*
X149983000Y-78569523D01*
X149970195Y-78439510D01*
X149919589Y-78272687D01*
X149837411Y-78118941D01*
X149761052Y-78025898D01*
X149754532Y-78017953D01*
X149754530Y-78017951D01*
X149726817Y-77984183D01*
X149693049Y-77956470D01*
X145563532Y-73826953D01*
X145055532Y-73318954D01*
X145027817Y-73285183D01*
X144994046Y-73257467D01*
X144738036Y-73001458D01*
X144738032Y-73001453D01*
X142515532Y-70778954D01*
X142487817Y-70745183D01*
X142353059Y-70634589D01*
X142199313Y-70552411D01*
X142032490Y-70501805D01*
X141902477Y-70489000D01*
X141902469Y-70489000D01*
X141859000Y-70484719D01*
X141815531Y-70489000D01*
X139042578Y-70489000D01*
X140648951Y-68882628D01*
X140698256Y-68862205D01*
X140867774Y-68748937D01*
X141011937Y-68604774D01*
X141125205Y-68435256D01*
X141203226Y-68246898D01*
X141243000Y-68046939D01*
X141243000Y-67843061D01*
X141203226Y-67643102D01*
X141125205Y-67454744D01*
X141125000Y-67454437D01*
X141125000Y-63070569D01*
X141133382Y-63063690D01*
X141202690Y-62994382D01*
X141282042Y-62897691D01*
X141336498Y-62816192D01*
X141395464Y-62705875D01*
X141432973Y-62615319D01*
X141469282Y-62495623D01*
X141488404Y-62399490D01*
X141500664Y-62275009D01*
X141500664Y-62250450D01*
X141503072Y-62226000D01*
X141503072Y-61726000D01*
X141500664Y-61701550D01*
X141500664Y-61676991D01*
X141488404Y-61552510D01*
X141469282Y-61456377D01*
X141432973Y-61336681D01*
X141395464Y-61246125D01*
X141336498Y-61135808D01*
X141282042Y-61054309D01*
X141202690Y-60957618D01*
X141133382Y-60888310D01*
X141036691Y-60808958D01*
X140955192Y-60754502D01*
X140844875Y-60695536D01*
X140754319Y-60658027D01*
X140634623Y-60621718D01*
X140538490Y-60602596D01*
X140414009Y-60590336D01*
X140389450Y-60590336D01*
X140365000Y-60587928D01*
X139825000Y-60587928D01*
X139825000Y-60235322D01*
X139828676Y-60197999D01*
X139825000Y-60160676D01*
X139825000Y-60160667D01*
X139814003Y-60049014D01*
X139770546Y-59905753D01*
X139699974Y-59773724D01*
X139605001Y-59657999D01*
X139575998Y-59634197D01*
X139520013Y-59578212D01*
X154821000Y-59578212D01*
X154821000Y-59801788D01*
X154864617Y-60021067D01*
X154950176Y-60227624D01*
X155074388Y-60413520D01*
X155232480Y-60571612D01*
X155418376Y-60695824D01*
X155624933Y-60781383D01*
X155844212Y-60825000D01*
X156067788Y-60825000D01*
X156287067Y-60781383D01*
X156493624Y-60695824D01*
X156591000Y-60630759D01*
X156688376Y-60695824D01*
X156894933Y-60781383D01*
X157114212Y-60825000D01*
X157337788Y-60825000D01*
X157557067Y-60781383D01*
X157763624Y-60695824D01*
X157949520Y-60571612D01*
X158107612Y-60413520D01*
X158231824Y-60227624D01*
X158317383Y-60021067D01*
X158361000Y-59801788D01*
X158361000Y-59578212D01*
X158317383Y-59358933D01*
X158231824Y-59152376D01*
X158107612Y-58966480D01*
X157949520Y-58808388D01*
X157763624Y-58684176D01*
X157557067Y-58598617D01*
X157337788Y-58555000D01*
X157114212Y-58555000D01*
X156894933Y-58598617D01*
X156688376Y-58684176D01*
X156591000Y-58749241D01*
X156493624Y-58684176D01*
X156287067Y-58598617D01*
X156067788Y-58555000D01*
X155844212Y-58555000D01*
X155624933Y-58598617D01*
X155418376Y-58684176D01*
X155232480Y-58808388D01*
X155074388Y-58966480D01*
X154950176Y-59152376D01*
X154864617Y-59358933D01*
X154821000Y-59578212D01*
X139520013Y-59578212D01*
X139374804Y-59433003D01*
X139351001Y-59403999D01*
X139235276Y-59309026D01*
X139103247Y-59238454D01*
X138959986Y-59194997D01*
X138848333Y-59184000D01*
X138848322Y-59184000D01*
X138811000Y-59180324D01*
X138773678Y-59184000D01*
X136181323Y-59184000D01*
X136144000Y-59180324D01*
X136106677Y-59184000D01*
X136106667Y-59184000D01*
X135995014Y-59194997D01*
X135851753Y-59238454D01*
X135719724Y-59309026D01*
X135603999Y-59403999D01*
X135580201Y-59432997D01*
X134743998Y-60269201D01*
X134715000Y-60292999D01*
X134691202Y-60321997D01*
X134691201Y-60321998D01*
X134620026Y-60408724D01*
X134549454Y-60540754D01*
X134534414Y-60590336D01*
X134505998Y-60684014D01*
X134495000Y-60795667D01*
X134495000Y-60795678D01*
X134491324Y-60833000D01*
X134495000Y-60870322D01*
X134495000Y-61018289D01*
X134451063Y-61062226D01*
X134337795Y-61231744D01*
X134259774Y-61420102D01*
X134220000Y-61620061D01*
X134220000Y-61823939D01*
X134259774Y-62023898D01*
X134337795Y-62212256D01*
X134451063Y-62381774D01*
X134595226Y-62525937D01*
X134764744Y-62639205D01*
X134953102Y-62717226D01*
X135153061Y-62757000D01*
X135356939Y-62757000D01*
X135556898Y-62717226D01*
X135745256Y-62639205D01*
X135914774Y-62525937D01*
X136058937Y-62381774D01*
X136172205Y-62212256D01*
X136250226Y-62023898D01*
X136290000Y-61823939D01*
X136290000Y-61620061D01*
X136250226Y-61420102D01*
X136172205Y-61231744D01*
X136075615Y-61087186D01*
X136458802Y-60704000D01*
X138200104Y-60704000D01*
X138113815Y-60774815D01*
X138034463Y-60871506D01*
X137975498Y-60981820D01*
X137939188Y-61101518D01*
X137926928Y-61226000D01*
X137926928Y-62726000D01*
X137939188Y-62850482D01*
X137975498Y-62970180D01*
X138034463Y-63080494D01*
X138113815Y-63177185D01*
X138210506Y-63256537D01*
X138320820Y-63315502D01*
X138440518Y-63351812D01*
X138565000Y-63364072D01*
X139565000Y-63364072D01*
X139605000Y-63360132D01*
X139605001Y-67103127D01*
X139548226Y-67141063D01*
X139404063Y-67285226D01*
X139290795Y-67454744D01*
X139212774Y-67643102D01*
X139201465Y-67699956D01*
X136412422Y-70489000D01*
X134282469Y-70489000D01*
X134239000Y-70484719D01*
X134195531Y-70489000D01*
X122314676Y-70489000D01*
X122329205Y-70467256D01*
X122407226Y-70278898D01*
X122447000Y-70078939D01*
X122447000Y-69875061D01*
X122407226Y-69675102D01*
X122329205Y-69486744D01*
X122297000Y-69438546D01*
X122297000Y-69131476D01*
X122301282Y-69088000D01*
X122297000Y-69044523D01*
X122297000Y-68991454D01*
X122329205Y-68943256D01*
X122407226Y-68754898D01*
X122447000Y-68554939D01*
X122447000Y-68415578D01*
X125461579Y-65401000D01*
X127985546Y-65401000D01*
X128033744Y-65433205D01*
X128222102Y-65511226D01*
X128422061Y-65551000D01*
X128625939Y-65551000D01*
X128825898Y-65511226D01*
X129014256Y-65433205D01*
X129183774Y-65319937D01*
X129327937Y-65175774D01*
X129413000Y-65048468D01*
X129413000Y-66040000D01*
X129415440Y-66064776D01*
X129422667Y-66088601D01*
X129434403Y-66110557D01*
X129450197Y-66129803D01*
X129469443Y-66145597D01*
X129491399Y-66157333D01*
X129515224Y-66164560D01*
X129540000Y-66167000D01*
X132842000Y-66167000D01*
X132842000Y-69977000D01*
X132844440Y-70001776D01*
X132851667Y-70025601D01*
X132863403Y-70047557D01*
X132879197Y-70066803D01*
X132898443Y-70082597D01*
X132920399Y-70094333D01*
X132944224Y-70101560D01*
X132969000Y-70104000D01*
X133604000Y-70104000D01*
X133628776Y-70101560D01*
X133652601Y-70094333D01*
X133674557Y-70082597D01*
X133693803Y-70066803D01*
X133709597Y-70047557D01*
X133721333Y-70025601D01*
X133728560Y-70001776D01*
X133731000Y-69977000D01*
X133731000Y-61849000D01*
X133728560Y-61824224D01*
X133721333Y-61800399D01*
X133709597Y-61778443D01*
X133693803Y-61759197D01*
X133674557Y-61743403D01*
X133652601Y-61731667D01*
X133628776Y-61724440D01*
X133604000Y-61722000D01*
X129540000Y-61722000D01*
X129515224Y-61724440D01*
X129491399Y-61731667D01*
X129469443Y-61743403D01*
X129450197Y-61759197D01*
X129434403Y-61778443D01*
X129422667Y-61800399D01*
X129415440Y-61824224D01*
X129413000Y-61849000D01*
X129413000Y-63983532D01*
X129327937Y-63856226D01*
X129183774Y-63712063D01*
X129014256Y-63598795D01*
X128825898Y-63520774D01*
X128625939Y-63481000D01*
X128422061Y-63481000D01*
X128222102Y-63520774D01*
X128033744Y-63598795D01*
X127985546Y-63631000D01*
X125138469Y-63631000D01*
X125095000Y-63626719D01*
X125051531Y-63631000D01*
X125051523Y-63631000D01*
X124921510Y-63643805D01*
X124754686Y-63694411D01*
X124600941Y-63776589D01*
X124499953Y-63859468D01*
X124499951Y-63859470D01*
X124466183Y-63887183D01*
X124438470Y-63920951D01*
X120562955Y-67796467D01*
X120529183Y-67824183D01*
X120501467Y-67857955D01*
X120277204Y-68082218D01*
X120243433Y-68109933D01*
X120215718Y-68143704D01*
X120150957Y-68208465D01*
X120094102Y-68219774D01*
X119905744Y-68297795D01*
X119736226Y-68411063D01*
X119592063Y-68555226D01*
X119478795Y-68724744D01*
X119400774Y-68913102D01*
X119361000Y-69113061D01*
X119361000Y-69316939D01*
X119400774Y-69516898D01*
X119478795Y-69705256D01*
X119592063Y-69874774D01*
X119736226Y-70018937D01*
X119905744Y-70132205D01*
X120094102Y-70210226D01*
X120150957Y-70221535D01*
X120310967Y-70381545D01*
X120338683Y-70415317D01*
X120372454Y-70443032D01*
X120501466Y-70572044D01*
X120527000Y-70603157D01*
X120527000Y-70880422D01*
X120404209Y-71003213D01*
X120404203Y-71003218D01*
X116790922Y-74616500D01*
X115803965Y-74616500D01*
X115760499Y-74612219D01*
X115717033Y-74616500D01*
X115717023Y-74616500D01*
X115587010Y-74629305D01*
X115420187Y-74679911D01*
X115266441Y-74762089D01*
X115266439Y-74762090D01*
X115266440Y-74762090D01*
X115165453Y-74844968D01*
X115165451Y-74844970D01*
X115131683Y-74872683D01*
X115103970Y-74906451D01*
X113196958Y-76813464D01*
X113196953Y-76813468D01*
X113196951Y-76813470D01*
X113165843Y-76839000D01*
X112298454Y-76839000D01*
X112250256Y-76806795D01*
X112061898Y-76728774D01*
X111861939Y-76689000D01*
X111658061Y-76689000D01*
X111458102Y-76728774D01*
X111269744Y-76806795D01*
X111100226Y-76920063D01*
X110956063Y-77064226D01*
X110842795Y-77233744D01*
X110764774Y-77422102D01*
X110725000Y-77622061D01*
X110725000Y-77825939D01*
X110764774Y-78025898D01*
X110842795Y-78214256D01*
X110956063Y-78383774D01*
X111100226Y-78527937D01*
X111269744Y-78641205D01*
X111458102Y-78719226D01*
X111487000Y-78724974D01*
X111487000Y-78841939D01*
X111526774Y-79041898D01*
X111604795Y-79230256D01*
X111718063Y-79399774D01*
X111862226Y-79543937D01*
X112031744Y-79657205D01*
X112220102Y-79735226D01*
X112249000Y-79740974D01*
X112249000Y-79857939D01*
X112288774Y-80057898D01*
X112366795Y-80246256D01*
X112480063Y-80415774D01*
X112624226Y-80559937D01*
X112793744Y-80673205D01*
X112982102Y-80751226D01*
X113182061Y-80791000D01*
X113385939Y-80791000D01*
X113585898Y-80751226D01*
X113774256Y-80673205D01*
X113943774Y-80559937D01*
X114087937Y-80415774D01*
X114201205Y-80246256D01*
X114279226Y-80057898D01*
X114319000Y-79857939D01*
X114319000Y-79654061D01*
X114292943Y-79523064D01*
X114451774Y-79416937D01*
X114595937Y-79272774D01*
X114709205Y-79103256D01*
X114787226Y-78914898D01*
X114827000Y-78714939D01*
X114827000Y-78511061D01*
X114787226Y-78311102D01*
X114709205Y-78122744D01*
X114677000Y-78074546D01*
X114677000Y-77836578D01*
X116127079Y-76386500D01*
X117114031Y-76386500D01*
X117157500Y-76390781D01*
X117200969Y-76386500D01*
X117200977Y-76386500D01*
X117330990Y-76373695D01*
X117497813Y-76323089D01*
X117651559Y-76240911D01*
X117786317Y-76130317D01*
X117814034Y-76096544D01*
X120527001Y-73383578D01*
X120527000Y-75013523D01*
X120527000Y-75013524D01*
X120527001Y-77283500D01*
X120527001Y-77299522D01*
X120522719Y-77343000D01*
X120527001Y-77386477D01*
X120527000Y-79458523D01*
X120527000Y-80157031D01*
X120522719Y-80200500D01*
X120527000Y-80243969D01*
X120527000Y-80243977D01*
X120531750Y-80292205D01*
X120539805Y-80373990D01*
X120590412Y-80540813D01*
X120672590Y-80694559D01*
X120755468Y-80795546D01*
X120755471Y-80795549D01*
X120783184Y-80829317D01*
X120816951Y-80857029D01*
X122721953Y-82762032D01*
X122721959Y-82762037D01*
X122850966Y-82891044D01*
X122878683Y-82924817D01*
X123013441Y-83035411D01*
X123167187Y-83117589D01*
X123334010Y-83168195D01*
X123464023Y-83181000D01*
X123464031Y-83181000D01*
X123507500Y-83185281D01*
X123550969Y-83181000D01*
X123908531Y-83181000D01*
X123952000Y-83185281D01*
X123995469Y-83181000D01*
X130385524Y-83181000D01*
X130429000Y-83185282D01*
X130472477Y-83181000D01*
X133401882Y-83181000D01*
X133448795Y-83294256D01*
X133562063Y-83463774D01*
X133706226Y-83607937D01*
X133875744Y-83721205D01*
X134064102Y-83799226D01*
X134264061Y-83839000D01*
X134467939Y-83839000D01*
X134667898Y-83799226D01*
X134856256Y-83721205D01*
X135025774Y-83607937D01*
X135169937Y-83463774D01*
X135283205Y-83294256D01*
X135361226Y-83105898D01*
X135401000Y-82905939D01*
X135401000Y-82702061D01*
X135361226Y-82502102D01*
X135283205Y-82313744D01*
X135169937Y-82144226D01*
X135025774Y-82000063D01*
X134856256Y-81886795D01*
X134667898Y-81808774D01*
X134611043Y-81797465D01*
X134514532Y-81700954D01*
X134486817Y-81667183D01*
X134352059Y-81556589D01*
X134198313Y-81474411D01*
X134031490Y-81423805D01*
X133901477Y-81411000D01*
X133901469Y-81411000D01*
X133858000Y-81406719D01*
X133814531Y-81411000D01*
X132347219Y-81411000D01*
X132353000Y-81381939D01*
X132353000Y-81178061D01*
X132313226Y-80978102D01*
X132235205Y-80789744D01*
X132121937Y-80620226D01*
X131977774Y-80476063D01*
X131808256Y-80362795D01*
X131619898Y-80284774D01*
X131419939Y-80245000D01*
X131216061Y-80245000D01*
X131016102Y-80284774D01*
X130827744Y-80362795D01*
X130658226Y-80476063D01*
X130514063Y-80620226D01*
X130400795Y-80789744D01*
X130322774Y-80978102D01*
X130311465Y-81034956D01*
X129935422Y-81411000D01*
X125997219Y-81411000D01*
X126003000Y-81381939D01*
X126003000Y-81178061D01*
X125963226Y-80978102D01*
X125885205Y-80789744D01*
X125771937Y-80620226D01*
X125627774Y-80476063D01*
X125458256Y-80362795D01*
X125269898Y-80284774D01*
X125069939Y-80245000D01*
X124866061Y-80245000D01*
X124666102Y-80284774D01*
X124477744Y-80362795D01*
X124308226Y-80476063D01*
X124164063Y-80620226D01*
X124050795Y-80789744D01*
X123972774Y-80978102D01*
X123961465Y-81034956D01*
X123729750Y-81266671D01*
X123569589Y-81106510D01*
X122297000Y-79833922D01*
X122297000Y-77709578D01*
X123048579Y-76958000D01*
X126207546Y-76958000D01*
X126255744Y-76990205D01*
X126444102Y-77068226D01*
X126644061Y-77108000D01*
X126847939Y-77108000D01*
X127047898Y-77068226D01*
X127236256Y-76990205D01*
X127405774Y-76876937D01*
X127549937Y-76732774D01*
X127663205Y-76563256D01*
X127741226Y-76374898D01*
X127781000Y-76174939D01*
X127781000Y-75971061D01*
X127741226Y-75771102D01*
X127663205Y-75582744D01*
X127549937Y-75413226D01*
X127405774Y-75269063D01*
X127236256Y-75155795D01*
X127047898Y-75077774D01*
X126847939Y-75038000D01*
X126644061Y-75038000D01*
X126444102Y-75077774D01*
X126255744Y-75155795D01*
X126207546Y-75188000D01*
X122725465Y-75188000D01*
X122681999Y-75183719D01*
X122638533Y-75188000D01*
X122638523Y-75188000D01*
X122508510Y-75200805D01*
X122341687Y-75251411D01*
X122297000Y-75275296D01*
X122297000Y-72259000D01*
X133872422Y-72259000D01*
X135137465Y-73524044D01*
X135148774Y-73580898D01*
X135180020Y-73656332D01*
X135102939Y-73641000D01*
X134899061Y-73641000D01*
X134699102Y-73680774D01*
X134510744Y-73758795D01*
X134341226Y-73872063D01*
X134197063Y-74016226D01*
X134083795Y-74185744D01*
X134005774Y-74374102D01*
X133966000Y-74574061D01*
X133966000Y-74777939D01*
X134005774Y-74977898D01*
X134083795Y-75166256D01*
X134197063Y-75335774D01*
X134341226Y-75479937D01*
X134510744Y-75593205D01*
X134699102Y-75671226D01*
X134899061Y-75711000D01*
X135102939Y-75711000D01*
X135302898Y-75671226D01*
X135491256Y-75593205D01*
X135660774Y-75479937D01*
X135704711Y-75436000D01*
X137630678Y-75436000D01*
X137668000Y-75439676D01*
X137705322Y-75436000D01*
X137705333Y-75436000D01*
X137816986Y-75425003D01*
X137960247Y-75381546D01*
X138092276Y-75310974D01*
X138208001Y-75216001D01*
X138231803Y-75186998D01*
X138744802Y-74674000D01*
X139770198Y-74674000D01*
X137861199Y-76583000D01*
X136847711Y-76583000D01*
X136803774Y-76539063D01*
X136634256Y-76425795D01*
X136445898Y-76347774D01*
X136245939Y-76308000D01*
X136042061Y-76308000D01*
X135842102Y-76347774D01*
X135653744Y-76425795D01*
X135484226Y-76539063D01*
X135340063Y-76683226D01*
X135226795Y-76852744D01*
X135148774Y-77041102D01*
X135109000Y-77241061D01*
X135109000Y-77444939D01*
X135148774Y-77644898D01*
X135226795Y-77833256D01*
X135340063Y-78002774D01*
X135484226Y-78146937D01*
X135653744Y-78260205D01*
X135842102Y-78338226D01*
X136042061Y-78378000D01*
X136245939Y-78378000D01*
X136445898Y-78338226D01*
X136634256Y-78260205D01*
X136803774Y-78146937D01*
X136847711Y-78103000D01*
X138138678Y-78103000D01*
X138176000Y-78106676D01*
X138213322Y-78103000D01*
X138213333Y-78103000D01*
X138324986Y-78092003D01*
X138468247Y-78048546D01*
X138600276Y-77977974D01*
X138716001Y-77883001D01*
X138739804Y-77853997D01*
X140776802Y-75817000D01*
X141108644Y-75817000D01*
X141078000Y-75971061D01*
X141078000Y-76033198D01*
X140262993Y-76848206D01*
X140233989Y-76872009D01*
X140186398Y-76929999D01*
X140139016Y-76987734D01*
X140105331Y-77050754D01*
X140068444Y-77119764D01*
X140024987Y-77263025D01*
X140013990Y-77374678D01*
X140013990Y-77374688D01*
X140010314Y-77412010D01*
X140013990Y-77449332D01*
X140013991Y-85476387D01*
X138621789Y-86868590D01*
X128432923Y-86868590D01*
X128395590Y-86864913D01*
X128358257Y-86868590D01*
X128246604Y-86879587D01*
X128103343Y-86923044D01*
X127971314Y-86993616D01*
X127855589Y-87088589D01*
X127831791Y-87117587D01*
X120643962Y-94305417D01*
X120614958Y-94329220D01*
X120575086Y-94377805D01*
X120519985Y-94444945D01*
X120466796Y-94544454D01*
X120449413Y-94576975D01*
X120405956Y-94720236D01*
X120394959Y-94831889D01*
X120394959Y-94831899D01*
X120391283Y-94869221D01*
X120394959Y-94906544D01*
X120394960Y-96586418D01*
X118107003Y-98874376D01*
X118077999Y-98898179D01*
X118032537Y-98953575D01*
X117983026Y-99013904D01*
X117936480Y-99100985D01*
X117912454Y-99145934D01*
X117868997Y-99289195D01*
X117858000Y-99400848D01*
X117858000Y-99400858D01*
X117854324Y-99438180D01*
X117858000Y-99475502D01*
X117858000Y-99499289D01*
X117814063Y-99543226D01*
X117700795Y-99712744D01*
X117622774Y-99901102D01*
X117583000Y-100101061D01*
X117583000Y-100304939D01*
X117622774Y-100504898D01*
X117700795Y-100693256D01*
X117814063Y-100862774D01*
X117958226Y-101006937D01*
X118127744Y-101120205D01*
X118316102Y-101198226D01*
X118516061Y-101238000D01*
X118719939Y-101238000D01*
X118919898Y-101198226D01*
X119093575Y-101126286D01*
X119228226Y-101260937D01*
X119397744Y-101374205D01*
X119586102Y-101452226D01*
X119786061Y-101492000D01*
X119989939Y-101492000D01*
X120189898Y-101452226D01*
X120378256Y-101374205D01*
X120547774Y-101260937D01*
X120691937Y-101116774D01*
X120805205Y-100947256D01*
X120883226Y-100758898D01*
X120915690Y-100595690D01*
X121078898Y-100563226D01*
X121267256Y-100485205D01*
X121436774Y-100371937D01*
X121580937Y-100227774D01*
X121694205Y-100058256D01*
X121772226Y-99869898D01*
X121779500Y-99833330D01*
X121818061Y-99841000D01*
X122021939Y-99841000D01*
X122176001Y-99810356D01*
X122176000Y-100396198D01*
X122007198Y-100565000D01*
X121945061Y-100565000D01*
X121745102Y-100604774D01*
X121556744Y-100682795D01*
X121387226Y-100796063D01*
X121243063Y-100940226D01*
X121129795Y-101109744D01*
X121051774Y-101298102D01*
X121012000Y-101498061D01*
X121012000Y-101701939D01*
X121051774Y-101901898D01*
X121129795Y-102090256D01*
X121243063Y-102259774D01*
X121387226Y-102403937D01*
X121556744Y-102517205D01*
X121745102Y-102595226D01*
X121869650Y-102620000D01*
X117460579Y-102620000D01*
X116074000Y-101233422D01*
X116074000Y-95293469D01*
X116078281Y-95250000D01*
X116074000Y-95206531D01*
X116074000Y-95206523D01*
X116061195Y-95076510D01*
X116010589Y-94909687D01*
X115928411Y-94755941D01*
X115901274Y-94722875D01*
X115845532Y-94654953D01*
X115845530Y-94654951D01*
X115817817Y-94621183D01*
X115784050Y-94593471D01*
X115306535Y-94115957D01*
X115295226Y-94059102D01*
X115217205Y-93870744D01*
X115103937Y-93701226D01*
X114959774Y-93557063D01*
X114790256Y-93443795D01*
X114601898Y-93365774D01*
X114545044Y-93354465D01*
X114417535Y-93226957D01*
X114406226Y-93170102D01*
X114328205Y-92981744D01*
X114214937Y-92812226D01*
X114070774Y-92668063D01*
X113901256Y-92554795D01*
X113851500Y-92534185D01*
X113851500Y-86339965D01*
X113855781Y-86296499D01*
X113851500Y-86253033D01*
X113851500Y-86253023D01*
X113838695Y-86123010D01*
X113788089Y-85956187D01*
X113705911Y-85802441D01*
X113642588Y-85725282D01*
X113623032Y-85701453D01*
X113623030Y-85701451D01*
X113595317Y-85667683D01*
X113561549Y-85639970D01*
X112924532Y-85002954D01*
X112899000Y-84971843D01*
X112899000Y-84815967D01*
X112903281Y-84772501D01*
X112899000Y-84729035D01*
X112899000Y-84548954D01*
X112931205Y-84500756D01*
X113009226Y-84312398D01*
X113049000Y-84112439D01*
X113049000Y-83908561D01*
X113009226Y-83708602D01*
X112931205Y-83520244D01*
X112817937Y-83350726D01*
X112673774Y-83206563D01*
X112504256Y-83093295D01*
X112315898Y-83015274D01*
X112115939Y-82975500D01*
X111912061Y-82975500D01*
X111712102Y-83015274D01*
X111523744Y-83093295D01*
X111354226Y-83206563D01*
X111210063Y-83350726D01*
X111096795Y-83520244D01*
X111018774Y-83708602D01*
X110999461Y-83805694D01*
X110823102Y-83840774D01*
X110634744Y-83918795D01*
X110465226Y-84032063D01*
X110458250Y-84039039D01*
X110451274Y-84032063D01*
X110281756Y-83918795D01*
X110093398Y-83840774D01*
X109893439Y-83801000D01*
X109689561Y-83801000D01*
X109489602Y-83840774D01*
X109301244Y-83918795D01*
X109156500Y-84015510D01*
X109011756Y-83918795D01*
X108823398Y-83840774D01*
X108623439Y-83801000D01*
X108419561Y-83801000D01*
X108219602Y-83840774D01*
X108031244Y-83918795D01*
X107861726Y-84032063D01*
X107717563Y-84176226D01*
X107604295Y-84345744D01*
X107526274Y-84534102D01*
X107486500Y-84734061D01*
X107486500Y-84937939D01*
X107526274Y-85137898D01*
X107604295Y-85326256D01*
X107717563Y-85495774D01*
X107861726Y-85639937D01*
X108031244Y-85753205D01*
X108219602Y-85831226D01*
X108276457Y-85842535D01*
X108277716Y-85843794D01*
X108305433Y-85877567D01*
X108339204Y-85905282D01*
X108626966Y-86193044D01*
X108654683Y-86226817D01*
X108789441Y-86337411D01*
X108943187Y-86419589D01*
X109110010Y-86470195D01*
X109240023Y-86483000D01*
X109240033Y-86483000D01*
X109283499Y-86487281D01*
X109326966Y-86483000D01*
X110510031Y-86483000D01*
X110553500Y-86487281D01*
X110596969Y-86483000D01*
X111843533Y-86483000D01*
X111886999Y-86487281D01*
X111904026Y-86485604D01*
X112081501Y-86663080D01*
X112081500Y-91079023D01*
X112081500Y-92603024D01*
X112081501Y-93423185D01*
X112031744Y-93443795D01*
X111862226Y-93557063D01*
X111718063Y-93701226D01*
X111604795Y-93870744D01*
X111526774Y-94059102D01*
X111487000Y-94259061D01*
X111487000Y-94462939D01*
X111526774Y-94662898D01*
X111604795Y-94851256D01*
X111718063Y-95020774D01*
X111862226Y-95164937D01*
X112031744Y-95278205D01*
X112220102Y-95356226D01*
X112420061Y-95396000D01*
X112623939Y-95396000D01*
X112823898Y-95356226D01*
X113012256Y-95278205D01*
X113059115Y-95246895D01*
X113093500Y-95250281D01*
X113136969Y-95246000D01*
X113685031Y-95246000D01*
X113728500Y-95250281D01*
X113762885Y-95246895D01*
X113809744Y-95278205D01*
X113998102Y-95356226D01*
X114054957Y-95367535D01*
X114304001Y-95616580D01*
X114304001Y-95651015D01*
X114304000Y-95651024D01*
X114304000Y-98150976D01*
X114304001Y-98150986D01*
X114304000Y-101556531D01*
X114299719Y-101600000D01*
X114304000Y-101643469D01*
X114304000Y-101643476D01*
X114309758Y-101701939D01*
X114316234Y-101767687D01*
X114316805Y-101773489D01*
X114367411Y-101940312D01*
X114449589Y-102094058D01*
X114560183Y-102228817D01*
X114593956Y-102256534D01*
X116437470Y-104100049D01*
X116449740Y-104115000D01*
X104855581Y-104115000D01*
X104081975Y-103341394D01*
X104081975Y-88785000D01*
X105937928Y-88785000D01*
X105937928Y-90285000D01*
X105950188Y-90409482D01*
X105986498Y-90529180D01*
X106045463Y-90639494D01*
X106124815Y-90736185D01*
X106221506Y-90815537D01*
X106331820Y-90874502D01*
X106451518Y-90910812D01*
X106576000Y-90923072D01*
X107076000Y-90923072D01*
X107100450Y-90920664D01*
X107125009Y-90920664D01*
X107249490Y-90908404D01*
X107345623Y-90889282D01*
X107465319Y-90852973D01*
X107555875Y-90815464D01*
X107666192Y-90756498D01*
X107747691Y-90702042D01*
X107844382Y-90622690D01*
X107913690Y-90553382D01*
X107993042Y-90456691D01*
X108047498Y-90375192D01*
X108106464Y-90264875D01*
X108143973Y-90174319D01*
X108180282Y-90054623D01*
X108199404Y-89958490D01*
X108211664Y-89834009D01*
X108211664Y-89809450D01*
X108214072Y-89785000D01*
X108214072Y-89285000D01*
X108211664Y-89260550D01*
X108211664Y-89235991D01*
X108199404Y-89111510D01*
X108180282Y-89015377D01*
X108143973Y-88895681D01*
X108106464Y-88805125D01*
X108061255Y-88720546D01*
X108264802Y-88517000D01*
X109913289Y-88517000D01*
X109957226Y-88560937D01*
X110126744Y-88674205D01*
X110315102Y-88752226D01*
X110515061Y-88792000D01*
X110718939Y-88792000D01*
X110918898Y-88752226D01*
X111107256Y-88674205D01*
X111276774Y-88560937D01*
X111420937Y-88416774D01*
X111534205Y-88247256D01*
X111612226Y-88058898D01*
X111652000Y-87858939D01*
X111652000Y-87655061D01*
X111612226Y-87455102D01*
X111534205Y-87266744D01*
X111420937Y-87097226D01*
X111276774Y-86953063D01*
X111107256Y-86839795D01*
X110918898Y-86761774D01*
X110718939Y-86722000D01*
X110515061Y-86722000D01*
X110315102Y-86761774D01*
X110126744Y-86839795D01*
X109957226Y-86953063D01*
X109913289Y-86997000D01*
X107987325Y-86997000D01*
X107950000Y-86993324D01*
X107912675Y-86997000D01*
X107912667Y-86997000D01*
X107801014Y-87007997D01*
X107657753Y-87051454D01*
X107525724Y-87122026D01*
X107409999Y-87216999D01*
X107386201Y-87245997D01*
X106564998Y-88067201D01*
X106536000Y-88090999D01*
X106512202Y-88119997D01*
X106512201Y-88119998D01*
X106482546Y-88156132D01*
X106451518Y-88159188D01*
X106331820Y-88195498D01*
X106221506Y-88254463D01*
X106124815Y-88333815D01*
X106045463Y-88430506D01*
X105986498Y-88540820D01*
X105950188Y-88660518D01*
X105937928Y-88785000D01*
X104081975Y-88785000D01*
X104081975Y-82194061D01*
X116059000Y-82194061D01*
X116059000Y-82397939D01*
X116098774Y-82597898D01*
X116176795Y-82786256D01*
X116290063Y-82955774D01*
X116434226Y-83099937D01*
X116603744Y-83213205D01*
X116792102Y-83291226D01*
X116992061Y-83331000D01*
X117195939Y-83331000D01*
X117395898Y-83291226D01*
X117584256Y-83213205D01*
X117753774Y-83099937D01*
X117797711Y-83056000D01*
X117818678Y-83056000D01*
X117856000Y-83059676D01*
X117893322Y-83056000D01*
X117893333Y-83056000D01*
X118004986Y-83045003D01*
X118148247Y-83001546D01*
X118280276Y-82930974D01*
X118396001Y-82836001D01*
X118419804Y-82806998D01*
X119038802Y-82188000D01*
X119100939Y-82188000D01*
X119300898Y-82148226D01*
X119489256Y-82070205D01*
X119658774Y-81956937D01*
X119802937Y-81812774D01*
X119916205Y-81643256D01*
X119994226Y-81454898D01*
X120034000Y-81254939D01*
X120034000Y-81051061D01*
X119994226Y-80851102D01*
X119916205Y-80662744D01*
X119802937Y-80493226D01*
X119658774Y-80349063D01*
X119489256Y-80235795D01*
X119300898Y-80157774D01*
X119100939Y-80118000D01*
X118897061Y-80118000D01*
X118697102Y-80157774D01*
X118508744Y-80235795D01*
X118339226Y-80349063D01*
X118195063Y-80493226D01*
X118081795Y-80662744D01*
X118003774Y-80851102D01*
X117964000Y-81051061D01*
X117964000Y-81113198D01*
X117652683Y-81424516D01*
X117584256Y-81378795D01*
X117395898Y-81300774D01*
X117195939Y-81261000D01*
X116992061Y-81261000D01*
X116792102Y-81300774D01*
X116603744Y-81378795D01*
X116434226Y-81492063D01*
X116290063Y-81636226D01*
X116176795Y-81805744D01*
X116098774Y-81994102D01*
X116059000Y-82194061D01*
X104081975Y-82194061D01*
X104081975Y-70312000D01*
X105541000Y-70312000D01*
X105541000Y-70912000D01*
X105546834Y-70971505D01*
X105552248Y-71030987D01*
X105552875Y-71033118D01*
X105553093Y-71035339D01*
X105570388Y-71092621D01*
X105587238Y-71149875D01*
X105588269Y-71151847D01*
X105588913Y-71153980D01*
X105616988Y-71206781D01*
X105644655Y-71259703D01*
X105646049Y-71261437D01*
X105647095Y-71263404D01*
X105684883Y-71309737D01*
X105722310Y-71356286D01*
X105724015Y-71357717D01*
X105725423Y-71359443D01*
X105771473Y-71397539D01*
X105817246Y-71435947D01*
X105819198Y-71437020D01*
X105820913Y-71438439D01*
X105873461Y-71466851D01*
X105925847Y-71495651D01*
X105927971Y-71496325D01*
X105929928Y-71497383D01*
X105955937Y-71505434D01*
X105986498Y-71606180D01*
X106045463Y-71716494D01*
X106124815Y-71813185D01*
X106221506Y-71892537D01*
X106331820Y-71951502D01*
X106451518Y-71987812D01*
X106576000Y-72000072D01*
X107076000Y-72000072D01*
X107100450Y-71997664D01*
X107125009Y-71997664D01*
X107249490Y-71985404D01*
X107345623Y-71966282D01*
X107465319Y-71929973D01*
X107555875Y-71892464D01*
X107574134Y-71882704D01*
X107583999Y-71883676D01*
X107621322Y-71880000D01*
X110294289Y-71880000D01*
X110338226Y-71923937D01*
X110507744Y-72037205D01*
X110696102Y-72115226D01*
X110896061Y-72155000D01*
X111099939Y-72155000D01*
X111299898Y-72115226D01*
X111488256Y-72037205D01*
X111657774Y-71923937D01*
X111801937Y-71779774D01*
X111886603Y-71653061D01*
X113519000Y-71653061D01*
X113519000Y-71856939D01*
X113558774Y-72056898D01*
X113636795Y-72245256D01*
X113750063Y-72414774D01*
X113894226Y-72558937D01*
X114063744Y-72672205D01*
X114252102Y-72750226D01*
X114452061Y-72790000D01*
X114655939Y-72790000D01*
X114855898Y-72750226D01*
X115044256Y-72672205D01*
X115213774Y-72558937D01*
X115257711Y-72515000D01*
X115763199Y-72515000D01*
X115932000Y-72683801D01*
X115932000Y-72745939D01*
X115971774Y-72945898D01*
X116049795Y-73134256D01*
X116163063Y-73303774D01*
X116307226Y-73447937D01*
X116476744Y-73561205D01*
X116665102Y-73639226D01*
X116865061Y-73679000D01*
X117068939Y-73679000D01*
X117268898Y-73639226D01*
X117457256Y-73561205D01*
X117626774Y-73447937D01*
X117770937Y-73303774D01*
X117884205Y-73134256D01*
X117962226Y-72945898D01*
X118002000Y-72745939D01*
X118002000Y-72542061D01*
X117962226Y-72342102D01*
X117884205Y-72153744D01*
X117770937Y-71984226D01*
X117626774Y-71840063D01*
X117457256Y-71726795D01*
X117268898Y-71648774D01*
X117068939Y-71609000D01*
X117006801Y-71609000D01*
X116641803Y-71244002D01*
X116618001Y-71214999D01*
X116502276Y-71120026D01*
X116370247Y-71049454D01*
X116226986Y-71005997D01*
X116115333Y-70995000D01*
X116115322Y-70995000D01*
X116078000Y-70991324D01*
X116040678Y-70995000D01*
X115257711Y-70995000D01*
X115213774Y-70951063D01*
X115044256Y-70837795D01*
X114855898Y-70759774D01*
X114655939Y-70720000D01*
X114452061Y-70720000D01*
X114252102Y-70759774D01*
X114063744Y-70837795D01*
X113894226Y-70951063D01*
X113750063Y-71095226D01*
X113636795Y-71264744D01*
X113558774Y-71453102D01*
X113519000Y-71653061D01*
X111886603Y-71653061D01*
X111915205Y-71610256D01*
X111993226Y-71421898D01*
X112033000Y-71221939D01*
X112033000Y-71018061D01*
X111993226Y-70818102D01*
X111915205Y-70629744D01*
X111801937Y-70460226D01*
X111657774Y-70316063D01*
X111488256Y-70202795D01*
X111299898Y-70124774D01*
X111099939Y-70085000D01*
X110896061Y-70085000D01*
X110696102Y-70124774D01*
X110507744Y-70202795D01*
X110338226Y-70316063D01*
X110294289Y-70360000D01*
X108213875Y-70360000D01*
X108211664Y-70337550D01*
X108211664Y-70312991D01*
X108199404Y-70188510D01*
X108180282Y-70092377D01*
X108143973Y-69972681D01*
X108106464Y-69882125D01*
X108047498Y-69771808D01*
X107993042Y-69690309D01*
X107913690Y-69593618D01*
X107844382Y-69524310D01*
X107747691Y-69444958D01*
X107666192Y-69390502D01*
X107555875Y-69331536D01*
X107465319Y-69294027D01*
X107345623Y-69257718D01*
X107249490Y-69238596D01*
X107125009Y-69226336D01*
X107100450Y-69226336D01*
X107076000Y-69223928D01*
X106576000Y-69223928D01*
X106451518Y-69236188D01*
X106331820Y-69272498D01*
X106221506Y-69331463D01*
X106124815Y-69410815D01*
X106045463Y-69507506D01*
X105986498Y-69617820D01*
X105956127Y-69717940D01*
X105938125Y-69723238D01*
X105936153Y-69724269D01*
X105934020Y-69724913D01*
X105881219Y-69752988D01*
X105828297Y-69780655D01*
X105826563Y-69782049D01*
X105824596Y-69783095D01*
X105778263Y-69820883D01*
X105731714Y-69858310D01*
X105730283Y-69860015D01*
X105728557Y-69861423D01*
X105690461Y-69907473D01*
X105652053Y-69953246D01*
X105650980Y-69955198D01*
X105649561Y-69956913D01*
X105621149Y-70009461D01*
X105592349Y-70061847D01*
X105591675Y-70063971D01*
X105590617Y-70065928D01*
X105572966Y-70122950D01*
X105554876Y-70179976D01*
X105554627Y-70182192D01*
X105553970Y-70184316D01*
X105547724Y-70243743D01*
X105541062Y-70303134D01*
X105541032Y-70307404D01*
X105541015Y-70307567D01*
X105541030Y-70307730D01*
X105541000Y-70312000D01*
X104081975Y-70312000D01*
X104081975Y-58964606D01*
X105007581Y-58039000D01*
X166460394Y-58039000D01*
X167361001Y-58939607D01*
G37*
G04 #@! TD.AperFunction*
D20*
X149996465Y-96384044D02*
X150007774Y-96440898D01*
X150085795Y-96629256D01*
X150199063Y-96798774D01*
X150343226Y-96942937D01*
X150512744Y-97056205D01*
X150701102Y-97134226D01*
X150708159Y-97135630D01*
X150443809Y-97399980D01*
X146167598Y-97399980D01*
X147468532Y-96099047D01*
X147468536Y-96099042D01*
X148590000Y-94977578D01*
X149996465Y-96384044D01*
G04 #@! TA.AperFunction,Conductor*
D21*
G36*
X149996465Y-96384044D02*
G01*
X150007774Y-96440898D01*
X150085795Y-96629256D01*
X150199063Y-96798774D01*
X150343226Y-96942937D01*
X150512744Y-97056205D01*
X150701102Y-97134226D01*
X150708159Y-97135630D01*
X150443809Y-97399980D01*
X146167598Y-97399980D01*
X147468532Y-96099047D01*
X147468536Y-96099042D01*
X148590000Y-94977578D01*
X149996465Y-96384044D01*
G37*
G04 #@! TD.AperFunction*
D20*
X136862523Y-72259000D02*
X136862531Y-72259000D01*
X136906000Y-72263281D01*
X136949469Y-72259000D01*
X141492422Y-72259000D01*
X143463451Y-74230030D01*
X143403774Y-74374102D01*
X143364000Y-74574061D01*
X143364000Y-74725199D01*
X143184804Y-74546003D01*
X143161001Y-74516999D01*
X143045276Y-74422026D01*
X142913247Y-74351454D01*
X142769986Y-74307997D01*
X142658333Y-74297000D01*
X142658322Y-74297000D01*
X142621000Y-74293324D01*
X142583678Y-74297000D01*
X142058632Y-74297000D01*
X142092226Y-74215898D01*
X142132000Y-74015939D01*
X142132000Y-73812061D01*
X142092226Y-73612102D01*
X142014205Y-73423744D01*
X141900937Y-73254226D01*
X141756774Y-73110063D01*
X141587256Y-72996795D01*
X141398898Y-72918774D01*
X141198939Y-72879000D01*
X140995061Y-72879000D01*
X140795102Y-72918774D01*
X140606744Y-72996795D01*
X140437226Y-73110063D01*
X140393289Y-73154000D01*
X138467325Y-73154000D01*
X138430000Y-73150324D01*
X138392675Y-73154000D01*
X138392667Y-73154000D01*
X138281014Y-73164997D01*
X138137753Y-73208454D01*
X138005724Y-73279026D01*
X137889999Y-73373999D01*
X137866201Y-73402998D01*
X137353199Y-73916000D01*
X136963154Y-73916000D01*
X137061205Y-73769256D01*
X137139226Y-73580898D01*
X137179000Y-73380939D01*
X137179000Y-73177061D01*
X137139226Y-72977102D01*
X137061205Y-72788744D01*
X136947937Y-72619226D01*
X136803774Y-72475063D01*
X136634256Y-72361795D01*
X136445898Y-72283774D01*
X136389044Y-72272465D01*
X136375579Y-72259000D01*
X136735531Y-72259000D01*
X136779000Y-72263281D01*
X136822469Y-72259000D01*
X136822477Y-72259000D01*
X136842500Y-72257028D01*
X136862523Y-72259000D01*
G04 #@! TA.AperFunction,Conductor*
D21*
G36*
X136862523Y-72259000D02*
G01*
X136862531Y-72259000D01*
X136906000Y-72263281D01*
X136949469Y-72259000D01*
X141492422Y-72259000D01*
X143463451Y-74230030D01*
X143403774Y-74374102D01*
X143364000Y-74574061D01*
X143364000Y-74725199D01*
X143184804Y-74546003D01*
X143161001Y-74516999D01*
X143045276Y-74422026D01*
X142913247Y-74351454D01*
X142769986Y-74307997D01*
X142658333Y-74297000D01*
X142658322Y-74297000D01*
X142621000Y-74293324D01*
X142583678Y-74297000D01*
X142058632Y-74297000D01*
X142092226Y-74215898D01*
X142132000Y-74015939D01*
X142132000Y-73812061D01*
X142092226Y-73612102D01*
X142014205Y-73423744D01*
X141900937Y-73254226D01*
X141756774Y-73110063D01*
X141587256Y-72996795D01*
X141398898Y-72918774D01*
X141198939Y-72879000D01*
X140995061Y-72879000D01*
X140795102Y-72918774D01*
X140606744Y-72996795D01*
X140437226Y-73110063D01*
X140393289Y-73154000D01*
X138467325Y-73154000D01*
X138430000Y-73150324D01*
X138392675Y-73154000D01*
X138392667Y-73154000D01*
X138281014Y-73164997D01*
X138137753Y-73208454D01*
X138005724Y-73279026D01*
X137889999Y-73373999D01*
X137866201Y-73402998D01*
X137353199Y-73916000D01*
X136963154Y-73916000D01*
X137061205Y-73769256D01*
X137139226Y-73580898D01*
X137179000Y-73380939D01*
X137179000Y-73177061D01*
X137139226Y-72977102D01*
X137061205Y-72788744D01*
X136947937Y-72619226D01*
X136803774Y-72475063D01*
X136634256Y-72361795D01*
X136445898Y-72283774D01*
X136389044Y-72272465D01*
X136375579Y-72259000D01*
X136735531Y-72259000D01*
X136779000Y-72263281D01*
X136822469Y-72259000D01*
X136822477Y-72259000D01*
X136842500Y-72257028D01*
X136862523Y-72259000D01*
G37*
G04 #@! TD.AperFunction*
G04 #@! TD*
M02*
