G04 #@! TF.GenerationSoftware,KiCad,Pcbnew,(5.1.10)-1*
G04 #@! TF.CreationDate,2021-11-30T15:46:28+00:00*
G04 #@! TF.ProjectId,pc_card_sound_barker,70635f63-6172-4645-9f73-6f756e645f62,rev?*
G04 #@! TF.SameCoordinates,Original*
G04 #@! TF.FileFunction,Legend,Bot*
G04 #@! TF.FilePolarity,Positive*
%FSLAX46Y46*%
G04 Gerber Fmt 4.6, Leading zero omitted, Abs format (unit mm)*
G04 Created by KiCad (PCBNEW (5.1.10)-1) date 2021-11-30 15:46:28*
%MOMM*%
%LPD*%
G01*
G04 APERTURE LIST*
%ADD10C,0.100000*%
%ADD11C,0.200000*%
%ADD12C,0.150000*%
%ADD13C,0.120000*%
G04 APERTURE END LIST*
D10*
G36*
X105156000Y-80518000D02*
G01*
X104648000Y-79883000D01*
X105156000Y-79248000D01*
X105156000Y-80518000D01*
G37*
X105156000Y-80518000D02*
X104648000Y-79883000D01*
X105156000Y-79248000D01*
X105156000Y-80518000D01*
D11*
X106005380Y-74652809D02*
X106005380Y-75224238D01*
X107005380Y-74938523D02*
X106005380Y-74938523D01*
X107005380Y-75557571D02*
X106005380Y-75557571D01*
X106481571Y-75557571D02*
X106481571Y-76129000D01*
X107005380Y-76129000D02*
X106005380Y-76129000D01*
X107005380Y-76605190D02*
X106005380Y-76605190D01*
X106957761Y-77033761D02*
X107005380Y-77176619D01*
X107005380Y-77414714D01*
X106957761Y-77509952D01*
X106910142Y-77557571D01*
X106814904Y-77605190D01*
X106719666Y-77605190D01*
X106624428Y-77557571D01*
X106576809Y-77509952D01*
X106529190Y-77414714D01*
X106481571Y-77224238D01*
X106433952Y-77129000D01*
X106386333Y-77081380D01*
X106291095Y-77033761D01*
X106195857Y-77033761D01*
X106100619Y-77081380D01*
X106053000Y-77129000D01*
X106005380Y-77224238D01*
X106005380Y-77462333D01*
X106053000Y-77605190D01*
X106957761Y-78748047D02*
X107005380Y-78890904D01*
X107005380Y-79129000D01*
X106957761Y-79224238D01*
X106910142Y-79271857D01*
X106814904Y-79319476D01*
X106719666Y-79319476D01*
X106624428Y-79271857D01*
X106576809Y-79224238D01*
X106529190Y-79129000D01*
X106481571Y-78938523D01*
X106433952Y-78843285D01*
X106386333Y-78795666D01*
X106291095Y-78748047D01*
X106195857Y-78748047D01*
X106100619Y-78795666D01*
X106053000Y-78843285D01*
X106005380Y-78938523D01*
X106005380Y-79176619D01*
X106053000Y-79319476D01*
X107005380Y-79748047D02*
X106005380Y-79748047D01*
X107005380Y-80224238D02*
X106005380Y-80224238D01*
X106005380Y-80462333D01*
X106053000Y-80605190D01*
X106148238Y-80700428D01*
X106243476Y-80748047D01*
X106433952Y-80795666D01*
X106576809Y-80795666D01*
X106767285Y-80748047D01*
X106862523Y-80700428D01*
X106957761Y-80605190D01*
X107005380Y-80462333D01*
X107005380Y-80224238D01*
X106481571Y-81224238D02*
X106481571Y-81557571D01*
X107005380Y-81700428D02*
X107005380Y-81224238D01*
X106005380Y-81224238D01*
X106005380Y-81700428D01*
X106005380Y-82890904D02*
X106814904Y-82890904D01*
X106910142Y-82938523D01*
X106957761Y-82986142D01*
X107005380Y-83081380D01*
X107005380Y-83271857D01*
X106957761Y-83367095D01*
X106910142Y-83414714D01*
X106814904Y-83462333D01*
X106005380Y-83462333D01*
X107005380Y-83938523D02*
X106005380Y-83938523D01*
X106005380Y-84319476D01*
X106053000Y-84414714D01*
X106100619Y-84462333D01*
X106195857Y-84509952D01*
X106338714Y-84509952D01*
X106433952Y-84462333D01*
X106481571Y-84414714D01*
X106529190Y-84319476D01*
X106529190Y-83938523D01*
D12*
X121580142Y-60216023D02*
X121627761Y-60168404D01*
X121675380Y-60025547D01*
X121675380Y-59930309D01*
X121627761Y-59787452D01*
X121532523Y-59692214D01*
X121437285Y-59644595D01*
X121246809Y-59596976D01*
X121103952Y-59596976D01*
X120913476Y-59644595D01*
X120818238Y-59692214D01*
X120723000Y-59787452D01*
X120675380Y-59930309D01*
X120675380Y-60025547D01*
X120723000Y-60168404D01*
X120770619Y-60216023D01*
X121675380Y-61073166D02*
X121151571Y-61073166D01*
X121056333Y-61025547D01*
X121008714Y-60930309D01*
X121008714Y-60739833D01*
X121056333Y-60644595D01*
X121627761Y-61073166D02*
X121675380Y-60977928D01*
X121675380Y-60739833D01*
X121627761Y-60644595D01*
X121532523Y-60596976D01*
X121437285Y-60596976D01*
X121342047Y-60644595D01*
X121294428Y-60739833D01*
X121294428Y-60977928D01*
X121246809Y-61073166D01*
X121675380Y-61549357D02*
X121008714Y-61549357D01*
X121199190Y-61549357D02*
X121103952Y-61596976D01*
X121056333Y-61644595D01*
X121008714Y-61739833D01*
X121008714Y-61835071D01*
X121675380Y-62596976D02*
X120675380Y-62596976D01*
X121627761Y-62596976D02*
X121675380Y-62501738D01*
X121675380Y-62311261D01*
X121627761Y-62216023D01*
X121580142Y-62168404D01*
X121484904Y-62120785D01*
X121199190Y-62120785D01*
X121103952Y-62168404D01*
X121056333Y-62216023D01*
X121008714Y-62311261D01*
X121008714Y-62501738D01*
X121056333Y-62596976D01*
X121151571Y-64168404D02*
X121199190Y-64311261D01*
X121246809Y-64358880D01*
X121342047Y-64406499D01*
X121484904Y-64406499D01*
X121580142Y-64358880D01*
X121627761Y-64311261D01*
X121675380Y-64216023D01*
X121675380Y-63835071D01*
X120675380Y-63835071D01*
X120675380Y-64168404D01*
X120723000Y-64263642D01*
X120770619Y-64311261D01*
X120865857Y-64358880D01*
X120961095Y-64358880D01*
X121056333Y-64311261D01*
X121103952Y-64263642D01*
X121151571Y-64168404D01*
X121151571Y-63835071D01*
X121675380Y-65263642D02*
X121151571Y-65263642D01*
X121056333Y-65216023D01*
X121008714Y-65120785D01*
X121008714Y-64930309D01*
X121056333Y-64835071D01*
X121627761Y-65263642D02*
X121675380Y-65168404D01*
X121675380Y-64930309D01*
X121627761Y-64835071D01*
X121532523Y-64787452D01*
X121437285Y-64787452D01*
X121342047Y-64835071D01*
X121294428Y-64930309D01*
X121294428Y-65168404D01*
X121246809Y-65263642D01*
X121675380Y-65739833D02*
X121008714Y-65739833D01*
X121199190Y-65739833D02*
X121103952Y-65787452D01*
X121056333Y-65835071D01*
X121008714Y-65930309D01*
X121008714Y-66025547D01*
X121675380Y-66358880D02*
X120675380Y-66358880D01*
X121294428Y-66454119D02*
X121675380Y-66739833D01*
X121008714Y-66739833D02*
X121389666Y-66358880D01*
X121627761Y-67549357D02*
X121675380Y-67454119D01*
X121675380Y-67263642D01*
X121627761Y-67168404D01*
X121532523Y-67120785D01*
X121151571Y-67120785D01*
X121056333Y-67168404D01*
X121008714Y-67263642D01*
X121008714Y-67454119D01*
X121056333Y-67549357D01*
X121151571Y-67596976D01*
X121246809Y-67596976D01*
X121342047Y-67120785D01*
X121675380Y-68025547D02*
X121008714Y-68025547D01*
X121199190Y-68025547D02*
X121103952Y-68073166D01*
X121056333Y-68120785D01*
X121008714Y-68216023D01*
X121008714Y-68311261D01*
X120675380Y-69596976D02*
X120675380Y-69787452D01*
X120723000Y-69882690D01*
X120818238Y-69977928D01*
X121008714Y-70025547D01*
X121342047Y-70025547D01*
X121532523Y-69977928D01*
X121627761Y-69882690D01*
X121675380Y-69787452D01*
X121675380Y-69596976D01*
X121627761Y-69501738D01*
X121532523Y-69406499D01*
X121342047Y-69358880D01*
X121008714Y-69358880D01*
X120818238Y-69406499D01*
X120723000Y-69501738D01*
X120675380Y-69596976D01*
X121675380Y-70454119D02*
X120675380Y-70454119D01*
X120675380Y-70835071D01*
X120723000Y-70930309D01*
X120770619Y-70977928D01*
X120865857Y-71025547D01*
X121008714Y-71025547D01*
X121103952Y-70977928D01*
X121151571Y-70930309D01*
X121199190Y-70835071D01*
X121199190Y-70454119D01*
X121675380Y-71930309D02*
X121675380Y-71454119D01*
X120675380Y-71454119D01*
X120675380Y-72168404D02*
X120675380Y-72787452D01*
X121056333Y-72454119D01*
X121056333Y-72596976D01*
X121103952Y-72692214D01*
X121151571Y-72739833D01*
X121246809Y-72787452D01*
X121484904Y-72787452D01*
X121580142Y-72739833D01*
X121627761Y-72692214D01*
X121675380Y-72596976D01*
X121675380Y-72311261D01*
X121627761Y-72216023D01*
X121580142Y-72168404D01*
X121627761Y-73930309D02*
X121675380Y-74073166D01*
X121675380Y-74311261D01*
X121627761Y-74406499D01*
X121580142Y-74454119D01*
X121484904Y-74501738D01*
X121389666Y-74501738D01*
X121294428Y-74454119D01*
X121246809Y-74406499D01*
X121199190Y-74311261D01*
X121151571Y-74120785D01*
X121103952Y-74025547D01*
X121056333Y-73977928D01*
X120961095Y-73930309D01*
X120865857Y-73930309D01*
X120770619Y-73977928D01*
X120723000Y-74025547D01*
X120675380Y-74120785D01*
X120675380Y-74358880D01*
X120723000Y-74501738D01*
X121675380Y-75073166D02*
X121627761Y-74977928D01*
X121580142Y-74930309D01*
X121484904Y-74882690D01*
X121199190Y-74882690D01*
X121103952Y-74930309D01*
X121056333Y-74977928D01*
X121008714Y-75073166D01*
X121008714Y-75216023D01*
X121056333Y-75311261D01*
X121103952Y-75358880D01*
X121199190Y-75406499D01*
X121484904Y-75406499D01*
X121580142Y-75358880D01*
X121627761Y-75311261D01*
X121675380Y-75216023D01*
X121675380Y-75073166D01*
X121008714Y-76263642D02*
X121675380Y-76263642D01*
X121008714Y-75835071D02*
X121532523Y-75835071D01*
X121627761Y-75882690D01*
X121675380Y-75977928D01*
X121675380Y-76120785D01*
X121627761Y-76216023D01*
X121580142Y-76263642D01*
X121008714Y-76739833D02*
X121675380Y-76739833D01*
X121103952Y-76739833D02*
X121056333Y-76787452D01*
X121008714Y-76882690D01*
X121008714Y-77025547D01*
X121056333Y-77120785D01*
X121151571Y-77168404D01*
X121675380Y-77168404D01*
X121675380Y-78073166D02*
X120675380Y-78073166D01*
X121627761Y-78073166D02*
X121675380Y-77977928D01*
X121675380Y-77787452D01*
X121627761Y-77692214D01*
X121580142Y-77644595D01*
X121484904Y-77596976D01*
X121199190Y-77596976D01*
X121103952Y-77644595D01*
X121056333Y-77692214D01*
X121008714Y-77787452D01*
X121008714Y-77977928D01*
X121056333Y-78073166D01*
X121580142Y-79882690D02*
X121627761Y-79835071D01*
X121675380Y-79692214D01*
X121675380Y-79596976D01*
X121627761Y-79454119D01*
X121532523Y-79358880D01*
X121437285Y-79311261D01*
X121246809Y-79263642D01*
X121103952Y-79263642D01*
X120913476Y-79311261D01*
X120818238Y-79358880D01*
X120723000Y-79454119D01*
X120675380Y-79596976D01*
X120675380Y-79692214D01*
X120723000Y-79835071D01*
X120770619Y-79882690D01*
X121675380Y-80739833D02*
X121151571Y-80739833D01*
X121056333Y-80692214D01*
X121008714Y-80596976D01*
X121008714Y-80406499D01*
X121056333Y-80311261D01*
X121627761Y-80739833D02*
X121675380Y-80644595D01*
X121675380Y-80406499D01*
X121627761Y-80311261D01*
X121532523Y-80263642D01*
X121437285Y-80263642D01*
X121342047Y-80311261D01*
X121294428Y-80406499D01*
X121294428Y-80644595D01*
X121246809Y-80739833D01*
X121675380Y-81216023D02*
X121008714Y-81216023D01*
X121199190Y-81216023D02*
X121103952Y-81263642D01*
X121056333Y-81311261D01*
X121008714Y-81406499D01*
X121008714Y-81501738D01*
X121675380Y-82263642D02*
X120675380Y-82263642D01*
X121627761Y-82263642D02*
X121675380Y-82168404D01*
X121675380Y-81977928D01*
X121627761Y-81882690D01*
X121580142Y-81835071D01*
X121484904Y-81787452D01*
X121199190Y-81787452D01*
X121103952Y-81835071D01*
X121056333Y-81882690D01*
X121008714Y-81977928D01*
X121008714Y-82168404D01*
X121056333Y-82263642D01*
X123325380Y-59644595D02*
X122325380Y-59644595D01*
X122325380Y-60025547D01*
X122373000Y-60120785D01*
X122420619Y-60168404D01*
X122515857Y-60216023D01*
X122658714Y-60216023D01*
X122753952Y-60168404D01*
X122801571Y-60120785D01*
X122849190Y-60025547D01*
X122849190Y-59644595D01*
X123230142Y-61216023D02*
X123277761Y-61168404D01*
X123325380Y-61025547D01*
X123325380Y-60930309D01*
X123277761Y-60787452D01*
X123182523Y-60692214D01*
X123087285Y-60644595D01*
X122896809Y-60596976D01*
X122753952Y-60596976D01*
X122563476Y-60644595D01*
X122468238Y-60692214D01*
X122373000Y-60787452D01*
X122325380Y-60930309D01*
X122325380Y-61025547D01*
X122373000Y-61168404D01*
X122420619Y-61216023D01*
X123325380Y-61644595D02*
X122325380Y-61644595D01*
X123039666Y-61977928D01*
X122325380Y-62311261D01*
X123325380Y-62311261D01*
X123230142Y-63358880D02*
X123277761Y-63311261D01*
X123325380Y-63168404D01*
X123325380Y-63073166D01*
X123277761Y-62930309D01*
X123182523Y-62835071D01*
X123087285Y-62787452D01*
X122896809Y-62739833D01*
X122753952Y-62739833D01*
X122563476Y-62787452D01*
X122468238Y-62835071D01*
X122373000Y-62930309D01*
X122325380Y-63073166D01*
X122325380Y-63168404D01*
X122373000Y-63311261D01*
X122420619Y-63358880D01*
X123325380Y-63787452D02*
X122325380Y-63787452D01*
X123039666Y-64216023D02*
X123039666Y-64692214D01*
X123325380Y-64120785D02*
X122325380Y-64454119D01*
X123325380Y-64787452D01*
X123325380Y-65882690D02*
X122325380Y-65882690D01*
X122325380Y-66263642D01*
X122373000Y-66358880D01*
X122420619Y-66406500D01*
X122515857Y-66454119D01*
X122658714Y-66454119D01*
X122753952Y-66406500D01*
X122801571Y-66358880D01*
X122849190Y-66263642D01*
X122849190Y-65882690D01*
X123230142Y-67454119D02*
X123277761Y-67406500D01*
X123325380Y-67263642D01*
X123325380Y-67168404D01*
X123277761Y-67025547D01*
X123182523Y-66930309D01*
X123087285Y-66882690D01*
X122896809Y-66835071D01*
X122753952Y-66835071D01*
X122563476Y-66882690D01*
X122468238Y-66930309D01*
X122373000Y-67025547D01*
X122325380Y-67168404D01*
X122325380Y-67263642D01*
X122373000Y-67406500D01*
X122420619Y-67454119D01*
X123230142Y-69216023D02*
X123277761Y-69168404D01*
X123325380Y-69025547D01*
X123325380Y-68930309D01*
X123277761Y-68787452D01*
X123182523Y-68692214D01*
X123087285Y-68644595D01*
X122896809Y-68596976D01*
X122753952Y-68596976D01*
X122563476Y-68644595D01*
X122468238Y-68692214D01*
X122373000Y-68787452D01*
X122325380Y-68930309D01*
X122325380Y-69025547D01*
X122373000Y-69168404D01*
X122420619Y-69216023D01*
X123325380Y-70073166D02*
X122801571Y-70073166D01*
X122706333Y-70025547D01*
X122658714Y-69930309D01*
X122658714Y-69739833D01*
X122706333Y-69644595D01*
X123277761Y-70073166D02*
X123325380Y-69977928D01*
X123325380Y-69739833D01*
X123277761Y-69644595D01*
X123182523Y-69596976D01*
X123087285Y-69596976D01*
X122992047Y-69644595D01*
X122944428Y-69739833D01*
X122944428Y-69977928D01*
X122896809Y-70073166D01*
X123325380Y-70549357D02*
X122658714Y-70549357D01*
X122849190Y-70549357D02*
X122753952Y-70596976D01*
X122706333Y-70644595D01*
X122658714Y-70739833D01*
X122658714Y-70835071D01*
X123325380Y-71596976D02*
X122325380Y-71596976D01*
X123277761Y-71596976D02*
X123325380Y-71501738D01*
X123325380Y-71311261D01*
X123277761Y-71216023D01*
X123230142Y-71168404D01*
X123134904Y-71120785D01*
X122849190Y-71120785D01*
X122753952Y-71168404D01*
X122706333Y-71216023D01*
X122658714Y-71311261D01*
X122658714Y-71501738D01*
X122706333Y-71596976D01*
X124975380Y-59644595D02*
X123975380Y-59644595D01*
X123975380Y-60025547D01*
X124023000Y-60120785D01*
X124070619Y-60168404D01*
X124165857Y-60216023D01*
X124308714Y-60216023D01*
X124403952Y-60168404D01*
X124451571Y-60120785D01*
X124499190Y-60025547D01*
X124499190Y-59644595D01*
X124975380Y-60644595D02*
X124308714Y-60644595D01*
X124499190Y-60644595D02*
X124403952Y-60692214D01*
X124356333Y-60739833D01*
X124308714Y-60835071D01*
X124308714Y-60930309D01*
X124975380Y-61406500D02*
X124927761Y-61311261D01*
X124880142Y-61263642D01*
X124784904Y-61216023D01*
X124499190Y-61216023D01*
X124403952Y-61263642D01*
X124356333Y-61311261D01*
X124308714Y-61406500D01*
X124308714Y-61549357D01*
X124356333Y-61644595D01*
X124403952Y-61692214D01*
X124499190Y-61739833D01*
X124784904Y-61739833D01*
X124880142Y-61692214D01*
X124927761Y-61644595D01*
X124975380Y-61549357D01*
X124975380Y-61406500D01*
X124308714Y-62025547D02*
X124308714Y-62406500D01*
X123975380Y-62168404D02*
X124832523Y-62168404D01*
X124927761Y-62216023D01*
X124975380Y-62311261D01*
X124975380Y-62406500D01*
X124975380Y-62882690D02*
X124927761Y-62787452D01*
X124880142Y-62739833D01*
X124784904Y-62692214D01*
X124499190Y-62692214D01*
X124403952Y-62739833D01*
X124356333Y-62787452D01*
X124308714Y-62882690D01*
X124308714Y-63025547D01*
X124356333Y-63120785D01*
X124403952Y-63168404D01*
X124499190Y-63216023D01*
X124784904Y-63216023D01*
X124880142Y-63168404D01*
X124927761Y-63120785D01*
X124975380Y-63025547D01*
X124975380Y-62882690D01*
X124308714Y-63501738D02*
X124308714Y-63882690D01*
X123975380Y-63644595D02*
X124832523Y-63644595D01*
X124927761Y-63692214D01*
X124975380Y-63787452D01*
X124975380Y-63882690D01*
X124308714Y-64120785D02*
X124975380Y-64358880D01*
X124308714Y-64596976D02*
X124975380Y-64358880D01*
X125213476Y-64263642D01*
X125261095Y-64216023D01*
X125308714Y-64120785D01*
X124308714Y-64977928D02*
X125308714Y-64977928D01*
X124356333Y-64977928D02*
X124308714Y-65073166D01*
X124308714Y-65263642D01*
X124356333Y-65358880D01*
X124403952Y-65406500D01*
X124499190Y-65454119D01*
X124784904Y-65454119D01*
X124880142Y-65406500D01*
X124927761Y-65358880D01*
X124975380Y-65263642D01*
X124975380Y-65073166D01*
X124927761Y-64977928D01*
X124927761Y-66263642D02*
X124975380Y-66168404D01*
X124975380Y-65977928D01*
X124927761Y-65882690D01*
X124832523Y-65835071D01*
X124451571Y-65835071D01*
X124356333Y-65882690D01*
X124308714Y-65977928D01*
X124308714Y-66168404D01*
X124356333Y-66263642D01*
X124451571Y-66311261D01*
X124546809Y-66311261D01*
X124642047Y-65835071D01*
X123975380Y-67692214D02*
X123975380Y-67882690D01*
X124023000Y-67977928D01*
X124118238Y-68073166D01*
X124308714Y-68120785D01*
X124642047Y-68120785D01*
X124832523Y-68073166D01*
X124927761Y-67977928D01*
X124975380Y-67882690D01*
X124975380Y-67692214D01*
X124927761Y-67596976D01*
X124832523Y-67501738D01*
X124642047Y-67454119D01*
X124308714Y-67454119D01*
X124118238Y-67501738D01*
X124023000Y-67596976D01*
X123975380Y-67692214D01*
X124308714Y-68549357D02*
X124975380Y-68549357D01*
X124403952Y-68549357D02*
X124356333Y-68596976D01*
X124308714Y-68692214D01*
X124308714Y-68835071D01*
X124356333Y-68930309D01*
X124451571Y-68977928D01*
X124975380Y-68977928D01*
X124927761Y-69835071D02*
X124975380Y-69739833D01*
X124975380Y-69549357D01*
X124927761Y-69454119D01*
X124832523Y-69406500D01*
X124451571Y-69406500D01*
X124356333Y-69454119D01*
X124308714Y-69549357D01*
X124308714Y-69739833D01*
X124356333Y-69835071D01*
X124451571Y-69882690D01*
X124546809Y-69882690D01*
X124642047Y-69406500D01*
X125958714Y-59549357D02*
X126625380Y-59787452D01*
X125958714Y-60025547D02*
X126625380Y-59787452D01*
X126863476Y-59692214D01*
X126911095Y-59644595D01*
X126958714Y-59549357D01*
X126625380Y-60549357D02*
X126577761Y-60454119D01*
X126530142Y-60406500D01*
X126434904Y-60358880D01*
X126149190Y-60358880D01*
X126053952Y-60406500D01*
X126006333Y-60454119D01*
X125958714Y-60549357D01*
X125958714Y-60692214D01*
X126006333Y-60787452D01*
X126053952Y-60835071D01*
X126149190Y-60882690D01*
X126434904Y-60882690D01*
X126530142Y-60835071D01*
X126577761Y-60787452D01*
X126625380Y-60692214D01*
X126625380Y-60549357D01*
X125958714Y-61168404D02*
X125958714Y-61549357D01*
X125625380Y-61311261D02*
X126482523Y-61311261D01*
X126577761Y-61358880D01*
X126625380Y-61454119D01*
X126625380Y-61549357D01*
X125958714Y-61739833D02*
X125958714Y-62120785D01*
X125625380Y-61882690D02*
X126482523Y-61882690D01*
X126577761Y-61930309D01*
X126625380Y-62025547D01*
X126625380Y-62120785D01*
X126625380Y-62882690D02*
X126101571Y-62882690D01*
X126006333Y-62835071D01*
X125958714Y-62739833D01*
X125958714Y-62549357D01*
X126006333Y-62454119D01*
X126577761Y-62882690D02*
X126625380Y-62787452D01*
X126625380Y-62549357D01*
X126577761Y-62454119D01*
X126482523Y-62406499D01*
X126387285Y-62406499D01*
X126292047Y-62454119D01*
X126244428Y-62549357D01*
X126244428Y-62787452D01*
X126196809Y-62882690D01*
X125958714Y-63216023D02*
X125958714Y-63596976D01*
X125625380Y-63358880D02*
X126482523Y-63358880D01*
X126577761Y-63406499D01*
X126625380Y-63501738D01*
X126625380Y-63596976D01*
X126577761Y-63882690D02*
X126625380Y-63977928D01*
X126625380Y-64168404D01*
X126577761Y-64263642D01*
X126482523Y-64311261D01*
X126434904Y-64311261D01*
X126339666Y-64263642D01*
X126292047Y-64168404D01*
X126292047Y-64025547D01*
X126244428Y-63930309D01*
X126149190Y-63882690D01*
X126101571Y-63882690D01*
X126006333Y-63930309D01*
X125958714Y-64025547D01*
X125958714Y-64168404D01*
X126006333Y-64263642D01*
X126625380Y-65168404D02*
X126101571Y-65168404D01*
X126006333Y-65120785D01*
X125958714Y-65025547D01*
X125958714Y-64835071D01*
X126006333Y-64739833D01*
X126577761Y-65168404D02*
X126625380Y-65073166D01*
X126625380Y-64835071D01*
X126577761Y-64739833D01*
X126482523Y-64692214D01*
X126387285Y-64692214D01*
X126292047Y-64739833D01*
X126244428Y-64835071D01*
X126244428Y-65073166D01*
X126196809Y-65168404D01*
X126530142Y-65644595D02*
X126577761Y-65692214D01*
X126625380Y-65644595D01*
X126577761Y-65596976D01*
X126530142Y-65644595D01*
X126625380Y-65644595D01*
X125958714Y-66120785D02*
X126625380Y-66120785D01*
X126053952Y-66120785D02*
X126006333Y-66168404D01*
X125958714Y-66263642D01*
X125958714Y-66406499D01*
X126006333Y-66501738D01*
X126101571Y-66549357D01*
X126625380Y-66549357D01*
X126625380Y-67454119D02*
X126101571Y-67454119D01*
X126006333Y-67406499D01*
X125958714Y-67311261D01*
X125958714Y-67120785D01*
X126006333Y-67025547D01*
X126577761Y-67454119D02*
X126625380Y-67358880D01*
X126625380Y-67120785D01*
X126577761Y-67025547D01*
X126482523Y-66977928D01*
X126387285Y-66977928D01*
X126292047Y-67025547D01*
X126244428Y-67120785D01*
X126244428Y-67358880D01*
X126196809Y-67454119D01*
X126625380Y-67930309D02*
X125958714Y-67930309D01*
X126053952Y-67930309D02*
X126006333Y-67977928D01*
X125958714Y-68073166D01*
X125958714Y-68216023D01*
X126006333Y-68311261D01*
X126101571Y-68358880D01*
X126625380Y-68358880D01*
X126101571Y-68358880D02*
X126006333Y-68406499D01*
X125958714Y-68501738D01*
X125958714Y-68644595D01*
X126006333Y-68739833D01*
X126101571Y-68787452D01*
X126625380Y-68787452D01*
X126577761Y-69644595D02*
X126625380Y-69549357D01*
X126625380Y-69358880D01*
X126577761Y-69263642D01*
X126482523Y-69216023D01*
X126101571Y-69216023D01*
X126006333Y-69263642D01*
X125958714Y-69358880D01*
X125958714Y-69549357D01*
X126006333Y-69644595D01*
X126101571Y-69692214D01*
X126196809Y-69692214D01*
X126292047Y-69216023D01*
X125577761Y-70835071D02*
X126863476Y-69977928D01*
X126577761Y-71596976D02*
X126625380Y-71501738D01*
X126625380Y-71311261D01*
X126577761Y-71216023D01*
X126530142Y-71168404D01*
X126434904Y-71120785D01*
X126149190Y-71120785D01*
X126053952Y-71168404D01*
X126006333Y-71216023D01*
X125958714Y-71311261D01*
X125958714Y-71501738D01*
X126006333Y-71596976D01*
X126625380Y-72454119D02*
X126101571Y-72454119D01*
X126006333Y-72406499D01*
X125958714Y-72311261D01*
X125958714Y-72120785D01*
X126006333Y-72025547D01*
X126577761Y-72454119D02*
X126625380Y-72358880D01*
X126625380Y-72120785D01*
X126577761Y-72025547D01*
X126482523Y-71977928D01*
X126387285Y-71977928D01*
X126292047Y-72025547D01*
X126244428Y-72120785D01*
X126244428Y-72358880D01*
X126196809Y-72454119D01*
X126625380Y-72930309D02*
X125958714Y-72930309D01*
X126149190Y-72930309D02*
X126053952Y-72977928D01*
X126006333Y-73025547D01*
X125958714Y-73120785D01*
X125958714Y-73216023D01*
X126625380Y-73977928D02*
X125625380Y-73977928D01*
X126577761Y-73977928D02*
X126625380Y-73882690D01*
X126625380Y-73692214D01*
X126577761Y-73596976D01*
X126530142Y-73549357D01*
X126434904Y-73501738D01*
X126149190Y-73501738D01*
X126053952Y-73549357D01*
X126006333Y-73596976D01*
X125958714Y-73692214D01*
X125958714Y-73882690D01*
X126006333Y-73977928D01*
X126625380Y-74454119D02*
X125625380Y-74454119D01*
X126006333Y-74454119D02*
X125958714Y-74549357D01*
X125958714Y-74739833D01*
X126006333Y-74835071D01*
X126053952Y-74882690D01*
X126149190Y-74930309D01*
X126434904Y-74930309D01*
X126530142Y-74882690D01*
X126577761Y-74835071D01*
X126625380Y-74739833D01*
X126625380Y-74549357D01*
X126577761Y-74454119D01*
X126625380Y-75787452D02*
X126101571Y-75787452D01*
X126006333Y-75739833D01*
X125958714Y-75644595D01*
X125958714Y-75454119D01*
X126006333Y-75358880D01*
X126577761Y-75787452D02*
X126625380Y-75692214D01*
X126625380Y-75454119D01*
X126577761Y-75358880D01*
X126482523Y-75311261D01*
X126387285Y-75311261D01*
X126292047Y-75358880D01*
X126244428Y-75454119D01*
X126244428Y-75692214D01*
X126196809Y-75787452D01*
X126625380Y-76263642D02*
X125958714Y-76263642D01*
X126149190Y-76263642D02*
X126053952Y-76311261D01*
X126006333Y-76358880D01*
X125958714Y-76454119D01*
X125958714Y-76549357D01*
X126625380Y-76882690D02*
X125625380Y-76882690D01*
X126244428Y-76977928D02*
X126625380Y-77263642D01*
X125958714Y-77263642D02*
X126339666Y-76882690D01*
X126577761Y-78073166D02*
X126625380Y-77977928D01*
X126625380Y-77787452D01*
X126577761Y-77692214D01*
X126482523Y-77644595D01*
X126101571Y-77644595D01*
X126006333Y-77692214D01*
X125958714Y-77787452D01*
X125958714Y-77977928D01*
X126006333Y-78073166D01*
X126101571Y-78120785D01*
X126196809Y-78120785D01*
X126292047Y-77644595D01*
X126625380Y-78549357D02*
X125958714Y-78549357D01*
X126149190Y-78549357D02*
X126053952Y-78596976D01*
X126006333Y-78644595D01*
X125958714Y-78739833D01*
X125958714Y-78835071D01*
D13*
G04 #@! TO.C,JP3*
X140465000Y-60976000D02*
X137665000Y-60976000D01*
X137015000Y-61676000D02*
X137015000Y-62276000D01*
X137665000Y-62976000D02*
X140465000Y-62976000D01*
X141115000Y-62276000D02*
X141115000Y-61676000D01*
X141115000Y-61676000D02*
G75*
G03*
X140415000Y-60976000I-700000J0D01*
G01*
X140415000Y-62976000D02*
G75*
G03*
X141115000Y-62276000I0J700000D01*
G01*
X137015000Y-62276000D02*
G75*
G03*
X137715000Y-62976000I700000J0D01*
G01*
X137715000Y-60976000D02*
G75*
G03*
X137015000Y-61676000I0J-700000D01*
G01*
G04 #@! TO.C,JP1*
X107126000Y-69612000D02*
X105726000Y-69612000D01*
X105026000Y-70312000D02*
X105026000Y-70912000D01*
X105726000Y-71612000D02*
X107126000Y-71612000D01*
X107826000Y-70912000D02*
X107826000Y-70312000D01*
X107826000Y-70312000D02*
G75*
G03*
X107126000Y-69612000I-700000J0D01*
G01*
X107126000Y-71612000D02*
G75*
G03*
X107826000Y-70912000I0J700000D01*
G01*
X105026000Y-70912000D02*
G75*
G03*
X105726000Y-71612000I700000J0D01*
G01*
X105726000Y-69612000D02*
G75*
G03*
X105026000Y-70312000I0J-700000D01*
G01*
G04 #@! TO.C,TP2*
X157291000Y-83058000D02*
G75*
G03*
X157291000Y-83058000I-700000J0D01*
G01*
G04 #@! TO.C,TP1*
X159450000Y-83058000D02*
G75*
G03*
X159450000Y-83058000I-700000J0D01*
G01*
G04 #@! TO.C,JP2*
X107126000Y-88535000D02*
X105726000Y-88535000D01*
X105026000Y-89235000D02*
X105026000Y-89835000D01*
X105726000Y-90535000D02*
X107126000Y-90535000D01*
X107826000Y-89835000D02*
X107826000Y-89235000D01*
X107826000Y-89235000D02*
G75*
G03*
X107126000Y-88535000I-700000J0D01*
G01*
X107126000Y-90535000D02*
G75*
G03*
X107826000Y-89835000I0J700000D01*
G01*
X105026000Y-89835000D02*
G75*
G03*
X105726000Y-90535000I700000J0D01*
G01*
X105726000Y-88535000D02*
G75*
G03*
X105026000Y-89235000I0J-700000D01*
G01*
G04 #@! TO.C,JP3*
D12*
X141493571Y-64328380D02*
X141826904Y-63852190D01*
X142065000Y-64328380D02*
X142065000Y-63328380D01*
X141684047Y-63328380D01*
X141588809Y-63376000D01*
X141541190Y-63423619D01*
X141493571Y-63518857D01*
X141493571Y-63661714D01*
X141541190Y-63756952D01*
X141588809Y-63804571D01*
X141684047Y-63852190D01*
X142065000Y-63852190D01*
X141160238Y-63328380D02*
X140922142Y-64328380D01*
X140731666Y-63614095D01*
X140541190Y-64328380D01*
X140303095Y-63328380D01*
X137065000Y-64328380D02*
X137398333Y-63852190D01*
X137636428Y-64328380D02*
X137636428Y-63328380D01*
X137255476Y-63328380D01*
X137160238Y-63376000D01*
X137112619Y-63423619D01*
X137065000Y-63518857D01*
X137065000Y-63661714D01*
X137112619Y-63756952D01*
X137160238Y-63804571D01*
X137255476Y-63852190D01*
X137636428Y-63852190D01*
X136445952Y-63328380D02*
X136255476Y-63328380D01*
X136160238Y-63376000D01*
X136065000Y-63471238D01*
X136017380Y-63661714D01*
X136017380Y-63995047D01*
X136065000Y-64185523D01*
X136160238Y-64280761D01*
X136255476Y-64328380D01*
X136445952Y-64328380D01*
X136541190Y-64280761D01*
X136636428Y-64185523D01*
X136684047Y-63995047D01*
X136684047Y-63661714D01*
X136636428Y-63471238D01*
X136541190Y-63376000D01*
X136445952Y-63328380D01*
G04 #@! TO.C,JP1*
X108418380Y-69135809D02*
X108418380Y-69754857D01*
X108799333Y-69421523D01*
X108799333Y-69564380D01*
X108846952Y-69659619D01*
X108894571Y-69707238D01*
X108989809Y-69754857D01*
X109227904Y-69754857D01*
X109323142Y-69707238D01*
X109370761Y-69659619D01*
X109418380Y-69564380D01*
X109418380Y-69278666D01*
X109370761Y-69183428D01*
X109323142Y-69135809D01*
X109323142Y-70183428D02*
X109370761Y-70231047D01*
X109418380Y-70183428D01*
X109370761Y-70135809D01*
X109323142Y-70183428D01*
X109418380Y-70183428D01*
X108418380Y-70564380D02*
X108418380Y-71183428D01*
X108799333Y-70850095D01*
X108799333Y-70992952D01*
X108846952Y-71088190D01*
X108894571Y-71135809D01*
X108989809Y-71183428D01*
X109227904Y-71183428D01*
X109323142Y-71135809D01*
X109370761Y-71088190D01*
X109418380Y-70992952D01*
X109418380Y-70707238D01*
X109370761Y-70612000D01*
X109323142Y-70564380D01*
X108418380Y-71469142D02*
X109418380Y-71802476D01*
X108418380Y-72135809D01*
G04 #@! TO.C,TP2*
X156281476Y-81960380D02*
X156757666Y-81960380D01*
X156757666Y-80960380D01*
G04 #@! TO.C,TP1*
X158440476Y-81960380D02*
X158773809Y-81484190D01*
X159011904Y-81960380D02*
X159011904Y-80960380D01*
X158630952Y-80960380D01*
X158535714Y-81008000D01*
X158488095Y-81055619D01*
X158440476Y-81150857D01*
X158440476Y-81293714D01*
X158488095Y-81388952D01*
X158535714Y-81436571D01*
X158630952Y-81484190D01*
X159011904Y-81484190D01*
G04 #@! TO.C,J2*
X157408380Y-62174380D02*
X157884571Y-62174380D01*
X157884571Y-61174380D01*
X155741714Y-62174380D02*
X156075047Y-61698190D01*
X156313142Y-62174380D02*
X156313142Y-61174380D01*
X155932190Y-61174380D01*
X155836952Y-61222000D01*
X155789333Y-61269619D01*
X155741714Y-61364857D01*
X155741714Y-61507714D01*
X155789333Y-61602952D01*
X155836952Y-61650571D01*
X155932190Y-61698190D01*
X156313142Y-61698190D01*
X154027428Y-61222000D02*
X154122666Y-61174380D01*
X154265523Y-61174380D01*
X154408380Y-61222000D01*
X154503619Y-61317238D01*
X154551238Y-61412476D01*
X154598857Y-61602952D01*
X154598857Y-61745809D01*
X154551238Y-61936285D01*
X154503619Y-62031523D01*
X154408380Y-62126761D01*
X154265523Y-62174380D01*
X154170285Y-62174380D01*
X154027428Y-62126761D01*
X153979809Y-62079142D01*
X153979809Y-61745809D01*
X154170285Y-61745809D01*
G04 #@! TO.C,JP2*
X108418380Y-88058809D02*
X109418380Y-88725476D01*
X108418380Y-88725476D02*
X109418380Y-88058809D01*
X109323142Y-89106428D02*
X109370761Y-89154047D01*
X109418380Y-89106428D01*
X109370761Y-89058809D01*
X109323142Y-89106428D01*
X109418380Y-89106428D01*
X108418380Y-89487380D02*
X109418380Y-90154047D01*
X108418380Y-90154047D02*
X109418380Y-89487380D01*
X108418380Y-90392142D02*
X109418380Y-90725476D01*
X108418380Y-91058809D01*
G04 #@! TD*
M02*
