M48
; DRILL file {KiCad (5.1.10)-1} date 11/29/21 12:29:29
; FORMAT={-:-/ absolute / inch / decimal}
; #@! TF.CreationDate,2021-11-29T12:29:29+00:00
; #@! TF.GenerationSoftware,Kicad,Pcbnew,(5.1.10)-1
; #@! TF.FileFunction,Plated,1,2,PTH
FMAT,2
INCH
T1C0.0157
T2C0.0256
%
G90
G05
T1
X4.17Y-3.06
X4.18Y-2.35
X4.185Y-3.42
X4.2Y-4.02
X4.21Y-3.03
X4.225Y-3.1
X4.23Y-2.31
X4.255Y-3.18
X4.26Y-2.395
X4.29Y-3.15
X4.3Y-2.31
X4.3Y-4.06
X4.315Y-2.685
X4.325Y-3.18
X4.35Y-2.645
X4.355Y-3.455
X4.37Y-2.31
X4.37Y-2.8
X4.37Y-4.06
X4.395Y-3.25
X4.395Y-3.385
X4.425Y-2.8
X4.425Y-3.285
X4.43Y-2.945
X4.43Y-3.715
X4.44Y-2.31
X4.44Y-4.06
X4.455Y-3.32
X4.465Y-3.68
X4.47Y-3.135
X4.485Y-2.945
X4.5Y-3.715
X4.505Y-3.17
X4.51Y-2.825
X4.525Y-3.125
X4.54Y-2.945
X4.59Y-2.955
X4.6Y-3.125
X4.605Y-2.86
X4.61Y-3.24
X4.64Y-2.965
X4.67Y-3.945
X4.68Y-3.0
X4.685Y-3.195
X4.69Y-3.05
X4.72Y-3.955
X4.73Y-3.08
X4.74Y-2.725
X4.755Y-3.92
X4.78Y-2.695
X4.78Y-2.755
X4.8Y-3.89
X4.805Y-3.395
X4.805Y-4.0
X4.835Y-2.31
X4.845Y-3.44
X4.865Y-4.0
X4.92Y-3.2
X4.93Y-2.92
X4.93Y-3.1
X4.99Y-2.98
X4.99Y-3.33
X5.05Y-2.89
X5.0587Y-3.9
X5.06Y-2.54
X5.06Y-3.84
X5.07Y-2.31
X5.08Y-3.76
X5.1125Y-3.9
X5.15Y-2.635
X5.1662Y-3.9
X5.17Y-3.2
X5.175Y-2.37
X5.185Y-3.76
X5.195Y-2.68
X5.22Y-3.9
X5.25Y-3.33
X5.28Y-2.345
X5.295Y-3.0
X5.295Y-4.005
X5.3Y-3.26
X5.315Y-2.94
X5.325Y-2.43
X5.36Y-2.885
X5.36Y-3.045
X5.3676Y-3.82
X5.39Y-3.22
X5.405Y-2.7
X5.515Y-2.765
X5.52Y-2.675
X5.555Y-2.91
X5.595Y-2.995
X5.595Y-3.05
X5.595Y-3.105
X5.595Y-3.16
X5.595Y-3.215
X5.595Y-3.27
X5.605Y-3.525
X5.605Y-3.77
X5.625Y-2.575
X5.675Y-2.355
X5.705Y-2.85
X5.705Y-2.93
X5.715Y-3.215
X5.74Y-4.005
X5.78Y-3.17
X5.805Y-2.685
X5.815Y-2.355
X5.835Y-2.77
X5.845Y-3.78
X5.87Y-3.375
X5.91Y-2.965
X5.945Y-3.785
X5.97Y-3.705
X5.9763Y-2.355
X6.055Y-3.77
X6.095Y-3.27
X6.095Y-3.735
X6.1Y-3.935
X6.14Y-3.455
X6.145Y-2.655
X6.15Y-3.735
X6.205Y-3.125
X6.205Y-3.735
X6.23Y-3.935
X6.26Y-3.735
X6.27Y-4.045
X6.2988Y-2.355
X6.315Y-3.27
X6.315Y-3.735
X6.32Y-2.665
X6.32Y-2.955
X6.37Y-3.57
X6.405Y-3.735
X6.405Y-3.81
X6.415Y-3.27
X6.46Y-2.355
X6.485Y-2.685
X6.485Y-2.865
X6.53Y-3.93
X6.53Y-4.04
T2
X6.09Y-2.35
X6.14Y-2.35
X6.19Y-2.35
T0
M30
