G04 #@! TF.GenerationSoftware,KiCad,Pcbnew,(5.1.10)-1*
G04 #@! TF.CreationDate,2021-11-29T12:29:17+00:00*
G04 #@! TF.ProjectId,pc_card_sound_barker,70635f63-6172-4645-9f73-6f756e645f62,rev?*
G04 #@! TF.SameCoordinates,Original*
G04 #@! TF.FileFunction,Legend,Top*
G04 #@! TF.FilePolarity,Positive*
%FSLAX46Y46*%
G04 Gerber Fmt 4.6, Leading zero omitted, Abs format (unit mm)*
G04 Created by KiCad (PCBNEW (5.1.10)-1) date 2021-11-29 12:29:17*
%MOMM*%
%LPD*%
G01*
G04 APERTURE LIST*
%ADD10C,0.200000*%
%ADD11C,0.127000*%
%ADD12C,0.120000*%
%ADD13C,0.150000*%
%ADD14C,0.254000*%
G04 APERTURE END LIST*
D10*
G04 #@! TO.C,U1*
X124910000Y-88135000D02*
G75*
G03*
X124910000Y-88135000I-100000J0D01*
G01*
D11*
X137810000Y-71740000D02*
X137810000Y-72285000D01*
X123810000Y-71740000D02*
X123810000Y-72285000D01*
X137810000Y-85740000D02*
X137810000Y-85195000D01*
X123810000Y-85740000D02*
X123810000Y-85195000D01*
X137810000Y-71740000D02*
X137265000Y-71740000D01*
X123810000Y-71740000D02*
X124355000Y-71740000D01*
X137810000Y-85740000D02*
X137265000Y-85740000D01*
X123810000Y-85740000D02*
X124355000Y-85740000D01*
G04 #@! TO.C,RN2*
X111154000Y-85462000D02*
X110921000Y-85462000D01*
X111154000Y-85462000D02*
X111154000Y-85112000D01*
X111154000Y-84052000D02*
X111154000Y-83702000D01*
X111154000Y-83702000D02*
X110921000Y-83702000D01*
X108027000Y-85462000D02*
X107794000Y-85462000D01*
X107794000Y-85462000D02*
X107794000Y-85112000D01*
X107794000Y-84052000D02*
X107794000Y-83702000D01*
X107794000Y-83702000D02*
X108027000Y-83702000D01*
D10*
X112444000Y-84582000D02*
G75*
G03*
X112444000Y-84582000I-100000J0D01*
G01*
D11*
G04 #@! TO.C,RN1*
X111538193Y-75634315D02*
X111373437Y-75799070D01*
X111538193Y-75634315D02*
X111290706Y-75386827D01*
X110541173Y-74637294D02*
X110293685Y-74389807D01*
X110293685Y-74389807D02*
X110128930Y-74554563D01*
X109327070Y-77845437D02*
X109162315Y-78010193D01*
X109162315Y-78010193D02*
X108914827Y-77762706D01*
X108165294Y-77013173D02*
X107917807Y-76765685D01*
X107917807Y-76765685D02*
X108082563Y-76600930D01*
D10*
X111857395Y-74170604D02*
G75*
G03*
X111857395Y-74170604I-99999J0D01*
G01*
G04 #@! TO.C,IC4*
X157683000Y-73951000D02*
X154483000Y-73951000D01*
X154483000Y-73951000D02*
X154483000Y-69051000D01*
X154483000Y-69051000D02*
X157683000Y-69051000D01*
X157683000Y-69051000D02*
X157683000Y-73951000D01*
X159558000Y-74106000D02*
X158033000Y-74106000D01*
D12*
G04 #@! TO.C,C5*
X162102748Y-100563000D02*
X163525252Y-100563000D01*
X162102748Y-102383000D02*
X163525252Y-102383000D01*
G04 #@! TO.C,RN3*
X160277000Y-78579000D02*
X160277000Y-80679000D01*
X154937000Y-78579000D02*
X154937000Y-80679000D01*
G04 #@! TO.C,IC2*
X144739000Y-70115000D02*
X144739000Y-68315000D01*
X141519000Y-68315000D02*
X141519000Y-70765000D01*
G04 #@! TO.C,R11*
X145888064Y-86635000D02*
X144433936Y-86635000D01*
X145888064Y-84815000D02*
X144433936Y-84815000D01*
G04 #@! TO.C,IC3*
X141676000Y-100328000D02*
X141676000Y-98868000D01*
X144836000Y-100328000D02*
X144836000Y-98168000D01*
X144836000Y-100328000D02*
X143906000Y-100328000D01*
X141676000Y-100328000D02*
X142606000Y-100328000D01*
G04 #@! TO.C,Y1*
X132605000Y-64561000D02*
X132605000Y-63151000D01*
X130285000Y-63151000D02*
X130285000Y-65181000D01*
X130285000Y-63151000D02*
X130945000Y-63151000D01*
X131945000Y-63151000D02*
X132605000Y-63151000D01*
G04 #@! TO.C,C8*
X124456602Y-61735536D02*
X125462464Y-62741398D01*
X125743536Y-60448602D02*
X126749398Y-61454464D01*
G04 #@! TO.C,R10*
X138558000Y-93004621D02*
X138558000Y-92669379D01*
X139318000Y-93004621D02*
X139318000Y-92669379D01*
G04 #@! TO.C,Y2*
X141361233Y-92851421D02*
X142987579Y-94477767D01*
X142987579Y-94477767D02*
X144896767Y-92568579D01*
G04 #@! TO.C,IC1*
X143581000Y-78611000D02*
X144511000Y-78611000D01*
X146741000Y-78611000D02*
X145811000Y-78611000D01*
X146741000Y-78611000D02*
X146741000Y-76451000D01*
X143581000Y-78611000D02*
X143581000Y-77151000D01*
G04 #@! TO.C,R2*
X158350400Y-63280936D02*
X158350400Y-64735064D01*
X156530400Y-63280936D02*
X156530400Y-64735064D01*
G04 #@! TO.C,C10*
X161995200Y-63296748D02*
X161995200Y-64719252D01*
X159275200Y-63296748D02*
X159275200Y-64719252D01*
G04 #@! TO.C,R9*
X155635600Y-63280936D02*
X155635600Y-64735064D01*
X153815600Y-63280936D02*
X153815600Y-64735064D01*
G04 #@! TO.C,J2*
X157921000Y-60800000D02*
X157921000Y-59997530D01*
X157921000Y-59382470D02*
X157921000Y-58580000D01*
X155446000Y-60800000D02*
X157921000Y-60800000D01*
X155446000Y-58580000D02*
X157921000Y-58580000D01*
X155446000Y-60800000D02*
X155446000Y-60253471D01*
X155446000Y-59126529D02*
X155446000Y-58580000D01*
X154686000Y-60800000D02*
X153926000Y-60800000D01*
X153926000Y-60800000D02*
X153926000Y-59690000D01*
G04 #@! TO.C,C14*
X152890800Y-63296748D02*
X152890800Y-64719252D01*
X150170800Y-63296748D02*
X150170800Y-64719252D01*
G04 #@! TO.C,R8*
X149246000Y-64735064D02*
X149246000Y-63280936D01*
X147426000Y-64735064D02*
X147426000Y-63280936D01*
G04 #@! TO.C,R4*
X164740000Y-63280936D02*
X164740000Y-64735064D01*
X162920000Y-63280936D02*
X162920000Y-64735064D01*
G04 #@! TO.C,C16*
X147426000Y-100152252D02*
X147426000Y-98729748D01*
X149246000Y-100152252D02*
X149246000Y-98729748D01*
G04 #@! TO.C,C15*
X140102000Y-98729748D02*
X140102000Y-100152252D01*
X138282000Y-98729748D02*
X138282000Y-100152252D01*
G04 #@! TO.C,C13*
X153135000Y-79372748D02*
X153135000Y-79895252D01*
X151665000Y-79372748D02*
X151665000Y-79895252D01*
G04 #@! TO.C,C12*
X162787000Y-71366748D02*
X162787000Y-71889252D01*
X161317000Y-71366748D02*
X161317000Y-71889252D01*
G04 #@! TO.C,C11*
X163549000Y-79372748D02*
X163549000Y-79895252D01*
X162079000Y-79372748D02*
X162079000Y-79895252D01*
G04 #@! TO.C,C9*
X149379000Y-71762252D02*
X149379000Y-71239748D01*
X150849000Y-71762252D02*
X150849000Y-71239748D01*
G04 #@! TO.C,C6*
X155143252Y-86635000D02*
X153720748Y-86635000D01*
X155143252Y-84815000D02*
X153720748Y-84815000D01*
G04 #@! TO.C,C3*
X114985748Y-76687000D02*
X116408252Y-76687000D01*
X114985748Y-78507000D02*
X116408252Y-78507000D01*
G04 #@! TO.C,C2*
X163525252Y-86635000D02*
X162102748Y-86635000D01*
X163525252Y-84815000D02*
X162102748Y-84815000D01*
G04 #@! TO.C,C4*
X162459000Y-89649000D02*
X162459000Y-97884000D01*
X166979000Y-89649000D02*
X162459000Y-89649000D01*
X166979000Y-97884000D02*
X166979000Y-89649000D01*
G04 #@! TO.C,R1*
X112778355Y-79995421D02*
X113806579Y-81023645D01*
X111491421Y-81282355D02*
X112519645Y-82310579D01*
G04 #@! TO.C,C7*
X119092878Y-86244999D02*
X113269854Y-92068023D01*
X113269854Y-92068023D02*
X116465977Y-95264146D01*
X116465977Y-95264146D02*
X122289001Y-89441122D01*
G04 #@! TO.C,C1*
X111920000Y-69316000D02*
X120155000Y-69316000D01*
X120155000Y-69316000D02*
X120155000Y-64796000D01*
X120155000Y-64796000D02*
X111920000Y-64796000D01*
G04 #@! TO.C,U4*
X160245000Y-94488000D02*
X160245000Y-91438000D01*
X160245000Y-94488000D02*
X160245000Y-97538000D01*
X152175000Y-94488000D02*
X152175000Y-91438000D01*
X152175000Y-94488000D02*
X152175000Y-98938000D01*
G04 #@! TO.C,U2*
X136378000Y-62103000D02*
X136378000Y-64053000D01*
X136378000Y-62103000D02*
X136378000Y-60153000D01*
X141498000Y-62103000D02*
X141498000Y-64053000D01*
X141498000Y-62103000D02*
X141498000Y-58653000D01*
D13*
G04 #@! TO.C,U3*
X133419000Y-94038000D02*
X132994000Y-94038000D01*
X133419000Y-101288000D02*
X132894000Y-101288000D01*
X126169000Y-101288000D02*
X126694000Y-101288000D01*
X126169000Y-94038000D02*
X126694000Y-94038000D01*
X133419000Y-94038000D02*
X133419000Y-94563000D01*
X126169000Y-94038000D02*
X126169000Y-94563000D01*
X126169000Y-101288000D02*
X126169000Y-100763000D01*
X133419000Y-101288000D02*
X133419000Y-100763000D01*
X132994000Y-94038000D02*
X132994000Y-92663000D01*
D12*
G04 #@! TO.C,J1*
X104797001Y-58496201D02*
G75*
G03*
X104797001Y-58496201I-100000J0D01*
G01*
G04 #@! TO.C,U1*
D13*
X119942380Y-85921904D02*
X120751904Y-85921904D01*
X120847142Y-85874285D01*
X120894761Y-85826666D01*
X120942380Y-85731428D01*
X120942380Y-85540952D01*
X120894761Y-85445714D01*
X120847142Y-85398095D01*
X120751904Y-85350476D01*
X119942380Y-85350476D01*
X120942380Y-84350476D02*
X120942380Y-84921904D01*
X120942380Y-84636190D02*
X119942380Y-84636190D01*
X120085238Y-84731428D01*
X120180476Y-84826666D01*
X120228095Y-84921904D01*
G04 #@! TO.C,RN2*
D12*
X109446801Y-86997922D02*
X109286801Y-86769351D01*
X109172515Y-86997922D02*
X109172515Y-86517922D01*
X109355372Y-86517922D01*
X109401087Y-86540780D01*
X109423944Y-86563637D01*
X109446801Y-86609351D01*
X109446801Y-86677922D01*
X109423944Y-86723637D01*
X109401087Y-86746494D01*
X109355372Y-86769351D01*
X109172515Y-86769351D01*
X109652515Y-86997922D02*
X109652515Y-86517922D01*
X109926801Y-86997922D01*
X109926801Y-86517922D01*
X110132515Y-86563637D02*
X110155372Y-86540780D01*
X110201087Y-86517922D01*
X110315372Y-86517922D01*
X110361087Y-86540780D01*
X110383944Y-86563637D01*
X110406801Y-86609351D01*
X110406801Y-86655065D01*
X110383944Y-86723637D01*
X110109658Y-86997922D01*
X110406801Y-86997922D01*
D13*
G04 #@! TO.C,RN1*
D12*
X111417082Y-77927547D02*
X111142321Y-77879060D01*
X111223133Y-78121496D02*
X110883722Y-77782085D01*
X111013021Y-77652786D01*
X111061509Y-77636623D01*
X111093833Y-77636623D01*
X111142321Y-77652786D01*
X111190808Y-77701273D01*
X111206971Y-77749760D01*
X111206971Y-77782085D01*
X111190808Y-77830572D01*
X111061509Y-77959872D01*
X111562544Y-77782085D02*
X111223133Y-77442674D01*
X111756494Y-77588136D01*
X111417082Y-77248725D01*
X112095905Y-77248725D02*
X111901956Y-77442674D01*
X111998930Y-77345699D02*
X111659519Y-77006288D01*
X111675681Y-77087100D01*
X111675681Y-77151750D01*
X111659519Y-77200237D01*
D13*
G04 #@! TO.C,IC4*
D14*
X154843238Y-72075523D02*
X154843238Y-70805523D01*
X156173714Y-71954571D02*
X156113238Y-72015047D01*
X155931809Y-72075523D01*
X155810857Y-72075523D01*
X155629428Y-72015047D01*
X155508476Y-71894095D01*
X155448000Y-71773142D01*
X155387523Y-71531238D01*
X155387523Y-71349809D01*
X155448000Y-71107904D01*
X155508476Y-70986952D01*
X155629428Y-70866000D01*
X155810857Y-70805523D01*
X155931809Y-70805523D01*
X156113238Y-70866000D01*
X156173714Y-70926476D01*
X157262285Y-71228857D02*
X157262285Y-72075523D01*
X156959904Y-70745047D02*
X156657523Y-71652190D01*
X157443714Y-71652190D01*
G04 #@! TO.C,C5*
D13*
X158980142Y-101512666D02*
X159027761Y-101560285D01*
X159075380Y-101703142D01*
X159075380Y-101798380D01*
X159027761Y-101941238D01*
X158932523Y-102036476D01*
X158837285Y-102084095D01*
X158646809Y-102131714D01*
X158503952Y-102131714D01*
X158313476Y-102084095D01*
X158218238Y-102036476D01*
X158123000Y-101941238D01*
X158075380Y-101798380D01*
X158075380Y-101703142D01*
X158123000Y-101560285D01*
X158170619Y-101512666D01*
X158075380Y-100607904D02*
X158075380Y-101084095D01*
X158551571Y-101131714D01*
X158503952Y-101084095D01*
X158456333Y-100988857D01*
X158456333Y-100750761D01*
X158503952Y-100655523D01*
X158551571Y-100607904D01*
X158646809Y-100560285D01*
X158884904Y-100560285D01*
X158980142Y-100607904D01*
X159027761Y-100655523D01*
X159075380Y-100750761D01*
X159075380Y-100988857D01*
X159027761Y-101084095D01*
X158980142Y-101131714D01*
G04 #@! TO.C,RN3*
X156789523Y-76779380D02*
X156456190Y-76303190D01*
X156218095Y-76779380D02*
X156218095Y-75779380D01*
X156599047Y-75779380D01*
X156694285Y-75827000D01*
X156741904Y-75874619D01*
X156789523Y-75969857D01*
X156789523Y-76112714D01*
X156741904Y-76207952D01*
X156694285Y-76255571D01*
X156599047Y-76303190D01*
X156218095Y-76303190D01*
X157218095Y-76779380D02*
X157218095Y-75779380D01*
X157789523Y-76779380D01*
X157789523Y-75779380D01*
X158170476Y-75779380D02*
X158789523Y-75779380D01*
X158456190Y-76160333D01*
X158599047Y-76160333D01*
X158694285Y-76207952D01*
X158741904Y-76255571D01*
X158789523Y-76350809D01*
X158789523Y-76588904D01*
X158741904Y-76684142D01*
X158694285Y-76731761D01*
X158599047Y-76779380D01*
X158313333Y-76779380D01*
X158218095Y-76731761D01*
X158170476Y-76684142D01*
G04 #@! TO.C,IC2*
X140681380Y-70191190D02*
X139681380Y-70191190D01*
X140586142Y-69143571D02*
X140633761Y-69191190D01*
X140681380Y-69334047D01*
X140681380Y-69429285D01*
X140633761Y-69572142D01*
X140538523Y-69667380D01*
X140443285Y-69715000D01*
X140252809Y-69762619D01*
X140109952Y-69762619D01*
X139919476Y-69715000D01*
X139824238Y-69667380D01*
X139729000Y-69572142D01*
X139681380Y-69429285D01*
X139681380Y-69334047D01*
X139729000Y-69191190D01*
X139776619Y-69143571D01*
X139776619Y-68762619D02*
X139729000Y-68715000D01*
X139681380Y-68619761D01*
X139681380Y-68381666D01*
X139729000Y-68286428D01*
X139776619Y-68238809D01*
X139871857Y-68191190D01*
X139967095Y-68191190D01*
X140109952Y-68238809D01*
X140681380Y-68810238D01*
X140681380Y-68191190D01*
G04 #@! TO.C,R11*
X144518142Y-87997380D02*
X144184809Y-87521190D01*
X143946714Y-87997380D02*
X143946714Y-86997380D01*
X144327666Y-86997380D01*
X144422904Y-87045000D01*
X144470523Y-87092619D01*
X144518142Y-87187857D01*
X144518142Y-87330714D01*
X144470523Y-87425952D01*
X144422904Y-87473571D01*
X144327666Y-87521190D01*
X143946714Y-87521190D01*
X145470523Y-87997380D02*
X144899095Y-87997380D01*
X145184809Y-87997380D02*
X145184809Y-86997380D01*
X145089571Y-87140238D01*
X144994333Y-87235476D01*
X144899095Y-87283095D01*
X146422904Y-87997380D02*
X145851476Y-87997380D01*
X146137190Y-87997380D02*
X146137190Y-86997380D01*
X146041952Y-87140238D01*
X145946714Y-87235476D01*
X145851476Y-87283095D01*
G04 #@! TO.C,IC3*
X142279809Y-102433380D02*
X142279809Y-101433380D01*
X143327428Y-102338142D02*
X143279809Y-102385761D01*
X143136952Y-102433380D01*
X143041714Y-102433380D01*
X142898857Y-102385761D01*
X142803619Y-102290523D01*
X142756000Y-102195285D01*
X142708380Y-102004809D01*
X142708380Y-101861952D01*
X142756000Y-101671476D01*
X142803619Y-101576238D01*
X142898857Y-101481000D01*
X143041714Y-101433380D01*
X143136952Y-101433380D01*
X143279809Y-101481000D01*
X143327428Y-101528619D01*
X143660761Y-101433380D02*
X144279809Y-101433380D01*
X143946476Y-101814333D01*
X144089333Y-101814333D01*
X144184571Y-101861952D01*
X144232190Y-101909571D01*
X144279809Y-102004809D01*
X144279809Y-102242904D01*
X144232190Y-102338142D01*
X144184571Y-102385761D01*
X144089333Y-102433380D01*
X143803619Y-102433380D01*
X143708380Y-102385761D01*
X143660761Y-102338142D01*
G04 #@! TO.C,Y1*
X129471190Y-64407190D02*
X129947380Y-64407190D01*
X128947380Y-64740523D02*
X129471190Y-64407190D01*
X128947380Y-64073857D01*
X129947380Y-63216714D02*
X129947380Y-63788142D01*
X129947380Y-63502428D02*
X128947380Y-63502428D01*
X129090238Y-63597666D01*
X129185476Y-63692904D01*
X129233095Y-63788142D01*
G04 #@! TO.C,C8*
X126540758Y-60421539D02*
X126473415Y-60421539D01*
X126338728Y-60354195D01*
X126271384Y-60286852D01*
X126204041Y-60152164D01*
X126204041Y-60017477D01*
X126237712Y-59916462D01*
X126338728Y-59748103D01*
X126439743Y-59647088D01*
X126608102Y-59546073D01*
X126709117Y-59512401D01*
X126843804Y-59512401D01*
X126978491Y-59579745D01*
X127045835Y-59647088D01*
X127113178Y-59781775D01*
X127113178Y-59849119D01*
X127281537Y-60488882D02*
X127247865Y-60387867D01*
X127247865Y-60320523D01*
X127281537Y-60219508D01*
X127315209Y-60185836D01*
X127416224Y-60152164D01*
X127483567Y-60152164D01*
X127584583Y-60185836D01*
X127719270Y-60320523D01*
X127752941Y-60421539D01*
X127752941Y-60488882D01*
X127719270Y-60589897D01*
X127685598Y-60623569D01*
X127584583Y-60657241D01*
X127517239Y-60657241D01*
X127416224Y-60623569D01*
X127281537Y-60488882D01*
X127180522Y-60455210D01*
X127113178Y-60455210D01*
X127012163Y-60488882D01*
X126877476Y-60623569D01*
X126843804Y-60724584D01*
X126843804Y-60791928D01*
X126877476Y-60892943D01*
X127012163Y-61027630D01*
X127113178Y-61061302D01*
X127180522Y-61061302D01*
X127281537Y-61027630D01*
X127416224Y-60892943D01*
X127449896Y-60791928D01*
X127449896Y-60724584D01*
X127416224Y-60623569D01*
G04 #@! TO.C,R10*
X138220380Y-93479857D02*
X137744190Y-93813190D01*
X138220380Y-94051285D02*
X137220380Y-94051285D01*
X137220380Y-93670333D01*
X137268000Y-93575095D01*
X137315619Y-93527476D01*
X137410857Y-93479857D01*
X137553714Y-93479857D01*
X137648952Y-93527476D01*
X137696571Y-93575095D01*
X137744190Y-93670333D01*
X137744190Y-94051285D01*
X138220380Y-92527476D02*
X138220380Y-93098904D01*
X138220380Y-92813190D02*
X137220380Y-92813190D01*
X137363238Y-92908428D01*
X137458476Y-93003666D01*
X137506095Y-93098904D01*
X137220380Y-91908428D02*
X137220380Y-91813190D01*
X137268000Y-91717952D01*
X137315619Y-91670333D01*
X137410857Y-91622714D01*
X137601333Y-91575095D01*
X137839428Y-91575095D01*
X138029904Y-91622714D01*
X138125142Y-91670333D01*
X138172761Y-91717952D01*
X138220380Y-91813190D01*
X138220380Y-91908428D01*
X138172761Y-92003666D01*
X138125142Y-92051285D01*
X138029904Y-92098904D01*
X137839428Y-92146523D01*
X137601333Y-92146523D01*
X137410857Y-92098904D01*
X137315619Y-92051285D01*
X137268000Y-92003666D01*
X137220380Y-91908428D01*
G04 #@! TO.C,C18*
X139896142Y-91320857D02*
X139943761Y-91368476D01*
X139991380Y-91511333D01*
X139991380Y-91606571D01*
X139943761Y-91749428D01*
X139848523Y-91844666D01*
X139753285Y-91892285D01*
X139562809Y-91939904D01*
X139419952Y-91939904D01*
X139229476Y-91892285D01*
X139134238Y-91844666D01*
X139039000Y-91749428D01*
X138991380Y-91606571D01*
X138991380Y-91511333D01*
X139039000Y-91368476D01*
X139086619Y-91320857D01*
X139991380Y-90368476D02*
X139991380Y-90939904D01*
X139991380Y-90654190D02*
X138991380Y-90654190D01*
X139134238Y-90749428D01*
X139229476Y-90844666D01*
X139277095Y-90939904D01*
X139419952Y-89797047D02*
X139372333Y-89892285D01*
X139324714Y-89939904D01*
X139229476Y-89987523D01*
X139181857Y-89987523D01*
X139086619Y-89939904D01*
X139039000Y-89892285D01*
X138991380Y-89797047D01*
X138991380Y-89606571D01*
X139039000Y-89511333D01*
X139086619Y-89463714D01*
X139181857Y-89416095D01*
X139229476Y-89416095D01*
X139324714Y-89463714D01*
X139372333Y-89511333D01*
X139419952Y-89606571D01*
X139419952Y-89797047D01*
X139467571Y-89892285D01*
X139515190Y-89939904D01*
X139610428Y-89987523D01*
X139800904Y-89987523D01*
X139896142Y-89939904D01*
X139943761Y-89892285D01*
X139991380Y-89797047D01*
X139991380Y-89606571D01*
X139943761Y-89511333D01*
X139896142Y-89463714D01*
X139800904Y-89416095D01*
X139610428Y-89416095D01*
X139515190Y-89463714D01*
X139467571Y-89511333D01*
X139419952Y-89606571D01*
G04 #@! TO.C,C17*
X139896142Y-95638857D02*
X139943761Y-95686476D01*
X139991380Y-95829333D01*
X139991380Y-95924571D01*
X139943761Y-96067428D01*
X139848523Y-96162666D01*
X139753285Y-96210285D01*
X139562809Y-96257904D01*
X139419952Y-96257904D01*
X139229476Y-96210285D01*
X139134238Y-96162666D01*
X139039000Y-96067428D01*
X138991380Y-95924571D01*
X138991380Y-95829333D01*
X139039000Y-95686476D01*
X139086619Y-95638857D01*
X139991380Y-94686476D02*
X139991380Y-95257904D01*
X139991380Y-94972190D02*
X138991380Y-94972190D01*
X139134238Y-95067428D01*
X139229476Y-95162666D01*
X139277095Y-95257904D01*
X138991380Y-94353142D02*
X138991380Y-93686476D01*
X139991380Y-94115047D01*
G04 #@! TO.C,Y2*
X141361232Y-91615667D02*
X141697950Y-91952385D01*
X140755141Y-91480980D02*
X141361232Y-91615667D01*
X141226545Y-91009576D01*
X141495919Y-90874889D02*
X141495919Y-90807545D01*
X141529591Y-90706530D01*
X141697950Y-90538171D01*
X141798965Y-90504499D01*
X141866308Y-90504499D01*
X141967324Y-90538171D01*
X142034667Y-90605515D01*
X142102011Y-90740202D01*
X142102011Y-91548324D01*
X142539743Y-91110591D01*
G04 #@! TO.C,IC1*
X148113380Y-78827190D02*
X147113380Y-78827190D01*
X148018142Y-77779571D02*
X148065761Y-77827190D01*
X148113380Y-77970047D01*
X148113380Y-78065285D01*
X148065761Y-78208142D01*
X147970523Y-78303380D01*
X147875285Y-78351000D01*
X147684809Y-78398619D01*
X147541952Y-78398619D01*
X147351476Y-78351000D01*
X147256238Y-78303380D01*
X147161000Y-78208142D01*
X147113380Y-78065285D01*
X147113380Y-77970047D01*
X147161000Y-77827190D01*
X147208619Y-77779571D01*
X148113380Y-76827190D02*
X148113380Y-77398619D01*
X148113380Y-77112904D02*
X147113380Y-77112904D01*
X147256238Y-77208142D01*
X147351476Y-77303380D01*
X147399095Y-77398619D01*
G04 #@! TO.C,R2*
X157186333Y-66746380D02*
X156853000Y-66270190D01*
X156614904Y-66746380D02*
X156614904Y-65746380D01*
X156995857Y-65746380D01*
X157091095Y-65794000D01*
X157138714Y-65841619D01*
X157186333Y-65936857D01*
X157186333Y-66079714D01*
X157138714Y-66174952D01*
X157091095Y-66222571D01*
X156995857Y-66270190D01*
X156614904Y-66270190D01*
X157567285Y-65841619D02*
X157614904Y-65794000D01*
X157710142Y-65746380D01*
X157948238Y-65746380D01*
X158043476Y-65794000D01*
X158091095Y-65841619D01*
X158138714Y-65936857D01*
X158138714Y-66032095D01*
X158091095Y-66174952D01*
X157519666Y-66746380D01*
X158138714Y-66746380D01*
G04 #@! TO.C,C10*
X160012142Y-67540142D02*
X159964523Y-67587761D01*
X159821666Y-67635380D01*
X159726428Y-67635380D01*
X159583571Y-67587761D01*
X159488333Y-67492523D01*
X159440714Y-67397285D01*
X159393095Y-67206809D01*
X159393095Y-67063952D01*
X159440714Y-66873476D01*
X159488333Y-66778238D01*
X159583571Y-66683000D01*
X159726428Y-66635380D01*
X159821666Y-66635380D01*
X159964523Y-66683000D01*
X160012142Y-66730619D01*
X160964523Y-67635380D02*
X160393095Y-67635380D01*
X160678809Y-67635380D02*
X160678809Y-66635380D01*
X160583571Y-66778238D01*
X160488333Y-66873476D01*
X160393095Y-66921095D01*
X161583571Y-66635380D02*
X161678809Y-66635380D01*
X161774047Y-66683000D01*
X161821666Y-66730619D01*
X161869285Y-66825857D01*
X161916904Y-67016333D01*
X161916904Y-67254428D01*
X161869285Y-67444904D01*
X161821666Y-67540142D01*
X161774047Y-67587761D01*
X161678809Y-67635380D01*
X161583571Y-67635380D01*
X161488333Y-67587761D01*
X161440714Y-67540142D01*
X161393095Y-67444904D01*
X161345476Y-67254428D01*
X161345476Y-67016333D01*
X161393095Y-66825857D01*
X161440714Y-66730619D01*
X161488333Y-66683000D01*
X161583571Y-66635380D01*
G04 #@! TO.C,R9*
X154519333Y-66746380D02*
X154186000Y-66270190D01*
X153947904Y-66746380D02*
X153947904Y-65746380D01*
X154328857Y-65746380D01*
X154424095Y-65794000D01*
X154471714Y-65841619D01*
X154519333Y-65936857D01*
X154519333Y-66079714D01*
X154471714Y-66174952D01*
X154424095Y-66222571D01*
X154328857Y-66270190D01*
X153947904Y-66270190D01*
X154995523Y-66746380D02*
X155186000Y-66746380D01*
X155281238Y-66698761D01*
X155328857Y-66651142D01*
X155424095Y-66508285D01*
X155471714Y-66317809D01*
X155471714Y-65936857D01*
X155424095Y-65841619D01*
X155376476Y-65794000D01*
X155281238Y-65746380D01*
X155090761Y-65746380D01*
X154995523Y-65794000D01*
X154947904Y-65841619D01*
X154900285Y-65936857D01*
X154900285Y-66174952D01*
X154947904Y-66270190D01*
X154995523Y-66317809D01*
X155090761Y-66365428D01*
X155281238Y-66365428D01*
X155376476Y-66317809D01*
X155424095Y-66270190D01*
X155471714Y-66174952D01*
G04 #@! TO.C,C14*
X150868142Y-67667142D02*
X150820523Y-67714761D01*
X150677666Y-67762380D01*
X150582428Y-67762380D01*
X150439571Y-67714761D01*
X150344333Y-67619523D01*
X150296714Y-67524285D01*
X150249095Y-67333809D01*
X150249095Y-67190952D01*
X150296714Y-67000476D01*
X150344333Y-66905238D01*
X150439571Y-66810000D01*
X150582428Y-66762380D01*
X150677666Y-66762380D01*
X150820523Y-66810000D01*
X150868142Y-66857619D01*
X151820523Y-67762380D02*
X151249095Y-67762380D01*
X151534809Y-67762380D02*
X151534809Y-66762380D01*
X151439571Y-66905238D01*
X151344333Y-67000476D01*
X151249095Y-67048095D01*
X152677666Y-67095714D02*
X152677666Y-67762380D01*
X152439571Y-66714761D02*
X152201476Y-67429047D01*
X152820523Y-67429047D01*
G04 #@! TO.C,R8*
X146968380Y-64174666D02*
X146492190Y-64508000D01*
X146968380Y-64746095D02*
X145968380Y-64746095D01*
X145968380Y-64365142D01*
X146016000Y-64269904D01*
X146063619Y-64222285D01*
X146158857Y-64174666D01*
X146301714Y-64174666D01*
X146396952Y-64222285D01*
X146444571Y-64269904D01*
X146492190Y-64365142D01*
X146492190Y-64746095D01*
X146396952Y-63603238D02*
X146349333Y-63698476D01*
X146301714Y-63746095D01*
X146206476Y-63793714D01*
X146158857Y-63793714D01*
X146063619Y-63746095D01*
X146016000Y-63698476D01*
X145968380Y-63603238D01*
X145968380Y-63412761D01*
X146016000Y-63317523D01*
X146063619Y-63269904D01*
X146158857Y-63222285D01*
X146206476Y-63222285D01*
X146301714Y-63269904D01*
X146349333Y-63317523D01*
X146396952Y-63412761D01*
X146396952Y-63603238D01*
X146444571Y-63698476D01*
X146492190Y-63746095D01*
X146587428Y-63793714D01*
X146777904Y-63793714D01*
X146873142Y-63746095D01*
X146920761Y-63698476D01*
X146968380Y-63603238D01*
X146968380Y-63412761D01*
X146920761Y-63317523D01*
X146873142Y-63269904D01*
X146777904Y-63222285D01*
X146587428Y-63222285D01*
X146492190Y-63269904D01*
X146444571Y-63317523D01*
X146396952Y-63412761D01*
G04 #@! TO.C,R4*
X166102380Y-64174666D02*
X165626190Y-64508000D01*
X166102380Y-64746095D02*
X165102380Y-64746095D01*
X165102380Y-64365142D01*
X165150000Y-64269904D01*
X165197619Y-64222285D01*
X165292857Y-64174666D01*
X165435714Y-64174666D01*
X165530952Y-64222285D01*
X165578571Y-64269904D01*
X165626190Y-64365142D01*
X165626190Y-64746095D01*
X165435714Y-63317523D02*
X166102380Y-63317523D01*
X165054761Y-63555619D02*
X165769047Y-63793714D01*
X165769047Y-63174666D01*
G04 #@! TO.C,C16*
X150471142Y-100083857D02*
X150518761Y-100131476D01*
X150566380Y-100274333D01*
X150566380Y-100369571D01*
X150518761Y-100512428D01*
X150423523Y-100607666D01*
X150328285Y-100655285D01*
X150137809Y-100702904D01*
X149994952Y-100702904D01*
X149804476Y-100655285D01*
X149709238Y-100607666D01*
X149614000Y-100512428D01*
X149566380Y-100369571D01*
X149566380Y-100274333D01*
X149614000Y-100131476D01*
X149661619Y-100083857D01*
X150566380Y-99131476D02*
X150566380Y-99702904D01*
X150566380Y-99417190D02*
X149566380Y-99417190D01*
X149709238Y-99512428D01*
X149804476Y-99607666D01*
X149852095Y-99702904D01*
X149566380Y-98274333D02*
X149566380Y-98464809D01*
X149614000Y-98560047D01*
X149661619Y-98607666D01*
X149804476Y-98702904D01*
X149994952Y-98750523D01*
X150375904Y-98750523D01*
X150471142Y-98702904D01*
X150518761Y-98655285D01*
X150566380Y-98560047D01*
X150566380Y-98369571D01*
X150518761Y-98274333D01*
X150471142Y-98226714D01*
X150375904Y-98179095D01*
X150137809Y-98179095D01*
X150042571Y-98226714D01*
X149994952Y-98274333D01*
X149947333Y-98369571D01*
X149947333Y-98560047D01*
X149994952Y-98655285D01*
X150042571Y-98702904D01*
X150137809Y-98750523D01*
G04 #@! TO.C,C15*
X141399142Y-100083857D02*
X141446761Y-100131476D01*
X141494380Y-100274333D01*
X141494380Y-100369571D01*
X141446761Y-100512428D01*
X141351523Y-100607666D01*
X141256285Y-100655285D01*
X141065809Y-100702904D01*
X140922952Y-100702904D01*
X140732476Y-100655285D01*
X140637238Y-100607666D01*
X140542000Y-100512428D01*
X140494380Y-100369571D01*
X140494380Y-100274333D01*
X140542000Y-100131476D01*
X140589619Y-100083857D01*
X141494380Y-99131476D02*
X141494380Y-99702904D01*
X141494380Y-99417190D02*
X140494380Y-99417190D01*
X140637238Y-99512428D01*
X140732476Y-99607666D01*
X140780095Y-99702904D01*
X140494380Y-98226714D02*
X140494380Y-98702904D01*
X140970571Y-98750523D01*
X140922952Y-98702904D01*
X140875333Y-98607666D01*
X140875333Y-98369571D01*
X140922952Y-98274333D01*
X140970571Y-98226714D01*
X141065809Y-98179095D01*
X141303904Y-98179095D01*
X141399142Y-98226714D01*
X141446761Y-98274333D01*
X141494380Y-98369571D01*
X141494380Y-98607666D01*
X141446761Y-98702904D01*
X141399142Y-98750523D01*
G04 #@! TO.C,C13*
X151106142Y-80271857D02*
X151153761Y-80319476D01*
X151201380Y-80462333D01*
X151201380Y-80557571D01*
X151153761Y-80700428D01*
X151058523Y-80795666D01*
X150963285Y-80843285D01*
X150772809Y-80890904D01*
X150629952Y-80890904D01*
X150439476Y-80843285D01*
X150344238Y-80795666D01*
X150249000Y-80700428D01*
X150201380Y-80557571D01*
X150201380Y-80462333D01*
X150249000Y-80319476D01*
X150296619Y-80271857D01*
X151201380Y-79319476D02*
X151201380Y-79890904D01*
X151201380Y-79605190D02*
X150201380Y-79605190D01*
X150344238Y-79700428D01*
X150439476Y-79795666D01*
X150487095Y-79890904D01*
X150201380Y-78986142D02*
X150201380Y-78367095D01*
X150582333Y-78700428D01*
X150582333Y-78557571D01*
X150629952Y-78462333D01*
X150677571Y-78414714D01*
X150772809Y-78367095D01*
X151010904Y-78367095D01*
X151106142Y-78414714D01*
X151153761Y-78462333D01*
X151201380Y-78557571D01*
X151201380Y-78843285D01*
X151153761Y-78938523D01*
X151106142Y-78986142D01*
G04 #@! TO.C,C12*
X164089142Y-72270857D02*
X164136761Y-72318476D01*
X164184380Y-72461333D01*
X164184380Y-72556571D01*
X164136761Y-72699428D01*
X164041523Y-72794666D01*
X163946285Y-72842285D01*
X163755809Y-72889904D01*
X163612952Y-72889904D01*
X163422476Y-72842285D01*
X163327238Y-72794666D01*
X163232000Y-72699428D01*
X163184380Y-72556571D01*
X163184380Y-72461333D01*
X163232000Y-72318476D01*
X163279619Y-72270857D01*
X164184380Y-71318476D02*
X164184380Y-71889904D01*
X164184380Y-71604190D02*
X163184380Y-71604190D01*
X163327238Y-71699428D01*
X163422476Y-71794666D01*
X163470095Y-71889904D01*
X163279619Y-70937523D02*
X163232000Y-70889904D01*
X163184380Y-70794666D01*
X163184380Y-70556571D01*
X163232000Y-70461333D01*
X163279619Y-70413714D01*
X163374857Y-70366095D01*
X163470095Y-70366095D01*
X163612952Y-70413714D01*
X164184380Y-70985142D01*
X164184380Y-70366095D01*
G04 #@! TO.C,C11*
X164851142Y-80276857D02*
X164898761Y-80324476D01*
X164946380Y-80467333D01*
X164946380Y-80562571D01*
X164898761Y-80705428D01*
X164803523Y-80800666D01*
X164708285Y-80848285D01*
X164517809Y-80895904D01*
X164374952Y-80895904D01*
X164184476Y-80848285D01*
X164089238Y-80800666D01*
X163994000Y-80705428D01*
X163946380Y-80562571D01*
X163946380Y-80467333D01*
X163994000Y-80324476D01*
X164041619Y-80276857D01*
X164946380Y-79324476D02*
X164946380Y-79895904D01*
X164946380Y-79610190D02*
X163946380Y-79610190D01*
X164089238Y-79705428D01*
X164184476Y-79800666D01*
X164232095Y-79895904D01*
X164946380Y-78372095D02*
X164946380Y-78943523D01*
X164946380Y-78657809D02*
X163946380Y-78657809D01*
X164089238Y-78753047D01*
X164184476Y-78848285D01*
X164232095Y-78943523D01*
G04 #@! TO.C,C9*
X148791142Y-71667666D02*
X148838761Y-71715285D01*
X148886380Y-71858142D01*
X148886380Y-71953380D01*
X148838761Y-72096238D01*
X148743523Y-72191476D01*
X148648285Y-72239095D01*
X148457809Y-72286714D01*
X148314952Y-72286714D01*
X148124476Y-72239095D01*
X148029238Y-72191476D01*
X147934000Y-72096238D01*
X147886380Y-71953380D01*
X147886380Y-71858142D01*
X147934000Y-71715285D01*
X147981619Y-71667666D01*
X148886380Y-71191476D02*
X148886380Y-71001000D01*
X148838761Y-70905761D01*
X148791142Y-70858142D01*
X148648285Y-70762904D01*
X148457809Y-70715285D01*
X148076857Y-70715285D01*
X147981619Y-70762904D01*
X147934000Y-70810523D01*
X147886380Y-70905761D01*
X147886380Y-71096238D01*
X147934000Y-71191476D01*
X147981619Y-71239095D01*
X148076857Y-71286714D01*
X148314952Y-71286714D01*
X148410190Y-71239095D01*
X148457809Y-71191476D01*
X148505428Y-71096238D01*
X148505428Y-70905761D01*
X148457809Y-70810523D01*
X148410190Y-70762904D01*
X148314952Y-70715285D01*
G04 #@! TO.C,C6*
X154265333Y-87932142D02*
X154217714Y-87979761D01*
X154074857Y-88027380D01*
X153979619Y-88027380D01*
X153836761Y-87979761D01*
X153741523Y-87884523D01*
X153693904Y-87789285D01*
X153646285Y-87598809D01*
X153646285Y-87455952D01*
X153693904Y-87265476D01*
X153741523Y-87170238D01*
X153836761Y-87075000D01*
X153979619Y-87027380D01*
X154074857Y-87027380D01*
X154217714Y-87075000D01*
X154265333Y-87122619D01*
X155122476Y-87027380D02*
X154932000Y-87027380D01*
X154836761Y-87075000D01*
X154789142Y-87122619D01*
X154693904Y-87265476D01*
X154646285Y-87455952D01*
X154646285Y-87836904D01*
X154693904Y-87932142D01*
X154741523Y-87979761D01*
X154836761Y-88027380D01*
X155027238Y-88027380D01*
X155122476Y-87979761D01*
X155170095Y-87932142D01*
X155217714Y-87836904D01*
X155217714Y-87598809D01*
X155170095Y-87503571D01*
X155122476Y-87455952D01*
X155027238Y-87408333D01*
X154836761Y-87408333D01*
X154741523Y-87455952D01*
X154693904Y-87503571D01*
X154646285Y-87598809D01*
G04 #@! TO.C,C3*
X115530333Y-76104142D02*
X115482714Y-76151761D01*
X115339857Y-76199380D01*
X115244619Y-76199380D01*
X115101761Y-76151761D01*
X115006523Y-76056523D01*
X114958904Y-75961285D01*
X114911285Y-75770809D01*
X114911285Y-75627952D01*
X114958904Y-75437476D01*
X115006523Y-75342238D01*
X115101761Y-75247000D01*
X115244619Y-75199380D01*
X115339857Y-75199380D01*
X115482714Y-75247000D01*
X115530333Y-75294619D01*
X115863666Y-75199380D02*
X116482714Y-75199380D01*
X116149380Y-75580333D01*
X116292238Y-75580333D01*
X116387476Y-75627952D01*
X116435095Y-75675571D01*
X116482714Y-75770809D01*
X116482714Y-76008904D01*
X116435095Y-76104142D01*
X116387476Y-76151761D01*
X116292238Y-76199380D01*
X116006523Y-76199380D01*
X115911285Y-76151761D01*
X115863666Y-76104142D01*
G04 #@! TO.C,C2*
X162647333Y-87932142D02*
X162599714Y-87979761D01*
X162456857Y-88027380D01*
X162361619Y-88027380D01*
X162218761Y-87979761D01*
X162123523Y-87884523D01*
X162075904Y-87789285D01*
X162028285Y-87598809D01*
X162028285Y-87455952D01*
X162075904Y-87265476D01*
X162123523Y-87170238D01*
X162218761Y-87075000D01*
X162361619Y-87027380D01*
X162456857Y-87027380D01*
X162599714Y-87075000D01*
X162647333Y-87122619D01*
X163028285Y-87122619D02*
X163075904Y-87075000D01*
X163171142Y-87027380D01*
X163409238Y-87027380D01*
X163504476Y-87075000D01*
X163552095Y-87122619D01*
X163599714Y-87217857D01*
X163599714Y-87313095D01*
X163552095Y-87455952D01*
X162980666Y-88027380D01*
X163599714Y-88027380D01*
G04 #@! TO.C,C4*
X164552333Y-99290142D02*
X164504714Y-99337761D01*
X164361857Y-99385380D01*
X164266619Y-99385380D01*
X164123761Y-99337761D01*
X164028523Y-99242523D01*
X163980904Y-99147285D01*
X163933285Y-98956809D01*
X163933285Y-98813952D01*
X163980904Y-98623476D01*
X164028523Y-98528238D01*
X164123761Y-98433000D01*
X164266619Y-98385380D01*
X164361857Y-98385380D01*
X164504714Y-98433000D01*
X164552333Y-98480619D01*
X165409476Y-98718714D02*
X165409476Y-99385380D01*
X165171380Y-98337761D02*
X164933285Y-99052047D01*
X165552333Y-99052047D01*
G04 #@! TO.C,R1*
X113498201Y-80068096D02*
X113599216Y-79495676D01*
X113094140Y-79664035D02*
X113801246Y-78956928D01*
X114070621Y-79226302D01*
X114104292Y-79327317D01*
X114104292Y-79394661D01*
X114070621Y-79495676D01*
X113969605Y-79596691D01*
X113868590Y-79630363D01*
X113801246Y-79630363D01*
X113700231Y-79596691D01*
X113430857Y-79327317D01*
X114171636Y-80741531D02*
X113767575Y-80337470D01*
X113969605Y-80539501D02*
X114676712Y-79832394D01*
X114508353Y-79866066D01*
X114373666Y-79866066D01*
X114272651Y-79832394D01*
G04 #@! TO.C,C7*
X116052656Y-88602358D02*
X116052656Y-88669701D01*
X115985312Y-88804388D01*
X115917969Y-88871732D01*
X115783281Y-88939075D01*
X115648594Y-88939075D01*
X115547579Y-88905404D01*
X115379220Y-88804388D01*
X115278205Y-88703373D01*
X115177190Y-88535014D01*
X115143518Y-88433999D01*
X115143518Y-88299312D01*
X115210862Y-88164625D01*
X115278205Y-88097281D01*
X115412892Y-88029938D01*
X115480236Y-88029938D01*
X115648594Y-87726892D02*
X116119999Y-87255488D01*
X116524060Y-88265640D01*
G04 #@! TO.C,C1*
X115403333Y-70513142D02*
X115355714Y-70560761D01*
X115212857Y-70608380D01*
X115117619Y-70608380D01*
X114974761Y-70560761D01*
X114879523Y-70465523D01*
X114831904Y-70370285D01*
X114784285Y-70179809D01*
X114784285Y-70036952D01*
X114831904Y-69846476D01*
X114879523Y-69751238D01*
X114974761Y-69656000D01*
X115117619Y-69608380D01*
X115212857Y-69608380D01*
X115355714Y-69656000D01*
X115403333Y-69703619D01*
X116355714Y-70608380D02*
X115784285Y-70608380D01*
X116070000Y-70608380D02*
X116070000Y-69608380D01*
X115974761Y-69751238D01*
X115879523Y-69846476D01*
X115784285Y-69894095D01*
G04 #@! TO.C,U4*
X150812380Y-95249904D02*
X151621904Y-95249904D01*
X151717142Y-95202285D01*
X151764761Y-95154666D01*
X151812380Y-95059428D01*
X151812380Y-94868952D01*
X151764761Y-94773714D01*
X151717142Y-94726095D01*
X151621904Y-94678476D01*
X150812380Y-94678476D01*
X151145714Y-93773714D02*
X151812380Y-93773714D01*
X150764761Y-94011809D02*
X151479047Y-94249904D01*
X151479047Y-93630857D01*
G04 #@! TO.C,U2*
X141790380Y-62864904D02*
X142599904Y-62864904D01*
X142695142Y-62817285D01*
X142742761Y-62769666D01*
X142790380Y-62674428D01*
X142790380Y-62483952D01*
X142742761Y-62388714D01*
X142695142Y-62341095D01*
X142599904Y-62293476D01*
X141790380Y-62293476D01*
X141885619Y-61864904D02*
X141838000Y-61817285D01*
X141790380Y-61722047D01*
X141790380Y-61483952D01*
X141838000Y-61388714D01*
X141885619Y-61341095D01*
X141980857Y-61293476D01*
X142076095Y-61293476D01*
X142218952Y-61341095D01*
X142790380Y-61912523D01*
X142790380Y-61293476D01*
G04 #@! TO.C,U3*
X135246380Y-98424904D02*
X136055904Y-98424904D01*
X136151142Y-98377285D01*
X136198761Y-98329666D01*
X136246380Y-98234428D01*
X136246380Y-98043952D01*
X136198761Y-97948714D01*
X136151142Y-97901095D01*
X136055904Y-97853476D01*
X135246380Y-97853476D01*
X135246380Y-97472523D02*
X135246380Y-96853476D01*
X135627333Y-97186809D01*
X135627333Y-97043952D01*
X135674952Y-96948714D01*
X135722571Y-96901095D01*
X135817809Y-96853476D01*
X136055904Y-96853476D01*
X136151142Y-96901095D01*
X136198761Y-96948714D01*
X136246380Y-97043952D01*
X136246380Y-97329666D01*
X136198761Y-97424904D01*
X136151142Y-97472523D01*
G04 #@! TD*
M02*
